<svg id="Grupo_8612" data-name="Grupo 8612" xmlns="http://www.w3.org/2000/svg" xmlns:xlink="http://www.w3.org/1999/xlink" width="400.517" height="360.155" viewBox="0 0 400.517 360.155">
  <defs>
    <clipPath id="clip-path">
      <rect id="Rectángulo_5413" data-name="Rectángulo 5413" width="400.517" height="360.155" fill="none"/>
    </clipPath>
  </defs>
  <g id="Grupo_8611" data-name="Grupo 8611" clip-path="url(#clip-path)">
    <path id="Trazado_6198" data-name="Trazado 6198" d="M101.973,54.349V189.4a5.046,5.046,0,0,1-5.045,5.047,5.046,5.046,0,0,0-3.512,8.669l41.321,40.04a5.046,5.046,0,0,0,7.022,0l41.323-40.04a5.046,5.046,0,0,0-3.512-8.669H178.7a5.047,5.047,0,0,1-5.047-5.047V54.349A5.046,5.046,0,0,0,168.61,49.3H107.018a5.046,5.046,0,0,0-5.045,5.047" transform="translate(51.714 27.752)" fill="#76c6ff"/>
    <path id="Trazado_6199" data-name="Trazado 6199" d="M17.5,49.3V194.446H0l53.779,52.111,53.779-52.111H89.185V49.3Z" transform="translate(0 27.752)" fill="#76c6ff"/>
    <path id="Trazado_6200" data-name="Trazado 6200" d="M119.7,13.159v4.625H256.24V55.626h4.631V13.159Z" transform="translate(67.377 7.407)"/>
    <path id="Trazado_6201" data-name="Trazado 6201" d="M173.871,13.159v4.625H37.329V55.626H32.7V13.159Z" transform="translate(18.406 7.407)"/>
    <path id="Trazado_6202" data-name="Trazado 6202" d="M60.216,87V83.417H33.342v-21.5h-1.8v62.955a1.427,1.427,0,0,0,1.249,1.552H60.216v-3.581H33.342V87Z" transform="translate(17.754 34.852)"/>
    <path id="Trazado_6203" data-name="Trazado 6203" d="M67.312,68.632a5.549,5.549,0,0,1-5.544,5.548h-37.3a5.545,5.545,0,0,1-5.54-5.548V45.676a5.541,5.541,0,0,1,5.54-5.545h37.3a5.546,5.546,0,0,1,5.544,5.545Z" transform="translate(10.657 22.589)" fill="#2c6882"/>
    <path id="Rectángulo_5395" data-name="Rectángulo 5395" d="M3.547,0H44.834a3.548,3.548,0,0,1,3.548,3.548V30.5a3.55,3.55,0,0,1-3.55,3.55H3.55A3.55,3.55,0,0,1,0,30.5V3.547A3.547,3.547,0,0,1,3.547,0Z" transform="translate(77.969 100.347)" fill="#2c6882"/>
    <path id="Rectángulo_5396" data-name="Rectángulo 5396" d="M3.545,0H44.834a3.548,3.548,0,0,1,3.548,3.548V30.5a3.546,3.546,0,0,1-3.546,3.546H3.549A3.549,3.549,0,0,1,0,30.494V3.545A3.545,3.545,0,0,1,3.545,0Z" transform="translate(77.969 141.563)" fill="#4aacc2"/>
    <path id="Trazado_6204" data-name="Trazado 6204" d="M68.093,178.294H64.511V167.542h-21.5v-3.584H65.7c.766,0,2.393,1.4,2.393,2.166Z" transform="translate(24.208 92.29)"/>
    <path id="Trazado_6205" data-name="Trazado 6205" d="M9.757,178.294h3.587V167.542h21.5v-3.584H12.154c-.766,0-2.4,1.4-2.4,2.166Z" transform="translate(5.492 92.29)"/>
    <rect id="Rectángulo_5397" data-name="Rectángulo 5397" width="3.584" height="10.748" transform="translate(52.88 236.535)"/>
    <rect id="Rectángulo_5398" data-name="Rectángulo 5398" width="3.584" height="8.962" transform="translate(52.88 207.866)"/>
    <path id="Trazado_6206" data-name="Trazado 6206" d="M52.691,137.3c0,1.73-.611,2.8-2.441,2.8H29.5c-1.827,0-3.7-1.072-3.7-2.8V123.657c0-1.727,1.869-3.268,3.7-3.268H50.25c1.83,0,2.441,1.541,2.441,3.268Z" transform="translate(14.527 67.766)" fill="#4aacc2"/>
    <path id="Trazado_6207" data-name="Trazado 6207" d="M52.691,155.583c0,1.732-.611,2.857-2.441,2.857H29.5c-1.827,0-3.7-1.125-3.7-2.857V141.934c0-1.722,1.869-3.2,3.7-3.2H50.25c1.83,0,2.441,1.477,2.441,3.2Z" transform="translate(14.527 78.092)" fill="#2c6882"/>
    <path id="Trazado_6208" data-name="Trazado 6208" d="M52.691,175.712c0,1.729-.611,4.017-2.441,4.017H29.5c-1.827,0-3.7-2.288-3.7-4.017V162.069a4.242,4.242,0,0,1,3.7-3.846H50.25c1.83,0,2.441,2.116,2.441,3.846Z" transform="translate(14.527 89.062)" fill="#2c6882"/>
    <path id="Trazado_6209" data-name="Trazado 6209" d="M77.412,189.712c0,1.729-2.165,3.126-4,3.126H52.674c-1.827,0-3.935-1.4-3.935-3.126V176.069c0-1.729,2.108-2.938,3.935-2.938H73.415c1.832,0,4,1.21,4,2.938Z" transform="translate(27.435 97.454)" fill="#4aacc2"/>
    <path id="Trazado_6210" data-name="Trazado 6210" d="M30.9,189.712a3.142,3.142,0,0,1-3.221,3.126H6.943a2.892,2.892,0,0,1-2.918-3.126V176.069a2.742,2.742,0,0,1,2.918-2.938H27.681a2.994,2.994,0,0,1,3.221,2.938Z" transform="translate(2.266 97.454)" fill="#4aacc2"/>
    <rect id="Rectángulo_5399" data-name="Rectángulo 5399" width="4.256" height="39.424" transform="translate(187.834 23.296)"/>
    <path id="Rectángulo_5400" data-name="Rectángulo 5400" d="M4.521,0H120.909a4.524,4.524,0,0,1,4.524,4.524V40.275a4.524,4.524,0,0,1-4.524,4.524H4.522A4.522,4.522,0,0,1,0,40.277V4.521A4.521,4.521,0,0,1,4.521,0Z" transform="translate(126.351 -0.001)" fill="#2c6882"/>
    <path id="Trazado_6211" data-name="Trazado 6211" d="M147.349,87V83.417H120.472v-21.5h-1.79v62.955c0,.769.116,1.552.886,1.552h27.78v-3.581H120.472V87Z" transform="translate(66.805 34.852)"/>
    <path id="Rectángulo_5401" data-name="Rectángulo 5401" d="M3.55,0H44.833a3.548,3.548,0,0,1,3.548,3.548V30.5a3.548,3.548,0,0,1-3.548,3.548H3.548A3.548,3.548,0,0,1,0,30.5V3.55A3.55,3.55,0,0,1,3.55,0Z" transform="translate(165.773 62.72)" fill="#4aacc2"/>
    <path id="Trazado_6212" data-name="Trazado 6212" d="M185.406,92.712a5.542,5.542,0,0,1-5.54,5.544h-37.3a5.543,5.543,0,0,1-5.544-5.544V69.754a5.548,5.548,0,0,1,5.544-5.548h37.3a5.547,5.547,0,0,1,5.54,5.548Z" transform="translate(77.129 36.141)" fill="#2c6882"/>
    <path id="Rectángulo_5402" data-name="Rectángulo 5402" d="M3.545,0h41.29a3.547,3.547,0,0,1,3.547,3.547V30.5a3.546,3.546,0,0,1-3.546,3.546H3.545A3.545,3.545,0,0,1,0,30.5V3.545A3.545,3.545,0,0,1,3.545,0Z" transform="translate(214.154 141.563)" fill="#4aacc2"/>
    <path id="Trazado_6213" data-name="Trazado 6213" d="M101.627,178.294H98.042v-12.17a3.015,3.015,0,0,1,2.1-2.166h21.191v3.584H101.627Z" transform="translate(55.187 92.29)"/>
    <path id="Trazado_6214" data-name="Trazado 6214" d="M149.858,178.294h3.585v-12.17a3.019,3.019,0,0,0-2.105-2.166h-21.19v3.584h19.71Z" transform="translate(73.259 92.29)"/>
    <rect id="Rectángulo_5403" data-name="Rectángulo 5403" width="1.791" height="10.751" transform="translate(189.069 236.532)"/>
    <rect id="Rectángulo_5404" data-name="Rectángulo 5404" width="1.791" height="8.962" transform="translate(189.069 207.866)"/>
    <path id="Trazado_6215" data-name="Trazado 6215" d="M139.829,137.3a2.738,2.738,0,0,1-3.04,2.8H116.05a2.79,2.79,0,0,1-3.1-2.8V123.657a3.162,3.162,0,0,1,3.1-3.268h20.74a3.112,3.112,0,0,1,3.04,3.268Z" transform="translate(63.576 67.766)" fill="#2c6882"/>
    <path id="Trazado_6216" data-name="Trazado 6216" d="M139.829,155.583a2.778,2.778,0,0,1-3.04,2.857H116.05a2.829,2.829,0,0,1-3.1-2.857V141.934a3.106,3.106,0,0,1,3.1-3.2h20.74a3.055,3.055,0,0,1,3.04,3.2Z" transform="translate(63.576 78.092)" fill="#4aacc2"/>
    <path id="Trazado_6217" data-name="Trazado 6217" d="M139.829,175.712c0,1.729-1.211,4.017-3.04,4.017H116.05c-1.832,0-3.1-2.288-3.1-4.017V162.069c0-1.73,1.272-3.846,3.1-3.846h20.74c1.829,0,3.04,2.116,3.04,3.846Z" transform="translate(63.576 89.062)" fill="#2c6882"/>
    <path id="Trazado_6218" data-name="Trazado 6218" d="M162.756,189.712c0,1.729-.972,3.126-2.8,3.126H139.214a3.244,3.244,0,0,1-3.338-3.126V176.069a3.1,3.1,0,0,1,3.338-2.938h20.738a2.655,2.655,0,0,1,2.8,2.938Z" transform="translate(76.483 97.454)" fill="#4aacc2"/>
    <path id="Trazado_6219" data-name="Trazado 6219" d="M118.689,189.712c0,1.729-1.991,3.126-3.827,3.126H94.125c-1.832,0-4.109-1.4-4.109-3.126V176.069c0-1.729,2.277-2.938,4.109-2.938h20.736c1.836,0,3.827,1.21,3.827,2.938Z" transform="translate(50.669 97.454)" fill="#2c6882"/>
    <path id="Trazado_6220" data-name="Trazado 6220" d="M189.961,54.349V189.4a5.046,5.046,0,0,1-5.045,5.047,5.046,5.046,0,0,0-3.512,8.669l41.321,40.04a5.046,5.046,0,0,0,7.022,0l41.323-40.04a5.046,5.046,0,0,0-3.512-8.669h-.869a5.047,5.047,0,0,1-5.047-5.047V54.349A5.046,5.046,0,0,0,256.6,49.3H195.006a5.046,5.046,0,0,0-5.045,5.047" transform="translate(101.241 27.752)" fill="#76c6ff"/>
    <path id="Trazado_6221" data-name="Trazado 6221" d="M236.284,84.121V82.33H207.61v-21.5h-1.793v62.4c0,.763.881,2.105,1.652,2.105h28.815v-3.584H207.61V84.121Z" transform="translate(115.852 34.24)"/>
    <path id="Rectángulo_5405" data-name="Rectángulo 5405" d="M3.547,0H44.832a3.547,3.547,0,0,1,3.547,3.547V30.5a3.546,3.546,0,0,1-3.546,3.546H3.547A3.547,3.547,0,0,1,0,30.5V3.547A3.547,3.547,0,0,1,3.547,0Z" transform="translate(301.963 60.928)" fill="#2c6882"/>
    <path id="Rectángulo_5406" data-name="Rectángulo 5406" d="M3.547,0H44.835a3.547,3.547,0,0,1,3.547,3.547V30.5a3.547,3.547,0,0,1-3.547,3.547H3.548A3.548,3.548,0,0,1,0,30.5V3.547A3.547,3.547,0,0,1,3.547,0Z" transform="translate(352.134 100.347)" fill="#4aacc2"/>
    <path id="Rectángulo_5407" data-name="Rectángulo 5407" d="M3.545,0h41.29a3.547,3.547,0,0,1,3.547,3.547V30.5a3.546,3.546,0,0,1-3.546,3.546H3.546A3.546,3.546,0,0,1,0,30.5V3.545A3.545,3.545,0,0,1,3.545,0Z" transform="translate(352.134 141.563)" fill="#2c6882"/>
    <path id="Trazado_6222" data-name="Trazado 6222" d="M241.729,178.294h-3.587V167.542H218.429v-3.584h21.307c.763,0,1.993,1.4,1.993,2.166Z" transform="translate(122.951 92.29)"/>
    <path id="Trazado_6223" data-name="Trazado 6223" d="M185.183,178.294h3.581V167.542h19.71v-3.584h-21.3c-.763,0-1.986,1.4-1.986,2.166Z" transform="translate(104.237 92.29)"/>
    <rect id="Rectángulo_5408" data-name="Rectángulo 5408" width="3.584" height="10.748" transform="translate(325.256 236.535)"/>
    <rect id="Rectángulo_5409" data-name="Rectángulo 5409" width="3.584" height="8.962" transform="translate(325.256 207.866)"/>
    <path id="Trazado_6224" data-name="Trazado 6224" d="M228.759,137.3c0,1.73-2.355,2.8-4.187,2.8H203.834c-1.832,0-3.749-1.072-3.749-2.8V123.657c0-1.727,1.918-3.268,3.749-3.268h20.738c1.832,0,4.187,1.541,4.187,3.268Z" transform="translate(112.626 67.766)" fill="#4aacc2"/>
    <path id="Trazado_6225" data-name="Trazado 6225" d="M228.759,155.583c0,1.732-2.355,2.857-4.187,2.857H203.834c-1.832,0-3.749-1.125-3.749-2.857V141.934c0-1.722,1.918-3.2,3.749-3.2h20.738c1.832,0,4.187,1.477,4.187,3.2Z" transform="translate(112.626 78.092)" fill="#2c6882"/>
    <path id="Trazado_6226" data-name="Trazado 6226" d="M228.759,175.712c0,1.729-2.355,4.017-4.187,4.017H203.834c-1.832,0-3.749-2.288-3.749-4.017V162.069a4.29,4.29,0,0,1,3.749-3.846h20.738c1.832,0,4.187,2.116,4.187,3.846Z" transform="translate(112.626 89.062)" fill="#4aacc2"/>
    <path id="Trazado_6227" data-name="Trazado 6227" d="M251.686,189.712c0,1.729-2.121,3.126-3.949,3.126H227c-1.829,0-3.982-1.4-3.982-3.126V176.069c0-1.729,2.154-2.938,3.982-2.938h20.74c1.829,0,3.949,1.21,3.949,2.938Z" transform="translate(125.533 97.454)" fill="#4aacc2"/>
    <path id="Trazado_6228" data-name="Trazado 6228" d="M205.179,189.712A3.1,3.1,0,0,1,202,192.837H181.26a2.927,2.927,0,0,1-2.96-3.126V176.069a2.777,2.777,0,0,1,2.96-2.938H202a2.952,2.952,0,0,1,3.174,2.938Z" transform="translate(100.363 97.454)" fill="#2c6882"/>
    <path id="Trazado_6229" data-name="Trazado 6229" d="M95.112,217.98H87.649V204.593h7.463v1.382H89.205v4.314h5.548v1.374H89.205v4.926h5.906Z" transform="translate(49.337 115.163)"/>
    <rect id="Rectángulo_5410" data-name="Rectángulo 5410" width="1.521" height="14.249" transform="translate(147.185 318.895)"/>
    <path id="Trazado_6230" data-name="Trazado 6230" d="M105.337,209.472h-2.555v8.855h-1.519v-8.855h-1.8v-.686l1.8-.55v-.558q0-3.7,3.232-3.7a6.688,6.688,0,0,1,1.868.32l-.394,1.219a5.034,5.034,0,0,0-1.5-.284,1.463,1.463,0,0,0-1.272.572,3.192,3.192,0,0,0-.413,1.836v.65h2.555Z" transform="translate(55.989 114.816)"/>
    <path id="Trazado_6231" data-name="Trazado 6231" d="M113.26,211.812a5.539,5.539,0,0,1-1.236,3.832,4.356,4.356,0,0,1-3.416,1.378,4.529,4.529,0,0,1-2.39-.631,4.185,4.185,0,0,1-1.613-1.813,6.326,6.326,0,0,1-.567-2.766,5.53,5.53,0,0,1,1.227-3.823,4.341,4.341,0,0,1,3.407-1.369,4.252,4.252,0,0,1,3.348,1.4,5.516,5.516,0,0,1,1.241,3.792m-7.647,0a4.767,4.767,0,0,0,.769,2.93,3.053,3.053,0,0,0,4.529,0,4.742,4.742,0,0,0,.774-2.935,4.661,4.661,0,0,0-.774-2.907,2.72,2.72,0,0,0-2.285-.994,2.678,2.678,0,0,0-2.254.98,4.718,4.718,0,0,0-.76,2.921" transform="translate(58.561 116.304)"/>
    <path id="Trazado_6232" data-name="Trazado 6232" d="M115.855,217.023a4.284,4.284,0,0,1-3.374-1.341,5.518,5.518,0,0,1-1.2-3.8,5.686,5.686,0,0,1,1.214-3.892,4.364,4.364,0,0,1,3.456-1.374,6.893,6.893,0,0,1,1.447.155,4.8,4.8,0,0,1,1.136.367l-.467,1.291a7.2,7.2,0,0,0-1.1-.334,4.879,4.879,0,0,0-1.053-.133q-3.059,0-3.059,3.9a4.642,4.642,0,0,0,.747,2.84,2.6,2.6,0,0,0,2.211.988,6.768,6.768,0,0,0,2.573-.539V216.5a5.48,5.48,0,0,1-2.537.522" transform="translate(62.641 116.304)"/>
    <path id="Trazado_6233" data-name="Trazado 6233" d="M126.221,211.812a5.539,5.539,0,0,1-1.236,3.832,4.356,4.356,0,0,1-3.416,1.378,4.529,4.529,0,0,1-2.39-.631,4.185,4.185,0,0,1-1.613-1.813,6.326,6.326,0,0,1-.567-2.766,5.53,5.53,0,0,1,1.227-3.823,4.341,4.341,0,0,1,3.407-1.369,4.253,4.253,0,0,1,3.348,1.4,5.516,5.516,0,0,1,1.241,3.792m-7.647,0a4.767,4.767,0,0,0,.769,2.93,3.053,3.053,0,0,0,4.529,0,4.742,4.742,0,0,0,.774-2.935,4.661,4.661,0,0,0-.774-2.907,2.72,2.72,0,0,0-2.285-.994,2.678,2.678,0,0,0-2.254.98,4.718,4.718,0,0,0-.76,2.921" transform="translate(65.857 116.304)"/>
    <path id="Trazado_6234" data-name="Trazado 6234" d="M132.163,217.023a4.608,4.608,0,0,1-3.512-1.355,5.25,5.25,0,0,1-1.288-3.765,5.813,5.813,0,0,1,1.2-3.854,3.967,3.967,0,0,1,3.21-1.428,3.787,3.787,0,0,1,2.985,1.239,4.757,4.757,0,0,1,1.1,3.274v.961h-6.914a3.983,3.983,0,0,0,.892,2.683,3.09,3.09,0,0,0,2.387.916,8.089,8.089,0,0,0,3.205-.677v1.355a8.042,8.042,0,0,1-1.525.5,8.51,8.51,0,0,1-1.735.152m-.413-9.13a2.479,2.479,0,0,0-1.927.788,3.621,3.621,0,0,0-.847,2.179h5.247a3.345,3.345,0,0,0-.641-2.2,2.258,2.258,0,0,0-1.832-.764" transform="translate(71.691 116.304)"/>
    <path id="Trazado_6235" data-name="Trazado 6235" d="M141.159,214.1a2.515,2.515,0,0,1-1.044,2.161,4.907,4.907,0,0,1-2.93.76,6.376,6.376,0,0,1-3.113-.631V214.98a7.44,7.44,0,0,0,1.552.578,6.543,6.543,0,0,0,1.6.209,3.624,3.624,0,0,0,1.832-.38,1.307,1.307,0,0,0,.133-2.161,8,8,0,0,0-1.982-.983,10.789,10.789,0,0,1-1.993-.911,2.717,2.717,0,0,1-.878-.885,2.306,2.306,0,0,1-.289-1.182,2.252,2.252,0,0,1,1-1.936,4.65,4.65,0,0,1,2.738-.71,8.017,8.017,0,0,1,3.168.66l-.539,1.236a7.271,7.271,0,0,0-2.738-.624,3.157,3.157,0,0,0-1.63.339,1.048,1.048,0,0,0-.55.935,1.134,1.134,0,0,0,.206.686,2.02,2.02,0,0,0,.664.541,14.818,14.818,0,0,0,1.758.742,6.584,6.584,0,0,1,2.413,1.308,2.316,2.316,0,0,1,.627,1.658" transform="translate(75.451 116.304)"/>
    <path id="Trazado_6236" data-name="Trazado 6236" d="M143.9,216.54a5.419,5.419,0,0,0,1.374-.183v1.163a2.766,2.766,0,0,1-.728.2,5.51,5.51,0,0,1-.866.078q-2.912,0-2.912-3.068v-5.97h-1.438v-.733l1.438-.633.641-2.143h.88v2.327H145.2v1.182h-2.912v5.906a2.033,2.033,0,0,0,.43,1.391,1.5,1.5,0,0,0,1.182.486" transform="translate(78.426 115.532)"/>
    <path id="Trazado_6237" data-name="Trazado 6237" d="M150.857,218.334l-.3-1.428h-.072a4.231,4.231,0,0,1-1.5,1.277,4.558,4.558,0,0,1-1.865.334,3.351,3.351,0,0,1-2.34-.769,2.807,2.807,0,0,1-.847-2.188q0-3.041,4.862-3.187l1.7-.056v-.622a2.541,2.541,0,0,0-.508-1.744,2.086,2.086,0,0,0-1.625-.564,6.6,6.6,0,0,0-2.838.771l-.467-1.164a7.219,7.219,0,0,1,1.625-.631,7.016,7.016,0,0,1,1.772-.228,3.83,3.83,0,0,1,2.66.8,3.327,3.327,0,0,1,.864,2.555v6.85Zm-3.434-1.072a3.082,3.082,0,0,0,2.229-.778,2.878,2.878,0,0,0,.811-2.179V213.4l-1.521.064a5.526,5.526,0,0,0-2.615.563,1.7,1.7,0,0,0-.8,1.552,1.566,1.566,0,0,0,.5,1.255,2.07,2.07,0,0,0,1.4.43m-.356-10.521c.291-.378.608-.836.946-1.374a15.7,15.7,0,0,0,.8-1.4h1.85v.192a13.339,13.339,0,0,1-1.2,1.464,13.628,13.628,0,0,1-1.383,1.346h-1.014Z" transform="translate(81.018 114.81)"/>
    <path id="Trazado_6238" data-name="Trazado 6238" d="M158.647,217.023a4.608,4.608,0,0,1-3.512-1.355,5.25,5.25,0,0,1-1.288-3.765,5.813,5.813,0,0,1,1.2-3.854,3.967,3.967,0,0,1,3.21-1.428,3.787,3.787,0,0,1,2.985,1.239,4.758,4.758,0,0,1,1.1,3.274v.961h-6.914a3.984,3.984,0,0,0,.892,2.683,3.09,3.09,0,0,0,2.387.916,8.089,8.089,0,0,0,3.205-.677v1.355a8.042,8.042,0,0,1-1.525.5,8.51,8.51,0,0,1-1.735.152m-.413-9.13a2.478,2.478,0,0,0-1.927.788,3.621,3.621,0,0,0-.847,2.179h5.247a3.345,3.345,0,0,0-.641-2.2,2.258,2.258,0,0,0-1.832-.764" transform="translate(86.599 116.304)"/>
    <path id="Trazado_6239" data-name="Trazado 6239" d="M167.806,216.84v-6.492a2.621,2.621,0,0,0-.558-1.832,2.279,2.279,0,0,0-1.75-.6,2.885,2.885,0,0,0-2.307.852,4.3,4.3,0,0,0-.733,2.812v5.265h-1.521V206.8h1.236l.249,1.374h.073a3.106,3.106,0,0,1,1.308-1.149,4.258,4.258,0,0,1,1.879-.408,3.807,3.807,0,0,1,2.729.875,3.724,3.724,0,0,1,.916,2.8v6.547Z" transform="translate(90.59 116.304)"/>
    <rect id="Rectángulo_5411" data-name="Rectángulo 5411" width="1.521" height="14.249" transform="translate(99.434 341.401)"/>
    <path id="Trazado_6240" data-name="Trazado 6240" d="M73.1,231.235l-.3-1.43h-.073a4.224,4.224,0,0,1-1.5,1.278,4.577,4.577,0,0,1-1.863.334,3.351,3.351,0,0,1-2.34-.769,2.805,2.805,0,0,1-.847-2.19q0-3.041,4.862-3.187l1.7-.055v-.624a2.555,2.555,0,0,0-.508-1.744,2.093,2.093,0,0,0-1.625-.563,6.625,6.625,0,0,0-2.84.769l-.467-1.163a7.1,7.1,0,0,1,1.625-.631,7.019,7.019,0,0,1,1.772-.23,3.82,3.82,0,0,1,2.66.8,3.328,3.328,0,0,1,.866,2.555v6.85Zm-3.434-1.072a3.089,3.089,0,0,0,2.23-.778,2.884,2.884,0,0,0,.81-2.18V226.3l-1.519.064a5.537,5.537,0,0,0-2.615.564,1.7,1.7,0,0,0-.8,1.552,1.573,1.573,0,0,0,.5,1.255,2.078,2.078,0,0,0,1.4.43" transform="translate(37.25 124.416)"/>
    <path id="Trazado_6241" data-name="Trazado 6241" d="M80.037,228.5a2.515,2.515,0,0,1-1.044,2.161,4.908,4.908,0,0,1-2.93.76,6.377,6.377,0,0,1-3.113-.631V229.38a7.44,7.44,0,0,0,1.552.578,6.541,6.541,0,0,0,1.6.209,3.624,3.624,0,0,0,1.832-.38,1.307,1.307,0,0,0,.133-2.161,8,8,0,0,0-1.982-.983,10.783,10.783,0,0,1-1.993-.911,2.717,2.717,0,0,1-.878-.885,2.307,2.307,0,0,1-.289-1.182,2.252,2.252,0,0,1,1-1.936,4.65,4.65,0,0,1,2.738-.71,8.017,8.017,0,0,1,3.168.66l-.539,1.236a7.271,7.271,0,0,0-2.738-.624,3.157,3.157,0,0,0-1.63.339,1.048,1.048,0,0,0-.55.935,1.134,1.134,0,0,0,.206.686,2.021,2.021,0,0,0,.664.541,14.84,14.84,0,0,0,1.758.742,6.585,6.585,0,0,1,2.413,1.308,2.316,2.316,0,0,1,.627,1.658" transform="translate(41.046 124.41)"/>
    <path id="Trazado_6242" data-name="Trazado 6242" d="M88.616,232.734l-.3-1.428h-.072a4.231,4.231,0,0,1-1.5,1.277,4.559,4.559,0,0,1-1.865.334,3.351,3.351,0,0,1-2.34-.769,2.807,2.807,0,0,1-.847-2.188q0-3.041,4.862-3.187l1.7-.056v-.622a2.541,2.541,0,0,0-.508-1.744,2.085,2.085,0,0,0-1.625-.564,6.6,6.6,0,0,0-2.838.771l-.467-1.164a7.217,7.217,0,0,1,1.625-.631,7.018,7.018,0,0,1,1.772-.228,3.83,3.83,0,0,1,2.66.8,3.327,3.327,0,0,1,.864,2.555v6.85Zm-3.434-1.072a3.082,3.082,0,0,0,2.229-.778,2.878,2.878,0,0,0,.811-2.179V227.8l-1.521.064a5.526,5.526,0,0,0-2.615.563,1.7,1.7,0,0,0-.8,1.552,1.566,1.566,0,0,0,.5,1.255,2.07,2.07,0,0,0,1.4.43m-.358-10.521c.292-.378.61-.836.947-1.374a15.7,15.7,0,0,0,.8-1.4h1.85v.192a17,17,0,0,1-2.583,2.81H84.824Z" transform="translate(45.984 122.916)"/>
    <path id="Trazado_6243" data-name="Trazado 6243" d="M93.425,221.02a5.947,5.947,0,0,1,1.2.109l-.211,1.411a5.144,5.144,0,0,0-1.1-.138,2.673,2.673,0,0,0-2.083.989,3.6,3.6,0,0,0-.866,2.463v5.384H88.846V221.2H90.1l.173,1.86h.073a4.418,4.418,0,0,1,1.347-1.511,3.025,3.025,0,0,1,1.73-.531" transform="translate(50.01 124.41)"/>
    <path id="Trazado_6244" data-name="Trazado 6244" d="M98.187,231.424a4.608,4.608,0,0,1-3.512-1.355,5.25,5.25,0,0,1-1.288-3.765,5.813,5.813,0,0,1,1.2-3.854,3.967,3.967,0,0,1,3.21-1.428,3.787,3.787,0,0,1,2.985,1.239,4.757,4.757,0,0,1,1.1,3.274v.961H94.962a3.983,3.983,0,0,0,.892,2.683,3.09,3.09,0,0,0,2.387.916,8.089,8.089,0,0,0,3.205-.677v1.355a8.042,8.042,0,0,1-1.525.5,8.508,8.508,0,0,1-1.735.152m-.413-9.13a2.479,2.479,0,0,0-1.927.788A3.621,3.621,0,0,0,95,225.26h5.247a3.345,3.345,0,0,0-.641-2.2,2.258,2.258,0,0,0-1.832-.764" transform="translate(52.567 124.41)"/>
    <path id="Trazado_6245" data-name="Trazado 6245" d="M106.919,231.235l-.3-1.43h-.073a4.224,4.224,0,0,1-1.5,1.278,4.577,4.577,0,0,1-1.863.334,3.351,3.351,0,0,1-2.34-.769,2.805,2.805,0,0,1-.847-2.19q0-3.041,4.862-3.187l1.7-.055v-.624a2.555,2.555,0,0,0-.508-1.744,2.093,2.093,0,0,0-1.625-.563,6.625,6.625,0,0,0-2.84.769l-.467-1.163a7.1,7.1,0,0,1,1.625-.631,7.019,7.019,0,0,1,1.772-.23,3.82,3.82,0,0,1,2.66.8,3.328,3.328,0,0,1,.866,2.555v6.85Zm-3.434-1.072a3.089,3.089,0,0,0,2.23-.778,2.884,2.884,0,0,0,.81-2.18V226.3l-1.519.064a5.537,5.537,0,0,0-2.615.564,1.7,1.7,0,0,0-.8,1.552,1.573,1.573,0,0,0,.5,1.255,2.078,2.078,0,0,0,1.4.43" transform="translate(56.287 124.416)"/>
    <path id="Trazado_6246" data-name="Trazado 6246" d="M113.857,228.5a2.515,2.515,0,0,1-1.044,2.161,4.908,4.908,0,0,1-2.93.76,6.377,6.377,0,0,1-3.113-.631V229.38a7.44,7.44,0,0,0,1.552.578,6.541,6.541,0,0,0,1.6.209,3.624,3.624,0,0,0,1.832-.38,1.307,1.307,0,0,0,.133-2.161,8,8,0,0,0-1.982-.983,10.783,10.783,0,0,1-1.993-.911,2.717,2.717,0,0,1-.878-.885,2.307,2.307,0,0,1-.289-1.182,2.252,2.252,0,0,1,1-1.936,4.65,4.65,0,0,1,2.738-.71,8.017,8.017,0,0,1,3.168.66l-.539,1.236a7.271,7.271,0,0,0-2.738-.624,3.157,3.157,0,0,0-1.63.339,1.048,1.048,0,0,0-.55.935,1.134,1.134,0,0,0,.206.686,2.021,2.021,0,0,0,.664.541,14.841,14.841,0,0,0,1.758.742,6.585,6.585,0,0,1,2.413,1.308,2.316,2.316,0,0,1,.627,1.658" transform="translate(60.083 124.41)"/>
    <path id="Trazado_6247" data-name="Trazado 6247" d="M123.025,231.345h-.081a3.576,3.576,0,0,1-3.151,1.529,3.727,3.727,0,0,1-3.063-1.346,5.921,5.921,0,0,1-1.094-3.828,6.023,6.023,0,0,1,1.1-3.856,3.7,3.7,0,0,1,3.059-1.374,3.653,3.653,0,0,1,3.132,1.483h.119l-.064-.722-.036-.706v-4.084h1.519v14.249h-1.236Zm-3.04.256a2.767,2.767,0,0,0,2.257-.847,4.276,4.276,0,0,0,.7-2.733v-.32a5.03,5.03,0,0,0-.711-3.045,2.692,2.692,0,0,0-2.266-.911,2.322,2.322,0,0,0-2.046,1.039,5.163,5.163,0,0,0-.71,2.935,4.951,4.951,0,0,0,.7,2.9,2.388,2.388,0,0,0,2.069.98" transform="translate(65.09 122.959)"/>
    <path id="Trazado_6248" data-name="Trazado 6248" d="M127.789,231.424a4.608,4.608,0,0,1-3.512-1.355,5.25,5.25,0,0,1-1.288-3.765,5.813,5.813,0,0,1,1.2-3.854,3.967,3.967,0,0,1,3.21-1.428,3.787,3.787,0,0,1,2.985,1.239,4.757,4.757,0,0,1,1.1,3.274v.961h-6.914a3.983,3.983,0,0,0,.892,2.683,3.09,3.09,0,0,0,2.387.916,8.089,8.089,0,0,0,3.205-.677v1.355a8.042,8.042,0,0,1-1.525.5,8.508,8.508,0,0,1-1.735.152m-.413-9.13a2.479,2.479,0,0,0-1.927.788,3.621,3.621,0,0,0-.847,2.179h5.247a3.345,3.345,0,0,0-.641-2.2,2.258,2.258,0,0,0-1.832-.764" transform="translate(69.229 124.41)"/>
    <rect id="Rectángulo_5412" data-name="Rectángulo 5412" width="1.521" height="14.249" transform="translate(208.171 341.401)"/>
    <path id="Trazado_6249" data-name="Trazado 6249" d="M142.673,231.235l-.3-1.43H142.3a4.224,4.224,0,0,1-1.5,1.278,4.577,4.577,0,0,1-1.863.334,3.351,3.351,0,0,1-2.34-.769,2.8,2.8,0,0,1-.847-2.19q0-3.041,4.862-3.187l1.7-.055v-.624a2.555,2.555,0,0,0-.508-1.744,2.093,2.093,0,0,0-1.625-.563,6.625,6.625,0,0,0-2.84.769l-.467-1.163a7.1,7.1,0,0,1,1.625-.631,7.019,7.019,0,0,1,1.772-.23,3.82,3.82,0,0,1,2.66.8,3.328,3.328,0,0,1,.866,2.555v6.85Zm-3.434-1.072a3.089,3.089,0,0,0,2.23-.778,2.884,2.884,0,0,0,.81-2.18V226.3l-1.519.064a5.537,5.537,0,0,0-2.615.564,1.7,1.7,0,0,0-.8,1.552,1.573,1.573,0,0,0,.5,1.255,2.078,2.078,0,0,0,1.4.43" transform="translate(76.413 124.416)"/>
    <path id="Trazado_6250" data-name="Trazado 6250" d="M150.465,231.424a4.608,4.608,0,0,1-3.512-1.355,5.25,5.25,0,0,1-1.288-3.765,5.813,5.813,0,0,1,1.2-3.854,3.967,3.967,0,0,1,3.21-1.428,3.787,3.787,0,0,1,2.985,1.239,4.757,4.757,0,0,1,1.1,3.274v.961H147.24a3.983,3.983,0,0,0,.892,2.683,3.09,3.09,0,0,0,2.387.916,8.089,8.089,0,0,0,3.206-.677v1.355a8.043,8.043,0,0,1-1.525.5,8.508,8.508,0,0,1-1.735.152m-.413-9.13a2.478,2.478,0,0,0-1.927.788,3.621,3.621,0,0,0-.847,2.179h5.247a3.345,3.345,0,0,0-.641-2.2,2.258,2.258,0,0,0-1.832-.764" transform="translate(81.993 124.41)"/>
    <path id="Trazado_6251" data-name="Trazado 6251" d="M165.548,231.24v-6.53a2.709,2.709,0,0,0-.513-1.8,1.985,1.985,0,0,0-1.594-.6,2.569,2.569,0,0,0-2.1.816,3.859,3.859,0,0,0-.678,2.508v5.6h-1.521v-6.53a2.709,2.709,0,0,0-.513-1.8,1.994,1.994,0,0,0-1.6-.6,2.482,2.482,0,0,0-2.093.856,4.636,4.636,0,0,0-.664,2.807v5.265h-1.521V221.2h1.236l.249,1.374h.073a2.975,2.975,0,0,1,1.213-1.144,3.7,3.7,0,0,1,1.754-.413,2.982,2.982,0,0,1,3.077,1.7h.073a3.186,3.186,0,0,1,1.3-1.246,4.037,4.037,0,0,1,1.941-.458,3.4,3.4,0,0,1,2.551.875,3.913,3.913,0,0,1,.847,2.8v6.547Z" transform="translate(85.984 124.41)"/>
    <path id="Trazado_6252" data-name="Trazado 6252" d="M168.588,231.423a4.356,4.356,0,0,1-1.791-.361,3.372,3.372,0,0,1-1.36-1.113h-.109a13.415,13.415,0,0,1,.109,1.666v4.131h-1.521V221.2h1.236l.211,1.374h.073a3.523,3.523,0,0,1,1.364-1.191,4.155,4.155,0,0,1,1.786-.366,3.709,3.709,0,0,1,3.08,1.364,7.263,7.263,0,0,1-.017,7.669,3.717,3.717,0,0,1-3.063,1.369m-.22-9.112a2.7,2.7,0,0,0-2.226.852,4.381,4.381,0,0,0-.7,2.71v.339a5.025,5.025,0,0,0,.7,3.027,2.684,2.684,0,0,0,2.261.911,2.352,2.352,0,0,0,2.038-1.053,4.99,4.99,0,0,0,.738-2.9,4.8,4.8,0,0,0-.738-2.879,2.423,2.423,0,0,0-2.074-1" transform="translate(92.267 124.41)"/>
    <path id="Trazado_6253" data-name="Trazado 6253" d="M175.849,221.02a5.947,5.947,0,0,1,1.2.109l-.211,1.411a5.144,5.144,0,0,0-1.1-.138,2.673,2.673,0,0,0-2.083.989,3.6,3.6,0,0,0-.866,2.463v5.384H171.27V221.2h1.255l.174,1.86h.073a4.418,4.418,0,0,1,1.347-1.511,3.025,3.025,0,0,1,1.73-.531" transform="translate(96.406 124.41)"/>
    <path id="Trazado_6254" data-name="Trazado 6254" d="M180.611,231.424a4.608,4.608,0,0,1-3.512-1.355,5.25,5.25,0,0,1-1.288-3.765,5.813,5.813,0,0,1,1.2-3.854,3.967,3.967,0,0,1,3.21-1.428,3.787,3.787,0,0,1,2.985,1.239,4.757,4.757,0,0,1,1.1,3.274v.961h-6.914a3.983,3.983,0,0,0,.892,2.683,3.09,3.09,0,0,0,2.387.916,8.089,8.089,0,0,0,3.205-.677v1.355a8.042,8.042,0,0,1-1.525.5,8.509,8.509,0,0,1-1.735.152m-.413-9.13a2.479,2.479,0,0,0-1.927.788,3.621,3.621,0,0,0-.847,2.179h5.247a3.345,3.345,0,0,0-.641-2.2,2.258,2.258,0,0,0-1.832-.764" transform="translate(98.962 124.41)"/>
    <path id="Trazado_6255" data-name="Trazado 6255" d="M189.607,228.5a2.515,2.515,0,0,1-1.044,2.161,4.908,4.908,0,0,1-2.93.76,6.377,6.377,0,0,1-3.113-.631V229.38a7.44,7.44,0,0,0,1.552.578,6.541,6.541,0,0,0,1.6.209,3.624,3.624,0,0,0,1.832-.38,1.307,1.307,0,0,0,.133-2.161,8,8,0,0,0-1.982-.983,10.782,10.782,0,0,1-1.993-.911,2.717,2.717,0,0,1-.878-.885,2.307,2.307,0,0,1-.289-1.182,2.252,2.252,0,0,1,1-1.936,4.65,4.65,0,0,1,2.738-.71,8.017,8.017,0,0,1,3.168.66l-.539,1.236a7.27,7.27,0,0,0-2.738-.624,3.157,3.157,0,0,0-1.63.339,1.048,1.048,0,0,0-.55.935,1.134,1.134,0,0,0,.206.686,2.021,2.021,0,0,0,.664.541,14.842,14.842,0,0,0,1.758.742,6.586,6.586,0,0,1,2.413,1.308,2.316,2.316,0,0,1,.627,1.658" transform="translate(102.722 124.41)"/>
    <path id="Trazado_6256" data-name="Trazado 6256" d="M195.068,231.235l-.3-1.43h-.073a4.224,4.224,0,0,1-1.5,1.278,4.577,4.577,0,0,1-1.863.334,3.351,3.351,0,0,1-2.34-.769,2.805,2.805,0,0,1-.847-2.19q0-3.041,4.862-3.187l1.7-.055v-.624a2.555,2.555,0,0,0-.508-1.744,2.093,2.093,0,0,0-1.625-.563,6.625,6.625,0,0,0-2.84.769l-.467-1.163a7.1,7.1,0,0,1,1.625-.631,7.018,7.018,0,0,1,1.772-.23,3.82,3.82,0,0,1,2.66.8,3.328,3.328,0,0,1,.866,2.555v6.85Zm-3.434-1.072a3.089,3.089,0,0,0,2.23-.778,2.884,2.884,0,0,0,.81-2.18V226.3l-1.519.064a5.538,5.538,0,0,0-2.615.564,1.7,1.7,0,0,0-.8,1.552,1.573,1.573,0,0,0,.5,1.255,2.078,2.078,0,0,0,1.4.43" transform="translate(105.905 124.416)"/>
  </g>
</svg>
