<svg id="Grupo_8637" data-name="Grupo 8637" xmlns="http://www.w3.org/2000/svg" xmlns:xlink="http://www.w3.org/1999/xlink" width="430.667" height="263.001" viewBox="0 0 430.667 263.001">
  <defs>
    <clipPath id="clip-path">
      <rect id="Rectángulo_5415" data-name="Rectángulo 5415" width="430.667" height="263.001" fill="none"/>
    </clipPath>
    <clipPath id="clip-path-2">
      <path id="Trazado_6264" data-name="Trazado 6264" d="M267.719,20.9a6.31,6.31,0,0,0-6.3,6.309V134.579a6.3,6.3,0,0,0,6.3,6.3h40.056a6.306,6.306,0,0,0,6.31-6.3V27.208a6.311,6.311,0,0,0-6.31-6.309Z" transform="translate(-261.415 -20.899)" fill="none"/>
    </clipPath>
    <clipPath id="clip-path-4">
      <path id="Trazado_6273" data-name="Trazado 6273" d="M272.469,105.338c0,6.907,5.311,8.329,10.625,9.461,6.241,1.339,10.914,1.829,10.914-4.409,0-6.038-3.337-7.987-7.808-8.94l-.727-.174v4.7c3.224.729,5.285,1.368,5.285,3.164,0,2.036-1.6,1.887-7.749.584-5.43-1.132-7.286-1.715-7.286-3.66,0-1.624,1.336-1.685,4.354-1.045v-4.7l-.872-.175a11.214,11.214,0,0,0-2.329-.278c-3.149,0-4.406,1.945-4.406,5.471m.4-8.913,20.726,4.412v-4.7l-20.726-4.412Zm5.025-6.468,15.7,3.334v-4.7l-15.7-3.337Zm-5.252-1.1,3.6.758V84.9l-3.6-.75Zm7.749-11.7c0-1.307,1.19-1.338,3.4-.869v3.394c-2.12-.434-3.4-.988-3.4-2.525m-2.9-.495c0,5.107,3.279,7.081,7.691,8.013,4.673,1.014,8.823,1.42,8.823-4.5,0-3.887-1.888-6.414-5.775-7.314v4.349c1.972.526,2.875,1.108,2.875,2.328,0,1.362-1.189,1.449-3.629.93l-.959-.207V72.338a24.305,24.305,0,0,0-4.764-.681c-2.645,0-4.261,1.138-4.261,5m0-16.588a5.2,5.2,0,0,0,2.263,4.264V64.4l-1.858-.411v4.533l15.7,3.333v-4.7l-10.275-2.179c-1.538-.347-2.237-1.275-2.237-2.176,0-.868.672-1.217,1.8-.957L293.6,64.1V59.4l-11.756-2.5a7.22,7.22,0,0,0-1.488-.176c-1.975,0-2.863,1.161-2.863,3.343m.4-11.873-4.617-.989v4.7l4.617.988v1.946l3.249.694V53.6l8.392,1.768c3.655.784,4.237-.032,4.237-3.279a21.532,21.532,0,0,0-.176-2.731l-3.133-.667a5.219,5.219,0,0,1,.056.667c0,1.106-.347,1.452-1.447,1.223l-7.928-1.686V46.716l-3.249-.693Zm2.5-9.189c0-1.3,1.19-1.333,3.4-.868v3.394c-2.12-.434-3.4-.988-3.4-2.526m-2.9-.495c0,5.111,3.279,7.085,7.691,8.015,4.673,1.014,8.823,1.421,8.823-4.5,0-3.887-1.888-6.414-5.775-7.312v4.352c1.972.522,2.875,1.1,2.875,2.322,0,1.366-1.189,1.45-3.629.931l-.959-.207V34.192a24.278,24.278,0,0,0-4.764-.678c-2.645,0-4.261,1.141-4.261,5" transform="translate(-272.469 -33.514)" fill="none"/>
    </clipPath>
    <linearGradient id="linear-gradient" x1="-18.291" y1="2.581" x2="-18.224" y2="2.581" gradientUnits="objectBoundingBox">
      <stop offset="0" stop-color="#000d17"/>
      <stop offset="1" stop-color="#000515"/>
    </linearGradient>
  </defs>
  <path id="Trazado_6257" data-name="Trazado 6257" d="M50.595,77.142,45.249,62.185h3.274l3.786,11.07,3.663-11.07h3.2L53.818,77.142Z" transform="translate(20.179 27.732)" fill="#fff"/>
  <g id="Grupo_8628" data-name="Grupo 8628">
    <g id="Grupo_8627" data-name="Grupo 8627" clip-path="url(#clip-path)">
      <path id="Trazado_6258" data-name="Trazado 6258" d="M62.463,72.5l2.856.48a4.68,4.68,0,0,1-1.739,2.392,5.1,5.1,0,0,1-2.973.821,4.846,4.846,0,0,1-4.183-1.846,6.2,6.2,0,0,1-1.07-3.735,5.982,5.982,0,0,1,1.407-4.218,4.636,4.636,0,0,1,3.56-1.524,4.809,4.809,0,0,1,3.816,1.6,7.064,7.064,0,0,1,1.338,4.892H58.29a2.911,2.911,0,0,0,.694,1.984,2.17,2.17,0,0,0,1.653.709,1.757,1.757,0,0,0,1.132-.367,2.271,2.271,0,0,0,.694-1.183m.163-2.9a2.772,2.772,0,0,0-.642-1.893,2.069,2.069,0,0,0-3.041.036,2.651,2.651,0,0,0-.6,1.857Z" transform="translate(24.685 28.928)" fill="#fff"/>
      <path id="Trazado_6259" data-name="Trazado 6259" d="M66.749,75.946H63.882V65.111h2.662v1.54a4.648,4.648,0,0,1,1.231-1.439,2.266,2.266,0,0,1,1.238-.346,3.629,3.629,0,0,1,1.888.541l-.888,2.5a2.52,2.52,0,0,0-1.346-.47,1.594,1.594,0,0,0-1.021.333,2.269,2.269,0,0,0-.658,1.2,17.113,17.113,0,0,0-.239,3.632Z" transform="translate(28.489 28.928)" fill="#fff"/>
      <path id="Trazado_6260" data-name="Trazado 6260" d="M74.924,66.215V68.5H72.964v4.367a10.787,10.787,0,0,0,.056,1.544.633.633,0,0,0,.254.363.817.817,0,0,0,.484.143,3.7,3.7,0,0,0,1.152-.276l.246,2.224a5.712,5.712,0,0,1-2.264.428,3.565,3.565,0,0,1-1.4-.26,2.054,2.054,0,0,1-.914-.672,2.667,2.667,0,0,1-.4-1.118,13.91,13.91,0,0,1-.093-2.019V68.5H68.771V66.215h1.316V64.063l2.877-1.674v3.826Z" transform="translate(30.669 27.823)" fill="#fff"/>
      <path id="Trazado_6261" data-name="Trazado 6261" d="M74.4,62.185h2.866v2.653H74.4Zm0,4.121h2.866V77.141H74.4Z" transform="translate(33.18 27.732)" fill="#fff"/>
      <path id="Trazado_6262" data-name="Trazado 6262" d="M88.059,68.315l-2.825.51a2.054,2.054,0,0,0-.648-1.275,1.956,1.956,0,0,0-1.311-.428,2.139,2.139,0,0,0-1.708.739,3.789,3.789,0,0,0-.639,2.473,4.375,4.375,0,0,0,.649,2.724,2.125,2.125,0,0,0,1.739.8,1.932,1.932,0,0,0,1.336-.464,2.783,2.783,0,0,0,.733-1.6l2.817.48a5.007,5.007,0,0,1-1.683,2.93,5.213,5.213,0,0,1-3.336.988,4.953,4.953,0,0,1-3.79-1.5,6.832,6.832,0,0,1,0-8.33,5.042,5.042,0,0,1,3.836-1.494,5.245,5.245,0,0,1,3.148.852,4.721,4.721,0,0,1,1.677,2.6" transform="translate(34.775 28.927)" fill="#fff"/>
      <path id="Trazado_6263" data-name="Trazado 6263" d="M88.829,68.417l-2.6-.47a4.056,4.056,0,0,1,1.51-2.327,5.524,5.524,0,0,1,3.183-.753,6.872,6.872,0,0,1,2.857.453A2.869,2.869,0,0,1,95.1,66.473a5.918,5.918,0,0,1,.382,2.565l-.03,3.347a11.682,11.682,0,0,0,.137,2.105,6.137,6.137,0,0,0,.516,1.455H93.266c-.075-.191-.166-.474-.275-.847-.049-.169-.082-.282-.1-.337a5.188,5.188,0,0,1-1.572,1.071,4.484,4.484,0,0,1-1.784.357,3.688,3.688,0,0,1-2.637-.908,3.014,3.014,0,0,1-.964-2.295,3.086,3.086,0,0,1,.438-1.638,2.883,2.883,0,0,1,1.23-1.1,9.579,9.579,0,0,1,2.279-.668,15.667,15.667,0,0,0,2.786-.7V68.59a1.5,1.5,0,0,0-.408-1.18,2.452,2.452,0,0,0-1.541-.351,2.047,2.047,0,0,0-1.193.3,2.091,2.091,0,0,0-.694,1.057m3.836,2.325a17.43,17.43,0,0,1-1.745.44,5.226,5.226,0,0,0-1.56.5,1.2,1.2,0,0,0-.561,1.011,1.4,1.4,0,0,0,.448,1.04,1.564,1.564,0,0,0,1.144.44,2.478,2.478,0,0,0,1.478-.509,1.8,1.8,0,0,0,.684-.95,5.64,5.64,0,0,0,.113-1.4Z" transform="translate(38.321 28.928)" fill="#fff"/>
      <rect id="Rectángulo_5414" data-name="Rectángulo 5414" width="2.866" height="14.957" transform="translate(136.627 89.917)" fill="#fff"/>
    </g>
  </g>
  <g id="Grupo_8630" data-name="Grupo 8630" transform="translate(377.995 30.219)">
    <g id="Grupo_8629" data-name="Grupo 8629" clip-path="url(#clip-path-2)">
      <rect id="Rectángulo_5416" data-name="Rectángulo 5416" width="52.67" height="119.984" transform="translate(0 0)" fill="#6fc2d8"/>
    </g>
  </g>
  <g id="Grupo_8632" data-name="Grupo 8632">
    <g id="Grupo_8631" data-name="Grupo 8631" clip-path="url(#clip-path)">
      <path id="Trazado_6265" data-name="Trazado 6265" d="M267.306,25.635H14.215A4.667,4.667,0,0,0,9.547,30.3V150.563a4.667,4.667,0,0,0,4.668,4.669H267.306a4.667,4.667,0,0,1,4.668,4.668v16.2a4.668,4.668,0,0,0,8.021,3.249l83.048-85.713a4.668,4.668,0,0,0,0-6.5L279.994,1.43a4.668,4.668,0,0,0-8.021,3.248V20.966a4.667,4.667,0,0,1-4.668,4.669" transform="translate(4.258 0)" fill="#76c6ff"/>
      <path id="Trazado_6266" data-name="Trazado 6266" d="M59.881,78.223a9.072,9.072,0,0,1-9.075,9.068H9.073A9.073,9.073,0,0,1,0,78.223V58.258a9.071,9.071,0,0,1,9.073-9.07H50.807a9.07,9.07,0,0,1,9.075,9.07Z" transform="translate(0 21.936)" fill="#2c6882"/>
      <path id="Trazado_6267" data-name="Trazado 6267" d="M107.54,78.223a9.072,9.072,0,0,1-9.072,9.068H56.735a9.072,9.072,0,0,1-9.075-9.068V58.258a9.07,9.07,0,0,1,9.075-9.07H98.468a9.07,9.07,0,0,1,9.072,9.07Z" transform="translate(21.254 21.936)" fill="#4aacc2"/>
      <path id="Trazado_6268" data-name="Trazado 6268" d="M155.2,78.223a9.071,9.071,0,0,1-9.069,9.068H104.392a9.076,9.076,0,0,1-9.073-9.068V58.258a9.074,9.074,0,0,1,9.073-9.07h41.739a9.069,9.069,0,0,1,9.069,9.07Z" transform="translate(42.508 21.936)" fill="#2c6882"/>
      <path id="Trazado_6269" data-name="Trazado 6269" d="M200.843,52.253a9.076,9.076,0,0,1-9.079,9.07H150.036a9.076,9.076,0,0,1-9.079-9.07V32.294a9.075,9.075,0,0,1,9.079-9.073h41.727a9.075,9.075,0,0,1,9.079,9.073Z" transform="translate(62.861 10.356)" fill="#4aacc2"/>
      <path id="Rectángulo_5417" data-name="Rectángulo 5417" d="M6.275,0H53.611a6.273,6.273,0,0,1,6.273,6.273V31.83a6.275,6.275,0,0,1-6.275,6.275H6.278A6.278,6.278,0,0,1,0,31.827V6.275A6.275,6.275,0,0,1,6.275,0Z" transform="translate(272.704 33.427)" fill="#2c6882"/>
      <path id="Trazado_6270" data-name="Trazado 6270" d="M200.843,104.481a9.078,9.078,0,0,1-9.079,9.073H150.036a9.078,9.078,0,0,1-9.079-9.073V84.516a9.076,9.076,0,0,1,9.079-9.07h41.727a9.076,9.076,0,0,1,9.079,9.07Z" transform="translate(62.861 33.646)" fill="#4aacc2"/>
      <path id="Rectángulo_5418" data-name="Rectángulo 5418" d="M6.275,0H53.612a6.274,6.274,0,0,1,6.274,6.274V31.828a6.277,6.277,0,0,1-6.277,6.277H6.277A6.277,6.277,0,0,1,0,31.828V6.275A6.275,6.275,0,0,1,6.275,0Z" transform="translate(272.775 108.639)" fill="#2c6882"/>
      <line id="Línea_1031" data-name="Línea 1031" x2="9.033" transform="translate(59.882 88.918)" fill="none" stroke="#000" stroke-miterlimit="10" stroke-width="3.402"/>
      <line id="Línea_1032" data-name="Línea 1032" x2="9.034" transform="translate(128.795 88.918)" fill="none" stroke="#000" stroke-linejoin="round" stroke-width="3.402"/>
      <path id="Trazado_6271" data-name="Trazado 6271" d="M182.373,115.557h9.034m-9.034-81.309h9.034" transform="translate(81.33 15.273)" fill="none" stroke="#000" stroke-miterlimit="10" stroke-width="3.402"/>
      <path id="Trazado_6272" data-name="Trazado 6272" d="M116.025,93.954v21.6h36.053m-36.053-59.7v-21.6h36.053" transform="translate(51.742 15.274)" fill="none" stroke="#000" stroke-linejoin="round" stroke-width="3.402"/>
    </g>
  </g>
  <g id="Grupo_8634" data-name="Grupo 8634" transform="translate(393.978 48.46)">
    <g id="Grupo_8633" data-name="Grupo 8633" clip-path="url(#clip-path-4)">
      <rect id="Rectángulo_5420" data-name="Rectángulo 5420" width="21.539" height="83.114" transform="translate(0 0)" fill="url(#linear-gradient)"/>
    </g>
  </g>
  <g id="Grupo_8636" data-name="Grupo 8636">
    <g id="Grupo_8635" data-name="Grupo 8635" clip-path="url(#clip-path)">
      <path id="Trazado_6274" data-name="Trazado 6274" d="M103.482,156.79h-6.9V144.4h6.9v1.278H98.018v3.991h5.133v1.271H98.018V155.5h5.464Z" transform="translate(43.069 64.398)"/>
      <rect id="Rectángulo_5421" data-name="Rectángulo 5421" width="1.407" height="13.183" transform="translate(149.084 208.005)"/>
      <path id="Trazado_6275" data-name="Trazado 6275" d="M113.826,148.872h-2.364v8.193h-1.405v-8.193H108.4v-.635l1.661-.509v-.516q0-3.425,2.99-3.424a6.187,6.187,0,0,1,1.728.3l-.364,1.128a4.657,4.657,0,0,0-1.39-.263,1.353,1.353,0,0,0-1.177.529,2.953,2.953,0,0,0-.382,1.7v.6h2.364Z" transform="translate(48.339 64.123)"/>
      <path id="Trazado_6276" data-name="Trazado 6276" d="M121.5,151.234a5.124,5.124,0,0,1-1.144,3.545,4.03,4.03,0,0,1-3.161,1.275,4.191,4.191,0,0,1-2.211-.584,3.872,3.872,0,0,1-1.492-1.677,5.853,5.853,0,0,1-.525-2.559A5.116,5.116,0,0,1,114.1,147.7a4.017,4.017,0,0,1,3.152-1.267,3.934,3.934,0,0,1,3.1,1.3,5.1,5.1,0,0,1,1.148,3.508m-7.075,0a4.411,4.411,0,0,0,.711,2.711,2.824,2.824,0,0,0,4.19,0,4.387,4.387,0,0,0,.716-2.715,4.312,4.312,0,0,0-.716-2.689,2.516,2.516,0,0,0-2.114-.92,2.478,2.478,0,0,0-2.085.907,4.365,4.365,0,0,0-.7,2.7" transform="translate(50.378 65.302)"/>
      <path id="Trazado_6277" data-name="Trazado 6277" d="M124.442,156.055a3.963,3.963,0,0,1-3.122-1.241,5.105,5.105,0,0,1-1.106-3.512,5.26,5.26,0,0,1,1.124-3.6,4.038,4.038,0,0,1,3.2-1.271,6.378,6.378,0,0,1,1.339.143,4.439,4.439,0,0,1,1.051.34l-.432,1.194a6.663,6.663,0,0,0-1.017-.309,4.516,4.516,0,0,0-.975-.123q-2.83,0-2.83,3.609a4.3,4.3,0,0,0,.691,2.627,2.4,2.4,0,0,0,2.046.914,6.262,6.262,0,0,0,2.38-.5v1.245a5.071,5.071,0,0,1-2.347.483" transform="translate(53.61 65.302)"/>
      <path id="Trazado_6278" data-name="Trazado 6278" d="M134.459,151.234a5.124,5.124,0,0,1-1.144,3.545,4.03,4.03,0,0,1-3.161,1.275,4.191,4.191,0,0,1-2.211-.584,3.881,3.881,0,0,1-1.492-1.677,5.873,5.873,0,0,1-.525-2.559,5.116,5.116,0,0,1,1.135-3.537,4.017,4.017,0,0,1,3.152-1.267,3.934,3.934,0,0,1,3.1,1.3,5.1,5.1,0,0,1,1.148,3.508m-7.074,0a4.411,4.411,0,0,0,.71,2.711,2.824,2.824,0,0,0,4.19,0,4.388,4.388,0,0,0,.716-2.715,4.312,4.312,0,0,0-.716-2.689,2.514,2.514,0,0,0-2.114-.92,2.478,2.478,0,0,0-2.085.907,4.365,4.365,0,0,0-.7,2.7" transform="translate(56.157 65.302)"/>
      <path id="Trazado_6279" data-name="Trazado 6279" d="M140.733,156.055a4.263,4.263,0,0,1-3.249-1.254,4.857,4.857,0,0,1-1.191-3.483,5.378,5.378,0,0,1,1.106-3.566,3.67,3.67,0,0,1,2.97-1.322,3.5,3.5,0,0,1,2.762,1.147,4.4,4.4,0,0,1,1.017,3.029v.889h-6.4a3.685,3.685,0,0,0,.826,2.483,2.859,2.859,0,0,0,2.208.847,7.485,7.485,0,0,0,2.966-.626v1.254a7.44,7.44,0,0,1-1.411.461,7.873,7.873,0,0,1-1.6.14m-.382-8.447a2.293,2.293,0,0,0-1.783.729,3.35,3.35,0,0,0-.784,2.016h4.854a3.1,3.1,0,0,0-.593-2.037,2.089,2.089,0,0,0-1.695-.707" transform="translate(60.78 65.302)"/>
      <path id="Trazado_6280" data-name="Trazado 6280" d="M149.554,153.353a2.327,2.327,0,0,1-.966,2,4.54,4.54,0,0,1-2.711.7,5.9,5.9,0,0,1-2.88-.584v-1.306a6.887,6.887,0,0,0,1.436.535,6.053,6.053,0,0,0,1.478.194,3.353,3.353,0,0,0,1.695-.351,1.209,1.209,0,0,0,.123-2,7.4,7.4,0,0,0-1.833-.91,9.982,9.982,0,0,1-1.844-.843,2.514,2.514,0,0,1-.813-.818,2.134,2.134,0,0,1-.268-1.093,2.084,2.084,0,0,1,.924-1.792,4.3,4.3,0,0,1,2.533-.656,7.418,7.418,0,0,1,2.931.61l-.5,1.144a6.727,6.727,0,0,0-2.533-.577,2.92,2.92,0,0,0-1.508.314.97.97,0,0,0-.509.865,1.049,1.049,0,0,0,.191.635,1.87,1.87,0,0,0,.615.5,13.725,13.725,0,0,0,1.627.687,6.092,6.092,0,0,1,2.233,1.21,2.143,2.143,0,0,1,.58,1.534" transform="translate(63.759 65.302)"/>
      <path id="Trazado_6281" data-name="Trazado 6281" d="M152.485,155.506a5.011,5.011,0,0,0,1.271-.169v1.076a2.558,2.558,0,0,1-.674.182,5.1,5.1,0,0,1-.8.072q-2.694,0-2.694-2.838v-5.524h-1.33v-.678l1.33-.586.593-1.982h.814v2.153h2.694v1.093h-2.694v5.464a1.881,1.881,0,0,0,.4,1.287,1.388,1.388,0,0,0,1.093.45" transform="translate(66.116 64.69)"/>
      <path id="Trazado_6282" data-name="Trazado 6282" d="M159.268,157.07l-.281-1.322h-.067a3.915,3.915,0,0,1-1.385,1.181,4.217,4.217,0,0,1-1.725.309,3.1,3.1,0,0,1-2.165-.711,2.6,2.6,0,0,1-.784-2.024q0-2.813,4.5-2.948l1.576-.052v-.575a2.351,2.351,0,0,0-.47-1.614,1.93,1.93,0,0,0-1.5-.522,6.107,6.107,0,0,0-2.626.713l-.432-1.077a6.679,6.679,0,0,1,1.5-.584,6.492,6.492,0,0,1,1.64-.211,3.544,3.544,0,0,1,2.461.736,3.079,3.079,0,0,1,.8,2.364v6.338Zm-3.177-.992a2.851,2.851,0,0,0,2.062-.72,2.662,2.662,0,0,0,.75-2.016V152.5l-1.407.059a5.113,5.113,0,0,0-2.419.521,1.573,1.573,0,0,0-.74,1.436,1.449,1.449,0,0,0,.461,1.161,1.915,1.915,0,0,0,1.293.4m-.331-9.734c.27-.35.564-.774.876-1.271a14.523,14.523,0,0,0,.742-1.3h1.712v.178a15.723,15.723,0,0,1-2.39,2.6h-.94Z" transform="translate(68.17 64.118)"/>
      <path id="Trazado_6283" data-name="Trazado 6283" d="M167.217,156.055a4.263,4.263,0,0,1-3.249-1.254,4.857,4.857,0,0,1-1.191-3.483,5.378,5.378,0,0,1,1.106-3.566,3.67,3.67,0,0,1,2.97-1.322,3.5,3.5,0,0,1,2.762,1.147,4.4,4.4,0,0,1,1.016,3.029v.889h-6.4a3.686,3.686,0,0,0,.826,2.483,2.859,2.859,0,0,0,2.208.847,7.484,7.484,0,0,0,2.966-.626v1.254a7.439,7.439,0,0,1-1.411.461,7.873,7.873,0,0,1-1.605.14m-.382-8.447a2.293,2.293,0,0,0-1.783.729,3.35,3.35,0,0,0-.784,2.016h4.854a3.1,3.1,0,0,0-.593-2.037,2.089,2.089,0,0,0-1.695-.707" transform="translate(72.591 65.302)"/>
      <path id="Trazado_6284" data-name="Trazado 6284" d="M176.221,155.886V149.88a2.425,2.425,0,0,0-.516-1.695,2.109,2.109,0,0,0-1.619-.56,2.669,2.669,0,0,0-2.134.788,3.974,3.974,0,0,0-.678,2.6v4.871h-1.407V146.6h1.144l.23,1.271h.068a2.873,2.873,0,0,1,1.21-1.063,3.938,3.938,0,0,1,1.738-.377,3.523,3.523,0,0,1,2.525.81,3.446,3.446,0,0,1,.847,2.588v6.057Z" transform="translate(75.753 65.302)"/>
      <rect id="Rectángulo_5422" data-name="Rectángulo 5422" width="1.407" height="13.183" transform="translate(260.775 208.005)"/>
      <path id="Trazado_6285" data-name="Trazado 6285" d="M191.559,151.234a5.124,5.124,0,0,1-1.144,3.545,4.03,4.03,0,0,1-3.161,1.275,4.191,4.191,0,0,1-2.211-.584,3.872,3.872,0,0,1-1.492-1.677,5.853,5.853,0,0,1-.525-2.559,5.116,5.116,0,0,1,1.135-3.537,4.017,4.017,0,0,1,3.152-1.267,3.934,3.934,0,0,1,3.1,1.3,5.1,5.1,0,0,1,1.148,3.508m-7.075,0a4.411,4.411,0,0,0,.711,2.711,2.824,2.824,0,0,0,4.19,0,4.387,4.387,0,0,0,.716-2.715,4.312,4.312,0,0,0-.716-2.689,2.516,2.516,0,0,0-2.114-.92,2.478,2.478,0,0,0-2.085.907,4.365,4.365,0,0,0-.7,2.7" transform="translate(81.622 65.302)"/>
      <path id="Trazado_6286" data-name="Trazado 6286" d="M196.8,153.353a2.327,2.327,0,0,1-.966,2,4.541,4.541,0,0,1-2.711.7,5.9,5.9,0,0,1-2.88-.584v-1.306a6.887,6.887,0,0,0,1.436.535,6.053,6.053,0,0,0,1.478.194,3.353,3.353,0,0,0,1.695-.351,1.209,1.209,0,0,0,.123-2,7.4,7.4,0,0,0-1.833-.91,9.982,9.982,0,0,1-1.844-.843,2.514,2.514,0,0,1-.813-.818,2.134,2.134,0,0,1-.268-1.093,2.084,2.084,0,0,1,.924-1.792,4.3,4.3,0,0,1,2.533-.656,7.418,7.418,0,0,1,2.931.61l-.5,1.144a6.727,6.727,0,0,0-2.533-.577,2.92,2.92,0,0,0-1.508.314.97.97,0,0,0-.509.865,1.049,1.049,0,0,0,.191.635,1.87,1.87,0,0,0,.615.5,13.728,13.728,0,0,0,1.627.687,6.092,6.092,0,0,1,2.233,1.21,2.143,2.143,0,0,1,.58,1.534" transform="translate(84.83 65.302)"/>
      <path id="Trazado_6287" data-name="Trazado 6287" d="M85.7,170.455a4.03,4.03,0,0,1-1.657-.334,3.121,3.121,0,0,1-1.258-1.03h-.1a12.406,12.406,0,0,1,.1,1.541v3.822H81.383V161h1.144l.2,1.271h.068a3.259,3.259,0,0,1,1.262-1.1,3.844,3.844,0,0,1,1.653-.338,3.431,3.431,0,0,1,2.85,1.262,6.719,6.719,0,0,1-.016,7.1,3.438,3.438,0,0,1-2.834,1.267m-.2-8.43a2.5,2.5,0,0,0-2.059.788,4.053,4.053,0,0,0-.652,2.507v.314a4.649,4.649,0,0,0,.652,2.8,2.483,2.483,0,0,0,2.092.843,2.176,2.176,0,0,0,1.886-.975,4.616,4.616,0,0,0,.682-2.687,4.438,4.438,0,0,0-.682-2.663,2.242,2.242,0,0,0-1.919-.928" transform="translate(36.293 71.724)"/>
      <path id="Trazado_6288" data-name="Trazado 6288" d="M92.974,160.831a5.5,5.5,0,0,1,1.11.1l-.2,1.306a4.756,4.756,0,0,0-1.017-.127,2.473,2.473,0,0,0-1.927.915,3.335,3.335,0,0,0-.8,2.279v4.981H88.737V161H89.9l.161,1.721h.068a4.087,4.087,0,0,1,1.246-1.4,2.8,2.8,0,0,1,1.6-.492" transform="translate(39.573 71.724)"/>
      <path id="Trazado_6289" data-name="Trazado 6289" d="M101.811,165.635a5.124,5.124,0,0,1-1.144,3.545,4.03,4.03,0,0,1-3.161,1.275,4.191,4.191,0,0,1-2.211-.584,3.872,3.872,0,0,1-1.492-1.677,5.853,5.853,0,0,1-.525-2.559,5.116,5.116,0,0,1,1.135-3.537,4.017,4.017,0,0,1,3.152-1.267,3.934,3.934,0,0,1,3.1,1.3,5.1,5.1,0,0,1,1.148,3.508m-7.075,0a4.411,4.411,0,0,0,.711,2.711,2.824,2.824,0,0,0,4.19,0,4.388,4.388,0,0,0,.716-2.715,4.312,4.312,0,0,0-.716-2.689,2.516,2.516,0,0,0-2.114-.92,2.478,2.478,0,0,0-2.085.907,4.365,4.365,0,0,0-.7,2.7" transform="translate(41.598 71.724)"/>
      <path id="Trazado_6290" data-name="Trazado 6290" d="M104.754,170.456a3.963,3.963,0,0,1-3.122-1.241,5.105,5.105,0,0,1-1.106-3.512,5.26,5.26,0,0,1,1.124-3.6,4.038,4.038,0,0,1,3.2-1.271,6.378,6.378,0,0,1,1.339.143,4.439,4.439,0,0,1,1.051.34l-.432,1.194a6.666,6.666,0,0,0-1.016-.309,4.514,4.514,0,0,0-.975-.123q-2.83,0-2.83,3.609a4.3,4.3,0,0,0,.691,2.627,2.4,2.4,0,0,0,2.046.914,6.262,6.262,0,0,0,2.38-.5v1.245a5.07,5.07,0,0,1-2.347.483" transform="translate(44.83 71.724)"/>
      <path id="Trazado_6291" data-name="Trazado 6291" d="M110.68,170.456a4.263,4.263,0,0,1-3.249-1.254,4.857,4.857,0,0,1-1.191-3.483,5.378,5.378,0,0,1,1.106-3.566,3.67,3.67,0,0,1,2.97-1.322,3.5,3.5,0,0,1,2.762,1.147,4.4,4.4,0,0,1,1.017,3.029v.889h-6.4a3.685,3.685,0,0,0,.826,2.483,2.859,2.859,0,0,0,2.208.847,7.484,7.484,0,0,0,2.966-.626v1.254a7.439,7.439,0,0,1-1.411.461,7.872,7.872,0,0,1-1.605.14m-.382-8.447a2.293,2.293,0,0,0-1.783.729,3.35,3.35,0,0,0-.784,2.016h4.854a3.1,3.1,0,0,0-.593-2.037,2.089,2.089,0,0,0-1.695-.707" transform="translate(47.378 71.724)"/>
      <path id="Trazado_6292" data-name="Trazado 6292" d="M119.5,167.753a2.327,2.327,0,0,1-.966,2,4.541,4.541,0,0,1-2.711.7,5.9,5.9,0,0,1-2.88-.584v-1.306a6.886,6.886,0,0,0,1.436.535,6.053,6.053,0,0,0,1.478.194,3.353,3.353,0,0,0,1.695-.351,1.209,1.209,0,0,0,.123-2,7.4,7.4,0,0,0-1.833-.91,9.983,9.983,0,0,1-1.844-.843,2.514,2.514,0,0,1-.813-.818,2.134,2.134,0,0,1-.268-1.093,2.084,2.084,0,0,1,.924-1.792,4.3,4.3,0,0,1,2.533-.656,7.417,7.417,0,0,1,2.931.61l-.5,1.144a6.726,6.726,0,0,0-2.533-.577,2.921,2.921,0,0,0-1.508.314.97.97,0,0,0-.509.865,1.049,1.049,0,0,0,.191.635,1.87,1.87,0,0,0,.615.5,13.717,13.717,0,0,0,1.627.687,6.091,6.091,0,0,1,2.233,1.21,2.142,2.142,0,0,1,.58,1.534" transform="translate(50.357 71.724)"/>
      <path id="Trazado_6293" data-name="Trazado 6293" d="M127.229,165.635a5.124,5.124,0,0,1-1.144,3.545,4.03,4.03,0,0,1-3.161,1.275,4.191,4.191,0,0,1-2.211-.584,3.872,3.872,0,0,1-1.492-1.677,5.853,5.853,0,0,1-.525-2.559,5.116,5.116,0,0,1,1.135-3.537,4.017,4.017,0,0,1,3.152-1.267,3.934,3.934,0,0,1,3.1,1.3,5.1,5.1,0,0,1,1.148,3.508m-7.075,0a4.411,4.411,0,0,0,.711,2.711,2.824,2.824,0,0,0,4.19,0,4.387,4.387,0,0,0,.716-2.715,4.312,4.312,0,0,0-.716-2.689,2.516,2.516,0,0,0-2.114-.92,2.478,2.478,0,0,0-2.085.907,4.365,4.365,0,0,0-.7,2.7" transform="translate(52.933 71.724)"/>
      <path id="Trazado_6294" data-name="Trazado 6294" d="M132.474,167.753a2.327,2.327,0,0,1-.966,2,4.541,4.541,0,0,1-2.711.7,5.9,5.9,0,0,1-2.88-.584v-1.306a6.886,6.886,0,0,0,1.436.535,6.053,6.053,0,0,0,1.478.194,3.353,3.353,0,0,0,1.695-.351,1.209,1.209,0,0,0,.123-2,7.4,7.4,0,0,0-1.833-.91,9.983,9.983,0,0,1-1.844-.843,2.514,2.514,0,0,1-.813-.818,2.134,2.134,0,0,1-.267-1.093,2.084,2.084,0,0,1,.924-1.792,4.3,4.3,0,0,1,2.533-.656,7.417,7.417,0,0,1,2.931.61l-.5,1.144a6.726,6.726,0,0,0-2.533-.577,2.921,2.921,0,0,0-1.508.314.97.97,0,0,0-.509.865,1.049,1.049,0,0,0,.191.635,1.869,1.869,0,0,0,.615.5,13.719,13.719,0,0,0,1.627.687,6.091,6.091,0,0,1,2.233,1.21,2.142,2.142,0,0,1,.58,1.534" transform="translate(56.142 71.724)"/>
      <path id="Trazado_6295" data-name="Trazado 6295" d="M139.227,170.456a4.263,4.263,0,0,1-3.249-1.254,4.857,4.857,0,0,1-1.191-3.483,5.378,5.378,0,0,1,1.106-3.566,3.67,3.67,0,0,1,2.97-1.322,3.5,3.5,0,0,1,2.762,1.147,4.4,4.4,0,0,1,1.017,3.029v.889h-6.4a3.685,3.685,0,0,0,.826,2.483,2.859,2.859,0,0,0,2.208.847,7.484,7.484,0,0,0,2.966-.626v1.254a7.439,7.439,0,0,1-1.411.461,7.872,7.872,0,0,1-1.605.14m-.382-8.447a2.293,2.293,0,0,0-1.783.729,3.35,3.35,0,0,0-.784,2.016h4.854a3.1,3.1,0,0,0-.593-2.037,2.089,2.089,0,0,0-1.695-.707" transform="translate(60.109 71.724)"/>
      <path id="Trazado_6296" data-name="Trazado 6296" d="M153.712,170.286v-6.041a2.506,2.506,0,0,0-.474-1.664,1.836,1.836,0,0,0-1.475-.555,2.377,2.377,0,0,0-1.939.755,3.571,3.571,0,0,0-.628,2.321v5.185h-1.407v-6.041a2.506,2.506,0,0,0-.474-1.664,1.845,1.845,0,0,0-1.482-.555,2.3,2.3,0,0,0-1.936.792,4.289,4.289,0,0,0-.615,2.6v4.871h-1.407V161h1.144l.23,1.271h.068a2.753,2.753,0,0,1,1.122-1.058,3.426,3.426,0,0,1,1.622-.382,2.759,2.759,0,0,1,2.847,1.576h.068a2.948,2.948,0,0,1,1.2-1.152,3.736,3.736,0,0,1,1.8-.424,3.142,3.142,0,0,1,2.36.81,3.62,3.62,0,0,1,.784,2.588v6.057Z" transform="translate(63.27 71.724)"/>
      <path id="Trazado_6297" data-name="Trazado 6297" d="M157.36,170.455a4.03,4.03,0,0,1-1.657-.334,3.12,3.12,0,0,1-1.258-1.03h-.1a12.4,12.4,0,0,1,.1,1.541v3.822h-1.407V161h1.144l.2,1.271h.068a3.259,3.259,0,0,1,1.262-1.1,3.844,3.844,0,0,1,1.653-.338,3.431,3.431,0,0,1,2.85,1.262,6.719,6.719,0,0,1-.016,7.1,3.438,3.438,0,0,1-2.834,1.267m-.2-8.43a2.5,2.5,0,0,0-2.059.788,4.054,4.054,0,0,0-.652,2.507v.314a4.649,4.649,0,0,0,.652,2.8,2.484,2.484,0,0,0,2.092.843,2.176,2.176,0,0,0,1.886-.975,4.616,4.616,0,0,0,.682-2.687,4.438,4.438,0,0,0-.682-2.663,2.242,2.242,0,0,0-1.919-.928" transform="translate(68.248 71.724)"/>
      <path id="Trazado_6298" data-name="Trazado 6298" d="M164.628,160.831a5.5,5.5,0,0,1,1.111.1l-.2,1.306a4.756,4.756,0,0,0-1.017-.127,2.473,2.473,0,0,0-1.927.915,3.335,3.335,0,0,0-.8,2.279v4.981h-1.407V161h1.161l.16,1.721h.068a4.087,4.087,0,0,1,1.246-1.4,2.8,2.8,0,0,1,1.6-.492" transform="translate(71.527 71.724)"/>
      <path id="Trazado_6299" data-name="Trazado 6299" d="M169.373,170.456a4.263,4.263,0,0,1-3.249-1.254,4.857,4.857,0,0,1-1.191-3.483,5.378,5.378,0,0,1,1.106-3.566,3.67,3.67,0,0,1,2.97-1.322,3.5,3.5,0,0,1,2.762,1.147,4.4,4.4,0,0,1,1.017,3.029v.889h-6.4a3.686,3.686,0,0,0,.826,2.483,2.859,2.859,0,0,0,2.208.847,7.484,7.484,0,0,0,2.966-.626v1.254a7.439,7.439,0,0,1-1.411.461,7.872,7.872,0,0,1-1.605.14m-.382-8.447a2.293,2.293,0,0,0-1.783.729,3.35,3.35,0,0,0-.784,2.016h4.854a3.1,3.1,0,0,0-.593-2.037,2.089,2.089,0,0,0-1.695-.707" transform="translate(73.552 71.724)"/>
      <path id="Trazado_6300" data-name="Trazado 6300" d="M178.2,167.753a2.327,2.327,0,0,1-.966,2,4.541,4.541,0,0,1-2.711.7,5.9,5.9,0,0,1-2.88-.584v-1.306a6.885,6.885,0,0,0,1.436.535,6.052,6.052,0,0,0,1.478.194,3.353,3.353,0,0,0,1.695-.351,1.209,1.209,0,0,0,.123-2,7.4,7.4,0,0,0-1.833-.91,9.982,9.982,0,0,1-1.844-.843,2.514,2.514,0,0,1-.813-.818,2.134,2.134,0,0,1-.268-1.093,2.084,2.084,0,0,1,.924-1.792,4.3,4.3,0,0,1,2.533-.656,7.417,7.417,0,0,1,2.931.61l-.5,1.144a6.726,6.726,0,0,0-2.533-.577,2.921,2.921,0,0,0-1.508.314.97.97,0,0,0-.509.865,1.049,1.049,0,0,0,.191.635,1.869,1.869,0,0,0,.615.5,13.716,13.716,0,0,0,1.627.687,6.091,6.091,0,0,1,2.233,1.21,2.143,2.143,0,0,1,.58,1.534" transform="translate(76.531 71.724)"/>
      <path id="Trazado_6301" data-name="Trazado 6301" d="M183.671,170.282l-.279-1.323h-.068a3.908,3.908,0,0,1-1.385,1.183,4.234,4.234,0,0,1-1.724.309,3.1,3.1,0,0,1-2.165-.711,2.6,2.6,0,0,1-.784-2.026q0-2.813,4.5-2.948l1.576-.051v-.577a2.364,2.364,0,0,0-.47-1.614,1.937,1.937,0,0,0-1.5-.521,6.129,6.129,0,0,0-2.627.711l-.432-1.076a6.57,6.57,0,0,1,1.5-.584,6.493,6.493,0,0,1,1.64-.213,3.534,3.534,0,0,1,2.461.737,3.079,3.079,0,0,1,.8,2.364v6.338Zm-3.177-.992a2.857,2.857,0,0,0,2.063-.72,2.668,2.668,0,0,0,.749-2.017v-.839l-1.405.059a5.123,5.123,0,0,0-2.419.522,1.571,1.571,0,0,0-.742,1.436,1.456,1.456,0,0,0,.461,1.161,1.923,1.923,0,0,0,1.293.4" transform="translate(79.053 71.729)"/>
      <path id="Trazado_6302" data-name="Trazado 6302" d="M188.657,160.831a5.5,5.5,0,0,1,1.11.1l-.2,1.306a4.756,4.756,0,0,0-1.017-.127,2.473,2.473,0,0,0-1.927.915,3.335,3.335,0,0,0-.8,2.279v4.981H184.42V161h1.161l.16,1.721h.068a4.087,4.087,0,0,1,1.246-1.4,2.8,2.8,0,0,1,1.6-.492" transform="translate(82.243 71.724)"/>
      <path id="Trazado_6303" data-name="Trazado 6303" d="M189.237,159.5a.938.938,0,0,1,.237-.707.88.88,0,0,1,1.178,0,.918.918,0,0,1,.246.7.937.937,0,0,1-.246.709.825.825,0,0,1-.586.233.816.816,0,0,1-.593-.233.957.957,0,0,1-.237-.709m1.525,11.8h-1.407v-9.286h1.407Z" transform="translate(84.391 70.713)"/>
      <path id="Trazado_6304" data-name="Trazado 6304" d="M198.278,170.282,198,168.959h-.068a3.908,3.908,0,0,1-1.385,1.183,4.234,4.234,0,0,1-1.724.309,3.1,3.1,0,0,1-2.165-.711,2.6,2.6,0,0,1-.784-2.026q0-2.813,4.5-2.948l1.576-.051v-.577a2.363,2.363,0,0,0-.47-1.614,1.936,1.936,0,0,0-1.5-.521,6.129,6.129,0,0,0-2.627.711l-.432-1.076a6.569,6.569,0,0,1,1.5-.584,6.493,6.493,0,0,1,1.64-.213,3.534,3.534,0,0,1,2.461.737,3.079,3.079,0,0,1,.8,2.364v6.338Zm-3.177-.992a2.858,2.858,0,0,0,2.063-.72,2.668,2.668,0,0,0,.749-2.017v-.839l-1.405.059a5.123,5.123,0,0,0-2.419.522,1.571,1.571,0,0,0-.742,1.436,1.456,1.456,0,0,0,.461,1.161,1.923,1.923,0,0,0,1.293.4" transform="translate(85.567 71.729)"/>
      <rect id="Rectángulo_5423" data-name="Rectángulo 5423" width="1.407" height="13.183" transform="translate(287.786 228.827)"/>
      <path id="Trazado_6305" data-name="Trazado 6305" d="M206.147,170.456A4.263,4.263,0,0,1,202.9,169.2a4.857,4.857,0,0,1-1.191-3.483,5.378,5.378,0,0,1,1.106-3.566,3.67,3.67,0,0,1,2.97-1.322,3.5,3.5,0,0,1,2.762,1.147,4.4,4.4,0,0,1,1.017,3.029v.889h-6.4a3.685,3.685,0,0,0,.826,2.483,2.859,2.859,0,0,0,2.208.847,7.484,7.484,0,0,0,2.966-.626v1.254a7.439,7.439,0,0,1-1.411.461,7.872,7.872,0,0,1-1.605.14m-.382-8.447a2.293,2.293,0,0,0-1.783.729,3.35,3.35,0,0,0-.784,2.016h4.854a3.1,3.1,0,0,0-.593-2.037,2.089,2.089,0,0,0-1.695-.707" transform="translate(89.952 71.724)"/>
      <path id="Trazado_6306" data-name="Trazado 6306" d="M214.968,167.753a2.327,2.327,0,0,1-.966,2,4.541,4.541,0,0,1-2.711.7,5.9,5.9,0,0,1-2.88-.584v-1.306a6.887,6.887,0,0,0,1.436.535,6.053,6.053,0,0,0,1.478.194,3.353,3.353,0,0,0,1.695-.351,1.209,1.209,0,0,0,.123-2,7.4,7.4,0,0,0-1.833-.91,9.983,9.983,0,0,1-1.844-.843,2.514,2.514,0,0,1-.813-.818,2.134,2.134,0,0,1-.268-1.093,2.084,2.084,0,0,1,.924-1.792,4.3,4.3,0,0,1,2.533-.656,7.417,7.417,0,0,1,2.931.61l-.5,1.144a6.726,6.726,0,0,0-2.533-.577,2.921,2.921,0,0,0-1.508.314.97.97,0,0,0-.509.865,1.049,1.049,0,0,0,.191.635,1.87,1.87,0,0,0,.615.5,13.721,13.721,0,0,0,1.627.687,6.091,6.091,0,0,1,2.233,1.21,2.142,2.142,0,0,1,.58,1.534" transform="translate(92.931 71.724)"/>
      <path id="Trazado_6307" data-name="Trazado 6307" d="M77.172,180.034a5.124,5.124,0,0,1-1.144,3.546,4.03,4.03,0,0,1-3.161,1.275,4.19,4.19,0,0,1-2.211-.584,3.872,3.872,0,0,1-1.492-1.677,5.853,5.853,0,0,1-.525-2.559,5.116,5.116,0,0,1,1.135-3.537,4.017,4.017,0,0,1,3.152-1.267,3.934,3.934,0,0,1,3.1,1.3,5.1,5.1,0,0,1,1.148,3.508m-7.075,0a4.411,4.411,0,0,0,.711,2.711,2.824,2.824,0,0,0,4.19,0,4.388,4.388,0,0,0,.716-2.716A4.312,4.312,0,0,0,75,177.345a2.516,2.516,0,0,0-2.114-.92,2.478,2.478,0,0,0-2.085.907,4.365,4.365,0,0,0-.7,2.7" transform="translate(30.61 78.145)"/>
      <path id="Trazado_6308" data-name="Trazado 6308" d="M80.482,175.231a5.507,5.507,0,0,1,1.11.1l-.2,1.306a4.76,4.76,0,0,0-1.017-.127,2.473,2.473,0,0,0-1.927.915,3.335,3.335,0,0,0-.8,2.279v4.981H76.245V175.4h1.161l.161,1.721h.068a4.087,4.087,0,0,1,1.246-1.4,2.8,2.8,0,0,1,1.6-.492" transform="translate(34.002 78.145)"/>
      <path id="Trazado_6309" data-name="Trazado 6309" d="M81.061,173.9a.934.934,0,0,1,.239-.709.878.878,0,0,1,1.177,0,.922.922,0,0,1,.246.7.933.933,0,0,1-.246.707.822.822,0,0,1-.584.233.813.813,0,0,1-.593-.233.948.948,0,0,1-.239-.707m1.525,11.8H81.18v-9.286h1.407Z" transform="translate(36.15 77.134)"/>
      <path id="Trazado_6310" data-name="Trazado 6310" d="M88.262,184.855a4.263,4.263,0,0,1-3.249-1.254,4.857,4.857,0,0,1-1.191-3.483,5.378,5.378,0,0,1,1.106-3.566,3.67,3.67,0,0,1,2.97-1.322,3.5,3.5,0,0,1,2.762,1.147,4.4,4.4,0,0,1,1.017,3.029v.889h-6.4a3.685,3.685,0,0,0,.826,2.483,2.859,2.859,0,0,0,2.208.847A7.485,7.485,0,0,0,91.278,183v1.254a7.437,7.437,0,0,1-1.411.461,7.873,7.873,0,0,1-1.605.14m-.382-8.447a2.293,2.293,0,0,0-1.783.729,3.35,3.35,0,0,0-.784,2.016h4.854a3.1,3.1,0,0,0-.593-2.037,2.089,2.089,0,0,0-1.695-.707" transform="translate(37.381 78.145)"/>
      <path id="Trazado_6311" data-name="Trazado 6311" d="M97.266,184.686V178.68a2.425,2.425,0,0,0-.516-1.695,2.109,2.109,0,0,0-1.619-.56,2.669,2.669,0,0,0-2.134.788,3.973,3.973,0,0,0-.678,2.6v4.871H90.911V175.4h1.144l.23,1.271h.068a2.874,2.874,0,0,1,1.21-1.063,3.938,3.938,0,0,1,1.738-.377,3.522,3.522,0,0,1,2.525.81,3.445,3.445,0,0,1,.847,2.588v6.057Z" transform="translate(40.542 78.145)"/>
      <path id="Trazado_6312" data-name="Trazado 6312" d="M101.655,184.306a5.01,5.01,0,0,0,1.27-.169v1.076a2.561,2.561,0,0,1-.674.182,5.1,5.1,0,0,1-.8.072q-2.694,0-2.694-2.838v-5.524h-1.33v-.678l1.33-.586.594-1.982h.813v2.153h2.694v1.093h-2.694v5.464a1.881,1.881,0,0,0,.4,1.287,1.389,1.389,0,0,0,1.095.45" transform="translate(43.448 77.534)"/>
      <path id="Trazado_6313" data-name="Trazado 6313" d="M108.437,184.681l-.279-1.323h-.068a3.908,3.908,0,0,1-1.385,1.183,4.235,4.235,0,0,1-1.724.309,3.1,3.1,0,0,1-2.165-.711,2.6,2.6,0,0,1-.784-2.026q0-2.813,4.5-2.948l1.576-.051v-.577a2.363,2.363,0,0,0-.47-1.614,1.936,1.936,0,0,0-1.5-.521,6.129,6.129,0,0,0-2.627.711l-.432-1.076a6.569,6.569,0,0,1,1.5-.584,6.493,6.493,0,0,1,1.64-.213,3.534,3.534,0,0,1,2.461.737,3.079,3.079,0,0,1,.8,2.364v6.338Zm-3.177-.992a2.858,2.858,0,0,0,2.063-.72,2.668,2.668,0,0,0,.749-2.017v-.839l-1.405.059a5.123,5.123,0,0,0-2.419.522,1.571,1.571,0,0,0-.742,1.436,1.456,1.456,0,0,0,.461,1.161,1.923,1.923,0,0,0,1.293.4" transform="translate(45.502 78.15)"/>
      <path id="Trazado_6314" data-name="Trazado 6314" d="M115.665,184.59h-.075A3.308,3.308,0,0,1,112.675,186a3.449,3.449,0,0,1-2.834-1.245,5.478,5.478,0,0,1-1.012-3.541,5.573,5.573,0,0,1,1.017-3.567,3.421,3.421,0,0,1,2.83-1.271,3.38,3.38,0,0,1,2.9,1.372h.11l-.059-.668-.033-.654v-3.778H117v13.183h-1.144Zm-2.812.237a2.559,2.559,0,0,0,2.088-.784,3.956,3.956,0,0,0,.649-2.529v-.3a4.653,4.653,0,0,0-.658-2.817,2.49,2.49,0,0,0-2.1-.843,2.148,2.148,0,0,0-1.893.962,4.776,4.776,0,0,0-.656,2.715,4.581,4.581,0,0,0,.652,2.685,2.209,2.209,0,0,0,1.914.907" transform="translate(48.533 76.995)"/>
      <path id="Trazado_6315" data-name="Trazado 6315" d="M124.715,180.034a5.124,5.124,0,0,1-1.144,3.546,4.03,4.03,0,0,1-3.161,1.275,4.19,4.19,0,0,1-2.211-.584,3.872,3.872,0,0,1-1.492-1.677,5.853,5.853,0,0,1-.525-2.559,5.116,5.116,0,0,1,1.135-3.537,4.016,4.016,0,0,1,3.152-1.267,3.934,3.934,0,0,1,3.1,1.3,5.1,5.1,0,0,1,1.148,3.508m-7.075,0a4.411,4.411,0,0,0,.711,2.711,2.824,2.824,0,0,0,4.19,0,4.388,4.388,0,0,0,.716-2.716,4.312,4.312,0,0,0-.716-2.689,2.516,2.516,0,0,0-2.114-.92,2.478,2.478,0,0,0-2.085.907,4.365,4.365,0,0,0-.7,2.7" transform="translate(51.812 78.145)"/>
      <path id="Trazado_6316" data-name="Trazado 6316" d="M129.961,182.153a2.327,2.327,0,0,1-.966,2,4.54,4.54,0,0,1-2.711.7,5.9,5.9,0,0,1-2.88-.584v-1.306a6.884,6.884,0,0,0,1.436.535,6.052,6.052,0,0,0,1.478.194,3.353,3.353,0,0,0,1.695-.351,1.209,1.209,0,0,0,.123-2,7.4,7.4,0,0,0-1.833-.91,9.984,9.984,0,0,1-1.844-.843,2.514,2.514,0,0,1-.813-.818,2.134,2.134,0,0,1-.268-1.093,2.084,2.084,0,0,1,.924-1.792,4.3,4.3,0,0,1,2.533-.656,7.417,7.417,0,0,1,2.931.61l-.5,1.144a6.726,6.726,0,0,0-2.533-.577,2.921,2.921,0,0,0-1.508.314.97.97,0,0,0-.509.865,1.049,1.049,0,0,0,.191.635,1.87,1.87,0,0,0,.615.5,13.72,13.72,0,0,0,1.627.687,6.091,6.091,0,0,1,2.233,1.21,2.143,2.143,0,0,1,.58,1.534" transform="translate(55.021 78.145)"/>
      <path id="Trazado_6317" data-name="Trazado 6317" d="M138.984,185.836v-6.007a2.425,2.425,0,0,0-.516-1.695,2.109,2.109,0,0,0-1.619-.56,2.651,2.651,0,0,0-2.139.8,4.03,4.03,0,0,0-.674,2.61v4.854h-1.407V172.653h1.407v3.991a8.751,8.751,0,0,1-.068,1.194h.085a2.868,2.868,0,0,1,1.181-1.056,3.858,3.858,0,0,1,1.75-.385,3.586,3.586,0,0,1,2.555.808,3.412,3.412,0,0,1,.852,2.572v6.057Z" transform="translate(59.147 76.996)"/>
      <path id="Trazado_6318" data-name="Trazado 6318" d="M145.919,184.681l-.279-1.323h-.068a3.908,3.908,0,0,1-1.385,1.183,4.235,4.235,0,0,1-1.724.309,3.1,3.1,0,0,1-2.165-.711,2.6,2.6,0,0,1-.784-2.026q0-2.813,4.5-2.948l1.576-.051v-.577a2.364,2.364,0,0,0-.47-1.614,1.937,1.937,0,0,0-1.5-.521,6.129,6.129,0,0,0-2.627.711l-.432-1.076a6.569,6.569,0,0,1,1.5-.584,6.494,6.494,0,0,1,1.64-.213,3.534,3.534,0,0,1,2.461.737,3.079,3.079,0,0,1,.8,2.364v6.338Zm-3.177-.992a2.857,2.857,0,0,0,2.063-.72,2.668,2.668,0,0,0,.749-2.017v-.839l-1.405.059a5.123,5.123,0,0,0-2.419.522,1.571,1.571,0,0,0-.742,1.436,1.456,1.456,0,0,0,.461,1.161,1.922,1.922,0,0,0,1.293.4" transform="translate(62.218 78.15)"/>
      <path id="Trazado_6319" data-name="Trazado 6319" d="M150.539,184.855a3.963,3.963,0,0,1-3.122-1.241,5.105,5.105,0,0,1-1.106-3.512,5.26,5.26,0,0,1,1.124-3.6,4.038,4.038,0,0,1,3.2-1.271,6.376,6.376,0,0,1,1.339.143,4.436,4.436,0,0,1,1.051.34l-.432,1.194a6.658,6.658,0,0,0-1.016-.309,4.514,4.514,0,0,0-.975-.123q-2.831,0-2.83,3.609a4.294,4.294,0,0,0,.691,2.627,2.4,2.4,0,0,0,2.046.914,6.261,6.261,0,0,0,2.38-.5v1.245a5.07,5.07,0,0,1-2.347.483" transform="translate(65.248 78.145)"/>
      <path id="Trazado_6320" data-name="Trazado 6320" d="M152.3,173.9a.934.934,0,0,1,.237-.709.878.878,0,0,1,1.177,0,.916.916,0,0,1,.246.7.928.928,0,0,1-.246.707.822.822,0,0,1-.584.233.813.813,0,0,1-.593-.233.948.948,0,0,1-.237-.707m1.524,11.8h-1.407v-9.286h1.407Z" transform="translate(67.919 77.134)"/>
      <path id="Trazado_6321" data-name="Trazado 6321" d="M161.341,184.681l-.279-1.323h-.068a3.909,3.909,0,0,1-1.385,1.183,4.235,4.235,0,0,1-1.724.309,3.1,3.1,0,0,1-2.165-.711,2.6,2.6,0,0,1-.784-2.026q0-2.813,4.5-2.948l1.576-.051v-.577a2.363,2.363,0,0,0-.47-1.614,1.936,1.936,0,0,0-1.5-.521,6.129,6.129,0,0,0-2.627.711l-.432-1.076a6.569,6.569,0,0,1,1.5-.584,6.494,6.494,0,0,1,1.64-.213,3.534,3.534,0,0,1,2.461.737,3.079,3.079,0,0,1,.8,2.364v6.338Zm-3.177-.992a2.857,2.857,0,0,0,2.063-.72,2.668,2.668,0,0,0,.749-2.017v-.839l-1.405.059a5.123,5.123,0,0,0-2.419.522,1.571,1.571,0,0,0-.742,1.436,1.456,1.456,0,0,0,.461,1.161,1.923,1.923,0,0,0,1.293.4" transform="translate(69.095 78.15)"/>
      <rect id="Rectángulo_5424" data-name="Rectángulo 5424" width="1.407" height="13.183" transform="translate(238.884 249.649)"/>
      <path id="Trazado_6322" data-name="Trazado 6322" d="M176.418,180.034a5.124,5.124,0,0,1-1.144,3.546,4.03,4.03,0,0,1-3.161,1.275,4.19,4.19,0,0,1-2.211-.584,3.872,3.872,0,0,1-1.492-1.677,5.853,5.853,0,0,1-.525-2.559,5.116,5.116,0,0,1,1.135-3.537,4.017,4.017,0,0,1,3.152-1.267,3.934,3.934,0,0,1,3.1,1.3,5.1,5.1,0,0,1,1.148,3.508m-7.075,0a4.411,4.411,0,0,0,.711,2.711,2.824,2.824,0,0,0,4.19,0,4.388,4.388,0,0,0,.716-2.716,4.312,4.312,0,0,0-.716-2.689,2.516,2.516,0,0,0-2.114-.92,2.478,2.478,0,0,0-2.085.907,4.365,4.365,0,0,0-.7,2.7" transform="translate(74.869 78.145)"/>
      <path id="Trazado_6323" data-name="Trazado 6323" d="M181.664,182.153a2.327,2.327,0,0,1-.966,2,4.54,4.54,0,0,1-2.711.7,5.9,5.9,0,0,1-2.88-.584v-1.306a6.885,6.885,0,0,0,1.436.535,6.052,6.052,0,0,0,1.478.194,3.353,3.353,0,0,0,1.695-.351,1.209,1.209,0,0,0,.123-2,7.4,7.4,0,0,0-1.833-.91,9.984,9.984,0,0,1-1.844-.843,2.514,2.514,0,0,1-.813-.818,2.134,2.134,0,0,1-.268-1.093,2.084,2.084,0,0,1,.924-1.792,4.3,4.3,0,0,1,2.533-.656,7.417,7.417,0,0,1,2.931.61l-.5,1.144a6.726,6.726,0,0,0-2.533-.577,2.921,2.921,0,0,0-1.508.314.969.969,0,0,0-.509.865,1.049,1.049,0,0,0,.191.635,1.869,1.869,0,0,0,.615.5,13.719,13.719,0,0,0,1.627.687,6.092,6.092,0,0,1,2.233,1.21,2.142,2.142,0,0,1,.58,1.534" transform="translate(78.078 78.145)"/>
      <path id="Trazado_6324" data-name="Trazado 6324" d="M188.2,184.855a3.963,3.963,0,0,1-3.122-1.241,5.105,5.105,0,0,1-1.106-3.512,5.26,5.26,0,0,1,1.124-3.6,4.038,4.038,0,0,1,3.2-1.271,6.377,6.377,0,0,1,1.339.143,4.436,4.436,0,0,1,1.051.34l-.432,1.194a6.658,6.658,0,0,0-1.017-.309,4.514,4.514,0,0,0-.975-.123q-2.83,0-2.83,3.609a4.3,4.3,0,0,0,.691,2.627,2.4,2.4,0,0,0,2.046.914,6.262,6.262,0,0,0,2.38-.5v1.245a5.07,5.07,0,0,1-2.347.483" transform="translate(82.045 78.145)"/>
      <rect id="Rectángulo_5425" data-name="Rectángulo 5425" width="1.407" height="13.183" transform="translate(274.798 249.649)"/>
      <path id="Trazado_6325" data-name="Trazado 6325" d="M193,173.9a.939.939,0,0,1,.237-.709.878.878,0,0,1,1.177,0,.916.916,0,0,1,.246.7.928.928,0,0,1-.246.707.822.822,0,0,1-.584.233.813.813,0,0,1-.593-.233A.953.953,0,0,1,193,173.9m1.525,11.8h-1.407v-9.286h1.407Z" transform="translate(86.069 77.134)"/>
      <path id="Trazado_6326" data-name="Trazado 6326" d="M200.2,184.855a4.263,4.263,0,0,1-3.249-1.254,4.857,4.857,0,0,1-1.191-3.483,5.378,5.378,0,0,1,1.106-3.566,3.67,3.67,0,0,1,2.97-1.322,3.5,3.5,0,0,1,2.762,1.147,4.4,4.4,0,0,1,1.016,3.029v.889h-6.4a3.685,3.685,0,0,0,.826,2.483,2.859,2.859,0,0,0,2.208.847,7.485,7.485,0,0,0,2.966-.626v1.254a7.438,7.438,0,0,1-1.411.461,7.873,7.873,0,0,1-1.605.14m-.382-8.447a2.293,2.293,0,0,0-1.783.729,3.35,3.35,0,0,0-.784,2.016H202.1a3.1,3.1,0,0,0-.593-2.037,2.089,2.089,0,0,0-1.695-.707" transform="translate(87.299 78.145)"/>
      <path id="Trazado_6327" data-name="Trazado 6327" d="M209.2,184.686V178.68a2.425,2.425,0,0,0-.516-1.695,2.109,2.109,0,0,0-1.619-.56,2.669,2.669,0,0,0-2.134.788,3.973,3.973,0,0,0-.678,2.6v4.871h-1.407V175.4h1.144l.23,1.271h.068a2.874,2.874,0,0,1,1.21-1.063,3.938,3.938,0,0,1,1.738-.377,3.523,3.523,0,0,1,2.525.81,3.445,3.445,0,0,1,.847,2.588v6.057Z" transform="translate(90.461 78.145)"/>
      <path id="Trazado_6328" data-name="Trazado 6328" d="M213.592,184.306a5.011,5.011,0,0,0,1.271-.169v1.076a2.561,2.561,0,0,1-.674.182,5.1,5.1,0,0,1-.8.072q-2.694,0-2.694-2.838v-5.524h-1.33v-.678l1.33-.586.593-1.982h.814v2.153H214.8v1.093H212.1v5.464a1.881,1.881,0,0,0,.4,1.287,1.388,1.388,0,0,0,1.093.45" transform="translate(93.367 77.534)"/>
      <path id="Trazado_6329" data-name="Trazado 6329" d="M218.533,184.855a4.263,4.263,0,0,1-3.249-1.254,4.857,4.857,0,0,1-1.191-3.483,5.378,5.378,0,0,1,1.106-3.566,3.67,3.67,0,0,1,2.97-1.322,3.5,3.5,0,0,1,2.762,1.147,4.4,4.4,0,0,1,1.017,3.029v.889h-6.4a3.685,3.685,0,0,0,.826,2.483,2.859,2.859,0,0,0,2.208.847,7.485,7.485,0,0,0,2.966-.626v1.254a7.438,7.438,0,0,1-1.411.461,7.873,7.873,0,0,1-1.605.14m-.382-8.447a2.293,2.293,0,0,0-1.783.729,3.35,3.35,0,0,0-.784,2.016h4.854a3.1,3.1,0,0,0-.593-2.037,2.089,2.089,0,0,0-1.695-.707" transform="translate(95.476 78.145)"/>
      <path id="Trazado_6330" data-name="Trazado 6330" d="M227.355,182.153a2.327,2.327,0,0,1-.966,2,4.54,4.54,0,0,1-2.711.7,5.9,5.9,0,0,1-2.88-.584v-1.306a6.885,6.885,0,0,0,1.436.535,6.052,6.052,0,0,0,1.478.194,3.353,3.353,0,0,0,1.695-.351,1.209,1.209,0,0,0,.123-2,7.4,7.4,0,0,0-1.833-.91,9.983,9.983,0,0,1-1.844-.843,2.515,2.515,0,0,1-.813-.818,2.134,2.134,0,0,1-.268-1.093,2.084,2.084,0,0,1,.924-1.792,4.3,4.3,0,0,1,2.533-.656,7.417,7.417,0,0,1,2.931.61l-.5,1.144a6.726,6.726,0,0,0-2.533-.577,2.92,2.92,0,0,0-1.508.314.97.97,0,0,0-.509.865,1.049,1.049,0,0,0,.191.635,1.87,1.87,0,0,0,.615.5,13.718,13.718,0,0,0,1.627.687,6.091,6.091,0,0,1,2.233,1.21,2.142,2.142,0,0,1,.58,1.534" transform="translate(98.455 78.145)"/>
    </g>
  </g>
</svg>
