<svg xmlns="http://www.w3.org/2000/svg" xmlns:xlink="http://www.w3.org/1999/xlink" width="320.138" height="290.716" viewBox="0 0 320.138 290.716">
  <defs>
    <clipPath id="clip-path">
      <path id="Trazado_6449" data-name="Trazado 6449" d="M855.207,148.139a10.373,10.373,0,0,0-10.373,10.372v40.537a10.375,10.375,0,0,0,10.373,10.373h25.748l10.772,14.538L902.5,209.422h25.745a10.375,10.375,0,0,0,10.375-10.373V158.511a10.373,10.373,0,0,0-10.375-10.372Z" transform="translate(-844.834 -148.139)" fill="none"/>
    </clipPath>
    <radialGradient id="radial-gradient" cx="0.5" cy="0.5" r="0.562" gradientTransform="matrix(0.808, 0, 0, -1, -1.021, 14.596)" gradientUnits="objectBoundingBox">
      <stop offset="0" stop-color="#8cbb69"/>
      <stop offset="0.784" stop-color="#6bad44"/>
      <stop offset="1" stop-color="#6bad44"/>
    </radialGradient>
    <clipPath id="clip-path-2">
      <path id="Trazado_6472" data-name="Trazado 6472" d="M915.236,309.353l-5.774,7.883-5.776-7.883-.319-.435-2.461,2.8-7.218,2.585s-4.36.764-5.012,6.43l-.535,5.517h42.574l-.468-5.517c-.652-5.666-5.011-6.43-5.011-6.43l-7.22-2.585-2.461-2.8Z" transform="translate(-888.141 -308.918)" fill="none"/>
    </clipPath>
    <radialGradient id="radial-gradient-2" r="0.938" gradientTransform="matrix(0.407, 0, 0, -1, -7.315, 52.891)" xlink:href="#radial-gradient"/>
    <clipPath id="clip-path-3">
      <path id="Trazado_6482" data-name="Trazado 6482" d="M702.329,118.686V42.225a10.19,10.19,0,0,1,10.177-10.179h32.169a10.191,10.191,0,0,1,10.178,10.179v66.038a.536.536,0,0,0,.113.332l15.56,20.27h-58.02a10.19,10.19,0,0,1-10.177-10.179m10.177-87.729A11.28,11.28,0,0,0,701.24,42.225v76.461a11.279,11.279,0,0,0,11.266,11.268H771.63a.134.134,0,0,0,.022,0,.544.544,0,0,0,.543-.545.537.537,0,0,0-.208-.428l-16.045-20.9V42.225a11.279,11.279,0,0,0-11.267-11.268Z" transform="translate(-701.24 -30.957)" fill="none"/>
    </clipPath>
    <radialGradient id="radial-gradient-3" r="0.435" gradientTransform="matrix(1.395, 0, 0, -1, 2.31, 12.579)" xlink:href="#radial-gradient"/>
    <clipPath id="clip-path-4">
      <path id="Trazado_6511" data-name="Trazado 6511" d="M1044.359,260.61a23.255,23.255,0,0,1,23.229-23.229H1102.7v28.511a23.255,23.255,0,0,1-23.227,23.229h-35.118Zm23.229-24.318a24.346,24.346,0,0,0-24.318,24.318v29.055a.545.545,0,0,0,.545.546h35.661a24.346,24.346,0,0,0,24.315-24.318V236.837a.545.545,0,0,0-.545-.545Z" transform="translate(-1043.27 -236.292)" fill="none"/>
    </clipPath>
    <radialGradient id="radial-gradient-4" r="0.531" gradientTransform="matrix(0.891, 0, 0, -1, -1.112, 18.591)" xlink:href="#radial-gradient"/>
    <clipPath id="clip-path-5">
      <path id="Trazado_6517" data-name="Trazado 6517" d="M706.027,390.538h4.09v33.278h10.572V390.538h4.091l-9.378-12.8Z" transform="translate(-706.027 -377.743)" fill="none"/>
    </clipPath>
    <radialGradient id="radial-gradient-5" r="0.382" gradientTransform="matrix(2.457, 0, 0, -1, 32.43, 18.126)" xlink:href="#radial-gradient"/>
    <clipPath id="clip-path-6">
      <path id="Trazado_6523" data-name="Trazado 6523" d="M1055.024,357.68l0,0-14.927-1.856,4.382,14.189a29.92,29.92,0,1,0,10.541-12.328" transform="translate(-1040.102 -352.64)" fill="none"/>
    </clipPath>
    <radialGradient id="radial-gradient-6" r="0.507" gradientTransform="matrix(0.974, 0, 0, -1, -0.264, 14.451)" xlink:href="#radial-gradient"/>
    <clipPath id="clip-path-7">
      <path id="Trazado_6536" data-name="Trazado 6536" d="M1026.538,91.186a5.9,5.9,0,1,0,5.9-5.9,5.9,5.9,0,0,0-5.9,5.9" transform="translate(-1026.538 -85.289)" fill="none"/>
    </clipPath>
    <radialGradient id="radial-gradient-7" r="0.5" gradientTransform="matrix(1, 0, 0, -1, -0.01, 100.133)" xlink:href="#radial-gradient"/>
    <clipPath id="clip-path-8">
      <path id="Trazado_6539" data-name="Trazado 6539" d="M741.389,261.015c-.083-2.723-.876-4.552-2.482-5.742a9.42,9.42,0,1,1,11.724.018,8.047,8.047,0,0,0-2.466,5.741v1.73h-6.776Zm-7.122-13.1a10.467,10.467,0,0,0,3.976,8.224c1.35,1,1.984,2.518,2.057,4.9v2.275a.544.544,0,0,0,.545.544h7.864a.544.544,0,0,0,.545-.544v-2.258a7.015,7.015,0,0,1,2.077-4.923,10.51,10.51,0,1,0-17.064-8.214" transform="translate(-734.267 -237.398)" fill="none"/>
    </clipPath>
    <radialGradient id="radial-gradient-8" r="0.452" gradientTransform="matrix(1.258, 0, 0, -1, 5.336, 37.845)" xlink:href="#radial-gradient"/>
    <clipPath id="clip-path-9">
      <path id="Trazado_6541" data-name="Trazado 6541" d="M745.639,281.38h6.683v5.953h-6.683Zm-.544-1.089a.544.544,0,0,0-.544.545v7.042a.543.543,0,0,0,.544.544h7.771a.543.543,0,0,0,.544-.544v-7.042a.544.544,0,0,0-.544-.545Z" transform="translate(-744.551 -280.291)" fill="none"/>
    </clipPath>
    <radialGradient id="radial-gradient-9" r="0.523" gradientTransform="matrix(0.918, 0, 0, -1, -4.087, 116.885)" xlink:href="#radial-gradient"/>
    <clipPath id="clip-path-10">
      <rect id="Rectángulo_5498" data-name="Rectángulo 5498" width="33.07" height="13.154" transform="translate(0 26.293) rotate(-52.663)" fill="none"/>
    </clipPath>
    <radialGradient id="radial-gradient-10" r="0.473" gradientTransform="matrix(1.123, 0, 0, -1, 2.559, 36.256)" xlink:href="#radial-gradient"/>
  </defs>
  <g id="Grupo_8731" data-name="Grupo 8731" transform="translate(-474.792 -77)">
    <path id="Trazado_6438" data-name="Trazado 6438" d="M941.923,228.252a3.8,3.8,0,0,0-3.793-3.79H830.578a3.8,3.8,0,0,0-3.793,3.79v4.724H941.923Z" transform="translate(-254.876 -14.727)" fill="#fff"/>
    <path id="Trazado_6439" data-name="Trazado 6439" d="M941.545,233.146H826.408a.544.544,0,0,1-.545-.545v-4.724a4.341,4.341,0,0,1,4.338-4.335H937.752a4.34,4.34,0,0,1,4.336,4.335V232.6a.544.544,0,0,1-.543.545m-114.593-1.089H941v-4.18a3.25,3.25,0,0,0-3.247-3.246H830.2a3.251,3.251,0,0,0-3.249,3.246Z" transform="translate(-254.499 -14.351)"/>
    <path id="Trazado_6440" data-name="Trazado 6440" d="M826.784,238.862v58.755H941.922V238.862Z" transform="translate(-254.876 -20.611)" fill="#144b8b"/>
    <path id="Trazado_6441" data-name="Trazado 6441" d="M941.546,297.785H826.409a.544.544,0,0,1-.545-.544V238.485a.543.543,0,0,1,.545-.544H941.546a.544.544,0,0,1,.543.544v58.756a.544.544,0,0,1-.543.544M826.953,296.7H941V239.03H826.953Z" transform="translate(-254.499 -20.235)"/>
    <path id="Trazado_6442" data-name="Trazado 6442" d="M924.834,362.869H890.513l-6.666,17.067H931.5Z" transform="translate(-278.195 -71.289)" fill="#e6e7e8"/>
    <path id="Trazado_6443" data-name="Trazado 6443" d="M931.123,380.1H883.47a.544.544,0,0,1-.507-.742l6.666-17.067a.544.544,0,0,1,.508-.347h34.322a.541.541,0,0,1,.507.347l6.664,17.067a.544.544,0,0,1-.507.742m-46.855-1.089h46.057l-6.239-15.978H890.509Z" transform="translate(-277.819 -70.913)"/>
    <line id="Línea_1042" data-name="Línea 1042" x2="63.992" transform="translate(597.483 308.648)" fill="#fff"/>
    <path id="Trazado_6444" data-name="Trazado 6444" d="M933.647,391.9H869.655a.544.544,0,0,1,0-1.089h63.992a.544.544,0,1,1,0,1.089" transform="translate(-272.173 -82.707)"/>
    <path id="Trazado_6445" data-name="Trazado 6445" d="M934.339,338.222H826.784v10.784a3.8,3.8,0,0,0,3.793,3.791H938.129a3.8,3.8,0,0,0,3.793-3.791V338.222Z" transform="translate(-254.875 -61.216)" fill="#fff"/>
    <path id="Trazado_6446" data-name="Trazado 6446" d="M937.752,352.965H830.2a4.342,4.342,0,0,1-4.338-4.336V337.846a.543.543,0,0,1,.545-.545H941.545a.543.543,0,0,1,.543.545v10.784a4.341,4.341,0,0,1-4.336,4.336m-110.8-14.575v10.24a3.251,3.251,0,0,0,3.249,3.247H937.752A3.25,3.25,0,0,0,941,348.629V338.39Z" transform="translate(-254.499 -60.84)"/>
    <path id="Trazado_6447" data-name="Trazado 6447" d="M925.077,350.714h-8.523a.545.545,0,1,1,0-1.089h8.523a.545.545,0,0,1,0,1.089" transform="translate(-291.338 -65.876)"/>
    <path id="Trazado_6448" data-name="Trazado 6448" d="M923.762,352.03a.545.545,0,0,1-.545-.545v-8.522a.545.545,0,0,1,1.09,0v8.522a.545.545,0,0,1-.545.545" transform="translate(-294.284 -62.931)"/>
    <g id="Grupo_8685" data-name="Grupo 8685" transform="translate(582.582 164.603)" clip-path="url(#clip-path)">
      <rect id="Rectángulo_5473" data-name="Rectángulo 5473" width="93.79" height="75.821" transform="translate(0 0)" fill="url(#radial-gradient)"/>
    </g>
    <path id="Trazado_6450" data-name="Trazado 6450" d="M891.351,224.127h0a.542.542,0,0,1-.436-.219L880.3,209.591H854.831a10.929,10.929,0,0,1-10.917-10.918V158.135a10.929,10.929,0,0,1,10.917-10.917h73.042a10.931,10.931,0,0,1,10.918,10.917v40.538a10.931,10.931,0,0,1-10.918,10.918H902.4l-10.613,14.317a.544.544,0,0,1-.437.219m-36.52-75.82A9.837,9.837,0,0,0,845,158.135v40.538a9.839,9.839,0,0,0,9.827,9.829h25.748a.543.543,0,0,1,.437.221l10.335,13.946,10.339-13.946a.542.542,0,0,1,.437-.221h25.746a9.84,9.84,0,0,0,9.83-9.829V158.135a9.839,9.839,0,0,0-9.83-9.827Z" transform="translate(-261.876 16.84)"/>
    <path id="Trazado_6451" data-name="Trazado 6451" d="M895.677,138.354v5.984H916.36v-5.984c.207-6.735,3.336-11.7,5.993-14.021a26.215,26.215,0,1,0-32.668,0c3.941,2.925,5.789,7.287,5.993,14.026" transform="translate(-276.544 45.275)" fill="#fff5d1"/>
    <path id="Trazado_6452" data-name="Trazado 6452" d="M915.984,144.506H895.3a.544.544,0,0,1-.544-.545v-5.984c-.2-6.576-1.979-10.774-5.773-13.589a26.754,26.754,0,1,1,33.333-.007c-2.659,2.32-5.589,7.126-5.788,13.613v5.967a.545.545,0,0,1-.545.545m-20.138-1.089H915.44v-5.44c.21-6.852,3.33-11.945,6.179-14.432a25.671,25.671,0,1,0-31.971-.019c4.071,3.021,5.988,7.477,6.2,14.435Z" transform="translate(-276.167 45.651)"/>
    <line id="Línea_1043" data-name="Línea 1043" y1="40.623" transform="translate(629.477 148.99)" fill="#fff"/>
    <path id="Trazado_6453" data-name="Trazado 6453" d="M923.759,162.528a.545.545,0,0,1-.545-.545V121.361a.545.545,0,0,1,1.089,0v40.623a.544.544,0,0,1-.544.545" transform="translate(-294.283 27.629)"/>
    <line id="Línea_1044" data-name="Línea 1044" x2="21.24" transform="translate(618.856 157.817)" fill="#fff"/>
    <path id="Trazado_6454" data-name="Trazado 6454" d="M927.04,136.832H905.8a.545.545,0,1,1,0-1.089h21.24a.545.545,0,0,1,0,1.089" transform="translate(-286.944 21.529)"/>
    <path id="Trazado_6455" data-name="Trazado 6455" d="M926.769,136.669l-8.528,14.778-8.53-14.778Z" transform="translate(-288.765 21.151)" fill="#e6dcbc"/>
    <path id="Trazado_6456" data-name="Trazado 6456" d="M917.865,151.616a.543.543,0,0,1-.471-.273l-8.529-14.778a.544.544,0,0,1,.471-.817h17.058a.544.544,0,0,1,.472.817l-8.53,14.778a.546.546,0,0,1-.471.273m-7.587-14.778,7.587,13.144,7.585-13.144Z" transform="translate(-288.388 21.527)"/>
    <rect id="Rectángulo_5474" data-name="Rectángulo 5474" width="25.283" height="5.334" transform="translate(616.836 189.612)" fill="#f1f2f2"/>
    <path id="Trazado_6457" data-name="Trazado 6457" d="M927.666,195.936H902.383a.545.545,0,0,1-.546-.546v-5.333a.545.545,0,0,1,.546-.544h25.283a.545.545,0,0,1,.545.544v5.333a.545.545,0,0,1-.545.546m-24.74-1.09h24.2V190.6h-24.2Z" transform="translate(-285.547 -0.444)"/>
    <path id="Trazado_6458" data-name="Trazado 6458" d="M921.747,230.62a3.46,3.46,0,0,0,3.46-3.458h-6.917a3.458,3.458,0,0,0,3.458,3.458" transform="translate(-292.27 -15.83)" fill="#fff"/>
    <path id="Trazado_6459" data-name="Trazado 6459" d="M921.37,230.788a4.007,4.007,0,0,1-4-4,.544.544,0,0,1,.545-.545h6.917a.543.543,0,0,1,.543.545,4.007,4.007,0,0,1-4,4m-2.863-3.458a2.915,2.915,0,0,0,5.727,0Z" transform="translate(-291.894 -15.454)"/>
    <path id="Trazado_6460" data-name="Trazado 6460" d="M906.212,199.452v9.887a8.531,8.531,0,0,0,3,6.5h15.2a8.526,8.526,0,0,0,3-6.5v-9.887Z" transform="translate(-287.335 -4.506)" fill="#fff"/>
    <path id="Trazado_6461" data-name="Trazado 6461" d="M924.033,216.006h-15.2a.549.549,0,0,1-.354-.131,9.09,9.09,0,0,1-3.191-6.912v-9.887a.544.544,0,0,1,.545-.545h21.2a.545.545,0,0,1,.545.545v9.887a9.087,9.087,0,0,1-3.192,6.912.546.546,0,0,1-.354.131m-14.992-1.089h14.786a8,8,0,0,0,2.662-5.954v-9.341H906.379v9.341a8,8,0,0,0,2.662,5.954" transform="translate(-286.958 -4.13)"/>
    <line id="Línea_1045" data-name="Línea 1045" x2="24.54" y2="2.011" transform="translate(617.207 197.684)" fill="#fff"/>
    <path id="Trazado_6462" data-name="Trazado 6462" d="M927.551,206.262l-.045,0-24.541-2.011a.544.544,0,0,1-.5-.587.562.562,0,0,1,.588-.5l24.54,2.011a.544.544,0,0,1-.044,1.087" transform="translate(-285.804 -6.023)"/>
    <line id="Línea_1046" data-name="Línea 1046" x2="24.54" y2="2.009" transform="translate(617.207 202.134)" fill="#fff"/>
    <path id="Trazado_6463" data-name="Trazado 6463" d="M927.551,213.787l-.045,0-24.541-2.009a.544.544,0,0,1-.5-.587.562.562,0,0,1,.588-.5L927.6,212.7a.544.544,0,0,1-.044,1.087" transform="translate(-285.804 -9.098)"/>
    <path id="Trazado_6464" data-name="Trazado 6464" d="M987.371,328.364l-.385-4.543c-.538-4.663-4.128-5.291-4.128-5.291l-5.939-2.129-2.028-2.3-.263.357-4.756,6.489-4.755-6.489-.263-.357-2.027,2.3-5.94,2.129s-3.586.628-4.126,5.291l-.441,4.543Z" transform="translate(-306.178 -51.358)" fill="#d1d3d4"/>
    <path id="Trazado_6465" data-name="Trazado 6465" d="M986.995,328.531H951.944a.546.546,0,0,1-.542-.6l.441-4.542c.581-5.02,4.535-5.768,4.576-5.774l5.718-2.058,1.934-2.2a.589.589,0,0,1,.432-.185.549.549,0,0,1,.414.222l4.579,6.249,4.579-6.249a.544.544,0,0,1,.848-.038l1.935,2.2,5.807,2.081c.034,0,3.913.786,4.485,5.742l.387,4.559a.542.542,0,0,1-.141.414.549.549,0,0,1-.4.176m-34.451-1.089H986.4l-.336-3.953c-.479-4.162-3.55-4.777-3.681-4.8l-6.026-2.152a.563.563,0,0,1-.224-.153l-1.581-1.794-4.618,6.3a.545.545,0,0,1-.879,0l-4.617-6.3-1.58,1.792a.552.552,0,0,1-.224.154l-5.941,2.128c-.218.048-3.286.663-3.769,4.842Z" transform="translate(-305.801 -50.981)"/>
    <path id="Trazado_6466" data-name="Trazado 6466" d="M984.2,293.473a7.131,7.131,0,0,1-7.132,7.13h-.3a7.132,7.132,0,0,1-7.129-7.13v-4.01a7.129,7.129,0,0,1,7.129-7.129h.3a7.129,7.129,0,0,1,7.132,7.129Z" transform="translate(-313.259 -38.377)" fill="#fff5d1"/>
    <path id="Trazado_6467" data-name="Trazado 6467" d="M976.7,300.772h-.3a7.684,7.684,0,0,1-7.674-7.675v-4.01a7.683,7.683,0,0,1,7.674-7.673h.3a7.683,7.683,0,0,1,7.675,7.673v4.01a7.684,7.684,0,0,1-7.675,7.675m-.3-18.269a6.592,6.592,0,0,0-6.586,6.584v4.01a6.594,6.594,0,0,0,6.586,6.586h.3a6.594,6.594,0,0,0,6.586-6.586v-4.01A6.593,6.593,0,0,0,976.7,282.5Z" transform="translate(-312.882 -38)"/>
    <path id="Trazado_6468" data-name="Trazado 6468" d="M871.735,328.364l-.384-4.543c-.536-4.663-4.126-5.291-4.126-5.291l-5.939-2.129-2.028-2.3-.264.357-4.755,6.489-4.754-6.489-.262-.357-2.028,2.3-5.94,2.129s-3.588.628-4.126,5.291l-.439,4.543Z" transform="translate(-258.923 -51.358)" fill="#d1d3d4"/>
    <path id="Trazado_6469" data-name="Trazado 6469" d="M871.359,328.531H836.313a.546.546,0,0,1-.542-.6l.439-4.542c.58-5.022,4.536-5.77,4.576-5.776l5.716-2.058,1.936-2.2a.559.559,0,0,1,.433-.185.55.55,0,0,1,.414.222l4.578,6.249,4.581-6.249a.551.551,0,0,1,.415-.222.6.6,0,0,1,.432.185l1.935,2.2,5.809,2.081c.034,0,3.913.785,4.483,5.744l.386,4.558a.544.544,0,0,1-.543.59m-34.445-1.089h33.854l-.334-3.953c-.479-4.162-3.549-4.777-3.681-4.8l-6.026-2.152a.566.566,0,0,1-.225-.153l-1.581-1.795-4.618,6.3a.545.545,0,0,1-.878,0l-4.617-6.3-1.581,1.794a.562.562,0,0,1-.224.153l-5.941,2.128c-.218.048-3.287.663-3.77,4.842Z" transform="translate(-258.547 -50.981)"/>
    <path id="Trazado_6470" data-name="Trazado 6470" d="M868.572,293.473a7.133,7.133,0,0,1-7.132,7.13h-.3a7.131,7.131,0,0,1-7.129-7.13v-4.01a7.129,7.129,0,0,1,7.129-7.129h.3a7.13,7.13,0,0,1,7.132,7.129Z" transform="translate(-266.003 -38.377)" fill="#fff5d1"/>
    <path id="Trazado_6471" data-name="Trazado 6471" d="M861.065,300.772h-.3a7.684,7.684,0,0,1-7.674-7.675v-4.01a7.683,7.683,0,0,1,7.674-7.673h.3a7.683,7.683,0,0,1,7.675,7.673v4.01a7.684,7.684,0,0,1-7.675,7.675m-.3-18.269a6.591,6.591,0,0,0-6.585,6.584v4.01a6.592,6.592,0,0,0,6.585,6.586h.3a6.594,6.594,0,0,0,6.587-6.586v-4.01a6.593,6.593,0,0,0-6.587-6.584Z" transform="translate(-265.627 -38)"/>
    <g id="Grupo_8690" data-name="Grupo 8690" transform="translate(608.191 259.677)">
      <g id="Grupo_8689" data-name="Grupo 8689" clip-path="url(#clip-path-2)">
        <rect id="Rectángulo_5476" data-name="Rectángulo 5476" width="42.574" height="17.329" transform="translate(0 0)" fill="url(#radial-gradient-2)"/>
      </g>
    </g>
    <path id="Trazado_6473" data-name="Trazado 6473" d="M930.339,326.413H887.765a.546.546,0,0,1-.542-.6l.535-5.516c.692-6.012,5.413-6.906,5.461-6.914l7-2.514,2.368-2.691a.523.523,0,0,1,.432-.184.544.544,0,0,1,.416.221l5.655,7.719,5.655-7.719a.544.544,0,0,1,.415-.221.507.507,0,0,1,.433.184l2.368,2.691,7.087,2.538c.035,0,4.683.929,5.368,6.88l.469,5.533a.538.538,0,0,1-.141.414.548.548,0,0,1-.4.176m-41.974-1.089h41.382l-.417-4.926c-.594-5.153-4.4-5.909-4.565-5.939l-7.308-2.61a.551.551,0,0,1-.224-.153l-2.014-2.288-5.693,7.773a.567.567,0,0,1-.878,0l-5.693-7.773-2.015,2.288a.548.548,0,0,1-.224.153l-7.218,2.586c-.25.054-4.06.81-4.654,5.98Z" transform="translate(-279.573 -48.863)"/>
    <path id="Rectángulo_5477" data-name="Rectángulo 5477" d="M8.84,0h0a8.84,8.84,0,0,1,8.84,8.84v4.512A8.841,8.841,0,0,1,8.84,22.193h0A8.84,8.84,0,0,1,0,13.353V8.84A8.84,8.84,0,0,1,8.84,0Z" transform="translate(620.637 236.859)" fill="#fff5d1"/>
    <path id="Trazado_6474" data-name="Trazado 6474" d="M917.832,292.693h-.36a9.216,9.216,0,0,1-9.2-9.206v-4.871a9.216,9.216,0,0,1,9.2-9.206h.36a9.216,9.216,0,0,1,9.205,9.206v4.871a9.217,9.217,0,0,1-9.205,9.206m-.36-22.193a8.126,8.126,0,0,0-8.117,8.117v4.871a8.127,8.127,0,0,0,8.117,8.117h.36a8.126,8.126,0,0,0,8.116-8.117v-4.871a8.125,8.125,0,0,0-8.116-8.117Z" transform="translate(-288.175 -33.095)"/>
    <path id="Trazado_6475" data-name="Trazado 6475" d="M970.528,203.667H952.922a.545.545,0,1,1,0-1.09h17.605a.545.545,0,0,1,0,1.09" transform="translate(-306.201 -5.783)"/>
    <path id="Trazado_6476" data-name="Trazado 6476" d="M963.359,213.413H952.922a.545.545,0,1,1,0-1.089h10.437a.545.545,0,0,1,0,1.089" transform="translate(-306.201 -9.766)"/>
    <path id="Trazado_6477" data-name="Trazado 6477" d="M963.359,193.923H952.922a.545.545,0,1,1,0-1.089h10.437a.545.545,0,0,1,0,1.089" transform="translate(-306.201 -1.802)"/>
    <path id="Trazado_6478" data-name="Trazado 6478" d="M882.434,203.667H864.827a.545.545,0,1,1,0-1.09h17.607a.545.545,0,0,1,0,1.09" transform="translate(-270.199 -5.783)"/>
    <path id="Trazado_6479" data-name="Trazado 6479" d="M887.389,213.413H876.952a.545.545,0,1,1,0-1.089h10.437a.545.545,0,0,1,0,1.089" transform="translate(-275.154 -9.766)"/>
    <path id="Trazado_6480" data-name="Trazado 6480" d="M887.389,193.923H876.952a.545.545,0,1,1,0-1.089h10.437a.545.545,0,0,1,0,1.089" transform="translate(-275.154 -1.802)"/>
    <path id="Trazado_6481" data-name="Trazado 6481" d="M712.882,31.878h32.169A10.723,10.723,0,0,1,755.773,42.6v66.038l16.233,21.146H712.882a10.724,10.724,0,0,1-10.722-10.723V42.6a10.724,10.724,0,0,1,10.722-10.723" transform="translate(-203.946 63.975)" fill="#fff"/>
    <g id="Grupo_8693" data-name="Grupo 8693" transform="translate(497.67 95.308)" clip-path="url(#clip-path-3)">
      <rect id="Rectángulo_5479" data-name="Rectángulo 5479" width="70.955" height="98.998" transform="translate(0 0)" fill="url(#radial-gradient-3)"/>
    </g>
    <path id="Trazado_6483" data-name="Trazado 6483" d="M714.13,101.373l.433-5.113c.606-5.252,4.646-5.958,4.646-5.958l6.688-2.4,2.281-2.591.3.4,5.354,7.306,5.352-7.306.3-.4,2.279,2.591,6.687,2.4s4.039.707,4.646,5.958l.5,5.113Z" transform="translate(-208.838 42.137)" fill="#144b8b"/>
    <path id="Trazado_6484" data-name="Trazado 6484" d="M753.232,101.542a.089.089,0,0,1-.022,0H713.754a.544.544,0,0,1-.542-.59l.433-5.114c.646-5.608,5.049-6.44,5.094-6.447l6.465-2.327,2.189-2.484a.572.572,0,0,1,.432-.185.549.549,0,0,1,.415.221l5.212,7.11,5.211-7.11a.547.547,0,0,1,.415-.221.578.578,0,0,1,.432.185l2.187,2.484,6.556,2.35c.035,0,4.362.869,5,6.408l.483,4.973a.526.526,0,0,1,.038.2.543.543,0,0,1-.544.545m-38.884-1.088h38.263l-.439-4.518c-.552-4.782-4.161-5.468-4.2-5.473l-6.777-2.42a.553.553,0,0,1-.225-.153l-1.832-2.083-5.248,7.164a.569.569,0,0,1-.879,0l-5.249-7.164-1.834,2.083a.547.547,0,0,1-.224.153l-6.688,2.4c-.237.05-3.739.748-4.287,5.508Z" transform="translate(-208.462 42.514)"/>
    <path id="Trazado_6485" data-name="Trazado 6485" d="M733.637,62.1a8.027,8.027,0,0,0,8.027,8.026H742a8.026,8.026,0,0,0,8.025-8.026V57.581A8.025,8.025,0,0,0,742,49.557h-.335a8.026,8.026,0,0,0-8.027,8.024Z" transform="translate(-216.81 56.75)" fill="#fff5d1"/>
    <path id="Trazado_6486" data-name="Trazado 6486" d="M741.622,70.29h-.334a8.581,8.581,0,0,1-8.572-8.571V57.205a8.58,8.58,0,0,1,8.572-8.569h.334a8.579,8.579,0,0,1,8.57,8.569v4.514a8.58,8.58,0,0,1-8.57,8.571m-.334-20.564a7.489,7.489,0,0,0-7.483,7.479v4.514a7.49,7.49,0,0,0,7.483,7.482h.334a7.489,7.489,0,0,0,7.48-7.482V57.205a7.488,7.488,0,0,0-7.48-7.479Z" transform="translate(-216.433 57.127)"/>
    <path id="Trazado_6487" data-name="Trazado 6487" d="M752.913,129.133H715.384a.545.545,0,0,1,0-1.089h37.529a.545.545,0,0,1,0,1.089" transform="translate(-209.128 24.676)"/>
    <path id="Trazado_6488" data-name="Trazado 6488" d="M752.913,148.4H715.384a.545.545,0,0,1,0-1.089h37.529a.545.545,0,0,1,0,1.089" transform="translate(-209.128 16.802)"/>
    <path id="Trazado_6489" data-name="Trazado 6489" d="M752.913,167.665H715.384a.545.545,0,0,1,0-1.089h37.529a.545.545,0,0,1,0,1.089" transform="translate(-209.128 8.929)"/>
    <path id="Trazado_6490" data-name="Trazado 6490" d="M842.206,101.335a13.169,13.169,0,1,1-13.169-13.168,13.17,13.17,0,0,1,13.169,13.168" transform="translate(-250.414 40.972)" fill="#144b8b"/>
    <path id="Trazado_6491" data-name="Trazado 6491" d="M828.661,114.674a13.714,13.714,0,1,1,13.714-13.715,13.729,13.729,0,0,1-13.714,13.715m0-26.339a12.625,12.625,0,1,0,12.625,12.624,12.639,12.639,0,0,0-12.625-12.624" transform="translate(-250.039 41.349)" fill="#fff"/>
    <path id="Trazado_6492" data-name="Trazado 6492" d="M840.457,110.6H823a.545.545,0,0,1,0-1.089h17.458a.545.545,0,1,1,0,1.089" transform="translate(-253.106 32.248)" fill="#fff"/>
    <path id="Trazado_6493" data-name="Trazado 6493" d="M837.762,113.3a.544.544,0,0,1-.545-.545V95.3a.545.545,0,0,1,1.089,0v17.459a.544.544,0,0,1-.545.545" transform="translate(-259.139 38.281)" fill="#fff"/>
    <path id="Trazado_6494" data-name="Trazado 6494" d="M1029.229,139.636H1097.7V47.6Zm56.057-12.416h-31.347l31.347-42.13Z" transform="translate(-337.607 57.548)" fill="#144b8b"/>
    <path id="Trazado_6495" data-name="Trazado 6495" d="M1097.323,139.8h-68.469a.538.538,0,0,1-.485-.3.546.546,0,0,1,.049-.571L1096.886,46.9a.544.544,0,0,1,.982.325v92.031a.543.543,0,0,1-.545.543m-67.385-1.088h66.841V48.872Zm54.973-11.326h-31.347a.544.544,0,0,1-.436-.869l31.346-42.13a.545.545,0,0,1,.981.325v42.13a.544.544,0,0,1-.543.545m-30.263-1.089h29.718V86.358Z" transform="translate(-337.231 57.925)" fill="#fff"/>
    <line id="Línea_1047" data-name="Línea 1047" x1="3.199" transform="translate(756.892 115.5)" fill="#fff"/>
    <path id="Trazado_6496" data-name="Trazado 6496" d="M1142.429,65.271h-3.2a.545.545,0,0,1,0-1.089h3.2a.545.545,0,1,1,0,1.089" transform="translate(-382.338 50.774)" fill="#fff"/>
    <line id="Línea_1048" data-name="Línea 1048" x1="3.199" transform="translate(756.892 123.023)" fill="#fff"/>
    <path id="Trazado_6497" data-name="Trazado 6497" d="M1142.429,77.993h-3.2a.545.545,0,0,1,0-1.089h3.2a.545.545,0,1,1,0,1.089" transform="translate(-382.338 45.575)" fill="#fff"/>
    <line id="Línea_1049" data-name="Línea 1049" x1="3.199" transform="translate(756.892 130.549)" fill="#fff"/>
    <path id="Trazado_6498" data-name="Trazado 6498" d="M1142.429,90.72h-3.2a.545.545,0,0,1,0-1.089h3.2a.545.545,0,1,1,0,1.089" transform="translate(-382.338 40.374)" fill="#fff"/>
    <line id="Línea_1050" data-name="Línea 1050" x1="3.199" transform="translate(756.892 138.073)" fill="#fff"/>
    <path id="Trazado_6499" data-name="Trazado 6499" d="M1142.429,103.443h-3.2a.545.545,0,0,1,0-1.089h3.2a.545.545,0,1,1,0,1.089" transform="translate(-382.338 35.174)" fill="#fff"/>
    <line id="Línea_1051" data-name="Línea 1051" x1="3.199" transform="translate(756.892 145.598)" fill="#fff"/>
    <path id="Trazado_6500" data-name="Trazado 6500" d="M1142.429,116.168h-3.2a.545.545,0,0,1,0-1.09h3.2a.545.545,0,0,1,0,1.09" transform="translate(-382.338 29.974)" fill="#fff"/>
    <line id="Línea_1052" data-name="Línea 1052" x1="3.199" transform="translate(756.892 153.122)" fill="#fff"/>
    <path id="Trazado_6501" data-name="Trazado 6501" d="M1142.429,128.892h-3.2a.544.544,0,1,1,0-1.088h3.2a.544.544,0,1,1,0,1.088" transform="translate(-382.338 24.774)" fill="#fff"/>
    <line id="Línea_1053" data-name="Línea 1053" x1="3.199" transform="translate(756.892 160.646)" fill="#fff"/>
    <path id="Trazado_6502" data-name="Trazado 6502" d="M1142.429,141.616h-3.2a.545.545,0,0,1,0-1.089h3.2a.545.545,0,1,1,0,1.089" transform="translate(-382.338 19.574)" fill="#fff"/>
    <line id="Línea_1054" data-name="Línea 1054" x1="3.199" transform="translate(756.892 168.171)" fill="#fff"/>
    <path id="Trazado_6503" data-name="Trazado 6503" d="M1142.429,154.342h-3.2a.545.545,0,0,1,0-1.089h3.2a.545.545,0,1,1,0,1.089" transform="translate(-382.338 14.374)" fill="#fff"/>
    <line id="Línea_1055" data-name="Línea 1055" x1="3.199" transform="translate(756.892 175.695)" fill="#fff"/>
    <path id="Trazado_6504" data-name="Trazado 6504" d="M1142.429,167.065h-3.2a.545.545,0,0,1,0-1.089h3.2a.545.545,0,1,1,0,1.089" transform="translate(-382.338 9.174)" fill="#fff"/>
    <line id="Línea_1056" data-name="Línea 1056" x1="3.199" transform="translate(756.892 183.22)" fill="#fff"/>
    <path id="Trazado_6505" data-name="Trazado 6505" d="M1142.429,179.791h-3.2a.545.545,0,0,1,0-1.089h3.2a.545.545,0,1,1,0,1.089" transform="translate(-382.338 3.974)" fill="#fff"/>
    <line id="Línea_1057" data-name="Línea 1057" x1="3.199" transform="translate(756.892 190.744)" fill="#fff"/>
    <path id="Trazado_6506" data-name="Trazado 6506" d="M1142.429,192.515h-3.2a.545.545,0,0,1,0-1.089h3.2a.545.545,0,1,1,0,1.089" transform="translate(-382.338 -1.226)" fill="#fff"/>
    <path id="Trazado_6507" data-name="Trazado 6507" d="M922.628,419.856v-7.672l5.427-5.424H942.3a16.621,16.621,0,0,0-27.941.484H852.641a16.62,16.62,0,0,0-27.94-.484H838.95l5.425,5.424v7.672l-5.425,5.424H824.7a16.621,16.621,0,0,0,27.94-.484h61.721a16.621,16.621,0,0,0,27.941.484H928.055Z" transform="translate(-254.024 -86.209)" fill="#a7a9ac"/>
    <path id="Trazado_6508" data-name="Trazado 6508" d="M928.1,432.828a17.084,17.084,0,0,1-14.416-7.862H852.565a17.164,17.164,0,0,1-28.691.242.544.544,0,0,1,.452-.848h14.024l5.106-5.1v-7.222l-5.106-5.1H824.325a.543.543,0,0,1-.452-.848,17.164,17.164,0,0,1,28.691.242h61.124a17.165,17.165,0,0,1,28.62-.349.545.545,0,0,1-.359.955H927.9l-5.106,5.1v7.222l5.106,5.1h14.024a.545.545,0,0,1,.452.848,17.166,17.166,0,0,1-14.275,7.621m-75.838-8.952h61.721a.547.547,0,0,1,.463.257,16.075,16.075,0,0,0,26.417,1.316H927.679a.544.544,0,0,1-.385-.159l-5.425-5.424a.539.539,0,0,1-.16-.385v-7.671a.543.543,0,0,1,.16-.386L927.294,406a.547.547,0,0,1,.385-.16h13.188a16.075,16.075,0,0,0-26.417,1.318.547.547,0,0,1-.463.255H852.265a.547.547,0,0,1-.462-.255,16.074,16.074,0,0,0-26.416-1.318h13.187a.546.546,0,0,1,.385.16l5.425,5.424a.541.541,0,0,1,.159.386v7.671a.538.538,0,0,1-.159.385l-5.425,5.424a.543.543,0,0,1-.385.159H825.387a16.074,16.074,0,0,0,26.416-1.316.547.547,0,0,1,.462-.257" transform="translate(-253.648 -85.833)" fill="#f1f2f2"/>
    <path id="Trazado_6509" data-name="Trazado 6509" d="M933.1,430.312H872.656a.544.544,0,0,1-.543-.545V424.5a.544.544,0,1,1,1.088,0v4.718h59.352V424.5a.545.545,0,1,1,1.089,0v5.263a.544.544,0,0,1-.543.545" transform="translate(-273.4 -96.254)" fill="#fff"/>
    <path id="Trazado_6510" data-name="Trazado 6510" d="M1067.965,237.213a23.771,23.771,0,0,0-23.773,23.774v29.055h35.661a23.771,23.771,0,0,0,23.771-23.772V237.213Z" transform="translate(-343.722 -19.938)" fill="#f1f2f2"/>
    <g id="Grupo_8698" data-name="Grupo 8698" transform="translate(699.925 216.731)">
      <g id="Grupo_8697" data-name="Grupo 8697" clip-path="url(#clip-path-4)">
        <rect id="Rectángulo_5481" data-name="Rectángulo 5481" width="60.522" height="53.919" transform="translate(0 0)" fill="url(#radial-gradient-4)"/>
      </g>
    </g>
    <path id="Trazado_6512" data-name="Trazado 6512" d="M1099.732,258.5h-36.679a.545.545,0,1,1,0-1.089h36.679a.545.545,0,1,1,0,1.089" transform="translate(-351.207 -28.19)"/>
    <path id="Trazado_6513" data-name="Trazado 6513" d="M1099.732,274.2h-36.679a.545.545,0,1,1,0-1.089h36.679a.545.545,0,1,1,0,1.089" transform="translate(-351.207 -34.607)"/>
    <path id="Trazado_6514" data-name="Trazado 6514" d="M1099.732,289.9h-36.679a.545.545,0,1,1,0-1.089h36.679a.545.545,0,1,1,0,1.089" transform="translate(-351.207 -41.025)"/>
    <path id="Trazado_6515" data-name="Trazado 6515" d="M1099.732,305.607h-36.679a.545.545,0,1,1,0-1.089h36.679a.545.545,0,1,1,0,1.089" transform="translate(-351.207 -47.443)"/>
    <path id="Trazado_6516" data-name="Trazado 6516" d="M764.96,455.824H701.784a.545.545,0,0,1,0-1.089H764.96a.545.545,0,0,1,0,1.089" transform="translate(-203.57 -108.831)" fill="#fff"/>
    <g id="Grupo_8702" data-name="Grupo 8702" transform="translate(500.5 300.376)">
      <g id="Grupo_8701" data-name="Grupo 8701" clip-path="url(#clip-path-5)">
        <rect id="Rectángulo_5483" data-name="Rectángulo 5483" width="18.754" height="46.073" transform="translate(0 0)" fill="url(#radial-gradient-5)"/>
      </g>
    </g>
    <path id="Trazado_6518" data-name="Trazado 6518" d="M720.313,423.994H709.741a.545.545,0,0,1-.544-.545V390.716h-3.546a.544.544,0,0,1-.439-.866l9.376-12.8a.566.566,0,0,1,.879,0l9.3,12.7a.544.544,0,0,1-.345.966.084.084,0,0,1-.021,0h-3.547v32.733a.545.545,0,0,1-.544.545m-10.027-1.09h9.482V390.172a.545.545,0,0,1,.545-.545h3.019l-8.3-11.331-8.3,11.331h3.015a.544.544,0,0,1,.545.545Z" transform="translate(-205.151 -77)" fill="#fff"/>
    <path id="Trazado_6519" data-name="Trazado 6519" d="M739.72,354.026h4.09v54.868h10.573V354.026h4.091l-9.377-12.8Z" transform="translate(-219.296 -62.446)" fill="#4c89c9"/>
    <path id="Trazado_6520" data-name="Trazado 6520" d="M754.007,409.073H743.434a.545.545,0,0,1-.545-.545V354.2h-3.546a.545.545,0,0,1-.439-.868l9.377-12.8a.567.567,0,0,1,.879,0l9.3,12.7a.545.545,0,0,1-.345.967h-3.568v54.323a.545.545,0,0,1-.544.545m-10.028-1.09h9.483V353.659a.545.545,0,0,1,.545-.545h3.017l-8.3-11.331-8.3,11.331h3.016a.544.544,0,0,1,.545.545Z" transform="translate(-218.92 -62.078)" fill="#fff"/>
    <path id="Trazado_6521" data-name="Trazado 6521" d="M782.791,403.24l-9.377,12.8H777.5v18.2h10.571v-18.2h4.091Z" transform="translate(-233.065 -87.787)" fill="#a7a9ac"/>
    <path id="Trazado_6522" data-name="Trazado 6522" d="M787.7,434.405H777.127a.545.545,0,0,1-.545-.545V416.206h-3.546a.545.545,0,0,1-.44-.867l9.378-12.8a.547.547,0,0,1,.879,0l9.376,12.8a.544.544,0,0,1-.439.867h-3.547V433.86a.546.546,0,0,1-.545.545m-10.027-1.09h9.482V415.662a.544.544,0,0,1,.545-.545h3.017l-8.3-11.331-8.3,11.331h3.017a.544.544,0,0,1,.545.545Z" transform="translate(-232.688 -87.411)" fill="#fff"/>
    <g id="Grupo_8706" data-name="Grupo 8706" transform="translate(698.052 285.532)">
      <g id="Grupo_8705" data-name="Grupo 8705" clip-path="url(#clip-path-6)">
        <rect id="Rectángulo_5485" data-name="Rectángulo 5485" width="61.468" height="59.844" transform="translate(0 0)" fill="url(#radial-gradient-6)"/>
      </g>
    </g>
    <path id="Trazado_6524" data-name="Trazado 6524" d="M1071.271,412.653a30.465,30.465,0,0,1-27.744-43.059L1039.2,355.6a.547.547,0,0,1,.1-.511.536.536,0,0,1,.484-.19l14.73,1.833a30.467,30.467,0,1,1,16.749,55.918m-30.777-56.566,4.133,13.385a.535.535,0,0,1-.026.388,29.378,29.378,0,1,0,10.35-12.1.543.543,0,0,1-.441.073Z" transform="translate(-341.674 -66.732)" fill="#fff"/>
    <path id="Trazado_6525" data-name="Trazado 6525" d="M1078.908,409.126a19.051,19.051,0,1,1,19.052-19.051,19.051,19.051,0,0,1-19.052,19.051" transform="translate(-350.124 -74.622)" fill="#fff"/>
    <path id="Trazado_6526" data-name="Trazado 6526" d="M1078.532,409.294a19.6,19.6,0,1,1,19.6-19.6,19.617,19.617,0,0,1-19.6,19.6m0-38.1A18.506,18.506,0,1,0,1097.04,389.7a18.526,18.526,0,0,0-18.508-18.505" transform="translate(-349.748 -74.245)"/>
    <path id="Trazado_6527" data-name="Trazado 6527" d="M1091.7,407.262a.545.545,0,0,1-.545-.544V381.774a.545.545,0,0,1,1.09,0v24.944a.544.544,0,0,1-.545.544" transform="translate(-362.913 -78.792)"/>
    <path id="Trazado_6528" data-name="Trazado 6528" d="M1095.551,403.409h-24.945a.544.544,0,1,1,0-1.088h24.945a.544.544,0,1,1,0,1.088" transform="translate(-354.294 -87.411)"/>
    <rect id="Rectángulo_5486" data-name="Rectángulo 5486" width="31.431" height="4.271" transform="translate(734.071 321.034)" fill="#fff"/>
    <path id="Trazado_6529" data-name="Trazado 6529" d="M1132.069,417.116h-31.431a.545.545,0,0,1-.544-.544V412.3a.544.544,0,0,1,.544-.545h31.431a.544.544,0,0,1,.545.545v4.271a.545.545,0,0,1-.545.544m-30.886-1.089h30.342v-3.181h-30.342Z" transform="translate(-366.567 -91.267)"/>
    <rect id="Rectángulo_5487" data-name="Rectángulo 5487" width="26.282" height="4.271" transform="translate(734.071 329.066)" fill="#fff"/>
    <path id="Trazado_6530" data-name="Trazado 6530" d="M1126.92,430.7h-26.282a.545.545,0,0,1-.544-.544v-4.271a.544.544,0,0,1,.544-.545h26.282a.545.545,0,0,1,.545.545v4.271a.545.545,0,0,1-.545.544m-25.737-1.089h25.193v-3.182h-25.193Z" transform="translate(-366.567 -96.818)"/>
    <rect id="Rectángulo_5488" data-name="Rectángulo 5488" width="26.282" height="4.271" transform="translate(734.071 336.689)" fill="#fff"/>
    <path id="Trazado_6531" data-name="Trazado 6531" d="M1126.92,443.591h-26.282a.544.544,0,0,1-.544-.545v-4.271a.545.545,0,0,1,.544-.544h26.282a.545.545,0,0,1,.545.544v4.271a.545.545,0,0,1-.545.545m-25.737-1.089h25.193V439.32h-25.193Z" transform="translate(-366.567 -102.086)"/>
    <path id="Trazado_6532" data-name="Trazado 6532" d="M985.519,126.7a.545.545,0,0,1-.545-.545V94.885a.544.544,0,0,1,.545-.544h24.034a.544.544,0,0,1,0,1.089h-23.49v30.724a.544.544,0,0,1-.545.545" transform="translate(-319.522 38.449)" fill="#fff"/>
    <path id="Trazado_6533" data-name="Trazado 6533" d="M1009.552,129.541H985.518a.545.545,0,0,1,0-1.089h24.034a.545.545,0,0,1,0,1.089" transform="translate(-319.522 24.509)" fill="#fff"/>
    <path id="Trazado_6534" data-name="Trazado 6534" d="M1038.335,125.3a5.9,5.9,0,1,1-5.9-5.9,5.9,5.9,0,0,1,5.9,5.9" transform="translate(-336.508 28.208)" fill="#144b8b"/>
    <path id="Trazado_6535" data-name="Trazado 6535" d="M1032.058,131.363a6.442,6.442,0,1,1,6.443-6.442,6.449,6.449,0,0,1-6.443,6.442m0-11.794a5.353,5.353,0,1,0,5.354,5.352,5.359,5.359,0,0,0-5.354-5.352" transform="translate(-336.131 28.584)" fill="#fff"/>
    <g id="Grupo_8710" data-name="Grupo 8710" transform="translate(690.031 127.437)">
      <g id="Grupo_8709" data-name="Grupo 8709" clip-path="url(#clip-path-7)">
        <rect id="Rectángulo_5490" data-name="Rectángulo 5490" width="11.797" height="11.794" fill="url(#radial-gradient-7)"/>
      </g>
    </g>
    <path id="Trazado_6537" data-name="Trazado 6537" d="M1032.058,97.251a6.442,6.442,0,1,1,6.443-6.442,6.449,6.449,0,0,1-6.443,6.442m0-11.794a5.353,5.353,0,1,0,5.354,5.352,5.36,5.36,0,0,0-5.354-5.352" transform="translate(-336.131 42.524)" fill="#fff"/>
    <path id="Trazado_6538" data-name="Trazado 6538" d="M745.156,238.32a9.962,9.962,0,0,0-6.212,17.755c1.5,1.113,2.2,2.77,2.277,5.334v2.275h7.864v-2.275a7.522,7.522,0,0,1,2.28-5.332,9.964,9.964,0,0,0-6.209-17.757" transform="translate(-217.443 -20.39)" fill="#144b8b"/>
    <g id="Grupo_8713" data-name="Grupo 8713" transform="translate(517.2 217.385)" clip-path="url(#clip-path-8)">
      <rect id="Rectángulo_5492" data-name="Rectángulo 5492" width="21.022" height="26.453" transform="translate(0 0)" fill="url(#radial-gradient-8)"/>
    </g>
    <path id="Trazado_6540" data-name="Trazado 6540" d="M743.012,282.147a.543.543,0,0,1-.544-.545v-9.55a.549.549,0,0,1,.156-.384l5.575-5.651c.23-.222.443-.441.655-.664l.1-.1a.574.574,0,0,1,.057-.075,19.594,19.594,0,0,0,5.254-13.351V237.505a19.7,19.7,0,0,0-19.677-19.679h-3.371a19.7,19.7,0,0,0-19.678,19.679v2.316a.546.546,0,0,1-.071.267l-5.266,9.374c-.257.351-.82,1.309-.562,1.889.214.482,1,.65,1.616.709l3.74,0a.544.544,0,0,1,.545.545v9.338a9.579,9.579,0,0,0,9.567,9.568h1.266a.543.543,0,0,1,.545.545v9.55a.545.545,0,1,1-1.089,0V272.6H721.1a10.668,10.668,0,0,1-10.656-10.656v-8.793H707.2c-1.375-.125-2.22-.581-2.563-1.357-.558-1.267.527-2.757.652-2.922l5.156-9.188v-2.174a20.791,20.791,0,0,1,20.767-20.768h3.371a20.791,20.791,0,0,1,20.767,20.768v14.323a20.669,20.669,0,0,1-5.459,14,.489.489,0,0,1-.078.1l-.178.182c-.216.228-.439.457-.671.681l-5.408,5.484V281.6a.544.544,0,0,1-.544.545" transform="translate(-204.894 -11.57)" fill="#fff"/>
    <rect id="Rectángulo_5493" data-name="Rectángulo 5493" width="7.771" height="7.042" transform="translate(523.825 243.294)" fill="#fff"/>
    <g id="Grupo_8717" data-name="Grupo 8717" transform="translate(523.281 242.749)" clip-path="url(#clip-path-9)">
      <rect id="Rectángulo_5495" data-name="Rectángulo 5495" width="8.859" height="8.131" transform="translate(0 0)" fill="url(#radial-gradient-9)"/>
    </g>
    <path id="Trazado_6542" data-name="Trazado 6542" d="M796.452,326.6H784.445a.545.545,0,1,1,0-1.089h12.007a.545.545,0,0,1,0,1.089" transform="translate(-237.35 -56.021)" fill="#fff"/>
    <path id="Trazado_6543" data-name="Trazado 6543" d="M791.8,314.267h-7.352a.545.545,0,1,1,0-1.09H791.8a.545.545,0,1,1,0,1.09" transform="translate(-237.35 -50.981)" fill="#fff"/>
    <path id="Trazado_6544" data-name="Trazado 6544" d="M709.221,326.6H691.443a.545.545,0,1,1,0-1.089h17.777a.545.545,0,0,1,0,1.089" transform="translate(-199.344 -56.021)" fill="#fff"/>
    <path id="Trazado_6545" data-name="Trazado 6545" d="M701.789,304.881H691.443a.545.545,0,1,1,0-1.089h10.345a.545.545,0,0,1,0,1.089" transform="translate(-199.344 -47.146)" fill="#fff"/>
    <path id="Trazado_6546" data-name="Trazado 6546" d="M1071.713,94.708a.546.546,0,0,1-.331-.112l-10.456-7.978a.545.545,0,0,1-.1-.763l6.759-8.865a.547.547,0,0,1,.764-.1l10.46,7.979a.546.546,0,0,1,.1.763l-6.763,8.865a.544.544,0,0,1-.433.214m-9.693-8.625,9.589,7.317,6.1-8-9.593-7.318Z" transform="translate(-350.473 45.626)" fill="#fff"/>
    <g id="Grupo_8722" data-name="Grupo 8722" transform="translate(717.542 96.654)">
      <g id="Grupo_8721" data-name="Grupo 8721" clip-path="url(#clip-path-10)">
        <rect id="Rectángulo_5497" data-name="Rectángulo 5497" width="30.516" height="34.271" transform="translate(0 0)" fill="url(#radial-gradient-10)"/>
      </g>
    </g>
    <path id="Trazado_6547" data-name="Trazado 6547" d="M1083.146,67.673a.542.542,0,0,1-.33-.112l-10.46-7.978a.546.546,0,0,1-.1-.764l20.057-26.293a.541.541,0,0,1,.761-.1l10.46,7.978a.542.542,0,0,1,.211.36.553.553,0,0,1-.106.4l-20.056,26.294a.544.544,0,0,1-.36.208.486.486,0,0,1-.073.006m-9.7-8.626,9.594,7.318,19.395-25.427-9.593-7.318Z" transform="translate(-355.144 63.798)" fill="#fff"/>
    <path id="Trazado_6548" data-name="Trazado 6548" d="M1122.746,28.95a.572.572,0,0,1-.172-.028L1117.7,27.3a.545.545,0,0,1-.033-1.022l5.327-2.165a.545.545,0,0,1,.745.568l-.45,3.792a.545.545,0,0,1-.54.481m-3.307-2.222,2.845.949.262-2.212Z" transform="translate(-373.608 67.167)" fill="#fff"/>
    <path id="Trazado_6549" data-name="Trazado 6549" d="M1117.064,39.507a.542.542,0,0,1-.331-.111l-10.46-7.978a.537.537,0,0,1-.209-.505.544.544,0,0,1,.333-.432l6.663-2.709a.558.558,0,0,1,.378-.012l4.876,1.627a.545.545,0,0,1,.367.582l-1.079,9.058a.542.542,0,0,1-.539.48m-9.372-8.377,8.943,6.821.914-7.671-4.265-1.424Z" transform="translate(-369.005 65.669)" fill="#fff"/>
    <rect id="Rectángulo_5499" data-name="Rectángulo 5499" width="49.586" height="1.222" transform="translate(474.792 366.494)" fill="#fff"/>
    <rect id="Rectángulo_5500" data-name="Rectángulo 5500" width="32.621" height="1.223" transform="translate(491.757 362.58)" fill="#fff"/>
    <rect id="Rectángulo_5501" data-name="Rectángulo 5501" width="49.586" height="1.222" transform="translate(745.344 80.914)" fill="#fff"/>
    <rect id="Rectángulo_5502" data-name="Rectángulo 5502" width="32.621" height="1.223" transform="translate(745.344 77)" fill="#fff"/>
    <line id="Línea_1058" data-name="Línea 1058" x1="3.137" y2="3.136" transform="translate(768.187 273.037)" fill="none" stroke="#fff" stroke-miterlimit="10" stroke-width="3"/>
    <line id="Línea_1059" data-name="Línea 1059" x1="3.135" y2="3.136" transform="translate(760.771 280.455)" fill="none" stroke="#fff" stroke-miterlimit="10" stroke-width="3"/>
    <line id="Línea_1060" data-name="Línea 1060" x2="3.135" y2="3.136" transform="translate(760.771 273.037)" fill="none" stroke="#fff" stroke-miterlimit="10" stroke-width="3"/>
    <line id="Línea_1061" data-name="Línea 1061" x2="3.136" y2="3.136" transform="translate(768.187 280.455)" fill="none" stroke="#fff" stroke-miterlimit="10" stroke-width="3"/>
    <line id="Línea_1062" data-name="Línea 1062" x1="3.136" y2="3.136" transform="translate(593.719 103.613)" fill="none" stroke="#fff" stroke-miterlimit="10" stroke-width="3"/>
    <line id="Línea_1063" data-name="Línea 1063" x1="3.135" y2="3.136" transform="translate(586.303 111.03)" fill="none" stroke="#fff" stroke-miterlimit="10" stroke-width="3"/>
    <line id="Línea_1064" data-name="Línea 1064" x2="3.135" y2="3.136" transform="translate(586.303 103.613)" fill="none" stroke="#fff" stroke-miterlimit="10" stroke-width="3"/>
    <line id="Línea_1065" data-name="Línea 1065" x2="3.136" y2="3.136" transform="translate(593.72 111.03)" fill="none" stroke="#fff" stroke-miterlimit="10" stroke-width="3"/>
    <line id="Línea_1066" data-name="Línea 1066" x1="3.136" y2="3.136" transform="translate(496.827 279.701)" fill="none" stroke="#fff" stroke-miterlimit="10" stroke-width="3"/>
    <line id="Línea_1067" data-name="Línea 1067" x1="3.135" y2="3.136" transform="translate(489.411 287.119)" fill="none" stroke="#fff" stroke-miterlimit="10" stroke-width="3"/>
    <line id="Línea_1068" data-name="Línea 1068" x2="3.135" y2="3.136" transform="translate(489.411 279.701)" fill="none" stroke="#fff" stroke-miterlimit="10" stroke-width="3"/>
    <line id="Línea_1069" data-name="Línea 1069" x2="3.136" y2="3.136" transform="translate(496.828 287.119)" fill="none" stroke="#fff" stroke-miterlimit="10" stroke-width="3"/>
    <rect id="Rectángulo_5503" data-name="Rectángulo 5503" width="24.423" height="1.209" transform="translate(656.436 106.367)" fill="#fff"/>
    <rect id="Rectángulo_5504" data-name="Rectángulo 5504" width="24.425" height="1.209" transform="translate(625.143 106.367)" fill="#fff"/>
    <rect id="Rectángulo_5505" data-name="Rectángulo 5505" width="2.289" height="1.209" transform="translate(618.275 106.367)" fill="#fff"/>
    <rect id="Rectángulo_5506" data-name="Rectángulo 5506" width="24.423" height="1.209" transform="translate(698.491 357.438)" fill="#fff"/>
    <rect id="Rectángulo_5507" data-name="Rectángulo 5507" width="24.425" height="1.209" transform="translate(667.198 357.438)" fill="#fff"/>
    <rect id="Rectángulo_5508" data-name="Rectángulo 5508" width="2.289" height="1.209" transform="translate(660.33 357.438)" fill="#fff"/>
  </g>
</svg>
