<svg id="Grupo_8334" data-name="Grupo 8334" xmlns="http://www.w3.org/2000/svg" xmlns:xlink="http://www.w3.org/1999/xlink" width="889.717" height="529.738" viewBox="0 0 889.717 529.738">
  <defs>
    <clipPath id="clip-path">
      <rect id="Rectángulo_5217" data-name="Rectángulo 5217" width="889.717" height="529.738" fill="none"/>
    </clipPath>
  </defs>
  <g id="Grupo_8333" data-name="Grupo 8333" clip-path="url(#clip-path)">
    <path id="Trazado_5140" data-name="Trazado 5140" d="M857.5,129.673A88.482,88.482,0,1,1,769.027,41.19,88.479,88.479,0,0,1,857.5,129.673Z" fill="none" stroke="#00adee" stroke-linejoin="round" stroke-width="3.2" stroke-dasharray="9.922 9.922"/>
    <path id="Trazado_5141" data-name="Trazado 5141" d="M785.387,200.957V182.919a68.083,68.083,0,0,0,9.274-4.049l12.5,12.752a2.942,2.942,0,0,0,4.259,0l18.212-18.277a3.087,3.087,0,0,0-.04-4.375L816.828,156.7c1.65-3.1,2.992-7.812,4.031-9.285h18.046c1.707,0,2.507-2.359,2.507-4.07V117.493a2.19,2.19,0,0,0-2.507-2.512H820.859c-1.039-5.9-2.392-6.968-4.042-10.055l12.748-12.907a3.171,3.171,0,0,0,0-4.451L811.288,69.255a3.077,3.077,0,0,0-4.378-.022L794.661,81.971a71.055,71.055,0,0,0-9.274-4.061V59.876c0-1.7-2.385-3.868-4.1-3.868H755.444c-1.715,0-3.962,2.163-3.962,3.868V77.91c-1.473,1.05-6.246,2.406-9.329,4.053L729.608,69.211a2.96,2.96,0,0,0-4.274,0L707.1,87.492a3.1,3.1,0,0,0,.029,4.378l12.784,13.056c-1.65,3.087-3.018,4.154-4.042,10.055H697.83c-1.711,0-3.843.8-3.843,2.512v25.851c0,1.711,2.132,4.07,3.843,4.07h18.042c1.035,1.473,2.4,6.188,4.053,9.285l-12.774,12.517a2.943,2.943,0,0,0,0,4.248l18.288,18.22a3.082,3.082,0,0,0,4.379-.034l12.335-12.761c3.083,1.645,7.856,2.992,9.329,4.03v18.038c0,1.712,2.247,3.955,3.962,3.955h25.847c1.711,0,4.1-2.243,4.1-3.955" fill="#c4c5c6"/>
    <path id="Trazado_5142" data-name="Trazado 5142" d="M767.7,154.471a23.2,23.2,0,1,1,23.2-23.2,23.2,23.2,0,0,1-23.2,23.2" fill="#f1f1f1"/>
    <path id="Trazado_5143" data-name="Trazado 5143" d="M137.109,156.763V146.374a58.881,58.881,0,0,0,5.5-2.334l7.28,7.35a1.749,1.749,0,0,0,2.5,0L162.9,140.86a1.784,1.784,0,0,0-.011-2.522l-7.353-7.773a18.423,18.423,0,0,0,2.327-6.054H168.26c.989,0,1.282.051,1.282-.936V108.684c0-.987-.293-1.863-1.282-1.863H157.865a15.614,15.614,0,0,0-2.327-5.583l7.345-7.331a1.766,1.766,0,0,0,0-2.516L152.35,80.866a1.772,1.772,0,0,0-2.519,0l-7.218,7.346c-1.789-.944-4.028-1.729-5.5-2.334V75.488c0-.984-1.054-2.573-2.037-2.573h-14.89c-.988,0-2.236,1.589-2.236,2.573V85.88c-1.477.605-3.626,1.39-5.4,2.334l-7.241-7.342a1.7,1.7,0,0,0-2.464,0L92.334,91.4a1.785,1.785,0,0,0,.014,2.521l7.364,7.318a15.489,15.489,0,0,0-2.327,5.583h-10.4c-.984,0-2.956.876-2.956,1.863v14.891c0,.987,1.972.936,2.956.936h10.4a18.661,18.661,0,0,0,2.334,6.054l-7.356,7.563a1.916,1.916,0,0,0,0,2.627l10.537,10.58a1.771,1.771,0,0,0,2.518.026l7.129-7.335a56.314,56.314,0,0,0,5.4,2.348v10.389c0,.988,1.248,1.657,2.236,1.657h14.89a1.915,1.915,0,0,0,2.037-1.657" fill="#c4c5c6"/>
    <path id="Trazado_5144" data-name="Trazado 5144" d="M127.244,129.986A13.365,13.365,0,1,1,140.6,116.619a13.369,13.369,0,0,1-13.359,13.367" fill="#f1f1f1"/>
    <line id="Línea_986" data-name="Línea 986" x1="50.127" transform="translate(25.062 140.729)" fill="none" stroke="#00adee" stroke-linejoin="round" stroke-width="3.2"/>
    <line id="Línea_987" data-name="Línea 987" x1="69.294" transform="translate(0 115.671)" fill="none" stroke="#00adee" stroke-linejoin="round" stroke-width="3.2"/>
    <line id="Línea_988" data-name="Línea 988" x1="28.011" transform="translate(44.229 87.656)" fill="none" stroke="#00adee" stroke-linejoin="round" stroke-width="3.2"/>
    <path id="Trazado_5145" data-name="Trazado 5145" d="M752.608,514.037V503.648a58.785,58.785,0,0,1-5.5-2.334l-7.28,7.35a1.75,1.75,0,0,1-2.5,0l-10.512-10.53a1.783,1.783,0,0,1,.011-2.522l7.353-7.773a18.424,18.424,0,0,1-2.327-6.053h-10.4c-.988,0-1.281.05-1.281-.937V465.958c0-.987.293-1.863,1.281-1.863h10.4a15.613,15.613,0,0,1,2.327-5.583l-7.346-7.331a1.766,1.766,0,0,1,0-2.516l10.534-10.525a1.771,1.771,0,0,1,2.518,0l7.219,7.346c1.788-.944,4.028-1.729,5.5-2.334V432.762c0-.984,1.053-2.573,2.037-2.573h14.89c.988,0,2.236,1.589,2.236,2.573v10.392c1.477.605,3.626,1.39,5.4,2.334l7.241-7.342a1.7,1.7,0,0,1,2.464,0l10.508,10.527a1.786,1.786,0,0,1-.014,2.521l-7.364,7.318a15.489,15.489,0,0,1,2.327,5.583h10.4c.984,0,2.956.876,2.956,1.863v14.891c0,.987-1.972.937-2.956.937h-10.4A18.663,18.663,0,0,1,790,487.839l7.356,7.563a1.916,1.916,0,0,1,0,2.627l-10.537,10.58a1.771,1.771,0,0,1-2.518.026L777.17,501.3a56.312,56.312,0,0,1-5.4,2.348v10.389c0,.988-1.248,1.657-2.236,1.657h-14.89a1.915,1.915,0,0,1-2.037-1.657" fill="#c4c5c6"/>
    <path id="Trazado_5146" data-name="Trazado 5146" d="M762.472,487.261a13.365,13.365,0,1,0-13.359-13.367,13.369,13.369,0,0,0,13.359,13.367" fill="#f1f1f1"/>
    <line id="Línea_989" data-name="Línea 989" x2="50.127" transform="translate(814.528 498.004)" fill="none" stroke="#00adee" stroke-linejoin="round" stroke-width="3.2"/>
    <line id="Línea_990" data-name="Línea 990" x2="69.294" transform="translate(820.423 472.945)" fill="none" stroke="#00adee" stroke-linejoin="round" stroke-width="3.2"/>
    <line id="Línea_991" data-name="Línea 991" x2="28.011" transform="translate(817.477 444.932)" fill="none" stroke="#00adee" stroke-linejoin="round" stroke-width="3.2"/>
    <path id="Trazado_5147" data-name="Trazado 5147" d="M844.518,264.548,593.051,13.076a8.031,8.031,0,0,0-13.709,5.678V151.391a8.03,8.03,0,0,1-8.03,8.03H188.621a8.03,8.03,0,0,0-8.03,8.03V370.758a8.03,8.03,0,0,0,8.03,8.031H571.312a8.03,8.03,0,0,1,8.03,8.03V521.692a8.031,8.031,0,0,0,13.709,5.678L844.518,275.9a8.03,8.03,0,0,0,0-11.356" fill="#a5d130"/>
    <rect id="Rectángulo_5200" data-name="Rectángulo 5200" width="171.895" height="159.863" transform="translate(99.523 190.292)" fill="#0b92dd"/>
    <path id="Trazado_5148" data-name="Trazado 5148" d="M459.891,190.292H300a6,6,0,0,0-6,6V344.155a6,6,0,0,0,6,6H459.891a6,6,0,0,0,6-6V196.292a6,6,0,0,0-6-6" fill="#0b92dd"/>
    <path id="Trazado_5149" data-name="Trazado 5149" d="M654.559,190.292h-159.9a6,6,0,0,0-6,6V344.155a6,6,0,0,0,6,6h159.9a6,6,0,0,0,6-6V196.292a6,6,0,0,0-6-6" fill="#0b92dd"/>
    <path id="Trazado_5150" data-name="Trazado 5150" d="M849.032,190.292H689.139a6,6,0,0,0-6,6V344.155a6,6,0,0,0,6,6H849.032a6,6,0,0,0,6-6V196.292a6,6,0,0,0-6-6" fill="#0b92dd"/>
    <rect id="Rectángulo_5201" data-name="Rectángulo 5201" width="2.413" height="19.195" transform="translate(153.864 260.372)" fill="#fff"/>
    <path id="Trazado_5151" data-name="Trazado 5151" d="M173.046,279.567H170.62l-7.686-14.792v14.792h-2.426V260.372h2.426l7.713,14.857V260.372h2.4Z" fill="#fff"/>
    <rect id="Rectángulo_5202" data-name="Rectángulo 5202" width="2.413" height="19.195" transform="translate(177.331 260.372)" fill="#fff"/>
    <path id="Trazado_5152" data-name="Trazado 5152" d="M196.012,273.464a7.106,7.106,0,0,1-1.734,4.726,5.877,5.877,0,0,1-4.449,1.641,5.5,5.5,0,0,1-4.588-2.2,9.475,9.475,0,0,1-1.7-5.952V268.2a9.19,9.19,0,0,1,1.747-5.919,5.782,5.782,0,0,1,4.766-2.175,5.543,5.543,0,0,1,4.3,1.661,7.274,7.274,0,0,1,1.655,4.758h-2.439a5.922,5.922,0,0,0-.989-3.347,3.1,3.1,0,0,0-2.531-1,3.443,3.443,0,0,0-3.019,1.535,7.954,7.954,0,0,0-1.055,4.5v3.52a8.416,8.416,0,0,0,.982,4.47,3.185,3.185,0,0,0,2.868,1.555,3.468,3.468,0,0,0,2.716-.936,5.9,5.9,0,0,0,1.028-3.361Z" fill="#fff"/>
    <rect id="Rectángulo_5203" data-name="Rectángulo 5203" width="2.413" height="19.195" transform="translate(199.387 260.372)" fill="#fff"/>
    <path id="Trazado_5153" data-name="Trazado 5153" d="M218.517,271.657a9.573,9.573,0,0,1-1.675,6.051,5.706,5.706,0,0,1-4.759,2.123,5.778,5.778,0,0,1-4.687-2.063,9.124,9.124,0,0,1-1.786-5.833v-3.614a9.585,9.585,0,0,1,1.7-6.031,5.676,5.676,0,0,1,4.746-2.182,5.746,5.746,0,0,1,4.726,2.09,9.421,9.421,0,0,1,1.734,5.965ZM216.1,268.3a8.232,8.232,0,0,0-1-4.529,3.827,3.827,0,0,0-6.065.019,7.967,7.967,0,0,0-1.035,4.43v3.441a8.137,8.137,0,0,0,1.022,4.483,3.836,3.836,0,0,0,6.058.119,8,8,0,0,0,1.015-4.364Z" fill="#fff"/>
    <path id="Trazado_5154" data-name="Trazado 5154" d="M311.746,272.052v7.515h-2.414V260.372h6.119a5.537,5.537,0,0,1,4.2,1.6,6.839,6.839,0,0,1,.073,8.531,5.635,5.635,0,0,1-4.107,1.548Zm0-2.069h3.7a3.122,3.122,0,0,0,2.464-.965,4.016,4.016,0,0,0,.857-2.76,4.147,4.147,0,0,0-.883-2.773,3.01,3.01,0,0,0-2.425-1.043h-3.718Z" fill="#fff"/>
    <path id="Trazado_5155" data-name="Trazado 5155" d="M326.722,277.5h7.528v2.07H324.3v-19.2h2.426Z" fill="#fff"/>
    <path id="Trazado_5156" data-name="Trazado 5156" d="M346.326,274.544h-6.487l-1.49,5.024h-2.478l6.183-19.2h2.07l6.2,19.2h-2.478Zm-5.853-2.069h5.233l-2.624-8.728Z" fill="#fff"/>
    <path id="Trazado_5157" data-name="Trazado 5157" d="M365.469,279.567h-2.426l-7.686-14.792v14.792h-2.426V260.372h2.426l7.713,14.857V260.372h2.4Z" fill="#fff"/>
    <path id="Trazado_5158" data-name="Trazado 5158" d="M378.85,270.694h-6.79v6.8h7.911v2.07H369.648V260.372h10.191v2.07H372.06v6.183h6.79Z" fill="#fff"/>
    <path id="Trazado_5159" data-name="Trazado 5159" d="M392.008,274.544h-6.487l-1.49,5.024h-2.478l6.183-19.2h2.07l6.2,19.2h-2.478Zm-5.854-2.069h5.234l-2.624-8.728Z" fill="#fff"/>
    <path id="Trazado_5160" data-name="Trazado 5160" d="M410.5,273.464a7.106,7.106,0,0,1-1.734,4.726,5.877,5.877,0,0,1-4.449,1.641,5.5,5.5,0,0,1-4.588-2.2,9.475,9.475,0,0,1-1.7-5.952V268.2a9.19,9.19,0,0,1,1.747-5.919,5.782,5.782,0,0,1,4.766-2.175,5.543,5.543,0,0,1,4.3,1.661,7.274,7.274,0,0,1,1.655,4.758h-2.439a5.922,5.922,0,0,0-.989-3.347,3.1,3.1,0,0,0-2.531-1,3.443,3.443,0,0,0-3.019,1.535,7.954,7.954,0,0,0-1.055,4.5v3.52a8.416,8.416,0,0,0,.982,4.47,3.185,3.185,0,0,0,2.868,1.555,3.468,3.468,0,0,0,2.716-.936,5.9,5.9,0,0,0,1.028-3.361Z" fill="#fff"/>
    <rect id="Rectángulo_5204" data-name="Rectángulo 5204" width="2.413" height="19.195" transform="translate(413.878 260.372)" fill="#fff"/>
    <path id="Trazado_5161" data-name="Trazado 5161" d="M433.009,271.657a9.575,9.575,0,0,1-1.675,6.051,5.706,5.706,0,0,1-4.759,2.123,5.778,5.778,0,0,1-4.687-2.064,9.122,9.122,0,0,1-1.786-5.833v-3.613a9.59,9.59,0,0,1,1.7-6.031,5.676,5.676,0,0,1,4.747-2.182,5.743,5.743,0,0,1,4.726,2.09,9.419,9.419,0,0,1,1.734,5.965ZM430.6,268.3a8.232,8.232,0,0,0-.995-4.529,3.828,3.828,0,0,0-6.065.02,7.964,7.964,0,0,0-1.035,4.429v3.442a8.131,8.131,0,0,0,1.022,4.482,3.836,3.836,0,0,0,6.058.119,8,8,0,0,0,1.015-4.364Zm-2.8-13.065h2.953l-3.533,3.876-1.964-.007Z" fill="#fff"/>
    <path id="Trazado_5162" data-name="Trazado 5162" d="M449.277,279.567h-2.426l-7.686-14.792v14.792h-2.426V260.372h2.426l7.713,14.857V260.372h2.4Z" fill="#fff"/>
    <path id="Trazado_5163" data-name="Trazado 5163" d="M518.874,270.694h-6.79v6.8H520v2.07H509.672V260.372h10.191v2.07h-7.779v6.183h6.79Z" fill="#fff"/>
    <path id="Trazado_5164" data-name="Trazado 5164" d="M529.7,260.372h2.426v13.592a6.2,6.2,0,0,1-1.4,4.311,4.836,4.836,0,0,1-3.777,1.556,4.9,4.9,0,0,1-3.8-1.477,5.8,5.8,0,0,1-1.358-4.086H524.2a4.064,4.064,0,0,0,.726,2.571,2.419,2.419,0,0,0,2.017.922,2.379,2.379,0,0,0,2-1,4.6,4.6,0,0,0,.751-2.808Z" fill="#fff"/>
    <path id="Trazado_5165" data-name="Trazado 5165" d="M545.334,270.694h-6.79v6.8h7.911v2.07H536.132V260.372h10.191v2.07h-7.779v6.183h6.79Z" fill="#fff"/>
    <path id="Trazado_5166" data-name="Trazado 5166" d="M561.576,273.464a7.105,7.105,0,0,1-1.734,4.726,5.877,5.877,0,0,1-4.449,1.641,5.5,5.5,0,0,1-4.588-2.2,9.475,9.475,0,0,1-1.7-5.952V268.2a9.19,9.19,0,0,1,1.747-5.919,5.782,5.782,0,0,1,4.766-2.175,5.543,5.543,0,0,1,4.3,1.661,7.274,7.274,0,0,1,1.655,4.758h-2.439a5.922,5.922,0,0,0-.989-3.347,3.1,3.1,0,0,0-2.531-1,3.443,3.443,0,0,0-3.019,1.535,7.954,7.954,0,0,0-1.055,4.5v3.52a8.415,8.415,0,0,0,.982,4.47,3.184,3.184,0,0,0,2.868,1.555,3.468,3.468,0,0,0,2.716-.936,5.9,5.9,0,0,0,1.028-3.361Z" fill="#fff"/>
    <path id="Trazado_5167" data-name="Trazado 5167" d="M576.289,260.372v13.645a5.827,5.827,0,0,1-1.582,4.271,5.868,5.868,0,0,1-10.217-4.271V260.372h2.4v13.542a4.339,4.339,0,0,0,.824,2.893,4.194,4.194,0,0,0,5.326,0,4.339,4.339,0,0,0,.824-2.893V260.372Z" fill="#fff"/>
    <path id="Trazado_5168" data-name="Trazado 5168" d="M592.043,273.464a7.106,7.106,0,0,1-1.734,4.726,5.877,5.877,0,0,1-4.449,1.641,5.5,5.5,0,0,1-4.588-2.2,9.475,9.475,0,0,1-1.7-5.952V268.2a9.19,9.19,0,0,1,1.747-5.919,5.782,5.782,0,0,1,4.766-2.175,5.543,5.543,0,0,1,4.3,1.661,7.274,7.274,0,0,1,1.655,4.758H589.6a5.922,5.922,0,0,0-.989-3.347,3.1,3.1,0,0,0-2.531-1,3.443,3.443,0,0,0-3.019,1.535,7.954,7.954,0,0,0-1.055,4.5v3.52a8.416,8.416,0,0,0,.982,4.47,3.185,3.185,0,0,0,2.868,1.555,3.468,3.468,0,0,0,2.716-.936,5.9,5.9,0,0,0,1.028-3.361Z" fill="#fff"/>
    <rect id="Rectángulo_5205" data-name="Rectángulo 5205" width="2.413" height="19.195" transform="translate(595.418 260.372)" fill="#fff"/>
    <path id="Trazado_5169" data-name="Trazado 5169" d="M614.548,271.657a9.575,9.575,0,0,1-1.675,6.051,5.705,5.705,0,0,1-4.759,2.123,5.778,5.778,0,0,1-4.687-2.064,9.122,9.122,0,0,1-1.786-5.833v-3.613a9.59,9.59,0,0,1,1.7-6.031,5.676,5.676,0,0,1,4.747-2.182,5.743,5.743,0,0,1,4.726,2.09,9.419,9.419,0,0,1,1.734,5.965Zm-2.413-3.362a8.233,8.233,0,0,0-.995-4.529,3.828,3.828,0,0,0-6.065.02,7.963,7.963,0,0,0-1.035,4.429v3.442a8.131,8.131,0,0,0,1.022,4.482,3.836,3.836,0,0,0,6.058.119,8,8,0,0,0,1.015-4.364ZM609.34,255.23h2.953l-3.533,3.876L606.8,259.1Z" fill="#fff"/>
    <path id="Trazado_5170" data-name="Trazado 5170" d="M630.816,279.567H628.39L620.7,264.775v14.792h-2.426V260.372H620.7l7.713,14.857V260.372h2.4Z" fill="#fff"/>
    <path id="Trazado_5171" data-name="Trazado 5171" d="M733.646,254.435a7.1,7.1,0,0,1-1.734,4.726,5.877,5.877,0,0,1-4.449,1.641,5.5,5.5,0,0,1-4.588-2.194,9.478,9.478,0,0,1-1.7-5.953v-3.481a9.192,9.192,0,0,1,1.747-5.919,5.784,5.784,0,0,1,4.766-2.174,5.546,5.546,0,0,1,4.3,1.66,7.276,7.276,0,0,1,1.655,4.759h-2.439a5.924,5.924,0,0,0-.989-3.348,3.1,3.1,0,0,0-2.531-1,3.444,3.444,0,0,0-3.019,1.534,7.96,7.96,0,0,0-1.055,4.5v3.519a8.411,8.411,0,0,0,.982,4.47,3.184,3.184,0,0,0,2.868,1.556,3.468,3.468,0,0,0,2.716-.936,5.9,5.9,0,0,0,1.028-3.362Z" fill="#fff"/>
    <rect id="Rectángulo_5206" data-name="Rectángulo 5206" width="2.413" height="19.195" transform="translate(737.021 241.344)" fill="#fff"/>
    <path id="Trazado_5172" data-name="Trazado 5172" d="M752.868,251.666h-6.79v6.8h7.911v2.07H743.666v-19.2h10.191v2.07h-7.779V249.6h6.79Z" fill="#fff"/>
    <path id="Trazado_5173" data-name="Trazado 5173" d="M762.875,252.773H759.5v7.766h-2.427v-19.2h5.379a5.748,5.748,0,0,1,4.272,1.469,5.887,5.887,0,0,1,1.45,4.3,5.98,5.98,0,0,1-.785,3.105,4.969,4.969,0,0,1-2.221,2l3.718,8.16v.158h-2.6ZM759.5,250.7h2.926a3.131,3.131,0,0,0,2.419-.978,3.7,3.7,0,0,0,.9-2.615q0-3.7-3.349-3.7h-2.9Z" fill="#fff"/>
    <path id="Trazado_5174" data-name="Trazado 5174" d="M777.205,252.773H773.83v7.766H771.4v-19.2h5.379a5.749,5.749,0,0,1,4.272,1.469,5.887,5.887,0,0,1,1.45,4.3,5.98,5.98,0,0,1-.785,3.105,4.969,4.969,0,0,1-2.221,2l3.718,8.16v.158h-2.6ZM773.83,250.7h2.927a3.131,3.131,0,0,0,2.419-.978,3.7,3.7,0,0,0,.9-2.615q0-3.7-3.349-3.7h-2.9Z" fill="#fff"/>
    <path id="Trazado_5175" data-name="Trazado 5175" d="M794.937,251.666h-6.79v6.8h7.911v2.07H785.735v-19.2h10.191v2.07h-7.779V249.6h6.79Z" fill="#fff"/>
    <path id="Trazado_5176" data-name="Trazado 5176" d="M817.811,252.629a9.575,9.575,0,0,1-1.675,6.051,5.707,5.707,0,0,1-4.759,2.122,5.777,5.777,0,0,1-4.687-2.062,9.127,9.127,0,0,1-1.786-5.834v-3.613a9.584,9.584,0,0,1,1.7-6.031,5.674,5.674,0,0,1,4.746-2.183,5.745,5.745,0,0,1,4.726,2.09,9.425,9.425,0,0,1,1.734,5.965Zm-2.413-3.362a8.237,8.237,0,0,0-.995-4.529,3.826,3.826,0,0,0-6.065.02,7.965,7.965,0,0,0-1.035,4.43v3.441a8.139,8.139,0,0,0,1.022,4.483,3.835,3.835,0,0,0,6.058.118,8,8,0,0,0,1.015-4.363Z" fill="#fff"/>
    <path id="Trazado_5177" data-name="Trazado 5177" d="M702.23,284.463h-6.486v8.477h-2.413v-19.2h9.993v2.071h-7.58v6.578h6.486Z" fill="#fff"/>
    <rect id="Rectángulo_5207" data-name="Rectángulo 5207" width="2.413" height="19.195" transform="translate(706.409 273.744)" fill="#fff"/>
    <path id="Trazado_5178" data-name="Trazado 5178" d="M725.591,292.939h-2.426l-7.686-14.792v14.792h-2.426v-19.2h2.426l7.713,14.857V273.744h2.4Z" fill="#fff"/>
    <path id="Trazado_5179" data-name="Trazado 5179" d="M738.96,287.916h-6.487l-1.49,5.024h-2.478l6.183-19.2h2.07l6.2,19.2h-2.478Zm-5.854-2.069h5.234l-2.624-8.728Z" fill="#fff"/>
    <path id="Trazado_5180" data-name="Trazado 5180" d="M747.99,290.869h7.528v2.07h-9.954v-19.2h2.426Z" fill="#fff"/>
    <rect id="Rectángulo_5208" data-name="Rectángulo 5208" width="2.413" height="19.195" transform="translate(758.497 273.744)" fill="#fff"/>
    <path id="Trazado_5181" data-name="Trazado 5181" d="M766.948,290.869h9.11v2.07H764.272v-1.9l8.74-15.227h-8.648v-2.07H775.7v1.847Z" fill="#fff"/>
    <path id="Trazado_5182" data-name="Trazado 5182" d="M788.372,287.916h-6.487l-1.49,5.024h-2.478l6.183-19.2h2.07l6.2,19.2h-2.478Zm-5.854-2.069h5.234l-2.624-8.728Z" fill="#fff"/>
    <path id="Trazado_5183" data-name="Trazado 5183" d="M806.868,286.836a7.106,7.106,0,0,1-1.734,4.726,5.877,5.877,0,0,1-4.449,1.641,5.5,5.5,0,0,1-4.588-2.2,9.475,9.475,0,0,1-1.7-5.952v-3.481a9.19,9.19,0,0,1,1.747-5.919,5.782,5.782,0,0,1,4.766-2.175,5.541,5.541,0,0,1,4.3,1.661,7.273,7.273,0,0,1,1.655,4.758h-2.439a5.922,5.922,0,0,0-.989-3.347,3.1,3.1,0,0,0-2.531-1,3.443,3.443,0,0,0-3.019,1.535,7.954,7.954,0,0,0-1.055,4.5v3.52a8.416,8.416,0,0,0,.982,4.47,3.185,3.185,0,0,0,2.868,1.555,3.468,3.468,0,0,0,2.716-.936,5.9,5.9,0,0,0,1.028-3.361Z" fill="#fff"/>
    <rect id="Rectángulo_5209" data-name="Rectángulo 5209" width="2.413" height="19.195" transform="translate(810.243 273.744)" fill="#fff"/>
    <path id="Trazado_5184" data-name="Trazado 5184" d="M829.373,285.029a9.575,9.575,0,0,1-1.675,6.051,5.706,5.706,0,0,1-4.759,2.123,5.778,5.778,0,0,1-4.687-2.064,9.121,9.121,0,0,1-1.786-5.833v-3.613a9.59,9.59,0,0,1,1.7-6.031,5.676,5.676,0,0,1,4.747-2.182,5.743,5.743,0,0,1,4.726,2.09,9.419,9.419,0,0,1,1.734,5.965Zm-2.413-3.362a8.233,8.233,0,0,0-.995-4.529,3.828,3.828,0,0,0-6.065.02,7.964,7.964,0,0,0-1.035,4.429v3.442a8.131,8.131,0,0,0,1.022,4.482,3.836,3.836,0,0,0,6.058.119,8,8,0,0,0,1.015-4.364Zm-2.8-13.065h2.953l-3.533,3.876-1.964-.007Z" fill="#fff"/>
    <path id="Trazado_5185" data-name="Trazado 5185" d="M845.641,292.939h-2.426l-7.686-14.792v14.792H833.1v-19.2h2.426l7.713,14.857V273.744h2.4Z" fill="#fff"/>
    <path id="Trazado_5186" data-name="Trazado 5186" d="M451.122,13.434H325.813V94.518h66.338v31.228l30.616-31.228h28.355Z" fill="#76c6ff"/>
    <path id="Trazado_5187" data-name="Trazado 5187" d="M364.814,38.405,350.727,52.5l14.489,14.489" fill="none" stroke="#231f20" stroke-linejoin="round" stroke-width="3.2"/>
    <path id="Trazado_5188" data-name="Trazado 5188" d="M413.359,67.693l14.8-14.8-14.8-14.8" fill="none" stroke="#231f20" stroke-linejoin="round" stroke-width="3.2"/>
    <line id="Línea_992" data-name="Línea 992" y1="51.495" x2="22.891" transform="translate(378.922 26.949)" fill="none" stroke="#231f20" stroke-linejoin="round" stroke-width="3.2"/>
    <rect id="Rectángulo_5210" data-name="Rectángulo 5210" width="155.355" height="3.828" transform="translate(642.497 12.264)" fill="#00adee"/>
    <rect id="Rectángulo_5211" data-name="Rectángulo 5211" width="102.203" height="3.832" transform="translate(642.497)" fill="#00adee"/>
    <rect id="Rectángulo_5212" data-name="Rectángulo 5212" width="155.355" height="3.828" transform="translate(94.64 472.951)" fill="#00adee"/>
    <rect id="Rectángulo_5213" data-name="Rectángulo 5213" width="102.203" height="3.831" transform="translate(147.792 460.688)" fill="#00adee"/>
    <line id="Línea_993" data-name="Línea 993" x1="6.906" y2="6.904" transform="translate(494.144 110.952)" fill="none" stroke="#00adee" stroke-miterlimit="10" stroke-width="2"/>
    <line id="Línea_994" data-name="Línea 994" x1="6.904" y2="6.903" transform="translate(477.812 127.285)" fill="none" stroke="#00adee" stroke-miterlimit="10" stroke-width="2"/>
    <line id="Línea_995" data-name="Línea 995" x2="6.904" y2="6.904" transform="translate(477.812 110.952)" fill="none" stroke="#00adee" stroke-miterlimit="10" stroke-width="2"/>
    <line id="Línea_996" data-name="Línea 996" x2="6.906" y2="6.903" transform="translate(494.144 127.285)" fill="none" stroke="#00adee" stroke-miterlimit="10" stroke-width="2"/>
    <rect id="Rectángulo_5214" data-name="Rectángulo 5214" width="76.517" height="3.786" transform="translate(220.415 33.691)" fill="#00adee"/>
    <rect id="Rectángulo_5215" data-name="Rectángulo 5215" width="76.522" height="3.786" transform="translate(122.372 33.691)" fill="#00adee"/>
    <rect id="Rectángulo_5216" data-name="Rectángulo 5216" width="7.172" height="3.786" transform="translate(100.855 33.691)" fill="#00adee"/>
  </g>
</svg>
