<svg xmlns="http://www.w3.org/2000/svg" width="246.707" height="245.594" viewBox="0 0 246.707 245.594">
  <g id="Grupo_8253" data-name="Grupo 8253" transform="translate(-867.299 -4776.929)">
    <path id="Trazado_4714" data-name="Trazado 4714" d="M929.363,255.457a119.005,119.005,0,0,0-199.237-4.045l-1.292-.882a120.569,120.569,0,0,1,201.856,4.1l-1.327.829" transform="translate(159 4579)" fill="#6bc4ed"/>
    <path id="Trazado_4715" data-name="Trazado 4715" d="M909.181,407.947l-1.049-1.162a119.071,119.071,0,0,0,38.221-103.934c-.351-2.648-.794-5.312-1.318-7.919l1.536-.308c.528,2.641.976,5.339,1.332,8.022a120.64,120.64,0,0,1-38.722,105.3" transform="translate(159 4579)" fill="#6bc4ed"/>
    <path id="Trazado_4716" data-name="Trazado 4716" d="M844.674,442.472A120.6,120.6,0,0,1,713.052,289.424l1.5.435A119.038,119.038,0,0,0,844.468,440.921a119.457,119.457,0,0,0,28.5-7.421l.578,1.455a121.046,121.046,0,0,1-28.873,7.517" transform="translate(159 4579)" fill="#6bc4ed"/>
    <path id="Trazado_4717" data-name="Trazado 4717" d="M823.118,246.463a71.951,71.951,0,1,0,80.769,61.888,72.033,72.033,0,0,0-80.769-61.888M845.444,415.15a98.207,98.207,0,1,1,84.472-110.244A98.319,98.319,0,0,1,845.444,415.15" transform="translate(159 4579)" fill="#6bc4ed"/>
    <path id="Trazado_4718" data-name="Trazado 4718" d="M925.845,275.137a14.581,14.581,0,1,0,14.58-14.581,14.581,14.581,0,0,0-14.58,14.581" transform="translate(159 4579)" fill="#6bc4ed"/>
    <path id="Trazado_4719" data-name="Trazado 4719" d="M878.031,422.4a14.582,14.582,0,1,0,14.582-14.58,14.583,14.583,0,0,0-14.582,14.58" transform="translate(159 4579)" fill="#6bc4ed"/>
    <path id="Trazado_4720" data-name="Trazado 4720" d="M708.864,272.029a14.581,14.581,0,1,0,14.582-14.582,14.583,14.583,0,0,0-14.582,14.582" transform="translate(159 4579)" fill="#6bc4ed"/>
    <rect id="Rectángulo_5105" data-name="Rectángulo 5105" width="4.327" height="13.547" transform="translate(885.534 4845.671)" fill="#fff"/>
    <rect id="Rectángulo_5106" data-name="Rectángulo 5106" width="4.325" height="10.161" transform="translate(879.978 4849.057)" fill="#fff"/>
    <rect id="Rectángulo_5107" data-name="Rectángulo 5107" width="4.326" height="6.773" transform="translate(874.422 4852.445)" fill="#fff"/>
    <rect id="Rectángulo_5108" data-name="Rectángulo 5108" width="12.807" height="0.72" transform="translate(875.484 4848.096) rotate(-28.879)" fill="#fff"/>
    <path id="Trazado_4721" data-name="Trazado 4721" d="M726.492,262.908,727.7,264.4l.7-1.715Z" transform="translate(159 4579)" fill="#fff"/>
    <path id="Trazado_4722" data-name="Trazado 4722" d="M943.722,277.659a1.573,1.573,0,0,0-.447-1.17,4.772,4.772,0,0,0-1.732-.89v3.909q2.176-.3,2.179-1.849m-5.5-6.24a1.679,1.679,0,0,0,.452,1.226,4.349,4.349,0,0,0,1.567.873V269.63a2.88,2.88,0,0,0-1.508.628,1.5,1.5,0,0,0-.511,1.161m7.206,6.11a2.858,2.858,0,0,1-1.026,2.255,5.278,5.278,0,0,1-2.863,1.12v2.332h-1.3v-2.241a13.375,13.375,0,0,1-2.18-.175,6.932,6.932,0,0,1-1.728-.488v-1.568a9.807,9.807,0,0,0,1.923.608,9.423,9.423,0,0,0,1.985.236v-4.422a6.921,6.921,0,0,1-2.889-1.517,3.092,3.092,0,0,1-.83-2.231,2.684,2.684,0,0,1,1.021-2.16,4.957,4.957,0,0,1,2.7-1.024v-1.829h1.3v1.808a10.246,10.246,0,0,1,3.567.743l-.524,1.317a10.183,10.183,0,0,0-3.043-.7v4.362a11.449,11.449,0,0,1,2.361.978,3.314,3.314,0,0,1,1.154,1.1,2.855,2.855,0,0,1,.374,1.5" transform="translate(159 4579)" fill="#fff"/>
    <path id="Trazado_4723" data-name="Trazado 4723" d="M892.345,424.516a2.264,2.264,0,0,1,0-4.528v.892a1.374,1.374,0,1,0,1.375,1.373h.89a2.264,2.264,0,0,1-2.265,2.263" transform="translate(159 4579)" fill="#fff"/>
    <path id="Trazado_4724" data-name="Trazado 4724" d="M892.345,427.34a5.086,5.086,0,1,1,0-10.172,5.029,5.029,0,0,1,2.29.542l-.4.793a4.151,4.151,0,0,0-1.888-.444,4.2,4.2,0,1,0,4.2,4.194,4.155,4.155,0,0,0-.392-1.776l.807-.377a5.087,5.087,0,0,1-4.61,7.24" transform="translate(159 4579)" fill="#fff"/>
    <path id="Trazado_4725" data-name="Trazado 4725" d="M892.345,430.162a7.908,7.908,0,1,1,4-14.735l-.452.769a7.008,7.008,0,1,0,2.435,2.384l.757-.465a7.908,7.908,0,0,1-6.74,12.047" transform="translate(159 4579)" fill="#fff"/>
    <rect id="Rectángulo_5109" data-name="Rectángulo 5109" width="10.608" height="0.89" transform="translate(1051.03 5000.939) rotate(-45.001)" fill="#fff"/>
    <rect id="Rectángulo_5110" data-name="Rectángulo 5110" width="0.891" height="2.275" transform="translate(1057.676 4992.121) rotate(-2.545)" fill="#fff"/>
    <path id="Trazado_4726" data-name="Trazado 4726" d="M897.643,416.521l-.083-1.86.891-.038.082,1.857Z" transform="translate(159 4579)" fill="#fff"/>
    <rect id="Rectángulo_5111" data-name="Rectángulo 5111" width="2.275" height="0.891" transform="translate(1057.915 4993.837) rotate(-8.366)" fill="#fff"/>
    <rect id="Rectángulo_5112" data-name="Rectángulo 5112" width="1.86" height="0.892" transform="matrix(0.989, -0.145, 0.145, 0.989, 1057.023, 4995.162)" fill="#fff"/>
    <path id="Trazado_4727" data-name="Trazado 4727" d="M742.518,404.765H740.37c-.765-.825-1.521-1.665-2.263-2.512H740.2q1.143,1.275,2.319,2.512" transform="translate(159 4579)" fill="#329e8d"/>
    <path id="Trazado_4728" data-name="Trazado 4728" d="M926.2,278.327a14.706,14.706,0,0,1,0-6.379v6.379" transform="translate(159 4579)" fill="#329e8d"/>
    <path id="Trazado_4729" data-name="Trazado 4729" d="M915.282,355.219a3.559,3.559,0,0,1-3.559,3.56H752.9a3.559,3.559,0,0,1-3.56-3.56V254.656a3.561,3.561,0,0,1,3.56-3.562H911.723a3.561,3.561,0,0,1,3.559,3.562V355.219" transform="translate(159 4579)" fill="#fff"/>
    <path id="Trazado_4730" data-name="Trazado 4730" d="M915.282,254.656a3.561,3.561,0,0,0-3.559-3.562H752.9a3.561,3.561,0,0,0-3.56,3.562v48.379l165.943-48.379" transform="translate(159 4579)" fill="#fff"/>
    <rect id="Rectángulo_5113" data-name="Rectángulo 5113" width="152.426" height="94.412" transform="translate(915.097 4836.416)" fill="#32b9ff"/>
    <path id="Trazado_4731" data-name="Trazado 4731" d="M908.523,300.357v-3.863l.14,3.829Z" transform="translate(159 4579)" fill="azure"/>
    <path id="Trazado_4732" data-name="Trazado 4732" d="M756.114,336.81l.02-34.38,6.265-.662v33.538ZM906.36,300.874v-14.32l1.793-.189.369,10.129v3.863l-2.162.517" transform="translate(159 4579)" fill="#8adcff"/>
    <path id="Trazado_4733" data-name="Trazado 4733" d="M906.36,251.094H904.6l-.021-.022h1.784v.022" transform="translate(159 4579)" fill="#28a7b2"/>
    <path id="Trazado_4734" data-name="Trazado 4734" d="M904.6,251.094h-1.7v-.022h1.682l.021.022" transform="translate(159 4579)" fill="#33bcc9"/>
    <path id="Trazado_4735" data-name="Trazado 4735" d="M906.36,257.415h-.546l.546-.159Z" transform="translate(159 4579)" fill="#aacaf9"/>
    <path id="Trazado_4736" data-name="Trazado 4736" d="M905.814,257.415h-2.92v-6.321h3.466v6.162Z" transform="translate(159 4579)" fill="#aacaf9"/>
    <path id="Trazado_4737" data-name="Trazado 4737" d="M899.578,348.774h-126.6a6.782,6.782,0,0,1-6.782-6.781v-.37a6.778,6.778,0,0,0,3,.694H896.1a6.8,6.8,0,0,0,6.8-6.795V301.7l3.466-.829v41.119a6.781,6.781,0,0,1-6.783,6.781m3.317-61.853V257.416h3.466v29.138l-3.466.367" transform="translate(159 4579)" fill="#2193f9"/>
    <path id="Trazado_4738" data-name="Trazado 4738" d="M902.895,301.7V286.921l3.466-.366v14.319Z" transform="translate(159 4579)" fill="#5caef9"/>
    <path id="Trazado_4739" data-name="Trazado 4739" d="M930.56,396.806c1.433,3.992-.463,5.446-2.239,5.446H736.3c-1.775,0-2.236-1.212-2.236-3l.047-2.637c.664-1.645,16.681-34.6,18.456-34.6H912.058A5.18,5.18,0,0,1,916.492,365l14.068,31.8" transform="translate(159 4579)" fill="#283042"/>
    <path id="Trazado_4740" data-name="Trazado 4740" d="M928.321,402.252H736.3c-1.775,0-2.236-1.212-2.236-3l.032-1.8a2.028,2.028,0,0,0,2.2,1.578H928.321a1.982,1.982,0,0,0,2.215-2.276l.024.054a7.55,7.55,0,0,1,.5,2.5,2.66,2.66,0,0,1-2.743,2.944" transform="translate(159 4579)" fill="#1e2535"/>
    <path id="Trazado_4741" data-name="Trazado 4741" d="M930.339,396.034a2.028,2.028,0,0,1-2.018,2.995H736.3a2.03,2.03,0,0,1-2.019-2.995l13.847-34.261a5.186,5.186,0,0,1,4.438-2.994H912.057a5.179,5.179,0,0,1,4.435,2.994l13.847,34.261" transform="translate(159 4579)" fill="#fff"/>
    <path id="Trazado_4742" data-name="Trazado 4742" d="M850.4,395.728H814.223l1.114-8.247h34.075Z" transform="translate(159 4579)" fill="#fff"/>
    <path id="Trazado_4743" data-name="Trazado 4743" d="M851.673,396.767H812.947l1.33-8.864h1l-1.057,7.825H850.4l-.933-7.825h.88Z" transform="translate(159 4579)" fill="#8e95a6"/>
    <path id="Trazado_4744" data-name="Trazado 4744" d="M850.4,395.728H814.223l1.057-7.825h34.182Z" transform="translate(159 4579)" fill="#bec3ce"/>
    <path id="Trazado_4745" data-name="Trazado 4745" d="M802.987,367.239h-12.58l.069-.647h12.511l.162-3.29h.032Z" transform="translate(159 4579)" fill="#4f576c"/>
    <path id="Trazado_4746" data-name="Trazado 4746" d="M815.9,367.239H803.635l.031-.647H815.9l.159-3.29h.031Z" transform="translate(159 4579)" fill="#4f576c"/>
    <path id="Trazado_4747" data-name="Trazado 4747" d="M828.336,367.239H816.542l.032-.647h11.762l.059-3.29h.011Z" transform="translate(159 4579)" fill="#4f576c"/>
    <path id="Trazado_4748" data-name="Trazado 4748" d="M760.528,371.756h-9.859l.239-.647h9.62l.86-3.226h.171Z" transform="translate(159 4579)" fill="#4f576c"/>
    <path id="Trazado_4749" data-name="Trazado 4749" d="M841.909,367.239H828.981l.012-.647h12.916l.05-3.29h.01Z" transform="translate(159 4579)" fill="#4f576c"/>
    <path id="Trazado_4750" data-name="Trazado 4750" d="M761.731,367.239h-9.4l.24-.647h9.156l.877-3.29h.173Z" transform="translate(159 4579)" fill="#4f576c"/>
    <path id="Trazado_4751" data-name="Trazado 4751" d="M789.76,367.239H775.823l.113-.647H789.76l.346-3.29h.068Z" transform="translate(159 4579)" fill="#4f576c"/>
    <path id="Trazado_4752" data-name="Trazado 4752" d="M775.167,367.239H762.4l.173-.647h12.6l.573-3.29h.113Z" transform="translate(159 4579)" fill="#4f576c"/>
    <path id="Trazado_4753" data-name="Trazado 4753" d="M879.273,367.239h-11.9l-.145-3.937h.024l.121,3.29h11.847Z" transform="translate(159 4579)" fill="#4f576c"/>
    <path id="Trazado_4754" data-name="Trazado 4754" d="M913.615,371.756h-9.53l-1.029-3.873h.172l.857,3.226h9.268Z" transform="translate(159 4579)" fill="#4f576c"/>
    <path id="Trazado_4755" data-name="Trazado 4755" d="M915.972,377.564H905.626l-1.37-5.164h.171l1.2,4.516h10.083Z" transform="translate(159 4579)" fill="#4f576c"/>
    <path id="Trazado_4756" data-name="Trazado 4756" d="M758.984,377.564H748.528l.239-.648h10.217l1.2-4.516h.172Z" transform="translate(159 4579)" fill="#4f576c"/>
    <path id="Trazado_4757" data-name="Trazado 4757" d="M902.217,367.239h-9.6l-.645-3.937h.107l.538,3.29h9.425Z" transform="translate(159 4579)" fill="#4f576c"/>
    <path id="Trazado_4758" data-name="Trazado 4758" d="M891.966,367.239H879.922l-.342-3.937h.056l.286,3.29H891.86Z" transform="translate(159 4579)" fill="#4f576c"/>
    <path id="Trazado_4759" data-name="Trazado 4759" d="M911.782,367.239h-8.9l-1.047-3.937h.173l.874,3.29h8.635Z" transform="translate(159 4579)" fill="#4f576c"/>
    <path id="Trazado_4760" data-name="Trazado 4760" d="M854.315,367.239H842.554l.009-.647h11.745Z" transform="translate(159 4579)" fill="#4f576c"/>
    <path id="Trazado_4761" data-name="Trazado 4761" d="M866.724,367.239H854.961l-.041-3.937h.007l.034,3.29H866.7Z" transform="translate(159 4579)" fill="#4f576c"/>
    <path id="Trazado_4762" data-name="Trazado 4762" d="M841.842,371.756H828.9l.012-.647h12.93l.047-3.226h.01Z" transform="translate(159 4579)" fill="#4f576c"/>
    <path id="Trazado_4763" data-name="Trazado 4763" d="M828.255,371.756H816.323l.031-.647h11.9l.058-3.226h.012Z" transform="translate(159 4579)" fill="#4f576c"/>
    <path id="Trazado_4764" data-name="Trazado 4764" d="M866.886,371.756H855.009l-.041-3.873h.007l.034,3.226h11.854Z" transform="translate(159 4579)" fill="#4f576c"/>
    <path id="Trazado_4765" data-name="Trazado 4765" d="M757.782,382.083H746.86l.239-.647h10.683l.857-3.226h.172Z" transform="translate(159 4579)" fill="#4f576c"/>
    <path id="Trazado_4766" data-name="Trazado 4766" d="M802.767,371.756H789.933l.068-.647h12.766l.158-3.226h.031Z" transform="translate(159 4579)" fill="#4f576c"/>
    <path id="Trazado_4767" data-name="Trazado 4767" d="M815.675,371.756H803.413l.031-.647h12.231l.158-3.226h.032Z" transform="translate(159 4579)" fill="#4f576c"/>
    <path id="Trazado_4768" data-name="Trazado 4768" d="M854.365,371.756H842.488l.009-.647h11.861Z" transform="translate(159 4579)" fill="#4f576c"/>
    <path id="Trazado_4769" data-name="Trazado 4769" d="M880.175,377.564H867.743l-.189-5.164h.023l.166,4.516h12.375Z" transform="translate(159 4579)" fill="#4f576c"/>
    <path id="Trazado_4770" data-name="Trazado 4770" d="M867.1,377.564H855.073l-.056-5.164h.007l.049,4.516h12Z" transform="translate(159 4579)" fill="#4f576c"/>
    <path id="Trazado_4771" data-name="Trazado 4771" d="M879.668,371.756H867.534l-.142-3.873h.024l.118,3.226h12.078Z" transform="translate(159 4579)" fill="#4f576c"/>
    <path id="Trazado_4772" data-name="Trazado 4772" d="M893.656,377.564H880.821l-.449-5.164h.056l.393,4.516H893.55Z" transform="translate(159 4579)" fill="#4f576c"/>
    <path id="Trazado_4773" data-name="Trazado 4773" d="M903.416,371.756H893.359l-.634-3.873h.106l.528,3.226h9.885Z" transform="translate(159 4579)" fill="#4f576c"/>
    <path id="Trazado_4774" data-name="Trazado 4774" d="M854.427,377.564H842.4l.009-.648H854.42Z" transform="translate(159 4579)" fill="#4f576c"/>
    <path id="Trazado_4775" data-name="Trazado 4775" d="M892.705,371.756H880.316l-.339-3.873h.056l.283,3.226H892.6Z" transform="translate(159 4579)" fill="#4f576c"/>
    <path id="Trazado_4776" data-name="Trazado 4776" d="M789.284,371.756H775.036l.113-.647h14.135l.339-3.226h.068Z" transform="translate(159 4579)" fill="#4f576c"/>
    <path id="Trazado_4777" data-name="Trazado 4777" d="M841.689,382.083H828.716l.012-.647h12.961l.051-3.226h.009Z" transform="translate(159 4579)" fill="#4f576c"/>
    <path id="Trazado_4778" data-name="Trazado 4778" d="M802.261,382.083H788.845l.068-.647h13.348l.159-3.226h.031Z" transform="translate(159 4579)" fill="#4f576c"/>
    <path id="Trazado_4779" data-name="Trazado 4779" d="M906.159,382.083H895.048l-.631-3.873h.106l.525,3.226h10.939Z" transform="translate(159 4579)" fill="#4f576c"/>
    <path id="Trazado_4780" data-name="Trazado 4780" d="M854.476,382.083H842.335l.01-.647h12.124Z" transform="translate(159 4579)" fill="#4f576c"/>
    <path id="Trazado_4781" data-name="Trazado 4781" d="M880.568,382.083h-12.66l-.141-3.873h.024l.117,3.226h12.6Z" transform="translate(159 4579)" fill="#4f576c"/>
    <path id="Trazado_4782" data-name="Trazado 4782" d="M894.4,382.083h-13.18l-.337-3.873h.056l.281,3.226h13.074Z" transform="translate(159 4579)" fill="#4f576c"/>
    <path id="Trazado_4783" data-name="Trazado 4783" d="M773.367,377.564H759.65l.173-.648h13.544l.788-4.516h.113Z" transform="translate(159 4579)" fill="#4f576c"/>
    <path id="Trazado_4784" data-name="Trazado 4784" d="M774.38,371.756H761.2l.172-.647H774.38l.562-3.226h.112Z" transform="translate(159 4579)" fill="#4f576c"/>
    <path id="Trazado_4785" data-name="Trazado 4785" d="M788.2,382.083h-14.96l.112-.647H788.2l.337-3.226h.067Z" transform="translate(159 4579)" fill="#4f576c"/>
    <path id="Trazado_4786" data-name="Trazado 4786" d="M772.582,382.083H758.449l.172-.647h13.961l.561-3.226h.112Z" transform="translate(159 4579)" fill="#4f576c"/>
    <path id="Trazado_4787" data-name="Trazado 4787" d="M917.807,382.083h-10.98l-1.03-3.873h.172l.858,3.226h10.717Z" transform="translate(159 4579)" fill="#4f576c"/>
    <path id="Trazado_4788" data-name="Trazado 4788" d="M756.563,386.655h-11.39l.239-.647h11.151l.874-3.279h.172Z" transform="translate(159 4579)" fill="#4f576c"/>
    <path id="Trazado_4789" data-name="Trazado 4789" d="M895.143,386.655H881.614l-.341-3.926h.057l.284,3.279h13.423Z" transform="translate(159 4579)" fill="#4f576c"/>
    <path id="Trazado_4790" data-name="Trazado 4790" d="M802.482,377.564H789.321l.068-.648h13.093l.222-4.516h.032Z" transform="translate(159 4579)" fill="#4f576c"/>
    <path id="Trazado_4791" data-name="Trazado 4791" d="M904.958,377.564H894.31l-.845-5.164h.106l.739,4.516h10.476Z" transform="translate(159 4579)" fill="#4f576c"/>
    <path id="Trazado_4792" data-name="Trazado 4792" d="M907.371,386.655H895.8l-.644-3.926h.106l.538,3.279h11.4Z" transform="translate(159 4579)" fill="#4f576c"/>
    <path id="Trazado_4793" data-name="Trazado 4793" d="M919.661,386.655H908.039L907,382.729h.172l.869,3.279H919.4Z" transform="translate(159 4579)" fill="#4f576c"/>
    <path id="Trazado_4794" data-name="Trazado 4794" d="M828.07,382.083H815.818l.032-.647h12.22l.058-3.226h.011Z" transform="translate(159 4579)" fill="#4f576c"/>
    <path id="Trazado_4795" data-name="Trazado 4795" d="M815.171,382.083H802.908l.031-.647h12.232l.157-3.226h.032Z" transform="translate(159 4579)" fill="#4f576c"/>
    <path id="Trazado_4796" data-name="Trazado 4796" d="M788.673,377.564h-14.65l.112-.648h14.538l.475-4.516h.067Z" transform="translate(159 4579)" fill="#4f576c"/>
    <path id="Trazado_4797" data-name="Trazado 4797" d="M787.716,386.655H772.438l.113-.647h15.165l.346-3.279h.067Z" transform="translate(159 4579)" fill="#4f576c"/>
    <path id="Trazado_4798" data-name="Trazado 4798" d="M771.783,386.655H757.231l.173-.647h14.379l.572-3.279h.113Z" transform="translate(159 4579)" fill="#4f576c"/>
    <path id="Trazado_4799" data-name="Trazado 4799" d="M828.152,377.564H816.038l.031-.648h12.083l.079-4.516h.012Z" transform="translate(159 4579)" fill="#4f576c"/>
    <path id="Trazado_4800" data-name="Trazado 4800" d="M867.261,382.083h-12.14l-.041-3.873h.007l.034,3.226h12.117Z" transform="translate(159 4579)" fill="#4f576c"/>
    <path id="Trazado_4801" data-name="Trazado 4801" d="M854.526,386.655H842.27l.009-.647h12.24Z" transform="translate(159 4579)" fill="#4f576c"/>
    <path id="Trazado_4802" data-name="Trazado 4802" d="M867.427,386.655H855.171l-.044-3.926h.007l.037,3.279H867.4Z" transform="translate(159 4579)" fill="#4f576c"/>
    <path id="Trazado_4803" data-name="Trazado 4803" d="M841.622,386.655H788.366l.067-.647h53.189l.049-3.279h.009Z" transform="translate(159 4579)" fill="#4f576c"/>
    <path id="Trazado_4804" data-name="Trazado 4804" d="M880.967,386.655H868.073l-.143-3.926h.023l.12,3.279h12.838Z" transform="translate(159 4579)" fill="#4f576c"/>
    <path id="Trazado_4805" data-name="Trazado 4805" d="M815.391,377.564H803.13l.032-.648h12.229l.222-4.516h.031Z" transform="translate(159 4579)" fill="#4f576c"/>
    <path id="Trazado_4806" data-name="Trazado 4806" d="M841.758,377.564H828.8l.012-.648h12.949l.066-4.516h.009Z" transform="translate(159 4579)" fill="#4f576c"/>
    <path id="Trazado_4807" data-name="Trazado 4807" d="M790.476,366.592h-.069l.417-3.941h12.357l-.032.651H790.824Z" transform="translate(159 4579)" fill="#d3d4d7"/>
    <path id="Trazado_4808" data-name="Trazado 4808" d="M802.987,366.592H790.476l.348-3.29h12.325Z" transform="translate(159 4579)" fill="#7b818e"/>
    <path id="Trazado_4809" data-name="Trazado 4809" d="M803.666,366.592h-.032l.193-3.941h12.261l-.031.651h-12.23Z" transform="translate(159 4579)" fill="#d3d4d7"/>
    <path id="Trazado_4810" data-name="Trazado 4810" d="M815.9,366.592H803.665l.161-3.29h12.23Z" transform="translate(159 4579)" fill="#7b818e"/>
    <path id="Trazado_4811" data-name="Trazado 4811" d="M816.574,366.592h-.032l.194-3.941h11.671l-.012.651H816.736Z" transform="translate(159 4579)" fill="#d3d4d7"/>
    <path id="Trazado_4812" data-name="Trazado 4812" d="M828.336,366.592H816.574l.162-3.29H828.4Z" transform="translate(159 4579)" fill="#7b818e"/>
    <path id="Trazado_4813" data-name="Trazado 4813" d="M750.908,371.109h-.239l1.429-3.871h9.461l-.172.645H752.1Z" transform="translate(159 4579)" fill="#d3d4d7"/>
    <path id="Trazado_4814" data-name="Trazado 4814" d="M760.528,371.109h-9.62l1.191-3.226h9.289Z" transform="translate(159 4579)" fill="#7b818e"/>
    <path id="Trazado_4815" data-name="Trazado 4815" d="M828.993,366.592h-.012l.071-3.941h12.917l-.01.651H829.052Z" transform="translate(159 4579)" fill="#d3d4d7"/>
    <path id="Trazado_4816" data-name="Trazado 4816" d="M841.909,366.592H828.993l.058-3.29h12.908Z" transform="translate(159 4579)" fill="#7b818e"/>
    <path id="Trazado_4817" data-name="Trazado 4817" d="M752.575,366.592h-.239l1.455-3.941h8.99l-.173.651h-8.817Z" transform="translate(159 4579)" fill="#d3d4d7"/>
    <path id="Trazado_4818" data-name="Trazado 4818" d="M761.731,366.592h-9.156l1.216-3.29h8.817Z" transform="translate(159 4579)" fill="#7b818e"/>
    <path id="Trazado_4819" data-name="Trazado 4819" d="M775.935,366.592h-.113l.686-3.941h13.665l-.068.651h-13.6Z" transform="translate(159 4579)" fill="#d3d4d7"/>
    <path id="Trazado_4820" data-name="Trazado 4820" d="M789.76,366.592H775.936l.573-3.29h13.6Z" transform="translate(159 4579)" fill="#7b818e"/>
    <path id="Trazado_4821" data-name="Trazado 4821" d="M762.572,366.592H762.4l1.05-3.941h12.4l-.113.651H763.449Z" transform="translate(159 4579)" fill="#d3d4d7"/>
    <path id="Trazado_4822" data-name="Trazado 4822" d="M775.167,366.592h-12.6l.877-3.29H775.74Z" transform="translate(159 4579)" fill="#7b818e"/>
    <path id="Trazado_4823" data-name="Trazado 4823" d="M879.273,366.592h-.056l-.287-3.29H867.249l-.024-.651H878.93Z" transform="translate(159 4579)" fill="#d3d4d7"/>
    <path id="Trazado_4824" data-name="Trazado 4824" d="M879.217,366.592H867.37l-.121-3.29H878.93Z" transform="translate(159 4579)" fill="#7b818e"/>
    <path id="Trazado_4825" data-name="Trazado 4825" d="M913.615,371.109h-.262l-1.306-3.226h-8.819l-.172-.645h8.991Z" transform="translate(159 4579)" fill="#d3d4d7"/>
    <path id="Trazado_4826" data-name="Trazado 4826" d="M913.353,371.109h-9.268l-.858-3.226h8.82Z" transform="translate(159 4579)" fill="#7b818e"/>
    <path id="Trazado_4827" data-name="Trazado 4827" d="M915.972,376.917h-.263l-1.832-4.516h-9.45l-.171-.644h9.621Z" transform="translate(159 4579)" fill="#d3d4d7"/>
    <path id="Trazado_4828" data-name="Trazado 4828" d="M915.709,376.917H905.626l-1.2-4.516h9.45Z" transform="translate(159 4579)" fill="#7b818e"/>
    <path id="Trazado_4829" data-name="Trazado 4829" d="M748.767,376.917h-.239l1.9-5.16h9.925l-.171.644h-9.754Z" transform="translate(159 4579)" fill="#d3d4d7"/>
    <path id="Trazado_4830" data-name="Trazado 4830" d="M758.984,376.917H748.767l1.665-4.516h9.754Z" transform="translate(159 4579)" fill="#7b818e"/>
    <path id="Trazado_4831" data-name="Trazado 4831" d="M902.217,366.592h-.172l-.875-3.29h-9.088l-.107-.651h9.195Z" transform="translate(159 4579)" fill="#d3d4d7"/>
    <path id="Trazado_4832" data-name="Trazado 4832" d="M902.045,366.592H892.62l-.538-3.29h9.088Z" transform="translate(159 4579)" fill="#7b818e"/>
    <path id="Trazado_4833" data-name="Trazado 4833" d="M891.966,366.592h-.106l-.536-3.29H879.636l-.056-.651h11.744Z" transform="translate(159 4579)" fill="#d3d4d7"/>
    <path id="Trazado_4834" data-name="Trazado 4834" d="M891.861,366.592H879.922l-.285-3.29h11.687Z" transform="translate(159 4579)" fill="#7b818e"/>
    <path id="Trazado_4835" data-name="Trazado 4835" d="M911.782,366.592h-.263l-1.337-3.29H902.01l-.173-.651h8.345Z" transform="translate(159 4579)" fill="#d3d4d7"/>
    <path id="Trazado_4836" data-name="Trazado 4836" d="M911.519,366.592h-8.635l-.874-3.29h8.172Z" transform="translate(159 4579)" fill="#7b818e"/>
    <path id="Trazado_4837" data-name="Trazado 4837" d="M854.315,366.592h-.007l-.036-3.29H842.611l-.048,3.29h-.009l.057-3.941h11.661Z" transform="translate(159 4579)" fill="#d3d4d7"/>
    <path id="Trazado_4838" data-name="Trazado 4838" d="M854.308,366.592H842.564l.047-3.29h11.661Z" transform="translate(159 4579)" fill="#7b818e"/>
    <path id="Trazado_4839" data-name="Trazado 4839" d="M866.724,366.592H866.7l-.119-3.29H854.927l-.007-.651h11.661Z" transform="translate(159 4579)" fill="#d3d4d7"/>
    <path id="Trazado_4840" data-name="Trazado 4840" d="M866.7,366.592H854.96l-.034-3.29h11.655Z" transform="translate(159 4579)" fill="#7b818e"/>
    <path id="Trazado_4841" data-name="Trazado 4841" d="M828.912,371.109H828.9l.07-3.871H841.9l-.009.645H828.971Z" transform="translate(159 4579)" fill="#d3d4d7"/>
    <path id="Trazado_4842" data-name="Trazado 4842" d="M841.842,371.109h-12.93l.058-3.226h12.919Z" transform="translate(159 4579)" fill="#7b818e"/>
    <path id="Trazado_4843" data-name="Trazado 4843" d="M816.354,371.109h-.032l.191-3.871h11.812l-.012.645h-11.8Z" transform="translate(159 4579)" fill="#d3d4d7"/>
    <path id="Trazado_4844" data-name="Trazado 4844" d="M828.255,371.109h-11.9l.159-3.226h11.8Z" transform="translate(159 4579)" fill="#7b818e"/>
    <path id="Trazado_4845" data-name="Trazado 4845" d="M866.886,371.109h-.023l-.115-3.226H854.975l-.007-.645h11.78Z" transform="translate(159 4579)" fill="#d3d4d7"/>
    <path id="Trazado_4846" data-name="Trazado 4846" d="M866.863,371.109H855.009l-.034-3.226h11.773Z" transform="translate(159 4579)" fill="#7b818e"/>
    <path id="Trazado_4847" data-name="Trazado 4847" d="M747.1,381.436h-.238l1.428-3.872H758.81l-.171.646H748.288Z" transform="translate(159 4579)" fill="#d3d4d7"/>
    <path id="Trazado_4848" data-name="Trazado 4848" d="M757.782,381.436H747.1l1.189-3.226h10.351Z" transform="translate(159 4579)" fill="#7b818e"/>
    <path id="Trazado_4849" data-name="Trazado 4849" d="M790,371.109h-.068l.408-3.871h12.615l-.032.645H790.342Z" transform="translate(159 4579)" fill="#d3d4d7"/>
    <path id="Trazado_4850" data-name="Trazado 4850" d="M802.767,371.109H790l.34-3.226h12.584Z" transform="translate(159 4579)" fill="#7b818e"/>
    <path id="Trazado_4851" data-name="Trazado 4851" d="M803.445,371.109h-.031l.188-3.871h12.264l-.032.645H803.6Z" transform="translate(159 4579)" fill="#d3d4d7"/>
    <path id="Trazado_4852" data-name="Trazado 4852" d="M815.675,371.109H803.444l.157-3.226h12.232Z" transform="translate(159 4579)" fill="#7b818e"/>
    <path id="Trazado_4853" data-name="Trazado 4853" d="M854.365,371.109h-.007l-.035-3.226H842.545l-.048,3.226h-.009l.057-3.871h11.778Z" transform="translate(159 4579)" fill="#d3d4d7"/>
    <path id="Trazado_4854" data-name="Trazado 4854" d="M854.358,371.109H842.5l.048-3.226h11.778Z" transform="translate(159 4579)" fill="#7b818e"/>
    <path id="Trazado_4855" data-name="Trazado 4855" d="M880.175,376.917h-.057l-.394-4.516H867.577l-.023-.644h12.17Z" transform="translate(159 4579)" fill="#d3d4d7"/>
    <path id="Trazado_4856" data-name="Trazado 4856" d="M880.119,376.917H867.744l-.166-4.516h12.147Z" transform="translate(159 4579)" fill="#7b818e"/>
    <path id="Trazado_4857" data-name="Trazado 4857" d="M867.1,376.917h-.023l-.164-4.516H855.024l-.007-.644H866.91Z" transform="translate(159 4579)" fill="#d3d4d7"/>
    <path id="Trazado_4858" data-name="Trazado 4858" d="M867.073,376.917h-12l-.048-4.516H866.91Z" transform="translate(159 4579)" fill="#7b818e"/>
    <path id="Trazado_4859" data-name="Trazado 4859" d="M879.668,371.109h-.056l-.282-3.226H867.416l-.024-.645H879.33Z" transform="translate(159 4579)" fill="#d3d4d7"/>
    <path id="Trazado_4860" data-name="Trazado 4860" d="M879.612,371.109H867.534l-.118-3.226h11.915Z" transform="translate(159 4579)" fill="#7b818e"/>
    <path id="Trazado_4861" data-name="Trazado 4861" d="M893.656,376.917h-.106l-.738-4.516H880.428l-.056-.644h12.44Z" transform="translate(159 4579)" fill="#d3d4d7"/>
    <path id="Trazado_4862" data-name="Trazado 4862" d="M893.551,376.917H880.822l-.393-4.516h12.383Z" transform="translate(159 4579)" fill="#7b818e"/>
    <path id="Trazado_4863" data-name="Trazado 4863" d="M903.416,371.109h-.172l-.856-3.226h-9.557l-.106-.645h9.663Z" transform="translate(159 4579)" fill="#d3d4d7"/>
    <path id="Trazado_4864" data-name="Trazado 4864" d="M903.245,371.109H893.36l-.529-3.226h9.557Z" transform="translate(159 4579)" fill="#7b818e"/>
    <path id="Trazado_4865" data-name="Trazado 4865" d="M854.427,376.917h-.007l-.048-4.516H842.477l-.066,4.516H842.4l.075-5.16h11.895Z" transform="translate(159 4579)" fill="#d3d4d7"/>
    <path id="Trazado_4866" data-name="Trazado 4866" d="M854.42,376.917H842.411l.067-4.516h11.894Z" transform="translate(159 4579)" fill="#7b818e"/>
    <path id="Trazado_4867" data-name="Trazado 4867" d="M892.705,371.109H892.6l-.528-3.226H880.033l-.056-.645h12.094Z" transform="translate(159 4579)" fill="#d3d4d7"/>
    <path id="Trazado_4868" data-name="Trazado 4868" d="M892.6,371.109H880.317l-.283-3.226h12.038Z" transform="translate(159 4579)" fill="#7b818e"/>
    <path id="Trazado_4869" data-name="Trazado 4869" d="M775.148,371.109h-.113l.675-3.871h13.981l-.068.645H775.71Z" transform="translate(159 4579)" fill="#d3d4d7"/>
    <path id="Trazado_4870" data-name="Trazado 4870" d="M789.284,371.109H775.149l.561-3.226h13.913Z" transform="translate(159 4579)" fill="#7b818e"/>
    <path id="Trazado_4871" data-name="Trazado 4871" d="M828.728,381.436h-.012l.071-3.872h12.962l-.01.646H828.787Z" transform="translate(159 4579)" fill="#d3d4d7"/>
    <path id="Trazado_4872" data-name="Trazado 4872" d="M841.689,381.436H828.728l.059-3.226H841.74Z" transform="translate(159 4579)" fill="#7b818e"/>
    <path id="Trazado_4873" data-name="Trazado 4873" d="M788.913,381.436h-.068l.408-3.872h13.2l-.032.646H789.253Z" transform="translate(159 4579)" fill="#d3d4d7"/>
    <path id="Trazado_4874" data-name="Trazado 4874" d="M802.261,381.436H788.913l.34-3.226H802.42Z" transform="translate(159 4579)" fill="#7b818e"/>
    <path id="Trazado_4875" data-name="Trazado 4875" d="M906.159,381.436h-.172l-.856-3.226H894.523l-.106-.646h10.714Z" transform="translate(159 4579)" fill="#d3d4d7"/>
    <path id="Trazado_4876" data-name="Trazado 4876" d="M905.988,381.436H895.049l-.526-3.226h10.609Z" transform="translate(159 4579)" fill="#7b818e"/>
    <path id="Trazado_4877" data-name="Trazado 4877" d="M854.476,381.436h-.007l-.035-3.226H842.395l-.05,3.226h-.01l.06-3.872h12.039Z" transform="translate(159 4579)" fill="#d3d4d7"/>
    <path id="Trazado_4878" data-name="Trazado 4878" d="M854.469,381.436H842.345l.049-3.226h12.04Z" transform="translate(159 4579)" fill="#7b818e"/>
    <path id="Trazado_4879" data-name="Trazado 4879" d="M880.568,381.436h-.056l-.282-3.226H867.791l-.024-.646H880.23Z" transform="translate(159 4579)" fill="#d3d4d7"/>
    <path id="Trazado_4880" data-name="Trazado 4880" d="M880.511,381.436h-12.6l-.118-3.226h12.44Z" transform="translate(159 4579)" fill="#7b818e"/>
    <path id="Trazado_4881" data-name="Trazado 4881" d="M894.4,381.436h-.106l-.527-3.226H880.934l-.056-.646h12.884Z" transform="translate(159 4579)" fill="#d3d4d7"/>
    <path id="Trazado_4882" data-name="Trazado 4882" d="M894.29,381.436H881.216l-.281-3.226h12.828Z" transform="translate(159 4579)" fill="#7b818e"/>
    <path id="Trazado_4883" data-name="Trazado 4883" d="M759.823,376.917h-.172l1.375-5.16h13.242l-.112.644h-13.13Z" transform="translate(159 4579)" fill="#d3d4d7"/>
    <path id="Trazado_4884" data-name="Trazado 4884" d="M773.367,376.917H759.823l1.2-4.516h13.129Z" transform="translate(159 4579)" fill="#7b818e"/>
    <path id="Trazado_4885" data-name="Trazado 4885" d="M761.369,371.109H761.2l1.03-3.871h12.827l-.113.645H762.227Z" transform="translate(159 4579)" fill="#d3d4d7"/>
    <path id="Trazado_4886" data-name="Trazado 4886" d="M774.38,371.109H761.369l.859-3.226h12.714Z" transform="translate(159 4579)" fill="#7b818e"/>
    <path id="Trazado_4887" data-name="Trazado 4887" d="M773.35,381.436h-.112l.672-3.872H788.6l-.067.646H773.91Z" transform="translate(159 4579)" fill="#d3d4d7"/>
    <path id="Trazado_4888" data-name="Trazado 4888" d="M788.2,381.436H773.35l.56-3.226h14.625Z" transform="translate(159 4579)" fill="#7b818e"/>
    <path id="Trazado_4889" data-name="Trazado 4889" d="M758.62,381.436h-.172l1.031-3.872h13.775l-.112.646H759.479Z" transform="translate(159 4579)" fill="#d3d4d7"/>
    <path id="Trazado_4890" data-name="Trazado 4890" d="M772.582,381.436H758.621l.858-3.226h13.664Z" transform="translate(159 4579)" fill="#7b818e"/>
    <path id="Trazado_4891" data-name="Trazado 4891" d="M917.807,381.436h-.263l-1.31-3.226H905.969l-.172-.646h10.437Z" transform="translate(159 4579)" fill="#d3d4d7"/>
    <path id="Trazado_4892" data-name="Trazado 4892" d="M917.545,381.436H906.828l-.859-3.226h10.266Z" transform="translate(159 4579)" fill="#7b818e"/>
    <path id="Trazado_4893" data-name="Trazado 4893" d="M745.412,386.007h-.239l1.449-3.924h10.987l-.172.646H746.622Z" transform="translate(159 4579)" fill="#d3d4d7"/>
    <path id="Trazado_4894" data-name="Trazado 4894" d="M756.563,386.007H745.412l1.21-3.278h10.815Z" transform="translate(159 4579)" fill="#7b818e"/>
    <path id="Trazado_4895" data-name="Trazado 4895" d="M895.143,386.007h-.106l-.539-3.278H881.33l-.057-.646H894.5Z" transform="translate(159 4579)" fill="#d3d4d7"/>
    <path id="Trazado_4896" data-name="Trazado 4896" d="M895.037,386.007H881.615l-.285-3.278H894.5Z" transform="translate(159 4579)" fill="#7b818e"/>
    <path id="Trazado_4897" data-name="Trazado 4897" d="M789.389,376.917h-.068l.543-5.16h12.872l-.032.644h-12.84Z" transform="translate(159 4579)" fill="#d3d4d7"/>
    <path id="Trazado_4898" data-name="Trazado 4898" d="M802.482,376.917H789.389l.475-4.516H802.7Z" transform="translate(159 4579)" fill="#7b818e"/>
    <path id="Trazado_4899" data-name="Trazado 4899" d="M904.958,376.917h-.172l-1.2-4.516H893.571l-.106-.644h10.124Z" transform="translate(159 4579)" fill="#d3d4d7"/>
    <path id="Trazado_4900" data-name="Trazado 4900" d="M904.786,376.917H894.309l-.739-4.516h10.019Z" transform="translate(159 4579)" fill="#7b818e"/>
    <path id="Trazado_4901" data-name="Trazado 4901" d="M907.371,386.007H907.2l-.87-3.278H895.26l-.106-.646h11.175Z" transform="translate(159 4579)" fill="#d3d4d7"/>
    <path id="Trazado_4902" data-name="Trazado 4902" d="M907.2,386.007H895.8l-.538-3.278h11.069Z" transform="translate(159 4579)" fill="#7b818e"/>
    <path id="Trazado_4903" data-name="Trazado 4903" d="M919.661,386.007H919.4l-1.33-3.278h-10.9l-.172-.646h11.07Z" transform="translate(159 4579)" fill="#d3d4d7"/>
    <path id="Trazado_4904" data-name="Trazado 4904" d="M919.4,386.007H908.04l-.87-3.278h10.9Z" transform="translate(159 4579)" fill="#7b818e"/>
    <path id="Trazado_4905" data-name="Trazado 4905" d="M815.849,381.436h-.032l.189-3.872h12.133l-.012.646H816.006Z" transform="translate(159 4579)" fill="#d3d4d7"/>
    <path id="Trazado_4906" data-name="Trazado 4906" d="M828.07,381.436H815.85l.156-3.226h12.122Z" transform="translate(159 4579)" fill="#7b818e"/>
    <path id="Trazado_4907" data-name="Trazado 4907" d="M802.939,381.436h-.032l.189-3.872h12.263l-.031.646H803.1Z" transform="translate(159 4579)" fill="#d3d4d7"/>
    <path id="Trazado_4908" data-name="Trazado 4908" d="M815.171,381.436H802.939l.158-3.226h12.231Z" transform="translate(159 4579)" fill="#7b818e"/>
    <path id="Trazado_4909" data-name="Trazado 4909" d="M774.135,376.917h-.113l.9-5.16h14.293l-.068.644H774.922Z" transform="translate(159 4579)" fill="#d3d4d7"/>
    <path id="Trazado_4910" data-name="Trazado 4910" d="M788.673,376.917H774.135l.788-4.516h14.225Z" transform="translate(159 4579)" fill="#7b818e"/>
    <path id="Trazado_4911" data-name="Trazado 4911" d="M772.552,386.007h-.113l.685-3.924h15.006l-.068.646H773.123Z" transform="translate(159 4579)" fill="#d3d4d7"/>
    <path id="Trazado_4912" data-name="Trazado 4912" d="M787.716,386.007H772.551l.572-3.278h14.939Z" transform="translate(159 4579)" fill="#7b818e"/>
    <path id="Trazado_4913" data-name="Trazado 4913" d="M757.4,386.007h-.173l1.047-3.924h14.19l-.113.646H758.278Z" transform="translate(159 4579)" fill="#d3d4d7"/>
    <path id="Trazado_4914" data-name="Trazado 4914" d="M771.783,386.007H757.4l.873-3.278h14.078Z" transform="translate(159 4579)" fill="#7b818e"/>
    <path id="Trazado_4915" data-name="Trazado 4915" d="M816.069,376.917h-.032l.254-5.16h11.951l-.011.644h-11.94Z" transform="translate(159 4579)" fill="#d3d4d7"/>
    <path id="Trazado_4916" data-name="Trazado 4916" d="M828.152,376.917H816.069l.222-4.516h11.94Z" transform="translate(159 4579)" fill="#7b818e"/>
    <path id="Trazado_4917" data-name="Trazado 4917" d="M867.261,381.436h-.023l-.115-3.226H855.087l-.007-.646h12.043Z" transform="translate(159 4579)" fill="#d3d4d7"/>
    <path id="Trazado_4918" data-name="Trazado 4918" d="M867.237,381.436H855.12l-.034-3.226h12.036Z" transform="translate(159 4579)" fill="#7b818e"/>
    <path id="Trazado_4919" data-name="Trazado 4919" d="M854.526,386.007h-.007l-.036-3.278H842.327l-.048,3.278h-.009l.057-3.924h12.156Z" transform="translate(159 4579)" fill="#d3d4d7"/>
    <path id="Trazado_4920" data-name="Trazado 4920" d="M854.518,386.007h-12.24l.048-3.278h12.156Z" transform="translate(159 4579)" fill="#7b818e"/>
    <path id="Trazado_4921" data-name="Trazado 4921" d="M867.427,386.007H867.4l-.12-3.278h-12.15l-.007-.646h12.157Z" transform="translate(159 4579)" fill="#d3d4d7"/>
    <path id="Trazado_4922" data-name="Trazado 4922" d="M867.4,386.007H855.171l-.038-3.278h12.151Z" transform="translate(159 4579)" fill="#7b818e"/>
    <path id="Trazado_4923" data-name="Trazado 4923" d="M788.433,386.007h-.068l.413-3.924h52.9l-.009.646H788.778Z" transform="translate(159 4579)" fill="#d3d4d7"/>
    <path id="Trazado_4924" data-name="Trazado 4924" d="M841.622,386.007H788.433l.345-3.278h52.893Z" transform="translate(159 4579)" fill="#7b818e"/>
    <path id="Trazado_4925" data-name="Trazado 4925" d="M880.967,386.007h-.056l-.286-3.278H867.953l-.023-.646h12.7Z" transform="translate(159 4579)" fill="#d3d4d7"/>
    <path id="Trazado_4926" data-name="Trazado 4926" d="M880.911,386.007H868.073l-.119-3.278h12.671Z" transform="translate(159 4579)" fill="#7b818e"/>
    <path id="Trazado_4927" data-name="Trazado 4927" d="M803.161,376.917h-.032l.253-5.16h12.262l-.032.644h-12.23Z" transform="translate(159 4579)" fill="#d3d4d7"/>
    <path id="Trazado_4928" data-name="Trazado 4928" d="M815.391,376.917H803.162l.22-4.516h12.231Z" transform="translate(159 4579)" fill="#7b818e"/>
    <path id="Trazado_4929" data-name="Trazado 4929" d="M828.808,376.917H828.8l.092-5.16h12.945l-.01.644H828.888Z" transform="translate(159 4579)" fill="#d3d4d7"/>
    <path id="Trazado_4930" data-name="Trazado 4930" d="M841.758,376.917H828.808l.08-4.516h12.935Z" transform="translate(159 4579)" fill="#7b818e"/>
    <path id="Trazado_4931" data-name="Trazado 4931" d="M902.9,335.521a6.8,6.8,0,0,1-6.8,6.8H769.2a6.8,6.8,0,0,1-6.8-6.8V246.868a6.8,6.8,0,0,1,6.8-6.8H896.1a6.8,6.8,0,0,1,6.8,6.8v88.653" transform="translate(159 4579)" fill="#fff"/>
    <path id="Trazado_4932" data-name="Trazado 4932" d="M902.9,252.6v-5.737a6.8,6.8,0,0,0-6.8-6.8H769.2a6.8,6.8,0,0,0-6.8,6.8V252.6H902.9" transform="translate(159 4579)" fill="#354f66"/>
    <path id="Trazado_4933" data-name="Trazado 4933" d="M881.007,248.889a2.549,2.549,0,1,1,2.55-2.552,2.55,2.55,0,0,1-2.55,2.552" transform="translate(159 4579)" fill="#0b111c"/>
    <path id="Trazado_4934" data-name="Trazado 4934" d="M890.636,248.889a2.549,2.549,0,1,1,2.55-2.552,2.55,2.55,0,0,1-2.55,2.552" transform="translate(159 4579)" fill="#0b111c"/>
    <path id="Trazado_4935" data-name="Trazado 4935" d="M871.218,248.889a2.549,2.549,0,1,1,2.55-2.552,2.552,2.552,0,0,1-2.55,2.552" transform="translate(159 4579)" fill="#0b111c"/>
    <rect id="Rectángulo_5114" data-name="Rectángulo 5114" width="135.982" height="28.16" transform="translate(923.656 4834.099)" fill="#8aed8a"/>
    <path id="Trazado_4936" data-name="Trazado 4936" d="M813.329,246.337a2.652,2.652,0,0,1-2.651,2.651H777.6a2.651,2.651,0,0,1,0-5.3h33.074a2.651,2.651,0,0,1,2.651,2.65" transform="translate(159 4579)" fill="#fff"/>
    <path id="Trazado_4937" data-name="Trazado 4937" d="M779.965,246.962a.719.719,0,0,1-.27.592,1.177,1.177,0,0,1-.752.216,1.785,1.785,0,0,1-.786-.167v-.546a3.072,3.072,0,0,0,.475.175,1.373,1.373,0,0,0,.356.052.511.511,0,0,0,.3-.074.253.253,0,0,0,.1-.22.238.238,0,0,0-.045-.145.521.521,0,0,0-.134-.123,3.829,3.829,0,0,0-.36-.188,1.669,1.669,0,0,1-.381-.229.822.822,0,0,1-.2-.257.8.8,0,0,1,.173-.919,1.035,1.035,0,0,1,.689-.211,1.6,1.6,0,0,1,.413.051,2.726,2.726,0,0,1,.41.144l-.189.458a2.8,2.8,0,0,0-.367-.128,1.232,1.232,0,0,0-.286-.036.38.38,0,0,0-.256.078.26.26,0,0,0-.089.2.254.254,0,0,0,.036.136.4.4,0,0,0,.115.113,3.832,3.832,0,0,0,.373.193,1.5,1.5,0,0,1,.533.373.733.733,0,0,1,.144.459" transform="translate(159 4579)" fill="#283042"/>
    <path id="Trazado_4938" data-name="Trazado 4938" d="M781.3,245.982a.371.371,0,0,0-.289.117.539.539,0,0,0-.119.331h.811a.487.487,0,0,0-.111-.331.381.381,0,0,0-.292-.117m.081,1.788a1.1,1.1,0,0,1-.8-.283,1.074,1.074,0,0,1-.288-.8,1.177,1.177,0,0,1,.267-.824,1.083,1.083,0,0,1,1.437-.036.97.97,0,0,1,.25.708v.282h-1.368a.553.553,0,0,0,.147.385.512.512,0,0,0,.383.138,1.681,1.681,0,0,0,.362-.039,1.812,1.812,0,0,0,.356-.129v.45a1.379,1.379,0,0,1-.324.112,2.018,2.018,0,0,1-.421.037" transform="translate(159 4579)" fill="#283042"/>
    <path id="Trazado_4939" data-name="Trazado 4939" d="M783.894,246.748l-.224.008a.721.721,0,0,0-.375.09.287.287,0,0,0-.124.255c0,.163.094.245.281.245a.446.446,0,0,0,.322-.116.411.411,0,0,0,.12-.307Zm.171.983-.111-.289h-.016a.83.83,0,0,1-.3.256.96.96,0,0,1-.4.072.656.656,0,0,1-.482-.175.674.674,0,0,1-.174-.5.56.56,0,0,1,.236-.5,1.385,1.385,0,0,1,.712-.177l.368-.011v-.093a.288.288,0,0,0-.33-.322,1.493,1.493,0,0,0-.6.153l-.192-.391a1.727,1.727,0,0,1,.814-.192,1.015,1.015,0,0,1,.654.186.687.687,0,0,1,.228.566v1.413Z" transform="translate(159 4579)" fill="#283042"/>
    <path id="Trazado_4940" data-name="Trazado 4940" d="M786.249,245.571a.893.893,0,0,1,.195.016l-.044.543a.642.642,0,0,0-.17-.018.61.61,0,0,0-.432.142.512.512,0,0,0-.155.4v1.079h-.579V245.61h.44l.084.357h.03a.783.783,0,0,1,.266-.288.653.653,0,0,1,.365-.108" transform="translate(159 4579)" fill="#283042"/>
    <path id="Trazado_4941" data-name="Trazado 4941" d="M787.691,247.77q-.99,0-.99-1.087a1.163,1.163,0,0,1,.269-.827,1.018,1.018,0,0,1,.772-.285,1.476,1.476,0,0,1,.661.144l-.17.448c-.092-.038-.177-.067-.255-.091a.8.8,0,0,0-.236-.035c-.3,0-.451.214-.451.642s.151.622.451.622a1.024,1.024,0,0,0,.31-.044,1.156,1.156,0,0,0,.285-.14v.495a.963.963,0,0,1-.284.124,1.593,1.593,0,0,1-.362.034" transform="translate(159 4579)" fill="#283042"/>
    <path id="Trazado_4942" data-name="Trazado 4942" d="M790.786,247.731h-.578v-1.239c0-.305-.114-.459-.342-.459a.388.388,0,0,0-.351.165,1.009,1.009,0,0,0-.109.535v1h-.578v-2.952h.578v.6c0,.047,0,.158-.013.33l-.013.17h.03a.675.675,0,0,1,.616-.309.751.751,0,0,1,.567.2.805.805,0,0,1,.193.578Z" transform="translate(159 4579)" fill="#283042"/>
    <path id="Trazado_4943" data-name="Trazado 4943" d="M830.933,261.265a2.225,2.225,0,0,1-2.225,2.224H801.629a2.224,2.224,0,0,1,0-4.448h27.079a2.225,2.225,0,0,1,2.225,2.224" transform="translate(159 4579)" fill="#4baa4d"/>
    <path id="Trazado_4944" data-name="Trazado 4944" d="M890.951,267.937a1.248,1.248,0,0,1-1.246,1.246H800.649a1.246,1.246,0,0,1,0-2.491h89.056a1.247,1.247,0,0,1,1.246,1.245" transform="translate(159 4579)" fill="#60c967"/>
    <path id="Trazado_4945" data-name="Trazado 4945" d="M890.951,273.275a1.247,1.247,0,0,1-1.246,1.245H800.649a1.245,1.245,0,0,1,0-2.491h89.056a1.248,1.248,0,0,1,1.246,1.246" transform="translate(159 4579)" fill="#60c967"/>
    <path id="Trazado_4946" data-name="Trazado 4946" d="M862.879,278.614a1.246,1.246,0,0,1-1.244,1.245H800.65a1.246,1.246,0,0,1,0-2.492h60.985a1.247,1.247,0,0,1,1.244,1.247" transform="translate(159 4579)" fill="#60c967"/>
    <path id="Trazado_4947" data-name="Trazado 4947" d="M773.982,269.6a10.743,10.743,0,1,0,10.65-10.834,10.743,10.743,0,0,0-10.65,10.834" transform="translate(159 4579)" fill="#fff"/>
    <path id="Trazado_4948" data-name="Trazado 4948" d="M830.933,288a2.226,2.226,0,0,1-2.225,2.225H801.629a2.225,2.225,0,0,1,0-4.45h27.079A2.226,2.226,0,0,1,830.933,288" transform="translate(159 4579)" fill="#a3c4c1"/>
    <path id="Trazado_4949" data-name="Trazado 4949" d="M890.951,294.673a1.247,1.247,0,0,1-1.246,1.244H800.649a1.245,1.245,0,0,1,0-2.491h89.056a1.248,1.248,0,0,1,1.246,1.247" transform="translate(159 4579)" fill="#daedec"/>
    <path id="Trazado_4950" data-name="Trazado 4950" d="M890.951,300.012a1.248,1.248,0,0,1-1.246,1.245H800.649a1.246,1.246,0,0,1,0-2.492h89.056a1.248,1.248,0,0,1,1.246,1.247" transform="translate(159 4579)" fill="#daedec"/>
    <path id="Trazado_4951" data-name="Trazado 4951" d="M862.879,305.349a1.245,1.245,0,0,1-1.244,1.245H800.65a1.245,1.245,0,0,1,0-2.49h60.985a1.245,1.245,0,0,1,1.244,1.245" transform="translate(159 4579)" fill="#daedec"/>
    <path id="Trazado_4952" data-name="Trazado 4952" d="M773.982,296.335a10.743,10.743,0,1,0,10.65-10.833,10.742,10.742,0,0,0-10.65,10.833" transform="translate(159 4579)" fill="#daedec"/>
    <path id="Trazado_4953" data-name="Trazado 4953" d="M830.933,313.983a2.224,2.224,0,0,1-2.225,2.223H801.629a2.224,2.224,0,1,1,0-4.448h27.079a2.226,2.226,0,0,1,2.225,2.225" transform="translate(159 4579)" fill="#a3c4c1"/>
    <path id="Trazado_4954" data-name="Trazado 4954" d="M890.951,320.658a1.246,1.246,0,0,1-1.246,1.242H800.649a1.245,1.245,0,0,1,0-2.49h89.056a1.248,1.248,0,0,1,1.246,1.248" transform="translate(159 4579)" fill="#daedec"/>
    <path id="Trazado_4955" data-name="Trazado 4955" d="M890.951,325.993a1.248,1.248,0,0,1-1.246,1.247H800.649a1.246,1.246,0,0,1,0-2.492h89.056a1.248,1.248,0,0,1,1.246,1.245" transform="translate(159 4579)" fill="#daedec"/>
    <path id="Trazado_4956" data-name="Trazado 4956" d="M862.879,331.333a1.244,1.244,0,0,1-1.244,1.244H800.65a1.245,1.245,0,0,1,0-2.49h60.985a1.245,1.245,0,0,1,1.244,1.246" transform="translate(159 4579)" fill="#daedec"/>
    <path id="Trazado_4957" data-name="Trazado 4957" d="M773.982,322.319a10.743,10.743,0,1,0,10.65-10.834,10.743,10.743,0,0,0-10.65,10.834" transform="translate(159 4579)" fill="#daedec"/>
    <path id="Trazado_4958" data-name="Trazado 4958" d="M784.4,274.518a1.94,1.94,0,0,1-.347.032,1.608,1.608,0,0,1-1.186-.347l-4.309-3.723a1.041,1.041,0,0,1-.356-.768,1.8,1.8,0,0,1,.54-1.272,1.372,1.372,0,0,1,.706-.4,1.328,1.328,0,0,1,1.12.364l3.3,2.8,3.588-5.02c.011-.019,2.261-3.178,3.263-3.367a.531.531,0,0,1,.29.02.49.49,0,0,1,.3.316c.286.857-1.387,3.62-1.4,3.647l-4.388,7a1.677,1.677,0,0,1-1.111.712" transform="translate(159 4579)" fill="#60c967"/>
  </g>
</svg>
