<svg id="Grupo_8212" data-name="Grupo 8212" xmlns="http://www.w3.org/2000/svg" xmlns:xlink="http://www.w3.org/1999/xlink" width="392.737" height="406.463" viewBox="0 0 392.737 406.463">
  <defs>
    <clipPath id="clip-path">
      <rect id="Rectángulo_5085" data-name="Rectángulo 5085" width="392.737" height="406.463" fill="none"/>
    </clipPath>
  </defs>
  <g id="Grupo_8211" data-name="Grupo 8211" clip-path="url(#clip-path)">
    <path id="Trazado_4584" data-name="Trazado 4584" d="M387.409,114.882H230.7a5.344,5.344,0,0,1-5.328-5.328V72.884a5.342,5.342,0,0,1,5.328-5.326H387.409a5.342,5.342,0,0,1,5.328,5.326v36.67a5.344,5.344,0,0,1-5.328,5.328" fill="#2a4690"/>
    <path id="Trazado_4585" data-name="Trazado 4585" d="M239.938,91.386l3-.291a3.651,3.651,0,0,0,1.1,2.216,3.316,3.316,0,0,0,2.232.708,3.428,3.428,0,0,0,2.242-.63,1.872,1.872,0,0,0,.754-1.472,1.386,1.386,0,0,0-.317-.921,2.539,2.539,0,0,0-1.108-.661q-.541-.187-2.466-.666a8.36,8.36,0,0,1-3.476-1.509,3.968,3.968,0,0,1-1.4-3.069,3.924,3.924,0,0,1,.66-2.18,4.135,4.135,0,0,1,1.9-1.546,7.623,7.623,0,0,1,3-.53,6.436,6.436,0,0,1,4.323,1.259,4.445,4.445,0,0,1,1.525,3.361l-3.081.135a2.609,2.609,0,0,0-.848-1.691,3.106,3.106,0,0,0-1.951-.515,3.52,3.52,0,0,0-2.1.552,1.11,1.11,0,0,0-.489.947,1.174,1.174,0,0,0,.458.926,8.091,8.091,0,0,0,2.831,1.019,14.949,14.949,0,0,1,3.324,1.1,4.284,4.284,0,0,1,1.686,1.551,4.8,4.8,0,0,1-.12,4.885,4.36,4.36,0,0,1-2.06,1.7,8.627,8.627,0,0,1-3.32.557,6.606,6.606,0,0,1-4.443-1.337,5.812,5.812,0,0,1-1.852-3.9" fill="#fff"/>
    <path id="Trazado_4586" data-name="Trazado 4586" d="M262.186,96.35V94.695A4.253,4.253,0,0,1,260.6,96.09a4.444,4.444,0,0,1-2.076.51,4.061,4.061,0,0,1-2-.489,2.892,2.892,0,0,1-1.28-1.374,6.139,6.139,0,0,1-.395-2.445V85.3h2.924v5.078a14.146,14.146,0,0,0,.161,2.857,1.564,1.564,0,0,0,.588.832,1.805,1.805,0,0,0,1.082.307,2.3,2.3,0,0,0,1.343-.411,2.088,2.088,0,0,0,.811-1.02,11.809,11.809,0,0,0,.219-2.981V85.3H264.9V96.35Z" fill="#fff"/>
    <path id="Trazado_4587" data-name="Trazado 4587" d="M267.846,85.3h2.726v1.623a4.088,4.088,0,0,1,1.436-1.353,3.959,3.959,0,0,1,2.009-.52,4.213,4.213,0,0,1,3.267,1.509,6.106,6.106,0,0,1,1.342,4.2,6.289,6.289,0,0,1-1.352,4.3A4.213,4.213,0,0,1,274,96.6a3.721,3.721,0,0,1-1.66-.364,5.606,5.606,0,0,1-1.566-1.248v5.567h-2.924Zm2.893,5.338a4.252,4.252,0,0,0,.739,2.752,2.259,2.259,0,0,0,1.8.89,2.111,2.111,0,0,0,1.7-.817,4.207,4.207,0,0,0,.676-2.679,3.994,3.994,0,0,0-.7-2.581,2.156,2.156,0,0,0-1.727-.843,2.242,2.242,0,0,0-1.779.827,3.683,3.683,0,0,0-.708,2.451" fill="#fff"/>
    <path id="Trazado_4588" data-name="Trazado 4588" d="M287.346,92.832l2.914.489a4.784,4.784,0,0,1-1.774,2.441,5.214,5.214,0,0,1-3.033.837,4.947,4.947,0,0,1-4.267-1.883,6.332,6.332,0,0,1-1.092-3.809,6.1,6.1,0,0,1,1.436-4.3,4.724,4.724,0,0,1,3.631-1.556,4.909,4.909,0,0,1,3.892,1.628,7.207,7.207,0,0,1,1.363,4.99h-7.325a2.954,2.954,0,0,0,.707,2.024,2.214,2.214,0,0,0,1.686.723,1.788,1.788,0,0,0,1.155-.375,2.307,2.307,0,0,0,.707-1.207m.167-2.955a2.812,2.812,0,0,0-.656-1.93,2.009,2.009,0,0,0-1.519-.661,2.032,2.032,0,0,0-1.581.7,2.694,2.694,0,0,0-.614,1.894Z" fill="#fff"/>
    <path id="Trazado_4589" data-name="Trazado 4589" d="M295.6,96.35h-2.925V85.3h2.717v1.572a4.7,4.7,0,0,1,1.254-1.468,2.3,2.3,0,0,1,1.264-.354,3.707,3.707,0,0,1,1.924.552l-.9,2.549a2.565,2.565,0,0,0-1.373-.478,1.626,1.626,0,0,0-1.041.338,2.292,2.292,0,0,0-.67,1.223,17.282,17.282,0,0,0-.245,3.7Z" fill="#fff"/>
    <path id="Trazado_4590" data-name="Trazado 4590" d="M300.063,93.2,303,92.749a2.15,2.15,0,0,0,.76,1.3,2.566,2.566,0,0,0,1.6.442,2.891,2.891,0,0,0,1.706-.416.927.927,0,0,0,.385-.78.768.768,0,0,0-.208-.552,2.331,2.331,0,0,0-.978-.385,15.724,15.724,0,0,1-4.485-1.426,2.846,2.846,0,0,1-1.311-2.487,3.065,3.065,0,0,1,1.134-2.414,5.3,5.3,0,0,1,3.517-.978,6.145,6.145,0,0,1,3.372.739,3.781,3.781,0,0,1,1.519,2.185l-2.758.51a1.7,1.7,0,0,0-.671-.988,2.453,2.453,0,0,0-1.41-.344,3.175,3.175,0,0,0-1.654.323.692.692,0,0,0-.333.593.648.648,0,0,0,.291.531,11,11,0,0,0,2.732.822,8.131,8.131,0,0,1,3.262,1.3,2.707,2.707,0,0,1,.915,2.175,3.338,3.338,0,0,1-1.269,2.612A5.621,5.621,0,0,1,305.36,96.6a6.169,6.169,0,0,1-3.575-.916,4.222,4.222,0,0,1-1.722-2.487" fill="#fff"/>
    <path id="Trazado_4591" data-name="Trazado 4591" d="M312.945,81.1h2.924V83.8h-2.924Zm0,4.2h2.924V96.35h-2.924Z" fill="#fff"/>
    <path id="Trazado_4592" data-name="Trazado 4592" d="M317.836,93.2l2.934-.448a2.15,2.15,0,0,0,.76,1.3,2.566,2.566,0,0,0,1.6.442,2.891,2.891,0,0,0,1.706-.416.927.927,0,0,0,.385-.78.768.768,0,0,0-.208-.552,2.331,2.331,0,0,0-.978-.385,15.723,15.723,0,0,1-4.485-1.426,2.846,2.846,0,0,1-1.311-2.487,3.065,3.065,0,0,1,1.134-2.414,5.3,5.3,0,0,1,3.517-.978,6.145,6.145,0,0,1,3.372.739,3.781,3.781,0,0,1,1.519,2.185l-2.758.51a1.7,1.7,0,0,0-.671-.988,2.454,2.454,0,0,0-1.41-.344,3.175,3.175,0,0,0-1.654.323.692.692,0,0,0-.333.593.648.648,0,0,0,.291.531,11,11,0,0,0,2.732.822,8.132,8.132,0,0,1,3.262,1.3,2.707,2.707,0,0,1,.915,2.175,3.338,3.338,0,0,1-1.269,2.612,5.621,5.621,0,0,1-3.756,1.093,6.169,6.169,0,0,1-3.575-.916,4.222,4.222,0,0,1-1.722-2.487" fill="#fff"/>
    <path id="Trazado_4593" data-name="Trazado 4593" d="M335.785,85.3V87.63h-2v4.453a11.129,11.129,0,0,0,.057,1.577.639.639,0,0,0,.261.369.818.818,0,0,0,.494.146,3.8,3.8,0,0,0,1.176-.281l.249,2.269a5.82,5.82,0,0,1-2.31.437,3.659,3.659,0,0,1-1.425-.266,2.086,2.086,0,0,1-.932-.687,2.726,2.726,0,0,1-.411-1.139,14.271,14.271,0,0,1-.093-2.06V87.63H329.51V85.3h1.343V83.1l2.934-1.706v3.9Z" fill="#fff"/>
    <path id="Trazado_4594" data-name="Trazado 4594" d="M344.214,92.832l2.914.489a4.784,4.784,0,0,1-1.774,2.441,5.214,5.214,0,0,1-3.033.837,4.947,4.947,0,0,1-4.267-1.883,6.332,6.332,0,0,1-1.092-3.809,6.1,6.1,0,0,1,1.436-4.3,4.724,4.724,0,0,1,3.631-1.556,4.909,4.909,0,0,1,3.892,1.628,7.207,7.207,0,0,1,1.363,4.99h-7.325a2.954,2.954,0,0,0,.707,2.024,2.214,2.214,0,0,0,1.686.723,1.788,1.788,0,0,0,1.155-.375,2.307,2.307,0,0,0,.707-1.207m.167-2.955a2.812,2.812,0,0,0-.656-1.93,2.009,2.009,0,0,0-1.519-.661,2.032,2.032,0,0,0-1.581.7,2.694,2.694,0,0,0-.614,1.894Z" fill="#fff"/>
    <path id="Trazado_4595" data-name="Trazado 4595" d="M349.448,85.3h2.7v1.509a4.334,4.334,0,0,1,3.444-1.759,3.712,3.712,0,0,1,1.842.437,3.364,3.364,0,0,1,1.28,1.322,5.114,5.114,0,0,1,1.571-1.322,3.861,3.861,0,0,1,1.8-.437,4.015,4.015,0,0,1,2.06.494A3.034,3.034,0,0,1,365.4,87a6.3,6.3,0,0,1,.3,2.289V96.35h-2.924V90.034a4.7,4.7,0,0,0-.3-2.123,1.387,1.387,0,0,0-1.249-.625,1.993,1.993,0,0,0-1.155.375,2.075,2.075,0,0,0-.78,1.1,7.874,7.874,0,0,0-.24,2.284V96.35h-2.924V90.294a8.4,8.4,0,0,0-.156-2.081,1.33,1.33,0,0,0-.483-.7,1.538,1.538,0,0,0-.89-.229,2.132,2.132,0,0,0-1.218.365,2,2,0,0,0-.775,1.051,7.808,7.808,0,0,0-.234,2.278v5.37h-2.924Z" fill="#fff"/>
    <path id="Trazado_4596" data-name="Trazado 4596" d="M370.8,88.67l-2.653-.478a4.138,4.138,0,0,1,1.54-2.373,5.639,5.639,0,0,1,3.247-.77,7.005,7.005,0,0,1,2.913.463,2.911,2.911,0,0,1,1.348,1.176,6.034,6.034,0,0,1,.39,2.617l-.031,3.413a11.923,11.923,0,0,0,.14,2.149,6.279,6.279,0,0,0,.526,1.483h-2.893c-.077-.194-.17-.482-.281-.864-.049-.173-.083-.287-.1-.343a5.272,5.272,0,0,1-1.6,1.092,4.584,4.584,0,0,1-1.821.365,3.77,3.77,0,0,1-2.69-.926,3.082,3.082,0,0,1-.983-2.342,3.137,3.137,0,0,1,.448-1.67,2.923,2.923,0,0,1,1.253-1.124,9.805,9.805,0,0,1,2.326-.681,15.949,15.949,0,0,0,2.841-.718v-.292a1.513,1.513,0,0,0-.416-1.2,2.492,2.492,0,0,0-1.572-.36,2.088,2.088,0,0,0-1.217.308,2.135,2.135,0,0,0-.708,1.076m3.913,2.373q-.562.188-1.779.448a5.356,5.356,0,0,0-1.592.509,1.22,1.22,0,0,0-.573,1.031,1.434,1.434,0,0,0,.458,1.061,1.6,1.6,0,0,0,1.165.447,2.528,2.528,0,0,0,1.509-.52,1.83,1.83,0,0,0,.7-.968,5.725,5.725,0,0,0,.115-1.425Z" fill="#fff"/>
    <path id="Trazado_4597" data-name="Trazado 4597" d="M387.409,342.725H230.7a5.344,5.344,0,0,1-5.328-5.328V300.729A5.343,5.343,0,0,1,230.7,295.4H387.409a5.343,5.343,0,0,1,5.328,5.328V337.4a5.344,5.344,0,0,1-5.328,5.328" fill="#2a4690"/>
    <path id="Trazado_4598" data-name="Trazado 4598" d="M250.01,319.229l3-.291a3.651,3.651,0,0,0,1.1,2.216,3.316,3.316,0,0,0,2.232.708,3.428,3.428,0,0,0,2.242-.63,1.872,1.872,0,0,0,.754-1.472,1.386,1.386,0,0,0-.317-.921,2.539,2.539,0,0,0-1.108-.661q-.541-.187-2.466-.666A8.36,8.36,0,0,1,251.966,316a3.968,3.968,0,0,1-1.4-3.069,3.924,3.924,0,0,1,.66-2.18,4.135,4.135,0,0,1,1.9-1.546,7.623,7.623,0,0,1,3-.53,6.436,6.436,0,0,1,4.323,1.259,4.445,4.445,0,0,1,1.525,3.361l-3.081.135a2.609,2.609,0,0,0-.848-1.691,3.106,3.106,0,0,0-1.951-.515,3.52,3.52,0,0,0-2.1.552,1.11,1.11,0,0,0-.489.947,1.174,1.174,0,0,0,.458.926,8.091,8.091,0,0,0,2.831,1.019,14.948,14.948,0,0,1,3.324,1.1,4.284,4.284,0,0,1,1.686,1.551,4.8,4.8,0,0,1-.12,4.885,4.36,4.36,0,0,1-2.06,1.7,8.626,8.626,0,0,1-3.32.557,6.606,6.606,0,0,1-4.443-1.337,5.812,5.812,0,0,1-1.852-3.9" fill="#fff"/>
    <path id="Trazado_4599" data-name="Trazado 4599" d="M272.257,324.193v-1.655a4.253,4.253,0,0,1-1.587,1.4,4.445,4.445,0,0,1-2.076.51,4.061,4.061,0,0,1-2-.489,2.891,2.891,0,0,1-1.28-1.374,6.139,6.139,0,0,1-.4-2.445v-6.993h2.924v5.078a14.143,14.143,0,0,0,.161,2.857,1.564,1.564,0,0,0,.588.832,1.805,1.805,0,0,0,1.082.307,2.3,2.3,0,0,0,1.343-.411,2.088,2.088,0,0,0,.811-1.02,11.807,11.807,0,0,0,.219-2.981v-4.662h2.924v11.051Z" fill="#fff"/>
    <path id="Trazado_4600" data-name="Trazado 4600" d="M277.876,324.193V308.938H280.8v5.494a4.138,4.138,0,0,1,3.205-1.54,4.306,4.306,0,0,1,3.34,1.462,6.054,6.054,0,0,1,1.322,4.2,6.391,6.391,0,0,1-1.348,4.36,4.208,4.208,0,0,1-3.273,1.529,4.051,4.051,0,0,1-1.867-.473,4.465,4.465,0,0,1-1.587-1.4v1.624Zm2.9-5.765a4.7,4.7,0,0,0,.541,2.539,2.312,2.312,0,0,0,2.019,1.165,2.069,2.069,0,0,0,1.649-.827,4.072,4.072,0,0,0,.682-2.606,4.315,4.315,0,0,0-.687-2.732,2.175,2.175,0,0,0-1.759-.838,2.206,2.206,0,0,0-1.748.817,3.751,3.751,0,0,0-.7,2.482" fill="#fff"/>
    <path id="Trazado_4601" data-name="Trazado 4601" d="M289.988,321.04l2.934-.448a2.15,2.15,0,0,0,.76,1.3,2.566,2.566,0,0,0,1.6.442,2.891,2.891,0,0,0,1.706-.416.927.927,0,0,0,.385-.78.768.768,0,0,0-.208-.552,2.331,2.331,0,0,0-.978-.385,15.724,15.724,0,0,1-4.485-1.426,2.846,2.846,0,0,1-1.311-2.487,3.065,3.065,0,0,1,1.134-2.414,5.3,5.3,0,0,1,3.517-.978,6.145,6.145,0,0,1,3.372.739,3.781,3.781,0,0,1,1.519,2.185l-2.758.51a1.7,1.7,0,0,0-.671-.988,2.453,2.453,0,0,0-1.41-.344,3.175,3.175,0,0,0-1.654.323.692.692,0,0,0-.333.593.648.648,0,0,0,.291.531,11,11,0,0,0,2.732.822,8.131,8.131,0,0,1,3.262,1.3,2.707,2.707,0,0,1,.915,2.175,3.338,3.338,0,0,1-1.269,2.612,5.621,5.621,0,0,1-3.756,1.093,6.169,6.169,0,0,1-3.575-.916,4.222,4.222,0,0,1-1.722-2.487" fill="#fff"/>
    <path id="Trazado_4602" data-name="Trazado 4602" d="M302.871,308.938H305.8v2.706h-2.924Zm0,4.2H305.8v11.051h-2.924Z" fill="#fff"/>
    <path id="Trazado_4603" data-name="Trazado 4603" d="M307.761,321.04l2.934-.448a2.15,2.15,0,0,0,.76,1.3,2.566,2.566,0,0,0,1.6.442,2.891,2.891,0,0,0,1.706-.416.927.927,0,0,0,.385-.78.768.768,0,0,0-.208-.552,2.331,2.331,0,0,0-.978-.385,15.724,15.724,0,0,1-4.485-1.426,2.846,2.846,0,0,1-1.311-2.487,3.065,3.065,0,0,1,1.134-2.414,5.3,5.3,0,0,1,3.517-.978,6.145,6.145,0,0,1,3.372.739,3.781,3.781,0,0,1,1.519,2.185l-2.758.51a1.7,1.7,0,0,0-.671-.988,2.453,2.453,0,0,0-1.41-.344,3.175,3.175,0,0,0-1.654.323.692.692,0,0,0-.333.593.648.648,0,0,0,.291.531,11,11,0,0,0,2.732.822,8.131,8.131,0,0,1,3.262,1.3,2.707,2.707,0,0,1,.915,2.175,3.338,3.338,0,0,1-1.269,2.612,5.621,5.621,0,0,1-3.756,1.093,6.169,6.169,0,0,1-3.575-.916,4.222,4.222,0,0,1-1.722-2.487" fill="#fff"/>
    <path id="Trazado_4604" data-name="Trazado 4604" d="M325.711,313.142v2.331h-2v4.453a11.131,11.131,0,0,0,.057,1.577.639.639,0,0,0,.261.369.818.818,0,0,0,.494.146,3.8,3.8,0,0,0,1.176-.281l.249,2.269a5.82,5.82,0,0,1-2.31.437,3.659,3.659,0,0,1-1.425-.266,2.086,2.086,0,0,1-.932-.687,2.726,2.726,0,0,1-.411-1.139,14.271,14.271,0,0,1-.093-2.06v-4.818h-1.343v-2.331h1.343v-2.2l2.934-1.706v3.9Z" fill="#fff"/>
    <path id="Trazado_4605" data-name="Trazado 4605" d="M334.139,320.675l2.914.489a4.784,4.784,0,0,1-1.774,2.441,5.214,5.214,0,0,1-3.033.837,4.947,4.947,0,0,1-4.267-1.883,6.332,6.332,0,0,1-1.092-3.809,6.1,6.1,0,0,1,1.436-4.3,4.724,4.724,0,0,1,3.631-1.556,4.909,4.909,0,0,1,3.892,1.628,7.207,7.207,0,0,1,1.363,4.99h-7.325a2.954,2.954,0,0,0,.707,2.024,2.214,2.214,0,0,0,1.686.723,1.788,1.788,0,0,0,1.155-.375,2.307,2.307,0,0,0,.707-1.207m.167-2.955a2.811,2.811,0,0,0-.656-1.93,2.009,2.009,0,0,0-1.519-.661,2.032,2.032,0,0,0-1.581.7,2.694,2.694,0,0,0-.614,1.894Z" fill="#fff"/>
    <path id="Trazado_4606" data-name="Trazado 4606" d="M339.374,313.142h2.7v1.509a4.334,4.334,0,0,1,3.444-1.759,3.712,3.712,0,0,1,1.842.437,3.364,3.364,0,0,1,1.28,1.322,5.114,5.114,0,0,1,1.571-1.322,3.86,3.86,0,0,1,1.8-.437,4.015,4.015,0,0,1,2.06.494,3.034,3.034,0,0,1,1.259,1.452,6.3,6.3,0,0,1,.3,2.289v7.066H352.7v-6.316a4.7,4.7,0,0,0-.3-2.123,1.387,1.387,0,0,0-1.249-.625A1.993,1.993,0,0,0,350,315.5a2.075,2.075,0,0,0-.78,1.1,7.876,7.876,0,0,0-.24,2.284v5.307h-2.924v-6.056a8.4,8.4,0,0,0-.156-2.081,1.33,1.33,0,0,0-.483-.7,1.538,1.538,0,0,0-.89-.229,2.132,2.132,0,0,0-1.218.365,2,2,0,0,0-.775,1.051,7.807,7.807,0,0,0-.234,2.278v5.37h-2.924Z" fill="#fff"/>
    <path id="Trazado_4607" data-name="Trazado 4607" d="M360.726,316.513l-2.653-.478a4.138,4.138,0,0,1,1.54-2.373,5.639,5.639,0,0,1,3.247-.77,7.005,7.005,0,0,1,2.913.463,2.911,2.911,0,0,1,1.348,1.176,6.033,6.033,0,0,1,.39,2.617l-.031,3.413a11.923,11.923,0,0,0,.14,2.149,6.279,6.279,0,0,0,.526,1.483h-2.893c-.077-.194-.17-.482-.281-.864-.049-.173-.083-.287-.1-.343a5.272,5.272,0,0,1-1.6,1.092,4.584,4.584,0,0,1-1.821.365,3.77,3.77,0,0,1-2.69-.926,3.082,3.082,0,0,1-.983-2.342,3.137,3.137,0,0,1,.448-1.67,2.923,2.923,0,0,1,1.253-1.124,9.805,9.805,0,0,1,2.326-.681,15.949,15.949,0,0,0,2.841-.718v-.292a1.513,1.513,0,0,0-.416-1.2,2.492,2.492,0,0,0-1.572-.36,2.088,2.088,0,0,0-1.217.308,2.135,2.135,0,0,0-.708,1.076m3.913,2.373q-.562.188-1.779.448a5.356,5.356,0,0,0-1.592.509,1.22,1.22,0,0,0-.573,1.031,1.434,1.434,0,0,0,.458,1.061,1.6,1.6,0,0,0,1.165.447,2.528,2.528,0,0,0,1.509-.52,1.83,1.83,0,0,0,.7-.968,5.724,5.724,0,0,0,.115-1.425Z" fill="#fff"/>
    <path id="Trazado_4608" data-name="Trazado 4608" d="M203.556,86.361v1.718H186.363a2.645,2.645,0,0,0-2.645,2.645v.99a2.646,2.646,0,0,0,2.645,2.646h17.193v1.717a2.161,2.161,0,0,0,3.127,1.933l9.716-4.858a2.16,2.16,0,0,0,0-3.865l-9.716-4.859a2.161,2.161,0,0,0-3.127,1.933" fill="#5db2f1"/>
    <path id="Trazado_4609" data-name="Trazado 4609" d="M203.556,314.2v1.718H186.363a2.645,2.645,0,0,0-2.645,2.645v.99a2.646,2.646,0,0,0,2.645,2.646h17.193v1.717a2.161,2.161,0,0,0,3.127,1.933l9.716-4.858a2.16,2.16,0,0,0,0-3.865l-9.716-4.859a2.161,2.161,0,0,0-3.127,1.933" fill="#5db2f1"/>
    <path id="Trazado_4610" data-name="Trazado 4610" d="M39.045,174.416V159.161H50.356v2.581H42.125v3.382h7.659v2.57H42.125v4.152h8.522v2.57Z" fill="#a5d130"/>
    <path id="Trazado_4611" data-name="Trazado 4611" d="M53.02,163.365h2.695v1.509a4.334,4.334,0,0,1,3.444-1.759,3.712,3.712,0,0,1,1.842.437,3.364,3.364,0,0,1,1.28,1.322,5.114,5.114,0,0,1,1.571-1.322,3.861,3.861,0,0,1,1.8-.437,4.015,4.015,0,0,1,2.06.494,3.034,3.034,0,0,1,1.259,1.452,6.3,6.3,0,0,1,.3,2.289v7.066H66.35V168.1a4.7,4.7,0,0,0-.3-2.123,1.387,1.387,0,0,0-1.249-.625,1.993,1.993,0,0,0-1.155.375,2.075,2.075,0,0,0-.78,1.1,7.874,7.874,0,0,0-.24,2.284v5.307H59.7V168.36a8.4,8.4,0,0,0-.156-2.081,1.33,1.33,0,0,0-.483-.7,1.538,1.538,0,0,0-.89-.229,2.132,2.132,0,0,0-1.218.365,2,2,0,0,0-.775,1.051,7.807,7.807,0,0,0-.234,2.278v5.37H53.02Z" fill="#a5d130"/>
    <path id="Trazado_4612" data-name="Trazado 4612" d="M72.1,163.366H74.83v1.623a4.088,4.088,0,0,1,1.436-1.353,3.959,3.959,0,0,1,2.009-.52,4.213,4.213,0,0,1,3.267,1.509,6.106,6.106,0,0,1,1.342,4.2,6.289,6.289,0,0,1-1.352,4.3,4.213,4.213,0,0,1-3.278,1.535,3.721,3.721,0,0,1-1.66-.364,5.605,5.605,0,0,1-1.566-1.248v5.567H72.1ZM75,168.7a4.252,4.252,0,0,0,.739,2.752,2.259,2.259,0,0,0,1.8.89,2.111,2.111,0,0,0,1.7-.817,4.207,4.207,0,0,0,.676-2.679,3.994,3.994,0,0,0-.7-2.581,2.156,2.156,0,0,0-1.727-.843,2.242,2.242,0,0,0-1.779.827A3.683,3.683,0,0,0,75,168.7" fill="#a5d130"/>
    <path id="Trazado_4613" data-name="Trazado 4613" d="M88,174.416H85.08V163.365H87.8v1.572a4.726,4.726,0,0,1,1.254-1.468,2.3,2.3,0,0,1,1.264-.354,3.707,3.707,0,0,1,1.925.552l-.9,2.549a2.568,2.568,0,0,0-1.374-.478,1.624,1.624,0,0,0-1.04.338,2.3,2.3,0,0,0-.671,1.223A17.351,17.351,0,0,0,88,171Z" fill="#a5d130"/>
    <path id="Trazado_4614" data-name="Trazado 4614" d="M99.9,170.9l2.914.489a4.784,4.784,0,0,1-1.774,2.441,5.214,5.214,0,0,1-3.033.837,4.947,4.947,0,0,1-4.267-1.883,6.332,6.332,0,0,1-1.092-3.809,6.1,6.1,0,0,1,1.436-4.3,4.724,4.724,0,0,1,3.631-1.556,4.909,4.909,0,0,1,3.892,1.628,7.207,7.207,0,0,1,1.363,4.99H95.642a2.954,2.954,0,0,0,.707,2.024,2.214,2.214,0,0,0,1.686.723,1.788,1.788,0,0,0,1.155-.375A2.307,2.307,0,0,0,99.9,170.9m.167-2.955a2.811,2.811,0,0,0-.656-1.93,2.009,2.009,0,0,0-1.519-.661,2.032,2.032,0,0,0-1.581.7,2.694,2.694,0,0,0-.614,1.894Z" fill="#a5d130"/>
    <path id="Trazado_4615" data-name="Trazado 4615" d="M104.32,171.263l2.934-.448a2.15,2.15,0,0,0,.76,1.3,2.566,2.566,0,0,0,1.6.442,2.891,2.891,0,0,0,1.706-.416.927.927,0,0,0,.385-.78.768.768,0,0,0-.208-.552,2.331,2.331,0,0,0-.978-.385,15.724,15.724,0,0,1-4.485-1.426,2.846,2.846,0,0,1-1.311-2.487,3.065,3.065,0,0,1,1.134-2.414,5.3,5.3,0,0,1,3.517-.978,6.145,6.145,0,0,1,3.372.739,3.781,3.781,0,0,1,1.519,2.185l-2.758.51a1.7,1.7,0,0,0-.671-.988,2.453,2.453,0,0,0-1.41-.344,3.175,3.175,0,0,0-1.654.323.692.692,0,0,0-.333.593.648.648,0,0,0,.291.531,11,11,0,0,0,2.732.822,8.131,8.131,0,0,1,3.262,1.3,2.707,2.707,0,0,1,.915,2.175,3.338,3.338,0,0,1-1.269,2.612,5.621,5.621,0,0,1-3.756,1.093,6.169,6.169,0,0,1-3.575-.916,4.222,4.222,0,0,1-1.722-2.487" fill="#a5d130"/>
    <path id="Trazado_4616" data-name="Trazado 4616" d="M119.387,166.736l-2.653-.478a4.138,4.138,0,0,1,1.54-2.373,5.639,5.639,0,0,1,3.247-.77,7.005,7.005,0,0,1,2.913.463,2.911,2.911,0,0,1,1.348,1.176,6.033,6.033,0,0,1,.39,2.617l-.031,3.413a11.923,11.923,0,0,0,.14,2.149,6.279,6.279,0,0,0,.526,1.483h-2.893c-.077-.194-.17-.482-.281-.864-.049-.173-.083-.287-.1-.343a5.272,5.272,0,0,1-1.6,1.092,4.584,4.584,0,0,1-1.821.365,3.77,3.77,0,0,1-2.69-.926,3.082,3.082,0,0,1-.983-2.342,3.137,3.137,0,0,1,.448-1.67,2.923,2.923,0,0,1,1.253-1.124,9.8,9.8,0,0,1,2.326-.681,15.949,15.949,0,0,0,2.841-.718v-.292a1.513,1.513,0,0,0-.416-1.2,2.492,2.492,0,0,0-1.572-.36,2.088,2.088,0,0,0-1.217.308,2.135,2.135,0,0,0-.708,1.076m3.913,2.373q-.562.188-1.779.448a5.355,5.355,0,0,0-1.592.509,1.22,1.22,0,0,0-.573,1.031,1.434,1.434,0,0,0,.458,1.061,1.6,1.6,0,0,0,1.165.447,2.528,2.528,0,0,0,1.509-.52,1.831,1.831,0,0,0,.7-.968,5.725,5.725,0,0,0,.115-1.425Z" fill="#a5d130"/>
    <path id="Trazado_4617" data-name="Trazado 4617" d="M31.186,78.156A2.106,2.106,0,0,1,29.08,76.05V53.893a2.106,2.106,0,0,1,4.213,0V76.05a2.107,2.107,0,0,1-2.107,2.106" fill="#365e7d"/>
    <rect id="Rectángulo_5081" data-name="Rectángulo 5081" width="33.009" height="9.475" transform="translate(84.432 100.434)" fill="#365e7d"/>
    <path id="Trazado_4618" data-name="Trazado 4618" d="M102.169,109.908h15.272v-9.475H102.974Z" fill="#2b4d66"/>
    <path id="Trazado_4619" data-name="Trazado 4619" d="M84.432,141.7H17.554V65.916a.523.523,0,0,1,.712-.489L84.1,90.929a.523.523,0,0,1,.335.488Z" fill="#e7ecf6"/>
    <path id="Trazado_4620" data-name="Trazado 4620" d="M18.267,65.428a.524.524,0,0,0-.714.489v6.1l55.492,21.5a8.181,8.181,0,0,1,5.227,7.629V141.7h6.16V91.418a.524.524,0,0,0-.334-.488Z" fill="#d8e2f1"/>
    <path id="Trazado_4621" data-name="Trazado 4621" d="M72.584,96.888a.914.914,0,0,1,.611.865v13.086a.916.916,0,0,1-.915.917H29.7a.918.918,0,0,1-.917-.917v-28.1a.917.917,0,0,1,1.223-.865L43.84,86.75l14.3,5.044Z" fill="#80b4fb"/>
    <path id="Trazado_4622" data-name="Trazado 4622" d="M58.145,91.794,43.839,86.75,30.01,81.873a.917.917,0,0,0-1.222.865V86.26L37.7,89.4l14.3,5.045,12.192,4.3a4.283,4.283,0,0,1,2.86,4.041v8.966h5.22a.917.917,0,0,0,.917-.917V97.752a.913.913,0,0,0-.611-.864Z" fill="#61a2f9"/>
    <path id="Trazado_4623" data-name="Trazado 4623" d="M133.119,121.127l-4.632,5.617H111.766l-4.632-5.617,3.09-36.406,1.542-18.2.269-3.17,3.028-5.392c.044-.687.464-1.215.97-1.215h8.189c.5,0,.926.528.968,1.215l3.05,5.632,1.794,21.132,1.542,18.2Z" fill="#c3d5ef"/>
    <path id="Trazado_4624" data-name="Trazado 4624" d="M131.574,102.925l-1.542-18.2-2.986-35.19a1.327,1.327,0,0,0-1.323-1.215h-5.129a1.329,1.329,0,0,1,1.324,1.215l2.985,35.19,1.544,18.2,1.544,23.819,5.128-5.617Z" fill="#b7c8ea"/>
    <path id="Trazado_4625" data-name="Trazado 4625" d="M128.487,66.519H111.765l1.441-16.988a1.329,1.329,0,0,1,1.324-1.216h11.193a1.327,1.327,0,0,1,1.323,1.216Z" fill="#eab14d"/>
    <path id="Trazado_4626" data-name="Trazado 4626" d="M121.917,49.531l1.443,16.988h5.128l-1.442-16.988a1.329,1.329,0,0,0-1.324-1.216h-5.129a1.328,1.328,0,0,1,1.324,1.216" fill="#e49542"/>
    <path id="Trazado_4627" data-name="Trazado 4627" d="M131.574,102.925h-22.9l1.545-18.2h19.808Z" fill="#eab14d"/>
    <path id="Trazado_4628" data-name="Trazado 4628" d="M131.574,102.925l-1.542-18.2H124.9l1.544,18.2Z" fill="#e49542"/>
    <path id="Trazado_4629" data-name="Trazado 4629" d="M65.02,141.7H36.967V128.382a.918.918,0,0,1,.917-.917H64.1a.918.918,0,0,1,.917.917Z" fill="#80b4fb"/>
    <path id="Trazado_4630" data-name="Trazado 4630" d="M59.082,127.467V141.7h5.936V128.383a.915.915,0,0,0-.915-.916Z" fill="#61a2f9"/>
    <path id="Trazado_4631" data-name="Trazado 4631" d="M43.839,113.862a2.107,2.107,0,0,1-2.106-2.106V86.749a2.106,2.106,0,0,1,4.213,0v25.007a2.106,2.106,0,0,1-2.107,2.106" fill="#365e7d"/>
    <path id="Trazado_4632" data-name="Trazado 4632" d="M58.145,113.862a2.108,2.108,0,0,1-2.107-2.106V91.793a2.107,2.107,0,0,1,4.213,0v19.963a2.107,2.107,0,0,1-2.106,2.106" fill="#365e7d"/>
    <path id="Trazado_4633" data-name="Trazado 4633" d="M122.374,43.4a2.106,2.106,0,0,1-2.106-2.106v-3.08a7.432,7.432,0,0,1,7.423-7.424,5.575,5.575,0,0,0,5.57-5.569V22.266a5.576,5.576,0,0,0-5.57-5.569H120.4a7.512,7.512,0,0,1-7.5-7.5V2.107a2.107,2.107,0,1,1,4.213,0V9.193a3.294,3.294,0,0,0,3.291,3.291h7.295a9.794,9.794,0,0,1,9.783,9.782v2.959a9.792,9.792,0,0,1-9.783,9.782,3.214,3.214,0,0,0-3.21,3.211V41.3a2.107,2.107,0,0,1-2.107,2.106" fill="#c3d5ef"/>
    <path id="Trazado_4634" data-name="Trazado 4634" d="M114.309,41.375a2.105,2.105,0,0,1-2.106-2.106V35.843a2.6,2.6,0,0,0-2.6-2.6,6.819,6.819,0,0,1-6.811-6.811V21.865a2.106,2.106,0,0,1,4.213,0v4.567a2.6,2.6,0,0,0,2.6,2.6,6.819,6.819,0,0,1,6.812,6.813v3.426a2.106,2.106,0,0,1-2.106,2.106" fill="#c3d5ef"/>
    <path id="Trazado_4635" data-name="Trazado 4635" d="M125.182,8.237a2.106,2.106,0,0,1-2.106-2.106V2.125a2.106,2.106,0,0,1,4.212,0V6.131a2.106,2.106,0,0,1-2.106,2.106" fill="#c3d5ef"/>
    <path id="Trazado_4636" data-name="Trazado 4636" d="M147.466,141.7H84.432V121.126h59a4.035,4.035,0,0,1,4.034,4.035Z" fill="#e7ecf6"/>
    <path id="Trazado_4637" data-name="Trazado 4637" d="M143.432,121.127h-6.145a4.035,4.035,0,0,1,4.035,4.035V141.7h6.143V125.162a4.034,4.034,0,0,0-4.033-4.035" fill="#d8e2f1"/>
    <path id="Trazado_4638" data-name="Trazado 4638" d="M96.215,133.238a2.106,2.106,0,0,1-2.107-2.106v-1.988a2.106,2.106,0,1,1,4.213,0v1.988a2.106,2.106,0,0,1-2.106,2.106" fill="#61a2f9"/>
    <path id="Trazado_4639" data-name="Trazado 4639" d="M109.371,133.238a2.106,2.106,0,0,1-2.107-2.106v-1.988a2.106,2.106,0,1,1,4.213,0v1.988a2.1,2.1,0,0,1-2.106,2.106" fill="#61a2f9"/>
    <path id="Trazado_4640" data-name="Trazado 4640" d="M122.527,133.238a2.1,2.1,0,0,1-2.106-2.106v-1.988a2.107,2.107,0,1,1,4.213,0v1.988a2.106,2.106,0,0,1-2.107,2.106" fill="#61a2f9"/>
    <path id="Trazado_4641" data-name="Trazado 4641" d="M135.683,133.238a2.1,2.1,0,0,1-2.106-2.106v-1.988a2.106,2.106,0,1,1,4.213,0v1.988a2.106,2.106,0,0,1-2.107,2.106" fill="#61a2f9"/>
    <path id="Trazado_4642" data-name="Trazado 4642" d="M152.3,143.8H12.714a2.106,2.106,0,0,1,0-4.213H152.3a2.106,2.106,0,1,1,0,4.213" fill="#95d6a4"/>
    <path id="Trazado_4643" data-name="Trazado 4643" d="M33.14,402.259V387H44.451v2.581H36.22v3.382h7.659v2.57H36.22v4.152h8.522v2.57Z" fill="#a5d130"/>
    <path id="Trazado_4644" data-name="Trazado 4644" d="M47.115,391.208H49.81v1.509a4.334,4.334,0,0,1,3.444-1.759,3.712,3.712,0,0,1,1.842.437,3.364,3.364,0,0,1,1.28,1.322,5.115,5.115,0,0,1,1.571-1.322,3.861,3.861,0,0,1,1.8-.437,4.015,4.015,0,0,1,2.06.494,3.034,3.034,0,0,1,1.259,1.452,6.3,6.3,0,0,1,.3,2.289v7.066H60.445v-6.316a4.7,4.7,0,0,0-.3-2.123,1.387,1.387,0,0,0-1.249-.625,1.993,1.993,0,0,0-1.155.375,2.075,2.075,0,0,0-.78,1.1,7.874,7.874,0,0,0-.24,2.284v5.307H53.795V396.2a8.4,8.4,0,0,0-.156-2.081,1.33,1.33,0,0,0-.483-.7,1.538,1.538,0,0,0-.89-.229,2.132,2.132,0,0,0-1.218.365,2,2,0,0,0-.775,1.051,7.807,7.807,0,0,0-.234,2.278v5.37H47.115Z" fill="#a5d130"/>
    <path id="Trazado_4645" data-name="Trazado 4645" d="M66.2,391.209h2.726v1.623a4.087,4.087,0,0,1,1.436-1.353,3.958,3.958,0,0,1,2.009-.52,4.213,4.213,0,0,1,3.267,1.509,6.106,6.106,0,0,1,1.342,4.2,6.289,6.289,0,0,1-1.352,4.3,4.213,4.213,0,0,1-3.278,1.535,3.721,3.721,0,0,1-1.66-.364,5.605,5.605,0,0,1-1.566-1.248v5.567H66.2Zm2.893,5.338a4.252,4.252,0,0,0,.739,2.752,2.259,2.259,0,0,0,1.8.89,2.111,2.111,0,0,0,1.7-.817A4.207,4.207,0,0,0,74,396.693a3.994,3.994,0,0,0-.7-2.581,2.156,2.156,0,0,0-1.727-.843,2.242,2.242,0,0,0-1.779.827,3.683,3.683,0,0,0-.708,2.451" fill="#a5d130"/>
    <rect id="Rectángulo_5082" data-name="Rectángulo 5082" width="2.924" height="15.255" transform="translate(79.3 387.004)" fill="#a5d130"/>
    <path id="Trazado_4646" data-name="Trazado 4646" d="M91.619,398.742l2.914.489a4.784,4.784,0,0,1-1.774,2.441,5.214,5.214,0,0,1-3.033.837,4.947,4.947,0,0,1-4.267-1.883,6.332,6.332,0,0,1-1.092-3.809,6.1,6.1,0,0,1,1.436-4.3,4.724,4.724,0,0,1,3.631-1.556,4.909,4.909,0,0,1,3.892,1.628,7.207,7.207,0,0,1,1.363,4.99H87.364a2.954,2.954,0,0,0,.707,2.024,2.214,2.214,0,0,0,1.686.723,1.788,1.788,0,0,0,1.155-.375,2.307,2.307,0,0,0,.707-1.207m.167-2.955a2.812,2.812,0,0,0-.656-1.93,2.009,2.009,0,0,0-1.519-.661,2.032,2.032,0,0,0-1.581.7,2.694,2.694,0,0,0-.614,1.894Z" fill="#a5d130"/>
    <path id="Trazado_4647" data-name="Trazado 4647" d="M99.257,394.579,96.6,394.1a4.138,4.138,0,0,1,1.54-2.373,5.639,5.639,0,0,1,3.247-.77,7.006,7.006,0,0,1,2.913.463,2.911,2.911,0,0,1,1.348,1.176,6.033,6.033,0,0,1,.39,2.617l-.031,3.413a11.922,11.922,0,0,0,.14,2.149,6.279,6.279,0,0,0,.526,1.483h-2.893c-.077-.194-.17-.482-.281-.864-.049-.173-.083-.287-.1-.343a5.273,5.273,0,0,1-1.6,1.092,4.585,4.585,0,0,1-1.821.365,3.769,3.769,0,0,1-2.69-.926,3.082,3.082,0,0,1-.983-2.342,3.137,3.137,0,0,1,.448-1.67A2.923,2.923,0,0,1,98,396.447a9.806,9.806,0,0,1,2.326-.681,15.949,15.949,0,0,0,2.841-.718v-.292a1.513,1.513,0,0,0-.416-1.2,2.492,2.492,0,0,0-1.572-.36,2.088,2.088,0,0,0-1.217.308,2.135,2.135,0,0,0-.708,1.076m3.913,2.373q-.562.188-1.779.448a5.356,5.356,0,0,0-1.592.509,1.22,1.22,0,0,0-.573,1.031A1.434,1.434,0,0,0,99.684,400a1.6,1.6,0,0,0,1.165.447,2.528,2.528,0,0,0,1.509-.52,1.83,1.83,0,0,0,.7-.968,5.725,5.725,0,0,0,.115-1.425Z" fill="#a5d130"/>
    <path id="Trazado_4648" data-name="Trazado 4648" d="M119.059,402.26h-2.715v-1.624a4.385,4.385,0,0,1-1.6,1.41,4.093,4.093,0,0,1-1.857.463,4.205,4.205,0,0,1-3.262-1.535,6.237,6.237,0,0,1-1.357-4.281,6.17,6.17,0,0,1,1.32-4.272,4.306,4.306,0,0,1,3.34-1.462,4.14,4.14,0,0,1,3.205,1.54v-5.494h2.924Zm-7.8-5.765a5.066,5.066,0,0,0,.488,2.56,2.21,2.21,0,0,0,1.977,1.144,2.151,2.151,0,0,0,1.717-.858,3.961,3.961,0,0,0,.708-2.565,4.334,4.334,0,0,0-.687-2.742,2.175,2.175,0,0,0-1.758-.838,2.2,2.2,0,0,0-1.744.828,3.737,3.737,0,0,0-.7,2.471" fill="#a5d130"/>
    <path id="Trazado_4649" data-name="Trazado 4649" d="M121.266,396.578a5.987,5.987,0,0,1,.718-2.82,4.927,4.927,0,0,1,2.034-2.081,6.037,6.037,0,0,1,2.94-.718,5.518,5.518,0,0,1,4.11,1.628,5.626,5.626,0,0,1,1.6,4.116,5.7,5.7,0,0,1-1.618,4.157,5.472,5.472,0,0,1-4.074,1.649,6.414,6.414,0,0,1-2.9-.687,4.711,4.711,0,0,1-2.1-2.013,6.719,6.719,0,0,1-.718-3.231m3,.156a3.663,3.663,0,0,0,.78,2.518,2.551,2.551,0,0,0,3.845,0,3.711,3.711,0,0,0,.776-2.539,3.641,3.641,0,0,0-.776-2.5,2.551,2.551,0,0,0-3.845,0,3.661,3.661,0,0,0-.78,2.518" fill="#a5d130"/>
    <path id="Trazado_4650" data-name="Trazado 4650" d="M156.2,310.113l-14.375-5.656H90.8l-14.376,5.656a13.915,13.915,0,0,0-8.81,13.507l1.745,43.574a4.639,4.639,0,0,0,4.635,4.453h84.637a4.638,4.638,0,0,0,4.635-4.453l1.745-43.574a13.915,13.915,0,0,0-8.81-13.507" fill="#dcd7d9"/>
    <path id="Trazado_4651" data-name="Trazado 4651" d="M112.923,320.621l-2.967,51.026h12.708L119.7,320.621Z" fill="#614c5d"/>
    <path id="Trazado_4652" data-name="Trazado 4652" d="M118.285,322.94h-3.951a2.663,2.663,0,0,1-2.663-2.663v-6.614h9.277v6.614a2.663,2.663,0,0,1-2.663,2.663" fill="#52394d"/>
    <rect id="Rectángulo_5083" data-name="Rectángulo 5083" width="32.472" height="27.834" transform="translate(100.075 285.829)" fill="#c0825d"/>
    <path id="Trazado_4653" data-name="Trazado 4653" d="M100.074,294.491a27.708,27.708,0,0,0,32.471,0V285.83H100.074Z" fill="#a36549"/>
    <path id="Trazado_4654" data-name="Trazado 4654" d="M116.309,227.918c-11.58.626-18.168,6.958-18.168,6.958s-9.665,0-9.665,11.6a86.619,86.619,0,0,0,2.32,18.482h53.345c4.639-25.513-6.378-38.2-27.832-37.037" fill="#673a49"/>
    <path id="Trazado_4655" data-name="Trazado 4655" d="M102.393,255.384c-8.52-10.653-4.252-20.508-4.252-20.508s-9.664,0-9.664,11.6A86.667,86.667,0,0,0,90.8,264.955h11.6Z" fill="#5b2f40"/>
    <path id="Trazado_4656" data-name="Trazado 4656" d="M141.822,262.636H139.5l-3.057-5.578a2.332,2.332,0,0,0-2.475-1.151c-15.275,2.794-25.314-.756-29.118-2.533a2.281,2.281,0,0,0-2.823.734,48.929,48.929,0,0,1-6.49,7.292,4.649,4.649,0,0,1-3.154,1.236H90.713a4.483,4.483,0,0,0-.778.082,4.9,4.9,0,0,0-3.778,4.894v1.68a4.871,4.871,0,0,0,3.581,4.816,4.58,4.58,0,0,0,1.413.11,2.259,2.259,0,0,1,2.368,1.885,23.167,23.167,0,0,0,45.58,0,2.253,2.253,0,0,1,2.246-1.871h.478a4.639,4.639,0,0,0,4.639-4.639v-2.319a4.64,4.64,0,0,0-4.64-4.639" fill="#ce936c"/>
    <path id="Trazado_4657" data-name="Trazado 4657" d="M102.393,271.913V253.754a2.208,2.208,0,0,0-.363.354,48.981,48.981,0,0,1-6.49,7.292,4.647,4.647,0,0,1-3.154,1.236H90.714a4.473,4.473,0,0,0-.778.082,4.9,4.9,0,0,0-3.779,4.893v1.681a4.873,4.873,0,0,0,3.581,4.816,4.555,4.555,0,0,0,1.414.109,2.258,2.258,0,0,1,2.367,1.886,23.11,23.11,0,0,0,27.389,18.531,23.2,23.2,0,0,1-18.515-22.722" fill="#c0825d"/>
    <path id="Trazado_4658" data-name="Trazado 4658" d="M116.309,313.735,99.387,298.928a2.318,2.318,0,0,0-3.167.106L90.8,304.457l10.778,16.167a4.638,4.638,0,0,0,7.139.707Z" fill="#ede8ea"/>
    <path id="Trazado_4659" data-name="Trazado 4659" d="M116.309,313.735l16.922-14.807a2.318,2.318,0,0,1,3.167.106l5.424,5.423-10.778,16.167a4.638,4.638,0,0,1-7.139.707Z" fill="#ede8ea"/>
    <path id="Trazado_4660" data-name="Trazado 4660" d="M152.857,325.895,162.948,315.8a13.872,13.872,0,0,1,2.06,7.816l-1.745,43.574a4.638,4.638,0,0,1-4.635,4.453h-9.847V335.735a13.915,13.915,0,0,1,4.076-9.84" fill="#ede8ea"/>
    <path id="Trazado_4661" data-name="Trazado 4661" d="M93.459,341.495h10.91a2.663,2.663,0,0,0,2.663-2.663V337.2a2.663,2.663,0,0,0-2.663-2.663H93.459A2.663,2.663,0,0,0,90.8,337.2v1.632a2.663,2.663,0,0,0,2.663,2.663" fill="#ede8ea"/>
    <path id="Trazado_4662" data-name="Trazado 4662" d="M75.149,323.763,62.636,318.3H20.863L8.35,323.763A13.917,13.917,0,0,0,.013,337.107l1.276,30.1a4.639,4.639,0,0,0,4.635,4.443H77.576A4.638,4.638,0,0,0,82.21,367.2l1.276-30.1a13.917,13.917,0,0,0-8.337-13.344" fill="#614c5d"/>
    <rect id="Rectángulo_5084" data-name="Rectángulo 5084" width="23.194" height="23.194" transform="translate(30.152 302.066)" fill="#fcd0a4"/>
    <path id="Trazado_4663" data-name="Trazado 4663" d="M30.152,308.8a27.732,27.732,0,0,0,23.193,0v-6.737H30.152Z" fill="#f8c28d"/>
    <path id="Trazado_4664" data-name="Trazado 4664" d="M41.748,227.843A13.917,13.917,0,1,1,27.831,241.76a13.917,13.917,0,0,1,13.917-13.917" fill="#e7a96c"/>
    <path id="Trazado_4665" data-name="Trazado 4665" d="M41.748,239.44c15.373,0,27.834,11.942,27.834,26.674s-12.461,26.674-27.834,26.674-27.834-11.943-27.834-26.674S26.376,239.44,41.748,239.44" fill="#e0985a"/>
    <path id="Trazado_4666" data-name="Trazado 4666" d="M32.472,269.594c-9.278-9.278-10.664-17.276-10.445-22.295a26.033,26.033,0,0,0-8.11,18.816A25.639,25.639,0,0,0,17.9,279.852Z" fill="#d98950"/>
    <path id="Trazado_4667" data-name="Trazado 4667" d="M68.194,274.329a12.664,12.664,0,0,0-1.33-.1,4.639,4.639,0,0,1-3.28-1.359l-2-2a4.6,4.6,0,0,0-3-1.35c-4.515-.253-17.034-1.376-26.98-6.256a2.315,2.315,0,0,0-3,.759,47.454,47.454,0,0,1-7.637,8.98,4.633,4.633,0,0,1-3.145,1.227H16.154a4.494,4.494,0,0,0-.779.082,4.9,4.9,0,0,0-3.778,4.893v1.681a4.871,4.871,0,0,0,3.581,4.816,4.582,4.582,0,0,0,1.413.11,2.259,2.259,0,0,1,2.368,1.885,23.167,23.167,0,0,0,45.58,0,2.26,2.26,0,0,1,2.368-1.885,4.58,4.58,0,0,0,1.413-.11,4.872,4.872,0,0,0,3.581-4.816v-2.113c0-2.183-1.631-3.773-3.707-4.447" fill="#fdd8b3"/>
    <path id="Trazado_4668" data-name="Trazado 4668" d="M27.833,283.51V265.177a48.74,48.74,0,0,1-6.862,7.828,4.628,4.628,0,0,1-3.145,1.227H16.154a4.576,4.576,0,0,0-.778.083,4.9,4.9,0,0,0-3.778,4.893v1.681a4.872,4.872,0,0,0,3.581,4.816,4.609,4.609,0,0,0,1.413.109A2.26,2.26,0,0,1,18.96,287.7a23.1,23.1,0,0,0,27.389,18.531A23.2,23.2,0,0,1,27.833,283.51" fill="#fcd0a4"/>
    <path id="Trazado_4669" data-name="Trazado 4669" d="M12.473,336.979,4,326.81a13.882,13.882,0,0,0-3.985,10.3l1.275,30.1a4.64,4.64,0,0,0,4.635,4.442H16.236V347.373a16.234,16.234,0,0,0-3.763-10.394" fill="#735f6e"/>
    <path id="Trazado_4670" data-name="Trazado 4670" d="M71.025,336.979l8.475-10.17a13.883,13.883,0,0,1,3.985,10.3L82.21,367.2a4.639,4.639,0,0,1-4.635,4.443H67.262V347.373a16.239,16.239,0,0,1,3.763-10.394" fill="#735f6e"/>
    <path id="Trazado_4671" data-name="Trazado 4671" d="M57.305,312.983a2.319,2.319,0,0,0-3.28,0L42.813,324.2a1.5,1.5,0,0,1-2.128,0L29.473,312.983a2.319,2.319,0,0,0-3.28,0L20.874,318.3l8.582,13.93a2.32,2.32,0,0,0,3.481.548l5.143-4.389a.818.818,0,0,1,1.349.622v42.635h4.639V329.012a.818.818,0,0,1,1.349-.622l5.144,4.389a2.319,2.319,0,0,0,3.48-.548l8.582-13.93Z" fill="#735f6e"/>
    <path id="Trazado_4672" data-name="Trazado 4672" d="M23.538,353.091h8.59a2.663,2.663,0,0,0,2.663-2.663V348.8a2.663,2.663,0,0,0-2.663-2.663h-8.59a2.663,2.663,0,0,0-2.663,2.663v1.632a2.663,2.663,0,0,0,2.663,2.663" fill="#735f6e"/>
  </g>
</svg>
