<svg xmlns="http://www.w3.org/2000/svg" width="153.126" height="156.562" viewBox="0 0 153.126 156.562">
  <g id="Grupo_8279" data-name="Grupo 8279" transform="translate(-283.246 -6993.438)">
    <path id="Trazado_4963" data-name="Trazado 4963" d="M165.809,6.875A76.563,76.563,0,1,1,89.246,83.438,76.563,76.563,0,0,1,165.809,6.875" transform="translate(194 6990)" fill="#00abdb"/>
    <path id="Trazado_4964" data-name="Trazado 4964" d="M181.057,16.96a15.358,15.358,0,0,0-30.5,0Z" transform="translate(194 6990)" fill="#373775"/>
    <path id="Trazado_4965" data-name="Trazado 4965" d="M168.467,3.671A15.351,15.351,0,0,0,150.561,16.96h5.315A15.424,15.424,0,0,1,168.467,3.671" transform="translate(194 6990)" fill="#322d60"/>
    <path id="Trazado_4966" data-name="Trazado 4966" d="M234.166,22H189.949V32.179a.939.939,0,0,1-.938.938H142.577a.938.938,0,0,1-.937-.938V22H97.452a3.134,3.134,0,0,0-3.125,3.125v85.776a76.265,76.265,0,0,0,5.64,11.617h15.569v-2.2a.316.316,0,0,1,.312-.312h26.563v-10a.317.317,0,0,1,.312-.313h30.712a.317.317,0,0,1,.312.313v12.512h57.9a76.28,76.28,0,0,0,5.641-11.618V25.13A3.134,3.134,0,0,0,234.166,22" transform="translate(194 6990)" fill="#b82d30"/>
    <path id="Trazado_4967" data-name="Trazado 4967" d="M97.87,25.13A3.134,3.134,0,0,1,101,22H97.452a3.134,3.134,0,0,0-3.125,3.125v85.776a76.122,76.122,0,0,0,3.543,7.847Z" transform="translate(194 6990)" fill="#ab372f"/>
    <path id="Trazado_4968" data-name="Trazado 4968" d="M228.644,29.087H189.949v3.092a.939.939,0,0,1-.938.937H142.577a.938.938,0,0,1-.937-.937V29.087H102.974a1.609,1.609,0,0,0-1.6,1.609v83.135a1.61,1.61,0,0,0,1.6,1.61h39.437v-5.43a.317.317,0,0,1,.312-.313h30.712a.317.317,0,0,1,.313.313v5.43h54.9a1.611,1.611,0,0,0,1.6-1.61V30.7a1.609,1.609,0,0,0-1.6-1.609" transform="translate(194 6990)" fill="#fff"/>
    <path id="Trazado_4969" data-name="Trazado 4969" d="M106.687,113.831V30.7a1.61,1.61,0,0,1,1.6-1.61h-5.315a1.61,1.61,0,0,0-1.6,1.61v83.134a1.61,1.61,0,0,0,1.6,1.61h5.315a1.61,1.61,0,0,1-1.6-1.61" transform="translate(194 6990)" fill="#cee4f7"/>
    <path id="Trazado_4970" data-name="Trazado 4970" d="M146.689,97.325a9.487,9.487,0,0,1,0-4.687h-10.1a9.487,9.487,0,0,1,0,4.687Z" transform="translate(194 6990)" fill="#a2b8e0"/>
    <path id="Trazado_4971" data-name="Trazado 4971" d="M174.934,97.325a9.487,9.487,0,0,1,0-4.687h-10.1a9.487,9.487,0,0,1,0,4.687Z" transform="translate(194 6990)" fill="#a2b8e0"/>
    <path id="Trazado_4972" data-name="Trazado 4972" d="M203.179,97.325a9.487,9.487,0,0,1,0-4.687h-10.1a9.487,9.487,0,0,1,0,4.687Z" transform="translate(194 6990)" fill="#a2b8e0"/>
    <path id="Trazado_4973" data-name="Trazado 4973" d="M156.966,70.132H144.938v4.687h12.028a9.487,9.487,0,0,1,0-4.687" transform="translate(194 6990)" fill="#a2b8e0"/>
    <path id="Trazado_4974" data-name="Trazado 4974" d="M127.519,85.571a9.347,9.347,0,0,1,2.344.3V80.336h-4.688v5.533a9.347,9.347,0,0,1,2.344-.3" transform="translate(194 6990)" fill="#a2b8e0"/>
    <rect id="Rectángulo_5146" data-name="Rectángulo 5146" width="4.687" height="5.15" transform="translate(319.175 7049.465)" fill="#a2b8e0"/>
    <rect id="Rectángulo_5147" data-name="Rectángulo 5147" width="31.923" height="12.804" rx="0.937" transform="translate(305.557 7056.074)" fill="#009e70"/>
    <path id="Trazado_4975" data-name="Trazado 4975" d="M113.9,76.535h27.236V68.418H113.9Zm28.642,4.687H112.5a3.285,3.285,0,0,1-3.281-3.281V67.011A3.285,3.285,0,0,1,112.5,63.73h30.048a3.285,3.285,0,0,1,3.281,3.281v10.93a3.285,3.285,0,0,1-3.281,3.281" transform="translate(194 6990)" fill="#009f65"/>
    <rect id="Rectángulo_5148" data-name="Rectángulo 5148" width="31.923" height="12.804" rx="0.937" transform="translate(305.557 7035.203)" fill="#fdc300"/>
    <path id="Trazado_4976" data-name="Trazado 4976" d="M113.9,55.664h27.236V47.547H113.9Zm28.642,4.687H112.5a3.285,3.285,0,0,1-3.281-3.281V46.14a3.284,3.284,0,0,1,3.281-3.281h30.048a3.284,3.284,0,0,1,3.281,3.281V57.07a3.285,3.285,0,0,1-3.281,3.281" transform="translate(194 6990)" fill="#f6a01a"/>
    <path id="Trazado_4977" data-name="Trazado 4977" d="M188.086,49.141h-8.295v4.687h6.889v16.3H175.117a9.491,9.491,0,0,1,0,4.688h12.969a3.285,3.285,0,0,0,3.281-3.282V52.422a3.285,3.285,0,0,0-3.281-3.281" transform="translate(194 6990)" fill="#a2b8e0"/>
    <path id="Rectángulo_5149" data-name="Rectángulo 5149" d="M.937,0H23.645a.938.938,0,0,1,.938.938V11.867a.937.937,0,0,1-.937.937H.937A.937.937,0,0,1,0,11.867V.937A.937.937,0,0,1,.937,0Z" transform="translate(347.75 7035.203)" fill="#e72d47"/>
    <path id="Trazado_4978" data-name="Trazado 4978" d="M156.093,55.664h19.9V47.547h-19.9Zm21.3,4.687H154.687a3.285,3.285,0,0,1-3.281-3.281V46.14a3.284,3.284,0,0,1,3.281-3.281H177.4a3.284,3.284,0,0,1,3.281,3.281V57.07a3.285,3.285,0,0,1-3.281,3.281" transform="translate(194 6990)" fill="#cb1b28"/>
    <path id="Trazado_4979" data-name="Trazado 4979" d="M166.04,64.628a7.847,7.847,0,1,1-7.807,7.847,7.827,7.827,0,0,1,7.807-7.847" transform="translate(194 6990)" fill="#00b3da"/>
    <path id="Trazado_4980" data-name="Trazado 4980" d="M166.041,66.972a5.5,5.5,0,1,0,5.463,5.5,5.49,5.49,0,0,0-5.463-5.5m0,15.695a10.191,10.191,0,1,1,10.151-10.191,10.183,10.183,0,0,1-10.151,10.191" transform="translate(194 6990)" fill="#0096cc"/>
    <path id="Trazado_4981" data-name="Trazado 4981" d="M127.518,87.134a7.847,7.847,0,1,1-7.807,7.847,7.827,7.827,0,0,1,7.807-7.847" transform="translate(194 6990)" fill="#e72d47"/>
    <path id="Trazado_4982" data-name="Trazado 4982" d="M127.519,89.478a5.5,5.5,0,1,0,5.463,5.5,5.489,5.489,0,0,0-5.463-5.5m0,15.695a10.192,10.192,0,1,1,10.15-10.191,10.183,10.183,0,0,1-10.15,10.191" transform="translate(194 6990)" fill="#cb1b28"/>
    <path id="Trazado_4983" data-name="Trazado 4983" d="M155.762,87.134a7.847,7.847,0,1,1-7.807,7.847,7.827,7.827,0,0,1,7.807-7.847" transform="translate(194 6990)" fill="#fdc300"/>
    <path id="Trazado_4984" data-name="Trazado 4984" d="M155.764,89.478a5.5,5.5,0,1,0,5.463,5.5,5.489,5.489,0,0,0-5.463-5.5m0,15.695a10.192,10.192,0,1,1,10.15-10.191,10.183,10.183,0,0,1-10.15,10.191" transform="translate(194 6990)" fill="#f6a01a"/>
    <path id="Trazado_4985" data-name="Trazado 4985" d="M184.009,87.134a7.847,7.847,0,1,1-7.807,7.847,7.827,7.827,0,0,1,7.807-7.847" transform="translate(194 6990)" fill="#009e70"/>
    <path id="Trazado_4986" data-name="Trazado 4986" d="M184.009,89.478a5.5,5.5,0,1,0,5.463,5.5,5.489,5.489,0,0,0-5.463-5.5m0,15.695a10.192,10.192,0,1,1,10.15-10.191,10.182,10.182,0,0,1-10.15,10.191" transform="translate(194 6990)" fill="#009f65"/>
    <path id="Trazado_4987" data-name="Trazado 4987" d="M212.253,87.134a7.847,7.847,0,1,1-7.807,7.847,7.827,7.827,0,0,1,7.807-7.847" transform="translate(194 6990)" fill="#00b3da"/>
    <path id="Trazado_4988" data-name="Trazado 4988" d="M212.254,89.478a5.5,5.5,0,1,0,5.463,5.5,5.489,5.489,0,0,0-5.463-5.5m0,15.695A10.192,10.192,0,1,1,222.4,94.982a10.182,10.182,0,0,1-10.151,10.191" transform="translate(194 6990)" fill="#0096cc"/>
    <path id="Trazado_4989" data-name="Trazado 4989" d="M209.505,57.366H197.833a2.344,2.344,0,1,1,0-4.687h11.672a2.344,2.344,0,1,1,0,4.687" transform="translate(194 6990)" fill="#385497"/>
    <path id="Trazado_4990" data-name="Trazado 4990" d="M209.505,64.465H197.833a2.343,2.343,0,1,1,0-4.687h11.672a2.343,2.343,0,1,1,0,4.687" transform="translate(194 6990)" fill="#385497"/>
    <path id="Trazado_4991" data-name="Trazado 4991" d="M209.505,71.562H197.833a2.343,2.343,0,1,1,0-4.687h11.672a2.343,2.343,0,1,1,0,4.687" transform="translate(194 6990)" fill="#385497"/>
    <path id="Trazado_4992" data-name="Trazado 4992" d="M220.061,57.366h-4.01a2.344,2.344,0,1,1,0-4.687h4.01a2.344,2.344,0,1,1,0,4.687" transform="translate(194 6990)" fill="#385497"/>
    <path id="Trazado_4993" data-name="Trazado 4993" d="M220.061,64.465h-4.01a2.343,2.343,0,1,1,0-4.687h4.01a2.343,2.343,0,1,1,0,4.687" transform="translate(194 6990)" fill="#385497"/>
    <path id="Trazado_4994" data-name="Trazado 4994" d="M220.061,71.562h-4.01a2.343,2.343,0,1,1,0-4.687h4.01a2.343,2.343,0,1,1,0,4.687" transform="translate(194 6990)" fill="#385497"/>
    <path id="Rectángulo_5150" data-name="Rectángulo 5150" d="M1.562,0H48a1.563,1.563,0,0,1,1.563,1.563V15.844A1.563,1.563,0,0,1,48,17.407H1.562A1.562,1.562,0,0,1,0,15.845V1.562A1.562,1.562,0,0,1,1.562,0Z" transform="translate(335.015 7006.334)" fill="#385497"/>
    <path id="Trazado_4995" data-name="Trazado 4995" d="M145.444,32.179V17.9a1.567,1.567,0,0,1,1.562-1.562h-4.428a1.567,1.567,0,0,0-1.563,1.562V32.179a1.567,1.567,0,0,0,1.563,1.562h4.428a1.567,1.567,0,0,1-1.562-1.562" transform="translate(194 6990)" fill="#373775"/>
    <path id="Trazado_4996" data-name="Trazado 4996" d="M149.6,27.381a2.342,2.342,0,1,1,1.656-.684,2.362,2.362,0,0,1-1.656.684" transform="translate(194 6990)" fill="#a2b8e0"/>
    <path id="Trazado_4997" data-name="Trazado 4997" d="M181.993,27.381a2.342,2.342,0,1,1,1.656-.684,2.373,2.373,0,0,1-1.656.684" transform="translate(194 6990)" fill="#a2b8e0"/>
    <path id="Trazado_4998" data-name="Trazado 4998" d="M173.435,109.074H142.723a.94.94,0,0,0-.937.937v10h4.774a.317.317,0,0,1,.313.312v21.337h26.562a.94.94,0,0,0,.937-.938V110.011a.94.94,0,0,0-.937-.937" transform="translate(194 6990)" fill="#f6a01a"/>
    <path id="Trazado_4999" data-name="Trazado 4999" d="M146.215,120.011v-10a.94.94,0,0,1,.937-.938h-4.428a.941.941,0,0,0-.938.938v10Z" transform="translate(194 6990)" fill="#f1881b"/>
    <path id="Trazado_5000" data-name="Trazado 5000" d="M162.3,118.594H153.86a2.344,2.344,0,0,1,0-4.687H162.3a2.344,2.344,0,1,1,0,4.687" transform="translate(194 6990)" fill="#f1881b"/>
    <path id="Trazado_5001" data-name="Trazado 5001" d="M146.56,119.386H115.848a.94.94,0,0,0-.937.937v20.3a76.707,76.707,0,0,0,16.745,11.348h14.9a.94.94,0,0,0,.937-.938V120.323a.94.94,0,0,0-.937-.937" transform="translate(194 6990)" fill="#fdc300"/>
    <path id="Trazado_5002" data-name="Trazado 5002" d="M119.34,120.324a.94.94,0,0,1,.937-.937h-4.428a.94.94,0,0,0-.938.937v20.3q2.143,1.909,4.429,3.655Z" transform="translate(194 6990)" fill="#f6a01a"/>
    <path id="Trazado_5003" data-name="Trazado 5003" d="M138.243,130.92H124.164a2.343,2.343,0,0,1,0-4.687h14.079a2.343,2.343,0,1,1,0,4.687" transform="translate(194 6990)" fill="#f6a01a"/>
    <path id="Trazado_5004" data-name="Trazado 5004" d="M138.243,136.981H124.164a2.343,2.343,0,0,1,0-4.687h14.079a2.343,2.343,0,1,1,0,4.687" transform="translate(194 6990)" fill="#f6a01a"/>
    <path id="Trazado_5005" data-name="Trazado 5005" d="M138.243,143.043H124.164a2.343,2.343,0,0,1,0-4.687h14.079a2.343,2.343,0,1,1,0,4.687" transform="translate(194 6990)" fill="#f6a01a"/>
    <path id="Rectángulo_5151" data-name="Rectángulo 5151" d="M.937,0H31.649a.938.938,0,0,1,.938.938V31.649a.937.937,0,0,1-.937.937H.937A.937.937,0,0,1,0,31.649V.937A.937.937,0,0,1,.937,0Z" transform="translate(385.497 7100.85)" fill="#fdc300"/>
    <path id="Trazado_5006" data-name="Trazado 5006" d="M195.927,142.5V111.787a.94.94,0,0,1,.937-.937h-4.429a.94.94,0,0,0-.938.937V142.5a.94.94,0,0,0,.938.937h4.429a.94.94,0,0,1-.937-.937" transform="translate(194 6990)" fill="#f6a01a"/>
    <path id="Trazado_5007" data-name="Trazado 5007" d="M199.364,122.649a2.34,2.34,0,1,1,1.66-.687,2.352,2.352,0,0,1-1.66.687" transform="translate(194 6990)" fill="#f6a01a"/>
    <path id="Trazado_5008" data-name="Trazado 5008" d="M199.364,129.487a2.34,2.34,0,1,1,1.66-.687,2.357,2.357,0,0,1-1.66.687" transform="translate(194 6990)" fill="#f6a01a"/>
    <path id="Trazado_5009" data-name="Trazado 5009" d="M199.364,136.325a2.34,2.34,0,1,1,1.66-.687,2.357,2.357,0,0,1-1.66.687" transform="translate(194 6990)" fill="#f6a01a"/>
    <path id="Trazado_5010" data-name="Trazado 5010" d="M216.04,122.65H205.347a2.344,2.344,0,1,1,0-4.687H216.04a2.344,2.344,0,1,1,0,4.687" transform="translate(194 6990)" fill="#f6a01a"/>
    <path id="Trazado_5011" data-name="Trazado 5011" d="M216.04,129.487H205.347a2.343,2.343,0,1,1,0-4.687H216.04a2.343,2.343,0,1,1,0,4.687" transform="translate(194 6990)" fill="#f6a01a"/>
    <path id="Trazado_5012" data-name="Trazado 5012" d="M216.04,136.325H205.347a2.343,2.343,0,1,1,0-4.687H216.04a2.343,2.343,0,1,1,0,4.687" transform="translate(194 6990)" fill="#f6a01a"/>
  </g>
</svg>
