<svg xmlns="http://www.w3.org/2000/svg" width="160.001" height="160" viewBox="0 0 160.001 160">
  <g id="Grupo_8278" data-name="Grupo 8278" transform="translate(-648.008 -6990)">
    <path id="Trazado_5014" data-name="Trazado 5014" d="M537.446,6.875a76.563,76.563,0,1,1-76.563,76.563A76.563,76.563,0,0,1,537.446,6.875" transform="translate(194 6990)" fill="#a5d130"/>
    <path id="Trazado_5015" data-name="Trazado 5015" d="M529.527,75.517a31.351,31.351,0,0,1,38.085-4.825V16.8h-113.6v99.034a3.134,3.134,0,0,0,3.125,3.125h71.582a31.354,31.354,0,0,1,.811-43.443" transform="translate(194 6990)" fill="#e7f1fc"/>
    <path id="Trazado_5016" data-name="Trazado 5016" d="M461.1,115.835V16.8h-7.088v99.034a3.135,3.135,0,0,0,3.125,3.125h7.088a3.134,3.134,0,0,1-3.125-3.125" transform="translate(194 6990)" fill="#b3d6ef"/>
    <path id="Trazado_5017" data-name="Trazado 5017" d="M565.826,0H455.8a1.792,1.792,0,0,0-1.786,1.786v15.9h113.6V1.786A1.792,1.792,0,0,0,565.826,0" transform="translate(194 6990)" fill="#373775"/>
    <path id="Trazado_5018" data-name="Trazado 5018" d="M462.883,0H455.8a1.792,1.792,0,0,0-1.786,1.786v15.9H461.1V1.786A1.791,1.791,0,0,1,462.883,0" transform="translate(194 6990)" fill="#322d60"/>
    <path id="Rectángulo_5154" data-name="Rectángulo 5154" d="M1.562,0H36.388a1.563,1.563,0,0,1,1.563,1.563V26.537A1.562,1.562,0,0,1,36.389,28.1H1.563A1.563,1.563,0,0,1,0,26.536V1.562A1.562,1.562,0,0,1,1.562,0Z" transform="translate(659.514 7019.28)" fill="#00b3e2"/>
    <path id="Trazado_5019" data-name="Trazado 5019" d="M472.6,55.817V30.842a1.566,1.566,0,0,1,1.561-1.562h-7.087a1.568,1.568,0,0,0-1.563,1.562V55.817a1.568,1.568,0,0,0,1.563,1.562h7.087a1.566,1.566,0,0,1-1.561-1.562" transform="translate(194 6990)" fill="#00abdb"/>
    <path id="Trazado_5020" data-name="Trazado 5020" d="M521.868,88.058H467.076a1.567,1.567,0,0,0-1.562,1.562v14.941a1.567,1.567,0,0,0,1.562,1.562h54.452a31.537,31.537,0,0,1,.34-18.065" transform="translate(194 6990)" fill="#f08225"/>
    <path id="Trazado_5021" data-name="Trazado 5021" d="M472.6,104.561V89.621a1.566,1.566,0,0,1,1.561-1.563h-7.087a1.568,1.568,0,0,0-1.563,1.563v14.94a1.568,1.568,0,0,0,1.563,1.562h7.087a1.566,1.566,0,0,1-1.561-1.562" transform="translate(194 6990)" fill="#ee7123"/>
    <path id="Trazado_5022" data-name="Trazado 5022" d="M521.868,88.058H510.524v18.065h11a31.537,31.537,0,0,1,.34-18.065" transform="translate(194 6990)" fill="#fdc300"/>
    <path id="Trazado_5023" data-name="Trazado 5023" d="M554.245,31.623H515.936a2.343,2.343,0,1,1,0-4.687h38.309a2.343,2.343,0,1,1,0,4.687" transform="translate(194 6990)" fill="#61c2ce"/>
    <path id="Trazado_5024" data-name="Trazado 5024" d="M554.245,40.99H515.936a2.344,2.344,0,1,1,0-4.687h38.309a2.344,2.344,0,1,1,0,4.687" transform="translate(194 6990)" fill="#61c2ce"/>
    <path id="Trazado_5025" data-name="Trazado 5025" d="M554.245,50.356H515.936a2.344,2.344,0,1,1,0-4.687h38.309a2.344,2.344,0,1,1,0,4.687" transform="translate(194 6990)" fill="#61c2ce"/>
    <path id="Trazado_5026" data-name="Trazado 5026" d="M554.245,59.723H515.936a2.344,2.344,0,1,1,0-4.687h38.309a2.344,2.344,0,1,1,0,4.687" transform="translate(194 6990)" fill="#61c2ce"/>
    <path id="Trazado_5027" data-name="Trazado 5027" d="M547.59,66.608H465.514a2.343,2.343,0,1,0,0,4.687h69.242a30.982,30.982,0,0,1,12.834-4.687" transform="translate(194 6990)" fill="#61c2ce"/>
    <path id="Trazado_5028" data-name="Trazado 5028" d="M528.919,76.144h-63.4a2.344,2.344,0,1,0,0,4.687h59.747a31.242,31.242,0,0,1,3.658-4.687" transform="translate(194 6990)" fill="#61c2ce"/>
    <path id="Trazado_5029" data-name="Trazado 5029" d="M464.914,10.815a2.344,2.344,0,1,1,1.656-.685,2.366,2.366,0,0,1-1.656.685" transform="translate(194 6990)" fill="#ea4f84"/>
    <path id="Trazado_5030" data-name="Trazado 5030" d="M472.6,10.815a2.344,2.344,0,1,1,1.659-.688,2.353,2.353,0,0,1-1.659.688" transform="translate(194 6990)" fill="#f6a01a"/>
    <path id="Trazado_5031" data-name="Trazado 5031" d="M480.289,10.815a2.344,2.344,0,1,1,1.656-.685,2.353,2.353,0,0,1-1.656.685" transform="translate(194 6990)" fill="#009f65"/>
    <path id="Trazado_5032" data-name="Trazado 5032" d="M582.062,121.627l-6.424,6.424,12.636,12.637a77.267,77.267,0,0,0,6.424-6.424Z" transform="translate(194 6990)" fill="#385497"/>
    <path id="Trazado_5033" data-name="Trazado 5033" d="M584.612,117.753l-5.324-5.323a31.511,31.511,0,0,1-12.837,12.857l5.313,5.313a1.567,1.567,0,0,0,2.21,0l10.638-10.638a1.567,1.567,0,0,0,0-2.209" transform="translate(194 6990)" fill="#373775"/>
    <path id="Trazado_5034" data-name="Trazado 5034" d="M575.41,126.954l-4.544-4.543a31.307,31.307,0,0,1-4.415,2.876l5.313,5.313a1.569,1.569,0,0,0,2.21,0l3.646-3.646a1.567,1.567,0,0,1-2.21,0" transform="translate(194 6990)" fill="#322d60"/>
    <path id="Trazado_5035" data-name="Trazado 5035" d="M574.258,75.075a31.941,31.941,0,1,1-45.172,0,31.941,31.941,0,0,1,45.172,0" transform="translate(194 6990)" fill="#385497"/>
    <path id="Trazado_5036" data-name="Trazado 5036" d="M567.508,113.5a22.4,22.4,0,1,1,0-31.672,22.4,22.4,0,0,1,0,31.672" transform="translate(194 6990)" fill="#00b3e2"/>
    <path id="Trazado_5037" data-name="Trazado 5037" d="M567.508,113.5a22.571,22.571,0,0,0,2.17-2.518,22.4,22.4,0,0,1-31.325-31.324A22.4,22.4,0,1,0,567.508,113.5" transform="translate(194 6990)" fill="#00abdb"/>
    <path id="Trazado_5038" data-name="Trazado 5038" d="M565.826,0h-75.6V17.687h77.381V1.786A1.792,1.792,0,0,0,565.826,0" transform="translate(194 6990)" fill="#385497"/>
    <path id="Trazado_5039" data-name="Trazado 5039" d="M555.518,78.915a3.75,3.75,0,1,1-3.75,3.75,3.75,3.75,0,0,1,3.75-3.75" transform="translate(194 6990)" fill="#cee4f7"/>
    <path id="Trazado_5040" data-name="Trazado 5040" d="M563.4,83.906a2.656,2.656,0,1,1-2.656,2.656,2.656,2.656,0,0,1,2.656-2.656" transform="translate(194 6990)" fill="#cee4f7"/>
  </g>
</svg>
