<svg xmlns="http://www.w3.org/2000/svg" width="153.126" height="160" viewBox="0 0 153.126 160">
  <g id="Grupo_8277" data-name="Grupo 8277" transform="translate(-1019.646 -6990)">
    <path id="Trazado_5042" data-name="Trazado 5042" d="M902.209,6.875a76.563,76.563,0,1,1-76.563,76.563A76.563,76.563,0,0,1,902.209,6.875" transform="translate(194 6990)" fill="#e8366b"/>
    <path id="Trazado_5043" data-name="Trazado 5043" d="M946.909,48.88v.832a1.252,1.252,0,0,1-1.25,1.25H915.165a3.9,3.9,0,0,0-2.768,1.354L902.921,64.5a.848.848,0,0,1-1.425,0L892.02,52.316a3.9,3.9,0,0,0-2.768-1.354H858.758a1.252,1.252,0,0,1-1.25-1.25V48.88H834.694v70.686a76.816,76.816,0,0,0,12.686,17.3H957.038a76.86,76.86,0,0,0,12.685-17.3V48.88Z" transform="translate(194 6990)" fill="#e7f1fc"/>
    <path id="Trazado_5044" data-name="Trazado 5044" d="M834.7,48.88v70.686a76.616,76.616,0,0,0,6.2,9.718V48.88Z" transform="translate(194 6990)" fill="#cee4f7"/>
    <path id="Trazado_5045" data-name="Trazado 5045" d="M955.638,58.543H907.555l-4.634,5.96a.848.848,0,0,1-1.425,0l-4.634-5.96h-50.14A1.567,1.567,0,0,0,845.16,60.1v31.98a1.567,1.567,0,0,0,1.562,1.562H955.638a1.567,1.567,0,0,0,1.562-1.562V60.1a1.567,1.567,0,0,0-1.562-1.562" transform="translate(194 6990)" fill="#00b3e2"/>
    <path id="Trazado_5046" data-name="Trazado 5046" d="M851.361,92.085V60.106a1.568,1.568,0,0,1,1.562-1.563h-6.2a1.568,1.568,0,0,0-1.563,1.563V92.085a1.567,1.567,0,0,0,1.563,1.562h6.2a1.567,1.567,0,0,1-1.562-1.562" transform="translate(194 6990)" fill="#008fc8"/>
    <path id="Trazado_5047" data-name="Trazado 5047" d="M938.884,79.707h7.786a1.66,1.66,0,1,0,0-3.3H936.1Z" transform="translate(194 6990)" fill="#e7f1fc"/>
    <path id="Trazado_5048" data-name="Trazado 5048" d="M914.762,79.707h3.348a1.66,1.66,0,1,1,0,3.3H910l2.782,3.3h8.352l8.346-9.9h-14.72a1.66,1.66,0,1,0,0,3.3" transform="translate(194 6990)" fill="#e7f1fc"/>
    <path id="Trazado_5049" data-name="Trazado 5049" d="M857.508,32.07H837.956a3.271,3.271,0,0,0-3.261,3.261V49.193h22.813Z" transform="translate(194 6990)" fill="#373775"/>
    <path id="Trazado_5050" data-name="Trazado 5050" d="M966.461,32.07H946.909V49.193h22.814V35.331a3.27,3.27,0,0,0-3.262-3.261" transform="translate(194 6990)" fill="#373775"/>
    <path id="Trazado_5051" data-name="Trazado 5051" d="M844.157,32.07h-6.2a3.271,3.271,0,0,0-3.261,3.261V49.193h6.2V35.331a3.271,3.271,0,0,1,3.261-3.261" transform="translate(194 6990)" fill="#322d60"/>
    <path id="Trazado_5052" data-name="Trazado 5052" d="M947.222,1.562A1.567,1.567,0,0,0,945.66,0h-86.9A1.567,1.567,0,0,0,857.2,1.562v48.15a1.567,1.567,0,0,0,1.562,1.562h30.494a3.618,3.618,0,0,1,2.522,1.234l9.476,12.187a1.159,1.159,0,0,0,1.918,0l9.476-12.187a3.618,3.618,0,0,1,2.521-1.234h30.494a1.567,1.567,0,0,0,1.563-1.562Z" transform="translate(194 6990)" fill="#f6a01a"/>
    <path id="Trazado_5053" data-name="Trazado 5053" d="M863.4,49.712V1.562A1.567,1.567,0,0,1,864.959,0h-6.2A1.568,1.568,0,0,0,857.2,1.562v48.15a1.568,1.568,0,0,0,1.563,1.562h6.2a1.567,1.567,0,0,1-1.562-1.562" transform="translate(194 6990)" fill="#f08225"/>
    <path id="Trazado_5054" data-name="Trazado 5054" d="M845.152,43.4a2.651,2.651,0,1,1,1.875-.775,2.681,2.681,0,0,1-1.875.775" transform="translate(194 6990)" fill="#ea4f84"/>
    <path id="Trazado_5055" data-name="Trazado 5055" d="M852.81,43.4a2.649,2.649,0,1,1,1.878-.778,2.664,2.664,0,0,1-1.878.778" transform="translate(194 6990)" fill="#fdc300"/>
    <path id="Trazado_5056" data-name="Trazado 5056" d="M917.879,89.688a1.166,1.166,0,0,1-1.839,0l-7.414-8.8a1.165,1.165,0,0,0-1.838,0L896.036,93.647h55.007L933.711,73.085a1.165,1.165,0,0,0-1.838,0Z" transform="translate(194 6990)" fill="#009d7d"/>
    <path id="Trazado_5057" data-name="Trazado 5057" d="M908.626,80.891a1.165,1.165,0,0,0-1.838,0L896.035,93.647h6.2l8.571-10.168Z" transform="translate(194 6990)" fill="#008d86"/>
    <path id="Trazado_5058" data-name="Trazado 5058" d="M940.686,66.04a4.278,4.278,0,1,0,4.278-4.278,4.279,4.279,0,0,0-4.278,4.278" transform="translate(194 6990)" fill="#f6a01a"/>
    <path id="Trazado_5059" data-name="Trazado 5059" d="M943.961,66.04a4.279,4.279,0,0,1,2.641-3.952,4.279,4.279,0,1,0,0,7.9,4.28,4.28,0,0,1-2.641-3.953" transform="translate(194 6990)" fill="#f08225"/>
    <path id="Trazado_5060" data-name="Trazado 5060" d="M874.575,13.32c.552-1.118,1.454-1.118,2.005,0l1.927,3.9a4.844,4.844,0,0,0,3.245,2.358l4.308.627c1.234.178,1.513,1.036.621,1.906l-3.118,3.04a4.842,4.842,0,0,0-1.24,3.814l.736,4.292c.212,1.228-.519,1.759-1.622,1.179l-3.855-2.026a4.838,4.838,0,0,0-4.01,0l-3.855,2.026c-1.1.58-1.833.049-1.622-1.179l.737-4.292a4.843,4.843,0,0,0-1.241-3.814l-3.117-3.04c-.893-.87-.613-1.727.619-1.906l4.309-.627a4.84,4.84,0,0,0,3.245-2.358Z" transform="translate(194 6990)" fill="#fff"/>
    <path id="Trazado_5061" data-name="Trazado 5061" d="M901.206,13.32c.552-1.118,1.455-1.118,2.006,0l1.927,3.9a4.845,4.845,0,0,0,3.244,2.358l4.31.627c1.234.178,1.512,1.036.62,1.906l-3.119,3.04a4.845,4.845,0,0,0-1.239,3.814l.737,4.292c.211,1.228-.521,1.759-1.623,1.179l-3.854-2.026a4.843,4.843,0,0,0-4.012,0l-3.854,2.026c-1.1.58-1.833.049-1.622-1.179l.737-4.292a4.849,4.849,0,0,0-1.24-3.814l-3.118-3.04c-.893-.87-.613-1.727.619-1.906l4.309-.627a4.842,4.842,0,0,0,3.245-2.358Z" transform="translate(194 6990)" fill="#fff"/>
    <path id="Trazado_5062" data-name="Trazado 5062" d="M927.838,13.32c.552-1.118,1.454-1.118,2.005,0l1.927,3.9a4.842,4.842,0,0,0,3.245,2.358l4.309.627c1.234.178,1.512,1.036.62,1.906l-3.119,3.04a4.845,4.845,0,0,0-1.239,3.814l.736,4.292c.212,1.228-.519,1.759-1.621,1.179l-3.856-2.026a4.84,4.84,0,0,0-4.011,0l-3.853,2.026c-1.1.58-1.834.049-1.623-1.179l.736-4.292a4.841,4.841,0,0,0-1.239-3.814l-3.118-3.04c-.892-.87-.613-1.727.62-1.906l4.308-.627a4.84,4.84,0,0,0,3.245-2.358Z" transform="translate(194 6990)" fill="#fff"/>
    <path id="Trazado_5063" data-name="Trazado 5063" d="M886.934,104.538h-39.82a2.344,2.344,0,1,1,0-4.687h39.82a2.344,2.344,0,1,1,0,4.687" transform="translate(194 6990)" fill="#61c2ce"/>
    <path id="Trazado_5064" data-name="Trazado 5064" d="M886.934,113.429h-39.82a2.344,2.344,0,1,1,0-4.687h39.82a2.344,2.344,0,1,1,0,4.687" transform="translate(194 6990)" fill="#61c2ce"/>
    <path id="Trazado_5065" data-name="Trazado 5065" d="M911.71,104.538H895.146a2.344,2.344,0,1,1,0-4.687H911.71a2.344,2.344,0,1,1,0,4.687" transform="translate(194 6990)" fill="#61c2ce"/>
    <path id="Trazado_5066" data-name="Trazado 5066" d="M911.71,113.429H895.146a2.344,2.344,0,1,1,0-4.687H911.71a2.344,2.344,0,1,1,0,4.687" transform="translate(194 6990)" fill="#61c2ce"/>
    <path id="Trazado_5067" data-name="Trazado 5067" d="M895.4,66.572h-28.89a1.8,1.8,0,1,0,0,3.574h4.07a1.8,1.8,0,1,1,0,3.573H854.793a1.8,1.8,0,1,0,0,3.575H889.34a1.8,1.8,0,1,0,0-3.575h-3.625a1.8,1.8,0,1,1,0-3.573H895.4a1.8,1.8,0,1,0,0-3.574" transform="translate(194 6990)" fill="#e7f1fc"/>
    <path id="Rectángulo_5157" data-name="Rectángulo 5157" d="M1.562,0H110.479a1.562,1.562,0,0,1,1.562,1.562V6.355a1.562,1.562,0,0,1-1.562,1.562H1.563A1.563,1.563,0,0,1,0,6.354V1.562A1.562,1.562,0,0,1,1.562,0Z" transform="translate(1039.16 7109.478)" fill="#61c2ce"/>
    <path id="Trazado_5068" data-name="Trazado 5068" d="M926.843,99.219a7.031,7.031,0,1,1-7.031,7.031,7.031,7.031,0,0,1,7.031-7.031" transform="translate(194 6990)" fill="#fff"/>
    <path id="Trazado_5069" data-name="Trazado 5069" d="M947.521,99.219a7.031,7.031,0,1,1-7.031,7.031,7.031,7.031,0,0,1,7.031-7.031" transform="translate(194 6990)" fill="#fff"/>
    <path id="Trazado_5070" data-name="Trazado 5070" d="M923.721,106.248A7.032,7.032,0,0,1,928.8,99.5a7.03,7.03,0,1,0,0,13.507,7.033,7.033,0,0,1-5.077-6.754" transform="translate(194 6990)" fill="#cee4f7"/>
    <path id="Trazado_5071" data-name="Trazado 5071" d="M944.4,106.248a7.032,7.032,0,0,1,5.076-6.753,7.03,7.03,0,1,0,0,13.507,7.033,7.033,0,0,1-5.076-6.754" transform="translate(194 6990)" fill="#cee4f7"/>
    <path id="Trazado_5072" data-name="Trazado 5072" d="M886.8,141.789c.264-.535.7-.535.961,0l.923,1.87a2.316,2.316,0,0,0,1.554,1.13l2.064.3c.591.086.725.5.3.914l-1.493,1.455a2.318,2.318,0,0,0-.594,1.827l.352,2.056c.1.589-.248.843-.777.566l-1.846-.972a2.327,2.327,0,0,0-1.922,0l-1.846.972c-.528.277-.878.023-.777-.566l.353-2.056a2.326,2.326,0,0,0-.594-1.827L881.958,146c-.427-.418-.293-.828.3-.914l2.064-.3a2.314,2.314,0,0,0,1.554-1.13Z" transform="translate(194 6990)" fill="#fff"/>
    <path id="Trazado_5073" data-name="Trazado 5073" d="M901.728,141.789c.264-.535.7-.535.961,0l.923,1.87a2.319,2.319,0,0,0,1.554,1.13l2.065.3c.591.086.723.5.3.914l-1.494,1.455a2.321,2.321,0,0,0-.593,1.827l.353,2.056c.1.589-.25.843-.777.566l-1.847-.972a2.324,2.324,0,0,0-1.921,0l-1.846.972c-.529.277-.879.023-.777-.566l.353-2.056a2.326,2.326,0,0,0-.594-1.827L896.89,146c-.428-.418-.293-.828.3-.914l2.064-.3a2.317,2.317,0,0,0,1.554-1.13Z" transform="translate(194 6990)" fill="#fff"/>
    <path id="Trazado_5074" data-name="Trazado 5074" d="M916.66,141.789c.265-.535.7-.535.96,0l.924,1.87a2.314,2.314,0,0,0,1.554,1.13l2.064.3c.591.086.724.5.3.914l-1.494,1.455a2.317,2.317,0,0,0-.593,1.827l.352,2.056c.1.589-.249.843-.777.566l-1.846-.972a2.324,2.324,0,0,0-1.921,0l-1.846.972c-.528.277-.879.023-.778-.566l.353-2.056a2.321,2.321,0,0,0-.593-1.827L911.822,146c-.427-.418-.293-.828.3-.914l2.064-.3a2.317,2.317,0,0,0,1.554-1.13Z" transform="translate(194 6990)" fill="#fff"/>
  </g>
</svg>
