<svg xmlns="http://www.w3.org/2000/svg" xmlns:xlink="http://www.w3.org/1999/xlink" width="337.837" height="167.747" viewBox="0 0 337.837 167.747">
  <defs>
    <clipPath id="clip-path">
      <path id="Trazado_6551" data-name="Trazado 6551" d="M858.788,627.886a4.837,4.837,0,1,0,0,9.673h175.069a4.837,4.837,0,1,0,0-9.673Z" transform="translate(-853.951 -627.886)" fill="none"/>
    </clipPath>
    <radialGradient id="radial-gradient" cx="0.5" cy="0.5" r="6.762" gradientTransform="matrix(0.052, 0, 0, -1, -2.59, 55.75)" gradientUnits="objectBoundingBox">
      <stop offset="0" stop-color="#8cbb69"/>
      <stop offset="0.784" stop-color="#6bad44"/>
      <stop offset="1" stop-color="#6bad44"/>
    </radialGradient>
    <clipPath id="clip-path-2">
      <path id="Trazado_6613" data-name="Trazado 6613" d="M1011.528,735.911a15.683,15.683,0,1,0,11.091-4.595,15.684,15.684,0,0,0-11.091,4.595" transform="translate(-1006.935 -731.316)" fill="none"/>
    </clipPath>
    <radialGradient id="radial-gradient-2" cy="0.477" r="0.477" gradientTransform="matrix(0.956, 0, 0, -1, -0.767, 12.674)" xlink:href="#radial-gradient"/>
  </defs>
  <g id="Grupo_8732" data-name="Grupo 8732" transform="translate(-513.648 -447.721)">
    <rect id="Rectángulo_5509" data-name="Rectángulo 5509" width="164.771" height="107.691" transform="translate(597.959 457.969)" fill="#f3fafd"/>
    <path id="Trazado_6550" data-name="Trazado 6550" d="M1035.212,752.113H870.441a.573.573,0,0,1-.574-.574V643.848a.573.573,0,0,1,.574-.574h164.771a.573.573,0,0,1,.574.574V751.539a.573.573,0,0,1-.574.574m-164.2-1.148h163.623V644.422H871.015Z" transform="translate(-272.482 -185.879)"/>
    <g id="Grupo_8726" data-name="Grupo 8726" transform="translate(587.973 448.295)">
      <g id="Grupo_8725" data-name="Grupo 8725" clip-path="url(#clip-path)">
        <rect id="Rectángulo_5511" data-name="Rectángulo 5511" width="184.744" height="9.673" transform="translate(0)" fill="url(#radial-gradient)"/>
      </g>
    </g>
    <path id="Trazado_6552" data-name="Trazado 6552" d="M1033.46,637.737H858.392a5.41,5.41,0,1,1,0-10.821H1033.46a5.41,5.41,0,1,1,0,10.821m-175.068-9.674a4.263,4.263,0,1,0,0,8.526H1033.46a4.263,4.263,0,1,0,0-8.526Z" transform="translate(-265.581 -179.195)"/>
    <rect id="Rectángulo_5512" data-name="Rectángulo 5512" width="184.744" height="6.17" transform="translate(587.973 565.659)" fill="#144b89"/>
    <path id="Trazado_6553" data-name="Trazado 6553" d="M1038.3,832.706H853.554a.573.573,0,0,1-.573-.574v-6.169a.573.573,0,0,1,.573-.574H1038.3a.573.573,0,0,1,.575.574v6.169a.574.574,0,0,1-.575.574m-184.17-1.149h183.6v-5.021h-183.6Z" transform="translate(-265.581 -260.302)"/>
    <rect id="Rectángulo_5513" data-name="Rectángulo 5513" width="201.593" height="6.167" transform="translate(579.549 571.829)" fill="#144b89"/>
    <path id="Trazado_6554" data-name="Trazado 6554" d="M1040.9,843.137H839.308a.574.574,0,0,1-.574-.575v-6.167a.574.574,0,0,1,.574-.575H1040.9a.575.575,0,0,1,.575.575v6.167a.575.575,0,0,1-.575.575m-201.019-1.148h200.446v-5.019H839.882Z" transform="translate(-259.759 -264.566)"/>
    <path id="Trazado_6555" data-name="Trazado 6555" d="M1023.143,706.267a42.025,42.025,0,1,1-42.023-42.022,42.022,42.022,0,0,1,42.023,42.022" transform="translate(-300.771 -194.449)" fill="#154b8a"/>
    <path id="Trazado_6556" data-name="Trazado 6556" d="M980.723,748.464a42.6,42.6,0,1,1,42.6-42.594,42.646,42.646,0,0,1-42.6,42.594m0-84.042a41.447,41.447,0,1,0,41.449,41.448,41.5,41.5,0,0,0-41.449-41.448" transform="translate(-300.375 -194.053)"/>
    <path id="Trazado_6557" data-name="Trazado 6557" d="M1103.5,735.485h-22.673a.573.573,0,1,1,0-1.147H1103.5a.573.573,0,1,1,0,1.147" transform="translate(-358.46 -223.094)"/>
    <path id="Trazado_6558" data-name="Trazado 6558" d="M923.023,735.485H900.346a.573.573,0,1,1,0-1.147h22.677a.573.573,0,1,1,0,1.147" transform="translate(-284.703 -223.094)"/>
    <rect id="Rectángulo_5514" data-name="Rectángulo 5514" width="9.05" height="21.01" transform="translate(675.823 577.999)" fill="#e7e6e6"/>
    <path id="Trazado_6559" data-name="Trazado 6559" d="M1011.165,868.414h-9.05a.575.575,0,0,1-.574-.575v-21.01a.573.573,0,0,1,.574-.574h9.05a.574.574,0,0,1,.574.574v21.01a.575.575,0,0,1-.574.575m-8.476-1.15h7.9V847.4h-7.9Z" transform="translate(-326.292 -268.83)"/>
    <rect id="Rectángulo_5515" data-name="Rectángulo 5515" width="20.913" height="5.229" transform="translate(669.651 599.009)" fill="#a7a8ac"/>
    <path id="Trazado_6560" data-name="Trazado 6560" d="M1012.59,888.161H991.677a.574.574,0,0,1-.574-.574v-5.229a.574.574,0,0,1,.574-.574h20.913a.574.574,0,0,1,.574.574v5.229a.574.574,0,0,1-.574.574m-20.339-1.148h19.765v-4.079H992.251Z" transform="translate(-322.026 -283.349)" fill="#144b89"/>
    <rect id="Rectángulo_5516" data-name="Rectángulo 5516" width="49.753" height="8.113" transform="translate(655.472 604.237)" fill="#a7a8ac"/>
    <path id="Trazado_6561" data-name="Trazado 6561" d="M1017.453,899.887H967.7a.573.573,0,0,1-.574-.574V891.2a.574.574,0,0,1,.574-.574h49.753a.574.574,0,0,1,.574.574v8.113a.573.573,0,0,1-.574.574m-49.179-1.148h48.6v-6.964h-48.6Z" transform="translate(-312.228 -286.963)" fill="#144b89"/>
    <path id="Trazado_6562" data-name="Trazado 6562" d="M958.793,905.493H945.905a.574.574,0,0,1,0-1.148h12.888a.574.574,0,1,1,0,1.148" transform="translate(-303.322 -292.569)" fill="#fff"/>
    <path id="Trazado_6563" data-name="Trazado 6563" d="M1062.53,905.493h-10.695a.574.574,0,1,1,0-1.148h10.695a.574.574,0,1,1,0,1.148" transform="translate(-346.611 -292.569)" fill="#fff"/>
    <path id="Trazado_6564" data-name="Trazado 6564" d="M1078.577,905.493h-3.707a.574.574,0,0,1,0-1.148h3.707a.574.574,0,0,1,0,1.148" transform="translate(-356.025 -292.569)" fill="#fff"/>
    <path id="Trazado_6565" data-name="Trazado 6565" d="M880.659,894.419H823.077a.568.568,0,0,1-.349-.119l-14.043-8.108a.573.573,0,0,1,0-.992l14.051-8.111a.562.562,0,0,1,.341-.115h57.583a.574.574,0,0,1,.575.573v16.3a.574.574,0,0,1-.575.574m-57.419-1.148h56.846V878.121H823.243L810.121,885.7Z" transform="translate(-247.362 -281.383)" fill="#fff"/>
    <path id="Trazado_6566" data-name="Trazado 6566" d="M832.825,895.17a.573.573,0,0,1-.573-.574V873.429a.574.574,0,0,1,1.148,0V894.6a.574.574,0,0,1-.575.574" transform="translate(-257.11 -279.701)" fill="#fff"/>
    <path id="Trazado_6567" data-name="Trazado 6567" d="M1181.514,723.415h-15.543a.574.574,0,0,1,0-1.148h15.543a.574.574,0,1,1,0,1.148" transform="translate(-393.254 -218.161)" fill="#fff"/>
    <path id="Trazado_6568" data-name="Trazado 6568" d="M1204.25,723.415h-6.171a.574.574,0,1,1,0-1.148h6.171a.574.574,0,1,1,0,1.148" transform="translate(-406.375 -218.161)" fill="#fff"/>
    <path id="Trazado_6569" data-name="Trazado 6569" d="M1216.5,723.415h-3.014a.574.574,0,0,1,0-1.148h3.014a.574.574,0,0,1,0,1.148" transform="translate(-412.673 -218.161)" fill="#fff"/>
    <path id="Trazado_6570" data-name="Trazado 6570" d="M828.3,723.415h15.542a.574.574,0,0,0,0-1.148H828.3a.574.574,0,0,0,0,1.148" transform="translate(-255.261 -218.161)" fill="#fff"/>
    <path id="Trazado_6571" data-name="Trazado 6571" d="M812.043,723.415h6.171a.574.574,0,0,0,0-1.148h-6.171a.574.574,0,1,0,0,1.148" transform="translate(-248.617 -218.161)" fill="#fff"/>
    <path id="Trazado_6572" data-name="Trazado 6572" d="M801.971,723.415h3.013a.574.574,0,1,0,0-1.148h-3.013a.574.574,0,0,0,0,1.148" transform="translate(-244.501 -218.161)" fill="#fff"/>
    <path id="Trazado_6573" data-name="Trazado 6573" d="M742.818,896.823a.573.573,0,0,1-.574-.574V877.475a.574.574,0,0,1,1.148,0v18.774a.574.574,0,0,1-.574.574" transform="translate(-220.327 -281.354)" fill="#fff"/>
    <path id="Trazado_6574" data-name="Trazado 6574" d="M779.039,896.823a.573.573,0,0,1-.574-.574V877.475a.574.574,0,0,1,1.148,0v18.774a.573.573,0,0,1-.575.574" transform="translate(-235.129 -281.354)" fill="#fff"/>
    <path id="Trazado_6575" data-name="Trazado 6575" d="M766.793,886.793H728.834a.572.572,0,0,1-.574-.573V856.862a.573.573,0,0,1,.574-.574H740.9l1.229-3.543a.571.571,0,0,1,.372-.36.581.581,0,0,1,.511.087,8.081,8.081,0,0,0,4.128,1.557,6.741,6.741,0,0,0,1.338,0,8.07,8.07,0,0,0,4.134-1.557.561.561,0,0,1,.511-.087.574.574,0,0,1,.373.36l1.231,3.543h12.066a.573.573,0,0,1,.574.574V886.22a.572.572,0,0,1-.574.573m-37.385-1.147h36.811V857.437h-11.9a.574.574,0,0,1-.542-.386l-1.121-3.223a9.183,9.183,0,0,1-4.074,1.345,7.947,7.947,0,0,1-1.546,0,9.205,9.205,0,0,1-4.068-1.343l-1.118,3.222a.573.573,0,0,1-.542.386h-11.9Z" transform="translate(-214.612 -271.324)" fill="#fff"/>
    <path id="Trazado_6576" data-name="Trazado 6576" d="M754.939,844.478c-.258,0-.514-.015-.767-.035a8.261,8.261,0,0,1-.9-.138,9.083,9.083,0,0,1-3.819-1.639c-.2-.146-.39-.3-.573-.458a9.237,9.237,0,0,1-3.189-6.974v-8.555a.572.572,0,0,1,.572-.574h17.343a.573.573,0,0,1,.574.574v8.555a9.249,9.249,0,0,1-3.192,6.977q-.276.237-.571.455a9.256,9.256,0,0,1-3.834,1.642,8.575,8.575,0,0,1-.873.135c-.263.02-.52.035-.775.035m-8.1-17.226v7.981a8.1,8.1,0,0,0,2.8,6.109c.162.142.329.273.5.4a7.97,7.97,0,0,0,3.354,1.434,7.231,7.231,0,0,0,.78.123,8.472,8.472,0,0,0,1.342,0,7.423,7.423,0,0,0,.754-.12,8.124,8.124,0,0,0,3.37-1.437c.173-.128.339-.26.5-.4a8.1,8.1,0,0,0,2.8-6.11v-7.981Z" transform="translate(-221.737 -260.595)" fill="#fff"/>
    <path id="Trazado_6577" data-name="Trazado 6577" d="M1096.26,893.845v-16.3a.574.574,0,0,1,.575-.573h57.583a.559.559,0,0,1,.341.114l14.051,8.111a.574.574,0,0,1,0,.993l-14.043,8.108a.568.568,0,0,1-.349.12h-57.583a.575.575,0,0,1-.575-.575m71.114-8.148-13.122-7.575h-56.844v15.149h56.846Z" transform="translate(-365 -281.384)" fill="#fff"/>
    <path id="Trazado_6578" data-name="Trazado 6578" d="M1194.211,895.17a.573.573,0,0,0,.573-.574V873.429a.574.574,0,0,0-1.148,0V894.6a.573.573,0,0,0,.575.574" transform="translate(-404.794 -279.701)" fill="#fff"/>
    <path id="Trazado_6579" data-name="Trazado 6579" d="M1289.218,896.823a.574.574,0,0,0,.575-.574V877.475a.574.574,0,0,0-1.149,0v18.774a.574.574,0,0,0,.574.574" transform="translate(-443.62 -281.354)" fill="#fff"/>
    <path id="Trazado_6580" data-name="Trazado 6580" d="M1248,896.823a.573.573,0,0,0,.574-.574V877.475a.575.575,0,0,0-1.15,0v18.774a.574.574,0,0,0,.575.574" transform="translate(-426.774 -281.354)" fill="#fff"/>
    <path id="Trazado_6581" data-name="Trazado 6581" d="M1233.438,886.219V856.862a.573.573,0,0,1,.574-.574h12.065l1.231-3.543a.574.574,0,0,1,.373-.36.562.562,0,0,1,.511.087,8.068,8.068,0,0,0,4.135,1.557,6.719,6.719,0,0,0,1.336,0,8.078,8.078,0,0,0,4.128-1.557.582.582,0,0,1,.512-.087.572.572,0,0,1,.373.36l1.229,3.543h12.067a.573.573,0,0,1,.574.574v29.357a.572.572,0,0,1-.574.574h-37.959a.572.572,0,0,1-.574-.574m37.959-28.783h-11.9a.571.571,0,0,1-.542-.386l-1.119-3.222a9.184,9.184,0,0,1-4.067,1.344,7.994,7.994,0,0,1-1.546,0,9.176,9.176,0,0,1-4.074-1.345l-1.12,3.223a.574.574,0,0,1-.542.386h-11.9v28.21H1271.4Z" transform="translate(-421.06 -271.324)" fill="#fff"/>
    <path id="Trazado_6582" data-name="Trazado 6582" d="M1259.338,844.443a8.614,8.614,0,0,1-.873-.135,9.25,9.25,0,0,1-3.833-1.642q-.3-.218-.571-.455a9.252,9.252,0,0,1-3.193-6.977v-8.555a.573.573,0,0,1,.574-.574h17.343a.573.573,0,0,1,.573.574v8.555a9.237,9.237,0,0,1-3.188,6.974c-.183.16-.375.312-.573.458a9.09,9.09,0,0,1-3.819,1.639,8.312,8.312,0,0,1-.9.138c-.253.02-.508.035-.766.035s-.512-.015-.775-.035m-7.321-17.191v7.981a8.1,8.1,0,0,0,2.8,6.11c.162.14.328.271.5.4a8.119,8.119,0,0,0,3.37,1.438,7.418,7.418,0,0,0,.754.12,8.464,8.464,0,0,0,1.341,0,7.252,7.252,0,0,0,.78-.123,7.965,7.965,0,0,0,3.353-1.434c.173-.128.34-.259.5-.4a8.1,8.1,0,0,0,2.8-6.109v-7.981Z" transform="translate(-428.183 -260.595)" fill="#fff"/>
    <path id="Trazado_6583" data-name="Trazado 6583" d="M829.169,684.7a.577.577,0,0,1-.406-.168L815.775,671.54a.574.574,0,0,1,.812-.811l12.989,12.988a.574.574,0,0,1-.406.98" transform="translate(-250.308 -197.031)" fill="#fff"/>
    <path id="Trazado_6584" data-name="Trazado 6584" d="M816.18,684.7a.574.574,0,0,1-.406-.98l12.989-12.988a.574.574,0,0,1,.812.811l-12.989,12.989a.574.574,0,0,1-.406.168" transform="translate(-250.308 -197.031)" fill="#fff"/>
    <path id="Trazado_6585" data-name="Trazado 6585" d="M1186.127,684.7a.576.576,0,0,1-.406-.168l-12.988-12.989a.574.574,0,1,1,.811-.811l12.989,12.988a.574.574,0,0,1-.406.98" transform="translate(-396.183 -197.031)" fill="#fff"/>
    <path id="Trazado_6586" data-name="Trazado 6586" d="M1173.138,684.7a.574.574,0,0,1-.406-.98l12.989-12.988a.574.574,0,0,1,.812.811l-12.989,12.989a.574.574,0,0,1-.406.168" transform="translate(-396.183 -197.031)" fill="#fff"/>
    <path id="Trazado_6587" data-name="Trazado 6587" d="M806.07,836.969h-6.793a.574.574,0,1,1,0-1.148h6.793a.574.574,0,1,1,0,1.148" transform="translate(-243.4 -264.566)" fill="#fff"/>
    <path id="Trazado_6588" data-name="Trazado 6588" d="M974.491,879.5H967.7a.574.574,0,1,1,0-1.148h6.792a.574.574,0,1,1,0,1.148" transform="translate(-312.228 -281.948)" fill="#fff"/>
    <path id="Trazado_6589" data-name="Trazado 6589" d="M979.885,865.428H967.7a.574.574,0,1,1,0-1.148h12.186a.574.574,0,1,1,0,1.148" transform="translate(-312.228 -276.196)" fill="#fff"/>
    <path id="Trazado_6590" data-name="Trazado 6590" d="M1040.82,879.5h6.792a.574.574,0,1,0,0-1.148h-6.792a.574.574,0,1,0,0,1.148" transform="translate(-342.109 -281.948)" fill="#fff"/>
    <path id="Trazado_6591" data-name="Trazado 6591" d="M1031.7,865.428h12.186a.574.574,0,0,0,0-1.148H1031.7a.574.574,0,1,0,0,1.148" transform="translate(-338.382 -276.196)" fill="#fff"/>
    <path id="Trazado_6592" data-name="Trazado 6592" d="M810.8,819.4H799.278a.574.574,0,1,1,0-1.148H810.8a.574.574,0,1,1,0,1.148" transform="translate(-243.4 -257.384)" fill="#fff"/>
    <path id="Trazado_6593" data-name="Trazado 6593" d="M1208.276,836.969h6.793a.574.574,0,1,0,0-1.148h-6.793a.574.574,0,0,0,0,1.148" transform="translate(-410.543 -264.566)" fill="#fff"/>
    <path id="Trazado_6594" data-name="Trazado 6594" d="M1200.278,819.4H1211.8a.574.574,0,1,0,0-1.148h-11.522a.574.574,0,1,0,0,1.148" transform="translate(-407.273 -257.384)" fill="#fff"/>
    <path id="Trazado_6595" data-name="Trazado 6595" d="M1048.26,720.344h-14.43a.4.4,0,0,1-.4-.395,36.154,36.154,0,0,0-4.127-16.879.4.4,0,0,1,.225-.557,36.55,36.55,0,0,0,9.279-4.655.392.392,0,0,1,.5.04,30.473,30.473,0,0,1,9.344,22.05.4.4,0,0,1-.4.395m-14.036-.791h13.639a29.672,29.672,0,0,0-8.869-20.86,37.281,37.281,0,0,1-8.774,4.421,36.9,36.9,0,0,1,4,16.439" transform="translate(-337.621 -208.157)" fill="#fff"/>
    <path id="Trazado_6596" data-name="Trazado 6596" d="M1039.037,757.15a.392.392,0,0,1-.226-.07,36.572,36.572,0,0,0-9.28-4.652.4.4,0,0,1-.225-.559,36.133,36.133,0,0,0,4.129-16.877.4.4,0,0,1,.4-.4h14.43a.4.4,0,0,1,.4.4,30.457,30.457,0,0,1-9.344,22.046.389.389,0,0,1-.274.112m-8.82-5.324a37.429,37.429,0,0,1,8.776,4.418,29.663,29.663,0,0,0,8.869-20.857h-13.639a36.88,36.88,0,0,1-4.006,16.439" transform="translate(-337.62 -223.199)" fill="#fff"/>
    <path id="Trazado_6597" data-name="Trazado 6597" d="M1021.626,697.376a.394.394,0,0,1-.351-.212,36.9,36.9,0,0,0-11.5-13.111.4.4,0,0,1,.226-.719h0a30.562,30.562,0,0,1,21.277,8.658.391.391,0,0,1-.049.608,37.263,37.263,0,0,1-9.477,4.755.368.368,0,0,1-.125.02m-10.37-13.222a37.728,37.728,0,0,1,10.562,12.345,36.484,36.484,0,0,0,8.56-4.273,29.76,29.76,0,0,0-19.122-8.072" transform="translate(-329.587 -202.25)" fill="#fff"/>
    <path id="Trazado_6598" data-name="Trazado 6598" d="M967.813,757.15a.4.4,0,0,1-.275-.112,30.457,30.457,0,0,1-9.345-22.046.4.4,0,0,1,.4-.4h14.429a.4.4,0,0,1,.394.4,36.15,36.15,0,0,0,4.129,16.877.39.39,0,0,1,.016.331.4.4,0,0,1-.241.228,36.563,36.563,0,0,0-9.277,4.652.391.391,0,0,1-.225.071m-8.828-21.763a29.656,29.656,0,0,0,8.871,20.857,37.309,37.309,0,0,1,8.773-4.418,36.89,36.89,0,0,1-4.006-16.439Z" transform="translate(-308.577 -223.199)" fill="#fff"/>
    <path id="Trazado_6599" data-name="Trazado 6599" d="M973.017,720.345H958.588a.4.4,0,0,1-.4-.4,30.475,30.475,0,0,1,9.345-22.05.4.4,0,0,1,.5-.04,36.449,36.449,0,0,0,9.277,4.655.395.395,0,0,1,.225.557,36.148,36.148,0,0,0-4.129,16.879.394.394,0,0,1-.394.4m-14.032-.791h13.639a36.9,36.9,0,0,1,4.006-16.439,37.206,37.206,0,0,1-8.773-4.421,29.671,29.671,0,0,0-8.871,20.86" transform="translate(-308.577 -208.157)" fill="#fff"/>
    <path id="Trazado_6600" data-name="Trazado 6600" d="M987.163,752.447a.4.4,0,0,1-.351-.212,36.952,36.952,0,0,1-4.218-17.243.4.4,0,0,1,.4-.4h15.886a.394.394,0,0,1,.394.4v15.155a.394.394,0,0,1-.394.4,36.506,36.506,0,0,0-11.587,1.884.4.4,0,0,1-.125.021m-3.777-17.061a36.125,36.125,0,0,0,3.973,16.185,37.3,37.3,0,0,1,11.12-1.817V735.387Z" transform="translate(-318.549 -223.199)" fill="#fff"/>
    <path id="Trazado_6601" data-name="Trazado 6601" d="M998.875,723.6H982.989a.4.4,0,0,1-.4-.395,36.941,36.941,0,0,1,4.218-17.244.4.4,0,0,1,.476-.192,36.6,36.6,0,0,0,11.587,1.883.394.394,0,0,1,.394.4V723.2a.394.394,0,0,1-.394.395m-15.489-.791h15.093v-14.37a37.314,37.314,0,0,1-11.12-1.815,36.108,36.108,0,0,0-3.973,16.185" transform="translate(-318.549 -211.409)" fill="#fff"/>
    <path id="Trazado_6602" data-name="Trazado 6602" d="M1025.736,723.6h-15.883a.4.4,0,0,1-.4-.4V708.045a.4.4,0,0,1,.4-.4,36.6,36.6,0,0,0,11.587-1.883.4.4,0,0,1,.476.192,36.945,36.945,0,0,1,4.216,17.244.4.4,0,0,1-.4.4m-15.489-.791h15.092a36.109,36.109,0,0,0-3.971-16.185,37.311,37.311,0,0,1-11.121,1.815Z" transform="translate(-329.527 -211.409)" fill="#fff"/>
    <path id="Trazado_6603" data-name="Trazado 6603" d="M1021.563,752.447a.421.421,0,0,1-.125-.02,36.484,36.484,0,0,0-11.584-1.885.4.4,0,0,1-.4-.4V734.992a.4.4,0,0,1,.4-.4h15.883a.4.4,0,0,1,.4.4,36.934,36.934,0,0,1-4.219,17.243.4.4,0,0,1-.351.212m-11.316-2.693a37.313,37.313,0,0,1,11.12,1.817,36.117,36.117,0,0,0,3.972-16.185h-15.092Z" transform="translate(-329.527 -223.199)" fill="#fff"/>
    <path id="Trazado_6604" data-name="Trazado 6604" d="M983.567,697.376a.382.382,0,0,1-.125-.02,37.206,37.206,0,0,1-9.478-4.755.392.392,0,0,1-.168-.292.4.4,0,0,1,.119-.317,30.567,30.567,0,0,1,21.279-8.658h0a.4.4,0,0,1,.227.719,36.848,36.848,0,0,0-11.5,13.111.393.393,0,0,1-.35.212m-8.753-5.15a36.394,36.394,0,0,0,8.56,4.273,37.652,37.652,0,0,1,10.563-12.345,29.76,29.76,0,0,0-19.123,8.072" transform="translate(-314.953 -202.25)" fill="#fff"/>
    <path id="Trazado_6605" data-name="Trazado 6605" d="M1009.88,684.083h-.051l-.048-.244-.054.079-.017.165a.395.395,0,0,1-.232-.715l.232.261V683.6l-.152-.294a.4.4,0,0,1,.469,0l.073.051a.4.4,0,0,1-.219.724" transform="translate(-329.469 -202.208)" fill="#fff"/>
    <path id="Trazado_6606" data-name="Trazado 6606" d="M1001.759,699.286a37.36,37.36,0,0,1-11.838-1.925.394.394,0,0,1-.226-.556,37.652,37.652,0,0,1,11.75-13.392.476.476,0,0,1,.707.321v15.157a.394.394,0,0,1-.394.4m-11.143-2.529a36.543,36.543,0,0,0,10.747,1.736V684.442a36.867,36.867,0,0,0-10.747,12.315" transform="translate(-321.433 -202.255)" fill="#fff"/>
    <path id="Trazado_6607" data-name="Trazado 6607" d="M1009.853,699.28a.4.4,0,0,1-.4-.4V683.727a.4.4,0,0,1,.4-.4.691.691,0,0,1,.312.074,37.675,37.675,0,0,1,11.751,13.392.392.392,0,0,1,.016.331.4.4,0,0,1-.241.226,37.4,37.4,0,0,1-11.838,1.925m.394-14.844v14.051A36.559,36.559,0,0,0,1021,696.75a36.908,36.908,0,0,0-10.749-12.315" transform="translate(-329.527 -202.25)" fill="#fff"/>
    <path id="Trazado_6608" data-name="Trazado 6608" d="M1009.994,777.489a.395.395,0,0,1-.228-.718,36.893,36.893,0,0,0,11.5-13.112.394.394,0,0,1,.476-.191,37.311,37.311,0,0,1,9.48,4.751.4.4,0,0,1,.17.293.39.39,0,0,1-.12.316,30.549,30.549,0,0,1-21.281,8.661Zm11.82-13.165a37.7,37.7,0,0,1-10.563,12.344,29.745,29.745,0,0,0,19.125-8.073,36.556,36.556,0,0,0-8.562-4.271" transform="translate(-329.585 -234.989)" fill="#fff"/>
    <path id="Trazado_6609" data-name="Trazado 6609" d="M995.194,777.488h0a30.542,30.542,0,0,1-21.279-8.661.4.4,0,0,1,.05-.609,37.276,37.276,0,0,1,9.478-4.751.393.393,0,0,1,.475.191,36.885,36.885,0,0,0,11.5,13.112.4.4,0,0,1-.227.718m-20.38-8.9a29.729,29.729,0,0,0,19.123,8.075,37.628,37.628,0,0,1-10.562-12.344,36.582,36.582,0,0,0-8.561,4.27" transform="translate(-314.953 -234.989)" fill="#fff"/>
    <path id="Trazado_6610" data-name="Trazado 6610" d="M1009.808,786.7a.409.409,0,0,1-.224-.069l-.054-.039a.424.424,0,0,1-.167-.454.387.387,0,0,1,.36-.288h.169a.395.395,0,0,1,.225.719l-.077.056a.4.4,0,0,1-.231.075" transform="translate(-329.482 -244.147)" fill="#fff"/>
    <path id="Trazado_6611" data-name="Trazado 6611" d="M1001.759,776.172h-.049a.542.542,0,0,1-.265-.072,37.667,37.667,0,0,1-11.75-13.392.4.4,0,0,1-.016-.331.4.4,0,0,1,.242-.225,37.29,37.29,0,0,1,11.838-1.926.4.4,0,0,1,.394.4v15.157a.393.393,0,0,1-.394.394m-11.143-13.416a36.883,36.883,0,0,0,10.747,12.314V761.018a36.492,36.492,0,0,0-10.747,1.737" transform="translate(-321.433 -233.673)" fill="#fff"/>
    <path id="Trazado_6612" data-name="Trazado 6612" d="M1009.937,776.172c-.219,0-.48-.176-.48-.394V760.62a.4.4,0,0,1,.4-.4,37.306,37.306,0,0,1,11.835,1.926.391.391,0,0,1,.241.226.4.4,0,0,1-.016.332,37.663,37.663,0,0,1-11.751,13.391.4.4,0,0,1-.226.072m.31-15.154v14.05a36.9,36.9,0,0,0,10.747-12.312,36.477,36.477,0,0,0-10.747-1.737" transform="translate(-329.527 -233.673)" fill="#fff"/>
    <g id="Grupo_8730" data-name="Grupo 8730" transform="translate(678.439 509.457)">
      <g id="Grupo_8729" data-name="Grupo 8729" clip-path="url(#clip-path-2)">
        <rect id="Rectángulo_5518" data-name="Rectángulo 5518" width="34.429" height="32.898" transform="translate(-1.531 0)" fill="url(#radial-gradient-2)"/>
      </g>
    </g>
    <path id="Trazado_6614" data-name="Trazado 6614" d="M1022.349,762.807a16.078,16.078,0,1,1,11.372-4.709,15.974,15.974,0,0,1-11.372,4.709m0-31.367a15.289,15.289,0,1,0,10.813,4.478,15.192,15.192,0,0,0-10.813-4.478" transform="translate(-328.228 -221.586)"/>
    <line id="Línea_1070" data-name="Línea 1070" x2="5.56" y2="5.56" transform="translate(705.213 536.23)" fill="#fff"/>
    <path id="Trazado_6615" data-name="Trazado 6615" d="M1057.5,782.275a.392.392,0,0,1-.28-.115l-5.56-5.561a.4.4,0,0,1,.559-.558l5.56,5.56a.4.4,0,0,1,0,.559.392.392,0,0,1-.28.115" transform="translate(-346.726 -240.089)"/>
    <path id="Trazado_6616" data-name="Trazado 6616" d="M1074.242,802.576a3.928,3.928,0,0,1-2.795-1.158l-11.105-11.1a3.952,3.952,0,0,1,5.589-5.59l11.1,11.105a3.952,3.952,0,0,1-2.793,6.747m-11.106-18.22a3.162,3.162,0,0,0-2.235,5.4l11.1,11.1a3.238,3.238,0,0,0,4.472,0,3.164,3.164,0,0,0,0-4.469l-11.107-11.107a3.139,3.139,0,0,0-2.235-.927" transform="translate(-349.849 -243.211)"/>
    <path id="Trazado_6617" data-name="Trazado 6617" d="M1018.79,760.35a11.5,11.5,0,0,1,0-16.256" transform="translate(-331.965 -227.081)" fill="none" stroke="#fff" stroke-miterlimit="10" stroke-width="1"/>
    <path id="Trazado_6618" data-name="Trazado 6618" d="M1018.517,760.471a.391.391,0,0,1-.278-.114,11.891,11.891,0,0,1,0-16.817.4.4,0,0,1,.559.559,11.1,11.1,0,0,0,0,15.7.394.394,0,0,1-.281.674" transform="translate(-331.693 -226.807)" fill="#154b8a"/>
    <path id="Trazado_6619" data-name="Trazado 6619" d="M1044.243,743.254a11.546,11.546,0,0,1,3.673,4.508" transform="translate(-343.743 -226.738)" fill="#fff"/>
    <path id="Trazado_6620" data-name="Trazado 6620" d="M1047.643,747.885a.4.4,0,0,1-.36-.231,11.143,11.143,0,0,0-3.546-4.352.395.395,0,1,1,.465-.637,11.944,11.944,0,0,1,3.8,4.661.4.4,0,0,1-.2.525.411.411,0,0,1-.164.035" transform="translate(-343.47 -226.465)" fill="#154b8a"/>
  </g>
</svg>
