<svg xmlns="http://www.w3.org/2000/svg" xmlns:xlink="http://www.w3.org/1999/xlink" width="309.699" height="280.81" viewBox="0 0 309.699 280.81">
  <defs>
    <clipPath id="clip-path">
      <path id="Trazado_6340" data-name="Trazado 6340" d="M213.373,58.782a97.232,97.232,0,0,0-38.759,15.236A96.808,96.808,0,1,0,291.237,80.53a97.616,97.616,0,0,0-8.645-6.511q-2.706-1.816-5.57-3.478a96.546,96.546,0,0,0-63.649-11.759" transform="translate(-131.799 -57.562)" fill="none"/>
    </clipPath>
    <radialGradient id="radial-gradient" cx="0.507" cy="0.467" r="0.467" gradientTransform="matrix(0.951, 0, 0, -1, -0.015, 5.853)" gradientUnits="objectBoundingBox">
      <stop offset="0" stop-color="#8cbb69"/>
      <stop offset="0.784" stop-color="#6bad44"/>
      <stop offset="1" stop-color="#6bad44"/>
    </radialGradient>
    <clipPath id="clip-path-2">
      <path id="Trazado_6355" data-name="Trazado 6355" d="M173.712,48.1,158.7,59.188a4.384,4.384,0,0,0-.917,6.129l3.474,4.7a4.382,4.382,0,0,0,6.128.92L182.4,59.841a4.383,4.383,0,0,0,.916-6.13l-3.472-4.7a4.381,4.381,0,0,0-6.128-.918" transform="translate(-156.929 -47.238)" fill="none"/>
    </clipPath>
    <radialGradient id="radial-gradient-2" cx="0.5" cy="0.488" r="0.516" gradientTransform="matrix(0.885, 0, 0, -1, -0.374, 48.778)" xlink:href="#radial-gradient"/>
    <clipPath id="clip-path-3">
      <path id="Trazado_6357" data-name="Trazado 6357" d="M392.342,49.015l-3.475,4.7a4.383,4.383,0,0,0,.922,6.13l15,11.092a4.384,4.384,0,0,0,6.129-.92l3.472-4.7a4.383,4.383,0,0,0-.92-6.129l-15-11.091a4.381,4.381,0,0,0-6.128.918" transform="translate(-388.009 -47.238)" fill="none"/>
    </clipPath>
    <radialGradient id="radial-gradient-3" cx="0.5" cy="0.488" r="0.516" gradientTransform="matrix(0.885, 0, 0, -1, -0.927, 48.778)" xlink:href="#radial-gradient"/>
  </defs>
  <g id="Grupo_8733" data-name="Grupo 8733" transform="translate(-83 -85.004)">
    <g id="Grupo_8662" data-name="Grupo 8662" transform="translate(160.938 111.041)">
      <g id="Grupo_8661" data-name="Grupo 8661" clip-path="url(#clip-path)">
        <rect id="Rectángulo_5455" data-name="Rectángulo 5455" width="218.178" height="207.378" transform="translate(-13.746 0)" fill="url(#radial-gradient)"/>
      </g>
    </g>
    <path id="Trazado_6341" data-name="Trazado 6341" d="M227.929,251.459h0A97.646,97.646,0,0,1,173.543,72.738,97.94,97.94,0,0,1,243.4,57.346,97.241,97.241,0,0,1,276.843,69.23c1.862,1.076,3.751,2.256,5.619,3.507a98.882,98.882,0,0,1,8.72,6.569,97.673,97.673,0,0,1-63.252,172.154M228.1,57.826a95.842,95.842,0,0,0-83.191,47.989,95.986,95.986,0,0,0,83.011,143.956,95.913,95.913,0,0,0,53.6-175.631c-1.836-1.231-3.695-2.391-5.523-3.447A95.522,95.522,0,0,0,228.1,57.826" transform="translate(29.74 54.058)"/>
    <path id="Trazado_6342" data-name="Trazado 6342" d="M309.8,205.676a81.6,81.6,0,1,1-29.87-111.47,81.6,81.6,0,0,1,29.87,111.47" transform="translate(18.631 42.977)" fill="#f1f1f1"/>
    <path id="Trazado_6343" data-name="Trazado 6343" d="M238.451,246.755a82.467,82.467,0,1,1,71.478-41.24,82.422,82.422,0,0,1-71.478,41.24m.154-163.235a81.054,81.054,0,0,0-70.014,40.393,80.779,80.779,0,0,0,69.861,121.153,81.059,81.059,0,0,0,70.016-40.4A80.781,80.781,0,0,0,238.605,83.52" transform="translate(19.23 43.561)"/>
    <path id="Trazado_6344" data-name="Trazado 6344" d="M305.108,199.852A31.006,31.006,0,1,1,274.1,168.845a31.006,31.006,0,0,1,31.006,31.007" transform="translate(-16.344 8.002)" fill="#154b8a"/>
    <path id="Trazado_6345" data-name="Trazado 6345" d="M273.518,231.121a31.851,31.851,0,1,1,31.85-31.851,31.886,31.886,0,0,1-31.85,31.851m0-62.014a30.163,30.163,0,1,0,30.162,30.163,30.2,30.2,0,0,0-30.162-30.163" transform="translate(-15.76 8.584)"/>
    <path id="Trazado_6346" data-name="Trazado 6346" d="M307.57,196.376l-13.9,11.486,2.164,6.851,17.971,1.419-10.069-7.683Z" transform="translate(-37.013 -3.249)" fill="#e7e6e6"/>
    <path id="Trazado_6347" data-name="Trazado 6347" d="M313.226,216.393l-.066,0-17.973-1.419a.844.844,0,0,1-.738-.588l-2.163-6.851a.841.841,0,0,1,.267-.9l13.9-11.486a.844.844,0,0,1,1.342.907l-3.65,11.506,9.6,7.323a.845.845,0,0,1-.513,1.516m-17.337-3.06,14.547,1.148-7.79-5.945a.844.844,0,0,1-.293-.927l2.963-9.34-11.248,9.3Z" transform="translate(-36.43 -2.666)"/>
    <path id="Trazado_6350" data-name="Trazado 6350" d="M296.013,225.31a.844.844,0,0,1-.8-.589l-7.072-22.377a.844.844,0,1,1,1.61-.51l7.071,22.377a.843.843,0,0,1-.8,1.1" transform="translate(-34.734 -5.238)"/>
    <path id="Trazado_6351" data-name="Trazado 6351" d="M275.171,225.7a.844.844,0,0,1-.246-1.652l8.691-2.651a.844.844,0,0,1,.493,1.614l-8.69,2.651a.839.839,0,0,1-.247.037" transform="translate(-29.107 -13.46)"/>
    <path id="Trazado_6352" data-name="Trazado 6352" d="M300.241,51.442V39.655H269.748V51.464a96.752,96.752,0,0,1,30.493-.022" transform="translate(-27.236 60.797)" fill="#6e6e71"/>
    <path id="Trazado_6353" data-name="Trazado 6353" d="M269.165,51.725a.845.845,0,0,1-.844-.844V39.071a.844.844,0,0,1,.844-.844h30.494a.844.844,0,0,1,.844.844V50.859a.843.843,0,0,1-.977.833,96.454,96.454,0,0,0-30.227.022.841.841,0,0,1-.133.011m.844-11.809V49.9a98.112,98.112,0,0,1,28.8-.022V39.916Z" transform="translate(-26.653 61.38)"/>
    <path id="Rectángulo_5456" data-name="Rectángulo 5456" d="M7.3,0H64.507a7.3,7.3,0,0,1,7.3,7.3v0a7.3,7.3,0,0,1-7.3,7.3H7.3A7.3,7.3,0,0,1,0,7.3v0A7.3,7.3,0,0,1,7.3,0Z" transform="translate(221.837 85.848)" fill="#154b8a"/>
    <path id="Trazado_6354" data-name="Trazado 6354" d="M301.629,29.824H238.583a5.232,5.232,0,0,1-5.226-5.226V18.758a5.232,5.232,0,0,1,5.226-5.226h63.045a5.231,5.231,0,0,1,5.226,5.226V24.6a5.232,5.232,0,0,1-5.226,5.226m-63.045-14.6a3.541,3.541,0,0,0-3.537,3.537V24.6a3.54,3.54,0,0,0,3.537,3.537h63.045a3.541,3.541,0,0,0,3.538-3.537V18.758a3.542,3.542,0,0,0-3.538-3.537Z" transform="translate(-12.364 71.472)"/>
    <g id="Grupo_8666" data-name="Grupo 8666" transform="translate(175.798 104.936)">
      <g id="Grupo_8665" data-name="Grupo 8665" clip-path="url(#clip-path-2)">
        <rect id="Rectángulo_5458" data-name="Rectángulo 5458" width="28.402" height="25.134" transform="translate(-0.58 0)" fill="url(#radial-gradient-2)"/>
      </g>
    </g>
    <path id="Trazado_6356" data-name="Trazado 6356" d="M164.209,72.087A5.254,5.254,0,0,1,160,69.967l-3.472-4.7a5.235,5.235,0,0,1,1.093-7.308l15.008-11.092a5.368,5.368,0,0,1,7.31,1.1l3.472,4.7a5.232,5.232,0,0,1-1.093,7.31L167.31,71.064a5.181,5.181,0,0,1-3.1,1.023m11.525-24.553a3.512,3.512,0,0,0-2.1.693L158.626,59.318a3.544,3.544,0,0,0-.74,4.947l3.473,4.7a3.611,3.611,0,0,0,4.947.743l15.007-11.093a3.542,3.542,0,0,0,.739-4.948l-3.472-4.7a3.5,3.5,0,0,0-2.846-1.435" transform="translate(19.45 58.246)"/>
    <g id="Grupo_8670" data-name="Grupo 8670" transform="translate(312.445 104.936)">
      <g id="Grupo_8669" data-name="Grupo 8669" clip-path="url(#clip-path-3)">
        <rect id="Rectángulo_5460" data-name="Rectángulo 5460" width="28.401" height="25.134" transform="translate(-0.579 0)" fill="url(#radial-gradient-3)"/>
      </g>
    </g>
    <path id="Trazado_6358" data-name="Trazado 6358" d="M406.806,72.088h0a5.18,5.18,0,0,1-3.1-1.023l-15-11.093a5.226,5.226,0,0,1-1.1-7.309l3.475-4.7a5.37,5.37,0,0,1,7.308-1.1l15,11.092a5.232,5.232,0,0,1,1.1,7.308l-3.471,4.7a5.26,5.26,0,0,1-4.21,2.12M395.283,47.535a3.5,3.5,0,0,0-2.846,1.433l-3.475,4.7a3.537,3.537,0,0,0,.745,4.948l15,11.093a3.54,3.54,0,0,0,4.948-.743l3.471-4.7a3.541,3.541,0,0,0-.74-4.947l-15-11.092a3.512,3.512,0,0,0-2.1-.692" transform="translate(-74.981 58.245)"/>
    <path id="Trazado_6359" data-name="Trazado 6359" d="M188.649,72.491l-8.7,6.431,5.71,7.72a96.164,96.164,0,0,1,8.632-6.524Z" transform="translate(9.462 47.378)" fill="#6e6e71"/>
    <path id="Trazado_6360" data-name="Trazado 6360" d="M185.075,86.9a.918.918,0,0,1-.1-.006.845.845,0,0,1-.581-.336l-5.709-7.719a.843.843,0,0,1,.177-1.181l8.7-6.431a.842.842,0,0,1,1.18.177l5.642,7.627a.843.843,0,0,1-.209,1.2,95.938,95.938,0,0,0-8.557,6.466.845.845,0,0,1-.546.2m-4.528-8.387,4.673,6.318c2.335-1.943,4.778-3.789,7.286-5.5l-4.617-6.242Z" transform="translate(10.045 47.962)"/>
    <path id="Trazado_6361" data-name="Trazado 6361" d="M401.146,78.922l-8.7-6.431L386.8,80.119a97.645,97.645,0,0,1,8.645,6.511Z" transform="translate(-75.072 47.378)" fill="#6e6e71"/>
    <path id="Trazado_6362" data-name="Trazado 6362" d="M394.864,86.891a.843.843,0,0,1-.545-.2,97.042,97.042,0,0,0-8.57-6.455.843.843,0,0,1-.209-1.2l5.644-7.627a.842.842,0,0,1,1.18-.177l8.7,6.431a.844.844,0,0,1,.177,1.181l-5.7,7.707a.847.847,0,0,1-.581.336.907.907,0,0,1-.1.006m-7.443-7.563c2.52,1.722,4.968,3.566,7.3,5.5l4.665-6.308-7.343-5.428Z" transform="translate(-74.488 47.962)"/>
    <path id="Trazado_6363" data-name="Trazado 6363" d="M296.189,111.037a2.131,2.131,0,0,1-4.263,0V96.231a2.131,2.131,0,1,1,4.263,0Z" transform="translate(-36.299 38.548)" fill="#6e6e71"/>
    <path id="Trazado_6364" data-name="Trazado 6364" d="M293.474,113.429a2.979,2.979,0,0,1-2.976-2.975V95.648a2.976,2.976,0,1,1,5.951,0v14.806a2.978,2.978,0,0,1-2.975,2.975m0-19.068a1.29,1.29,0,0,0-1.287,1.287v14.806a1.287,1.287,0,1,0,2.574,0V95.648a1.289,1.289,0,0,0-1.287-1.287" transform="translate(-35.716 39.131)"/>
    <path id="Trazado_6365" data-name="Trazado 6365" d="M241.516,124.545a2.13,2.13,0,1,1-3.689,2.131l-7.4-12.822a2.131,2.131,0,1,1,3.69-2.132Z" transform="translate(-11.048 31.781)" fill="#6e6e71"/>
    <path id="Trazado_6366" data-name="Trazado 6366" d="M239.088,128.02a2.979,2.979,0,0,1-2.576-1.49l-7.4-12.821a2.971,2.971,0,0,1,1.09-4.065,3.056,3.056,0,0,1,4.063,1.09l7.4,12.821a2.977,2.977,0,0,1-2.575,4.464m-7.406-17.086a1.3,1.3,0,0,0-.643.173,1.284,1.284,0,0,0-.47,1.757l7.4,12.822a1.318,1.318,0,0,0,1.757.471,1.288,1.288,0,0,0,.469-1.757l-7.4-12.822a1.291,1.291,0,0,0-1.115-.643" transform="translate(-10.463 32.348)"/>
    <path id="Trazado_6367" data-name="Trazado 6367" d="M200.923,163.579a2.13,2.13,0,1,1-2.128,3.691l-12.823-7.4a2.131,2.131,0,1,1,2.131-3.692Z" transform="translate(7.436 13.296)" fill="#6e6e71"/>
    <path id="Trazado_6368" data-name="Trazado 6368" d="M199.273,167.834a2.969,2.969,0,0,1-1.484-.4l-12.822-7.4a2.976,2.976,0,0,1-1.089-4.067,3.063,3.063,0,0,1,4.065-1.086l12.818,7.4a2.975,2.975,0,0,1-1.488,5.553m-12.816-11.666a1.287,1.287,0,0,0-.646,2.4l12.824,7.4a1.313,1.313,0,0,0,1.757-.472,1.289,1.289,0,0,0-.474-1.756l-12.82-7.4a1.291,1.291,0,0,0-.641-.172" transform="translate(8.02 13.862)"/>
    <path id="Trazado_6369" data-name="Trazado 6369" d="M185.284,217.68a2.13,2.13,0,1,1,0,4.261l-14.807,0a2.131,2.131,0,1,1,0-4.262Z" transform="translate(14.203 -11.955)" fill="#6e6e71"/>
    <path id="Trazado_6370" data-name="Trazado 6370" d="M169.9,222.2h0a2.976,2.976,0,1,1,0-5.951h14.8a2.975,2.975,0,1,1,0,5.95Zm0-4.263a1.287,1.287,0,1,0,0,2.575l14.807,0a1.286,1.286,0,1,0,0-2.573Z" transform="translate(14.786 -11.372)"/>
    <path id="Trazado_6371" data-name="Trazado 6371" d="M198.8,267.232a2.132,2.132,0,0,1,2.131,3.692l-12.823,7.4a2.132,2.132,0,0,1-2.132-3.692Z" transform="translate(7.436 -32.089)" fill="#6e6e71"/>
    <path id="Trazado_6372" data-name="Trazado 6372" d="M186.457,278.892a2.986,2.986,0,0,1-2.58-1.49,2.975,2.975,0,0,1,1.089-4.063l12.823-7.4a3.061,3.061,0,0,1,4.062,1.087,2.987,2.987,0,0,1-1.086,4.067l-12.823,7.4a2.979,2.979,0,0,1-1.485.4m12.817-11.667a1.275,1.275,0,0,0-.639.172l-12.825,7.4a1.284,1.284,0,0,0-.47,1.756,1.322,1.322,0,0,0,1.757.474l12.823-7.4a1.287,1.287,0,0,0-.646-2.4" transform="translate(8.02 -31.523)"/>
    <path id="Trazado_6373" data-name="Trazado 6373" d="M237.829,304.08a2.131,2.131,0,0,1,3.691,2.131l-7.4,12.824a2.131,2.131,0,0,1-3.692-2.13Z" transform="translate(-11.049 -46.828)" fill="#6e6e71"/>
    <path id="Trazado_6374" data-name="Trazado 6374" d="M231.688,320.377a2.976,2.976,0,0,1-2.578-4.463l7.4-12.824A3.052,3.052,0,0,1,240.579,302a2.982,2.982,0,0,1,1.089,4.064l-7.4,12.824a2.985,2.985,0,0,1-2.578,1.488m7.4-17.087a1.293,1.293,0,0,0-1.115.643l-7.4,12.824a1.29,1.29,0,0,0,.474,1.757,1.321,1.321,0,0,0,1.756-.47l7.4-12.824a1.286,1.286,0,0,0-1.113-1.931" transform="translate(-10.467 -46.26)"/>
    <path id="Trazado_6375" data-name="Trazado 6375" d="M291.93,318.347a2.13,2.13,0,1,1,4.261,0l0,14.806a2.131,2.131,0,1,1-4.263,0Z" transform="translate(-36.301 -52.223)" fill="#6e6e71"/>
    <path id="Trazado_6376" data-name="Trazado 6376" d="M293.477,335.546h0a2.981,2.981,0,0,1-2.974-2.976V317.764a2.974,2.974,0,1,1,5.949,0l0,14.806a2.982,2.982,0,0,1-2.976,2.976m0-19.069a1.29,1.29,0,0,0-1.286,1.287V332.57a1.287,1.287,0,1,0,2.574,0V317.764a1.29,1.29,0,0,0-1.287-1.287" transform="translate(-35.717 -51.64)"/>
    <path id="Trazado_6377" data-name="Trazado 6377" d="M341.483,306.21a2.131,2.131,0,0,1,3.691-2.131l7.4,12.821a2.131,2.131,0,1,1-3.691,2.131Z" transform="translate(-56.435 -46.828)" fill="#6e6e71"/>
    <path id="Trazado_6378" data-name="Trazado 6378" d="M350.151,320.375a2.984,2.984,0,0,1-2.579-1.489l-7.4-12.821a2.976,2.976,0,0,1,1.09-4.064,3.054,3.054,0,0,1,4.063,1.09l7.4,12.821a2.974,2.974,0,0,1-2.575,4.463m-7.409-17.085a1.3,1.3,0,0,0-.64.172,1.286,1.286,0,0,0-.471,1.76l7.4,12.82a1.317,1.317,0,0,0,1.757.471,1.29,1.29,0,0,0,.471-1.757l-7.405-12.822a1.293,1.293,0,0,0-1.117-.645" transform="translate(-55.851 -46.261)"/>
    <path id="Trazado_6379" data-name="Trazado 6379" d="M378.332,270.921a2.131,2.131,0,0,1,2.13-3.691l12.824,7.4a2.131,2.131,0,1,1-2.132,3.692Z" transform="translate(-71.175 -32.088)" fill="#6e6e71"/>
    <path id="Trazado_6380" data-name="Trazado 6380" d="M391.633,278.888a2.98,2.98,0,0,1-1.485-.4l-12.821-7.4a2.972,2.972,0,0,1-1.089-4.062,3.056,3.056,0,0,1,4.063-1.09l12.824,7.4a2.975,2.975,0,0,1-1.492,5.553m-12.817-11.666a1.3,1.3,0,0,0-1.117.644,1.286,1.286,0,0,0,.47,1.756l12.824,7.4a1.321,1.321,0,0,0,1.76-.473,1.291,1.291,0,0,0-.472-1.756l-12.826-7.4a1.274,1.274,0,0,0-.639-.173" transform="translate(-70.591 -31.521)"/>
    <path id="Trazado_6381" data-name="Trazado 6381" d="M392.6,221.935a2.13,2.13,0,1,1,0-4.261l14.805,0a2.132,2.132,0,0,1,0,4.264Z" transform="translate(-76.569 -11.952)" fill="#6e6e71"/>
    <path id="Trazado_6382" data-name="Trazado 6382" d="M406.819,222.2H392.014a2.973,2.973,0,0,1-2.975-2.974,2.979,2.979,0,0,1,2.975-2.976h14.805a2.976,2.976,0,0,1,0,5.951m0-4.263H392.014a1.286,1.286,0,1,0,0,2.572h14.81a1.287,1.287,0,0,0,0-2.574" transform="translate(-75.986 -11.37)"/>
    <path id="Trazado_6383" data-name="Trazado 6383" d="M380.462,167.266a2.131,2.131,0,0,1-2.13-3.691l12.819-7.4a2.132,2.132,0,0,1,2.132,3.692Z" transform="translate(-71.175 13.298)" fill="#6e6e71"/>
    <path id="Trazado_6384" data-name="Trazado 6384" d="M378.817,167.83a2.976,2.976,0,0,1-1.488-5.553l12.817-7.4a3.058,3.058,0,0,1,4.065,1.09,2.981,2.981,0,0,1-1.088,4.066l-12.822,7.4a2.975,2.975,0,0,1-1.484.4m12.815-11.667a1.289,1.289,0,0,0-.642.173l-12.818,7.4a1.289,1.289,0,0,0-.471,1.759,1.315,1.315,0,0,0,1.755.471l12.824-7.4a1.288,1.288,0,0,0-.647-2.4" transform="translate(-70.592 13.865)"/>
    <path id="Trazado_6385" data-name="Trazado 6385" d="M345.174,126.673a2.131,2.131,0,0,1-3.691-2.131l7.4-12.822a2.132,2.132,0,0,1,3.693,2.132Z" transform="translate(-56.435 31.781)" fill="#6e6e71"/>
    <path id="Trazado_6386" data-name="Trazado 6386" d="M342.742,128.017a2.975,2.975,0,0,1-2.575-4.462l7.4-12.824a3.064,3.064,0,0,1,4.064-1.089,2.98,2.98,0,0,1,1.091,4.065l-7.4,12.822a2.986,2.986,0,0,1-2.579,1.488m7.4-17.084a1.292,1.292,0,0,0-1.115.642l-7.4,12.823a1.284,1.284,0,0,0,.469,1.756,1.311,1.311,0,0,0,1.759-.471l7.4-12.82a1.288,1.288,0,0,0-1.115-1.931" transform="translate(-55.85 32.348)"/>
    <path id="Trazado_6387" data-name="Trazado 6387" d="M310.186,189.719a.844.844,0,0,1-.253-1.649l125.084-39.519a.844.844,0,1,1,.508,1.61L310.44,189.68a.843.843,0,0,1-.254.039" transform="translate(-43.416 16.311)"/>
    <rect id="Rectángulo_5461" data-name="Rectángulo 5461" width="115.07" height="158.311" transform="translate(105.331 206.697)" fill="#154b8a"/>
    <path id="Trazado_6388" data-name="Trazado 6388" d="M152.275,377.884H37.206a.807.807,0,0,1-.808-.807V218.767a.807.807,0,0,1,.808-.806H152.275a.806.806,0,0,1,.807.806V377.078a.807.807,0,0,1-.807.807M38.012,376.272H151.469v-156.7H38.012Z" transform="translate(68.125 -12.07)" fill="#231f20"/>
    <rect id="Rectángulo_5462" data-name="Rectángulo 5462" width="97.769" height="141.006" transform="translate(113.98 215.349)" fill="#fff"/>
    <path id="Trazado_6389" data-name="Trazado 6389" d="M149.6,375.213H51.834a.808.808,0,0,1-.807-.808V233.4a.806.806,0,0,1,.807-.806H149.6a.807.807,0,0,1,.808.806V374.405a.808.808,0,0,1-.808.808M52.641,373.6H148.8V234.206H52.641Z" transform="translate(62.147 -18.05)" fill="#231f20"/>
    <rect id="Rectángulo_5463" data-name="Rectángulo 5463" width="45.649" height="20.477" transform="translate(140.042 201.075)" fill="#fff"/>
    <path id="Trazado_6390" data-name="Trazado 6390" d="M141.555,230.543H95.906a.806.806,0,0,1-.807-.807V209.261a.806.806,0,0,1,.807-.807h45.65a.806.806,0,0,1,.807.807v20.476a.806.806,0,0,1-.807.807M96.713,228.93h44.036V210.067H96.713Z" transform="translate(44.137 -8.185)" fill="#231f20"/>
    <rect id="Rectángulo_5464" data-name="Rectángulo 5464" width="10.38" height="9.228" transform="translate(157.677 191.845)" fill="#fff"/>
    <path id="Trazado_6391" data-name="Trazado 6391" d="M136.108,203.686h-10.38a.805.805,0,0,1-.806-.806v-9.228a.805.805,0,0,1,.806-.806h10.38a.806.806,0,0,1,.807.806v9.228a.806.806,0,0,1-.807.806m-9.574-1.614H135.3v-7.614h-8.767Z" transform="translate(31.949 -1.806)" fill="#231f20"/>
    <path id="Trazado_6392" data-name="Trazado 6392" d="M90.754,269.469a12.7,12.7,0,1,1-12.7-12.7,12.7,12.7,0,0,1,12.7,12.7" transform="translate(56.292 -27.93)" fill="#fff"/>
    <path id="Trazado_6393" data-name="Trazado 6393" d="M77.5,282.414A13.5,13.5,0,1,1,91,268.912a13.518,13.518,0,0,1-13.508,13.5m0-25.394a11.891,11.891,0,1,0,11.894,11.892A11.9,11.9,0,0,0,77.5,257.02" transform="translate(56.849 -27.372)" fill="#231f20"/>
    <path id="Trazado_6394" data-name="Trazado 6394" d="M90.754,327.749a12.7,12.7,0,1,1-12.7-12.7,12.7,12.7,0,0,1,12.7,12.7" transform="translate(56.292 -51.748)" fill="#fff"/>
    <path id="Trazado_6395" data-name="Trazado 6395" d="M77.5,340.7A13.5,13.5,0,1,1,91,327.191,13.52,13.52,0,0,1,77.5,340.7m0-25.394a11.891,11.891,0,1,0,11.894,11.889A11.9,11.9,0,0,0,77.5,315.3" transform="translate(56.849 -51.19)" fill="#231f20"/>
    <line id="Línea_1034" data-name="Línea 1034" x2="81.104" transform="translate(121.647 300.091)" fill="#fff"/>
    <path id="Trazado_6396" data-name="Trazado 6396" d="M145.9,377.51H64.8a.806.806,0,1,1,0-1.613h81.1a.806.806,0,0,1,0,1.613" transform="translate(56.849 -76.613)" fill="#231f20"/>
    <line id="Línea_1035" data-name="Línea 1035" x2="81.104" transform="translate(121.647 313.073)" fill="#fff"/>
    <path id="Trazado_6397" data-name="Trazado 6397" d="M145.9,399.463H64.8a.807.807,0,0,1,0-1.613h81.1a.807.807,0,0,1,0,1.613" transform="translate(56.849 -85.584)" fill="#231f20"/>
    <line id="Línea_1036" data-name="Línea 1036" x2="49.575" transform="translate(152.797 235.046)" fill="#fff"/>
    <path id="Trazado_6398" data-name="Trazado 6398" d="M167.051,267.513H117.476a.807.807,0,0,1,0-1.613h49.575a.807.807,0,0,1,0,1.613" transform="translate(35.321 -31.661)" fill="#231f20"/>
    <line id="Línea_1037" data-name="Línea 1037" x2="49.575" transform="translate(152.797 248.031)" fill="#fff"/>
    <path id="Trazado_6399" data-name="Trazado 6399" d="M167.051,289.471H117.476a.807.807,0,0,1,0-1.613h49.575a.807.807,0,0,1,0,1.613" transform="translate(35.321 -40.634)" fill="#231f20"/>
    <line id="Línea_1038" data-name="Línea 1038" x2="49.575" transform="translate(152.797 269.509)" fill="#fff"/>
    <path id="Trazado_6400" data-name="Trazado 6400" d="M167.051,325.792H117.476a.807.807,0,0,1,0-1.613h49.575a.807.807,0,0,1,0,1.613" transform="translate(35.321 -55.477)" fill="#231f20"/>
    <line id="Línea_1039" data-name="Línea 1039" x2="49.575" transform="translate(152.797 282.493)" fill="#fff"/>
    <path id="Trazado_6401" data-name="Trazado 6401" d="M167.051,347.75H117.476a.806.806,0,0,1,0-1.612h49.575a.806.806,0,0,1,0,1.612" transform="translate(35.321 -64.451)" fill="#231f20"/>
    <line id="Línea_1040" data-name="Línea 1040" x2="81.104" transform="translate(121.647 326.058)" fill="#fff"/>
    <path id="Trazado_6402" data-name="Trazado 6402" d="M145.9,421.422H64.8a.806.806,0,1,1,0-1.613h81.1a.806.806,0,0,1,0,1.613" transform="translate(56.849 -94.558)" fill="#231f20"/>
    <line id="Línea_1041" data-name="Línea 1041" x2="55.527" transform="translate(121.647 339.041)" fill="#fff"/>
    <path id="Trazado_6403" data-name="Trazado 6403" d="M120.325,443.377H64.8a.807.807,0,0,1,0-1.613h55.527a.807.807,0,0,1,0,1.613" transform="translate(56.849 -103.53)" fill="#231f20"/>
    <path id="Trazado_6404" data-name="Trazado 6404" d="M72.762,275.634l5.709,5.708L89.4,270.413" transform="translate(53.265 -33.505)" fill="#fff"/>
    <path id="Trazado_6405" data-name="Trazado 6405" d="M77.914,281.592a.8.8,0,0,1-.571-.237l-5.708-5.708a.806.806,0,0,1,1.14-1.14l5.138,5.137,10.361-10.358a.806.806,0,0,1,1.14,1.141l-10.93,10.929a.806.806,0,0,1-.571.237" transform="translate(53.822 -32.948)" fill="#231f20"/>
    <path id="Trazado_6406" data-name="Trazado 6406" d="M72.762,333.4,78.47,339.1,89.4,328.176" transform="translate(53.265 -57.111)" fill="#fff"/>
    <path id="Trazado_6407" data-name="Trazado 6407" d="M77.914,339.354a.8.8,0,0,1-.571-.237l-5.708-5.707a.806.806,0,0,1,1.14-1.14l5.138,5.136,10.361-10.358a.806.806,0,1,1,1.14,1.141l-10.93,10.928a.806.806,0,0,1-.571.237" transform="translate(53.822 -56.553)" fill="#231f20"/>
    <path id="Trazado_6408" data-name="Trazado 6408" d="M86.456,151.131H102a.574.574,0,1,0,0-1.148H86.456a.574.574,0,0,0,0,1.148" transform="translate(47.903 15.71)" fill="#fff"/>
    <path id="Trazado_6409" data-name="Trazado 6409" d="M70.2,151.131h6.171a.574.574,0,0,0,0-1.148H70.2a.574.574,0,0,0,0,1.148" transform="translate(54.548 15.71)" fill="#fff"/>
    <path id="Trazado_6410" data-name="Trazado 6410" d="M60.126,151.131H63.14a.574.574,0,0,0,0-1.148H60.126a.574.574,0,1,0,0,1.148" transform="translate(58.663 15.71)" fill="#fff"/>
    <path id="Trazado_6411" data-name="Trazado 6411" d="M87.324,112.413a.575.575,0,0,1-.406-.168L73.929,99.257a.574.574,0,0,1,.812-.812l12.989,12.988a.574.574,0,0,1-.406.98" transform="translate(52.857 36.84)" fill="#fff"/>
    <path id="Trazado_6412" data-name="Trazado 6412" d="M74.335,112.413a.574.574,0,0,1-.406-.98L86.917,98.445a.574.574,0,0,1,.812.812L74.741,112.245a.576.576,0,0,1-.406.168" transform="translate(52.857 36.84)" fill="#fff"/>
    <path id="Trazado_6413" data-name="Trazado 6413" d="M465.52,359.366H449.978a.574.574,0,1,1,0-1.148H465.52a.574.574,0,1,1,0,1.148" transform="translate(-100.654 -69.388)" fill="#fff"/>
    <path id="Trazado_6418" data-name="Trazado 6418" d="M254.923,455.729h-6.791a.574.574,0,1,1,0-1.148h6.791a.574.574,0,1,1,0,1.148" transform="translate(-18.167 -108.768)" fill="#fff"/>
    <path id="Trazado_6419" data-name="Trazado 6419" d="M260.318,441.655H248.133a.574.574,0,1,1,0-1.148h12.185a.574.574,0,1,1,0,1.148" transform="translate(-18.168 -103.016)" fill="#fff"/>
    <path id="Trazado_6420" data-name="Trazado 6420" d="M9.7,349.132h6.792a.574.574,0,1,0,0-1.148H9.7a.574.574,0,1,0,0,1.148" transform="translate(79.273 -65.206)" fill="#fff"/>
    <path id="Trazado_6421" data-name="Trazado 6421" d="M.574,335.059H12.76a.574.574,0,1,0,0-1.148H.574a.574.574,0,1,0,0,1.148" transform="translate(83 -59.454)" fill="#fff"/>
    <path id="Trazado_6422" data-name="Trazado 6422" d="M347.971,436.688h29.485a.844.844,0,1,0,0-1.688H347.971a.844.844,0,1,0,0,1.688" transform="translate(-58.858 -100.766)" fill="#fff"/>
    <path id="Trazado_6423" data-name="Trazado 6423" d="M420.091,436.688h22.65a.844.844,0,1,0,0-1.688h-22.65a.844.844,0,0,0,0,1.688" transform="translate(-88.33 -100.766)" fill="#fff"/>
    <path id="Trazado_6424" data-name="Trazado 6424" d="M339.525,413.607H355.25a.844.844,0,1,0,0-1.688H339.525a.844.844,0,1,0,0,1.688" transform="translate(-55.406 -91.333)" fill="#fff"/>
    <path id="Trazado_6425" data-name="Trazado 6425" d="M443.008,91.4h29.485a.844.844,0,1,0,0-1.688H443.008a.844.844,0,1,0,0,1.688" transform="translate(-97.696 40.339)" fill="#fff"/>
    <path id="Trazado_6426" data-name="Trazado 6426" d="M135.1,27.568h29.486a.844.844,0,1,0,0-1.688H135.1a.844.844,0,1,0,0,1.688" transform="translate(28.133 66.426)" fill="#fff"/>
  </g>
</svg>
