<svg id="Grupo_8337" data-name="Grupo 8337" xmlns="http://www.w3.org/2000/svg" xmlns:xlink="http://www.w3.org/1999/xlink" width="428.11" height="619.814" viewBox="0 0 428.11 619.814">
  <defs>
    <clipPath id="clip-path">
      <rect id="Rectángulo_5222" data-name="Rectángulo 5222" width="428.11" height="619.814" fill="none"/>
    </clipPath>
  </defs>
  <path id="Trazado_5189" data-name="Trazado 5189" d="M140.5,31.2H98.974V588.612H140.5" fill="none" stroke="#76c6ff" stroke-miterlimit="10" stroke-width="4"/>
  <line id="Línea_997" data-name="Línea 997" x1="89.491" transform="translate(53.397 310.625)" fill="none" stroke="#76c6ff" stroke-miterlimit="10" stroke-width="4"/>
  <line id="Línea_998" data-name="Línea 998" x1="45.573" transform="translate(97.308 123.615)" fill="none" stroke="#76c6ff" stroke-miterlimit="10" stroke-width="4"/>
  <line id="Línea_999" data-name="Línea 999" x1="45.573" transform="translate(97.308 217.49)" fill="none" stroke="#76c6ff" stroke-miterlimit="10" stroke-width="4"/>
  <line id="Línea_1000" data-name="Línea 1000" x1="45.573" transform="translate(97.308 403.782)" fill="none" stroke="#76c6ff" stroke-miterlimit="10" stroke-width="4"/>
  <line id="Línea_1001" data-name="Línea 1001" x1="45.573" transform="translate(97.308 497.66)" fill="none" stroke="#76c6ff" stroke-miterlimit="10" stroke-width="4"/>
  <g id="Grupo_8336" data-name="Grupo 8336">
    <g id="Grupo_8335" data-name="Grupo 8335" clip-path="url(#clip-path)">
      <path id="Trazado_5190" data-name="Trazado 5190" d="M0,92.536V528.95a6,6,0,0,0,6,6H56.4a6,6,0,0,0,6-6V92.536a6,6,0,0,0-6-6H6a6,6,0,0,0-6,6" fill="#a5d130"/>
      <path id="Trazado_5191" data-name="Trazado 5191" d="M42.582,464.144v.791l-2.219,1.447a6.856,6.856,0,0,1,1.9,2.2,5.922,5.922,0,0,1,.7,2.875V472.9a6.69,6.69,0,0,1-.531,2.653,6.79,6.79,0,0,1-3.618,3.627,6.6,6.6,0,0,1-2.643.531H21.319a6.608,6.608,0,0,1-2.644-.531,6.793,6.793,0,0,1-3.617-3.627,6.69,6.69,0,0,1-.531-2.653v-1.968a6.626,6.626,0,0,1,.531-2.644,6.817,6.817,0,0,1,3.617-3.618,6.642,6.642,0,0,1,2.644-.53h1.119l.386,2.489h-1.5a4.283,4.283,0,0,0-1.727.347,4.436,4.436,0,0,0-2.344,2.345,4.283,4.283,0,0,0-.348,1.726v1.737a4.284,4.284,0,0,0,.348,1.727,4.586,4.586,0,0,0,.945,1.408,4.375,4.375,0,0,0,1.4.955,4.284,4.284,0,0,0,1.727.348H36.176a4.288,4.288,0,0,0,1.727-.348,4.525,4.525,0,0,0,2.364-2.363,4.3,4.3,0,0,0,.347-1.727v-1.737a4.3,4.3,0,0,0-.347-1.726,4.4,4.4,0,0,0-.956-1.4,4.592,4.592,0,0,0-1.408-.945,4.287,4.287,0,0,0-1.727-.347H30.407v4.418H28.034v-6.907Z"/>
      <path id="Trazado_5192" data-name="Trazado 5192" d="M39.418,446.248a5.8,5.8,0,0,1,3.1,3.1,5.687,5.687,0,0,1,.453,2.257v1.583a5.686,5.686,0,0,1-.453,2.256,5.792,5.792,0,0,1-3.1,3.1,5.672,5.672,0,0,1-2.258.454H28.246a5.671,5.671,0,0,1-2.257-.454,5.783,5.783,0,0,1-3.1-3.1,5.687,5.687,0,0,1-.454-2.256V451.6a5.688,5.688,0,0,1,.454-2.257,5.79,5.79,0,0,1,3.1-3.1,5.688,5.688,0,0,1,2.257-.453H32.9v10.824h4.4a3.372,3.372,0,0,0,1.342-.269,3.424,3.424,0,0,0,1.823-1.824,3.353,3.353,0,0,0,.27-1.34V451.6a3.354,3.354,0,0,0-.27-1.341,3.417,3.417,0,0,0-1.823-1.823,3.356,3.356,0,0,0-1.342-.271H35.983l.386-2.373h.791a5.689,5.689,0,0,1,2.258.453m-11.307,1.92a3.355,3.355,0,0,0-1.341.271,3.417,3.417,0,0,0-1.823,1.823,3.355,3.355,0,0,0-.271,1.341v1.583a3.353,3.353,0,0,0,.271,1.34,3.424,3.424,0,0,0,1.823,1.824,3.371,3.371,0,0,0,1.341.269h2.933v-8.451Z"/>
      <path id="Trazado_5193" data-name="Trazado 5193" d="M25.081,435.24a3.354,3.354,0,0,0,.27,1.341,3.415,3.415,0,0,0,1.824,1.823,3.352,3.352,0,0,0,1.34.27H42.582v2.374H22.823v-.791l2.007-1.293a5.926,5.926,0,0,1-1.746-2.037,5.632,5.632,0,0,1-.646-2.671v-1.39h2.643Z"/>
      <path id="Trazado_5194" data-name="Trazado 5194" d="M39.418,416.958a5.8,5.8,0,0,1,3.1,3.1,5.687,5.687,0,0,1,.453,2.257V423.9a5.686,5.686,0,0,1-.453,2.256,5.792,5.792,0,0,1-3.1,3.1,5.672,5.672,0,0,1-2.258.454H28.246a5.671,5.671,0,0,1-2.257-.454,5.784,5.784,0,0,1-3.1-3.1,5.687,5.687,0,0,1-.454-2.256v-1.583a5.688,5.688,0,0,1,.454-2.257,5.79,5.79,0,0,1,3.1-3.1,5.687,5.687,0,0,1,2.257-.453H32.9v10.824h4.4a3.372,3.372,0,0,0,1.342-.269,3.424,3.424,0,0,0,1.823-1.824,3.353,3.353,0,0,0,.27-1.34v-1.583a3.354,3.354,0,0,0-.27-1.341,3.417,3.417,0,0,0-1.823-1.823,3.356,3.356,0,0,0-1.342-.271H35.983l.386-2.373h.791a5.689,5.689,0,0,1,2.258.453m-11.307,1.92a3.355,3.355,0,0,0-1.341.271,3.417,3.417,0,0,0-1.823,1.823,3.355,3.355,0,0,0-.271,1.341V423.9a3.353,3.353,0,0,0,.271,1.34,3.424,3.424,0,0,0,1.823,1.824,3.37,3.37,0,0,0,1.341.269h2.933v-8.451Z"/>
      <path id="Trazado_5195" data-name="Trazado 5195" d="M42.582,400.934H28.111a3.355,3.355,0,0,0-1.341.271,3.424,3.424,0,0,0-1.824,1.823,3.354,3.354,0,0,0-.27,1.341v1.583a3.353,3.353,0,0,0,.27,1.34,3.43,3.43,0,0,0,1.824,1.824,3.37,3.37,0,0,0,1.341.269H42.582v2.374H22.824v-.791l2.007-1.293a5.923,5.923,0,0,1-1.747-2.036,5.645,5.645,0,0,1-.646-2.672v-.6a5.687,5.687,0,0,1,.453-2.257,5.8,5.8,0,0,1,3.1-3.1,5.692,5.692,0,0,1,2.258-.453H42.582Z"/>
      <path id="Trazado_5196" data-name="Trazado 5196" d="M39.418,381.068a5.8,5.8,0,0,1,3.1,3.1,5.686,5.686,0,0,1,.453,2.256v1.583a5.687,5.687,0,0,1-.453,2.257,5.793,5.793,0,0,1-3.1,3.1,5.671,5.671,0,0,1-2.257.454H28.246a5.671,5.671,0,0,1-2.257-.454,5.784,5.784,0,0,1-3.1-3.1,5.688,5.688,0,0,1-.454-2.257v-1.583a5.687,5.687,0,0,1,.454-2.256,5.79,5.79,0,0,1,3.1-3.1,5.687,5.687,0,0,1,2.257-.453h.791l.386,2.373H28.111a3.372,3.372,0,0,0-1.341.27,3.424,3.424,0,0,0-1.823,1.824,3.353,3.353,0,0,0-.27,1.34v1.583a3.354,3.354,0,0,0,.27,1.341,3.424,3.424,0,0,0,1.823,1.824,3.371,3.371,0,0,0,1.341.269H37.3a3.371,3.371,0,0,0,1.341-.269,3.424,3.424,0,0,0,1.823-1.824,3.354,3.354,0,0,0,.27-1.341v-1.583a3.353,3.353,0,0,0-.27-1.34,3.424,3.424,0,0,0-1.823-1.824,3.372,3.372,0,0,0-1.341-.27H35.984l.385-2.373h.792a5.687,5.687,0,0,1,2.257.453"/>
      <path id="Trazado_5197" data-name="Trazado 5197" d="M18.077,375.27H14.913v-2.759h3.164Zm24.505-.192H22.824V372.7H42.582Z"/>
      <path id="Trazado_5198" data-name="Trazado 5198" d="M42.582,354.76l-1.968,1.312a6.149,6.149,0,0,1,1.708,2.026,5.581,5.581,0,0,1,.646,2.663v.6a5.686,5.686,0,0,1-.453,2.256,5.793,5.793,0,0,1-3.1,3.1,5.672,5.672,0,0,1-2.258.454h-.193a5.675,5.675,0,0,1-2.257-.454,5.793,5.793,0,0,1-3.1-3.1,5.686,5.686,0,0,1-.453-2.256v-5.018H28.111a3.355,3.355,0,0,0-1.341.271,3.417,3.417,0,0,0-1.823,1.823,3.355,3.355,0,0,0-.271,1.341v1.389a3.355,3.355,0,0,0,.271,1.341,3.417,3.417,0,0,0,1.823,1.823,3.338,3.338,0,0,0,1.341.271h.714l-.386,2.373h-.193a5.7,5.7,0,0,1-2.257-.453,5.792,5.792,0,0,1-3.1-3.1,5.693,5.693,0,0,1-.454-2.258v-1.389a5.688,5.688,0,0,1,.454-2.257,5.79,5.79,0,0,1,3.1-3.1,5.687,5.687,0,0,1,2.257-.453H42.582Zm-9.57,1.582v5.018a3.384,3.384,0,0,0,1.013,2.43,3.575,3.575,0,0,0,1.1.734,3.37,3.37,0,0,0,1.341.269h.829a3.372,3.372,0,0,0,1.342-.269A3.424,3.424,0,0,0,40.46,362.7a3.353,3.353,0,0,0,.27-1.34v-1.583a3.354,3.354,0,0,0-.27-1.341,3.417,3.417,0,0,0-1.823-1.823,3.356,3.356,0,0,0-1.342-.271Z"/>
      <path id="Trazado_5199" data-name="Trazado 5199" d="M42.582,327.728l-2.006,1.312a5.972,5.972,0,0,1,1.746,2.026,5.581,5.581,0,0,1,.646,2.663v.6a5.686,5.686,0,0,1-.453,2.256,5.792,5.792,0,0,1-3.1,3.1,5.672,5.672,0,0,1-2.258.454H28.246a5.671,5.671,0,0,1-2.257-.454,5.784,5.784,0,0,1-3.1-3.1,5.687,5.687,0,0,1-.454-2.256v-.6a5.685,5.685,0,0,1,2.046-4.419H14.913v-2.373H42.582ZM28.111,329.31a3.355,3.355,0,0,0-1.341.271,3.417,3.417,0,0,0-1.823,1.823,3.355,3.355,0,0,0-.271,1.341v1.583a3.353,3.353,0,0,0,.271,1.34,3.424,3.424,0,0,0,1.823,1.824,3.371,3.371,0,0,0,1.341.269h9.184a3.372,3.372,0,0,0,1.342-.269,3.424,3.424,0,0,0,1.823-1.824,3.353,3.353,0,0,0,.27-1.34v-1.583a3.354,3.354,0,0,0-.27-1.341,3.417,3.417,0,0,0-1.823-1.823,3.356,3.356,0,0,0-1.342-.271Z"/>
      <path id="Trazado_5200" data-name="Trazado 5200" d="M39.418,309.445a5.8,5.8,0,0,1,3.1,3.1,5.687,5.687,0,0,1,.453,2.257v1.583a5.686,5.686,0,0,1-.453,2.256,5.792,5.792,0,0,1-3.1,3.1,5.672,5.672,0,0,1-2.258.454H28.246a5.671,5.671,0,0,1-2.257-.454,5.784,5.784,0,0,1-3.1-3.1,5.687,5.687,0,0,1-.454-2.256V314.8a5.688,5.688,0,0,1,.454-2.257,5.79,5.79,0,0,1,3.1-3.1,5.687,5.687,0,0,1,2.257-.453H32.9v10.824h4.4a3.372,3.372,0,0,0,1.342-.269,3.424,3.424,0,0,0,1.823-1.824,3.353,3.353,0,0,0,.27-1.34V314.8a3.354,3.354,0,0,0-.27-1.341,3.417,3.417,0,0,0-1.823-1.823,3.356,3.356,0,0,0-1.342-.271H35.983l.386-2.373h.791a5.689,5.689,0,0,1,2.258.453m-11.307,1.92a3.355,3.355,0,0,0-1.341.271,3.417,3.417,0,0,0-1.823,1.823,3.355,3.355,0,0,0-.271,1.341v1.583a3.353,3.353,0,0,0,.271,1.34,3.424,3.424,0,0,0,1.823,1.824,3.37,3.37,0,0,0,1.341.269h2.933v-8.451Z"/>
      <path id="Trazado_5201" data-name="Trazado 5201" d="M39.418,282.413a5.8,5.8,0,0,1,3.1,3.1,5.687,5.687,0,0,1,.453,2.257v.6a5.684,5.684,0,0,1-2.045,4.418h9.57v2.374H22.824v-.791l2.007-1.293a5.931,5.931,0,0,1-1.746-2.036,5.634,5.634,0,0,1-.647-2.672v-.6a5.688,5.688,0,0,1,.454-2.257,5.79,5.79,0,0,1,3.1-3.1,5.687,5.687,0,0,1,2.257-.453H37.16a5.689,5.689,0,0,1,2.258.453m-11.307,1.92a3.355,3.355,0,0,0-1.341.271,3.417,3.417,0,0,0-1.823,1.823,3.355,3.355,0,0,0-.271,1.341v1.583a3.354,3.354,0,0,0,.271,1.34,3.424,3.424,0,0,0,1.823,1.824,3.371,3.371,0,0,0,1.341.269h9.184a3.372,3.372,0,0,0,1.342-.269,3.424,3.424,0,0,0,1.823-1.824,3.353,3.353,0,0,0,.27-1.34v-1.583a3.354,3.354,0,0,0-.27-1.341,3.417,3.417,0,0,0-1.823-1.823,3.356,3.356,0,0,0-1.342-.271Z"/>
      <path id="Trazado_5202" data-name="Trazado 5202" d="M25.081,271.406a3.354,3.354,0,0,0,.27,1.341,3.415,3.415,0,0,0,1.824,1.823,3.353,3.353,0,0,0,1.34.27H42.582v2.374H22.823v-.791l2.007-1.293a5.926,5.926,0,0,1-1.746-2.037,5.632,5.632,0,0,1-.646-2.671v-1.39h2.643Z"/>
      <path id="Trazado_5203" data-name="Trazado 5203" d="M39.418,253.123a5.8,5.8,0,0,1,3.1,3.1,5.687,5.687,0,0,1,.453,2.257v1.583a5.686,5.686,0,0,1-.453,2.256,5.792,5.792,0,0,1-3.1,3.1,5.672,5.672,0,0,1-2.258.454H28.246a5.671,5.671,0,0,1-2.257-.454,5.783,5.783,0,0,1-3.1-3.1,5.687,5.687,0,0,1-.454-2.256v-1.583a5.688,5.688,0,0,1,.454-2.257,5.79,5.79,0,0,1,3.1-3.1,5.687,5.687,0,0,1,2.257-.453H37.16a5.689,5.689,0,0,1,2.258.453m-11.307,1.92a3.355,3.355,0,0,0-1.341.271,3.417,3.417,0,0,0-1.823,1.823,3.355,3.355,0,0,0-.271,1.341v1.583a3.353,3.353,0,0,0,.271,1.34,3.424,3.424,0,0,0,1.823,1.824,3.371,3.371,0,0,0,1.341.269h9.184a3.372,3.372,0,0,0,1.342-.269A3.424,3.424,0,0,0,40.46,261.4a3.353,3.353,0,0,0,.27-1.34v-1.583a3.354,3.354,0,0,0-.27-1.341,3.417,3.417,0,0,0-1.823-1.823,3.356,3.356,0,0,0-1.342-.271Z"/>
      <path id="Trazado_5204" data-name="Trazado 5204" d="M50.493,244.721v2.3L40.884,243.5l-18.06,6.406v-2.373L37.8,242.386l1.022-.077-1.022-.077L22.824,237.1v-2.373Z"/>
      <path id="Trazado_5205" data-name="Trazado 5205" d="M39.418,219.607a5.8,5.8,0,0,1,3.1,3.1,5.687,5.687,0,0,1,.453,2.257v1.583a5.686,5.686,0,0,1-.453,2.256,5.792,5.792,0,0,1-3.1,3.1,5.672,5.672,0,0,1-2.258.454H28.246a5.671,5.671,0,0,1-2.257-.454,5.783,5.783,0,0,1-3.1-3.1,5.687,5.687,0,0,1-.454-2.256v-1.583a5.688,5.688,0,0,1,.454-2.257,5.79,5.79,0,0,1,3.1-3.1,5.687,5.687,0,0,1,2.257-.453H32.9v10.824h4.4a3.372,3.372,0,0,0,1.342-.269,3.424,3.424,0,0,0,1.823-1.824,3.353,3.353,0,0,0,.27-1.34v-1.583a3.354,3.354,0,0,0-.27-1.341,3.417,3.417,0,0,0-1.823-1.823,3.356,3.356,0,0,0-1.342-.271H35.983l.386-2.373h.791a5.689,5.689,0,0,1,2.258.453m-11.307,1.92a3.355,3.355,0,0,0-1.341.271,3.417,3.417,0,0,0-1.823,1.823,3.355,3.355,0,0,0-.271,1.341v1.583a3.353,3.353,0,0,0,.271,1.34,3.424,3.424,0,0,0,1.823,1.824,3.371,3.371,0,0,0,1.341.269h2.933v-8.451Z"/>
      <path id="Trazado_5206" data-name="Trazado 5206" d="M39.418,201.663a5.8,5.8,0,0,1,3.1,3.1,5.686,5.686,0,0,1,.453,2.256V208.6a5.687,5.687,0,0,1-.453,2.257,5.792,5.792,0,0,1-3.1,3.1,5.671,5.671,0,0,1-2.257.454H28.246a5.671,5.671,0,0,1-2.257-.454,5.783,5.783,0,0,1-3.1-3.1,5.688,5.688,0,0,1-.454-2.257v-1.583a5.687,5.687,0,0,1,.454-2.256,5.79,5.79,0,0,1,3.1-3.1,5.687,5.687,0,0,1,2.257-.453h.791l.386,2.373H28.111a3.371,3.371,0,0,0-1.341.27,3.424,3.424,0,0,0-1.823,1.824,3.353,3.353,0,0,0-.27,1.34V208.6a3.354,3.354,0,0,0,.27,1.341,3.424,3.424,0,0,0,1.823,1.824,3.371,3.371,0,0,0,1.341.269H37.3a3.371,3.371,0,0,0,1.341-.269,3.424,3.424,0,0,0,1.823-1.824,3.354,3.354,0,0,0,.27-1.341v-1.583a3.353,3.353,0,0,0-.27-1.34,3.424,3.424,0,0,0-1.823-1.824,3.371,3.371,0,0,0-1.341-.27H35.984l.385-2.373h.792a5.687,5.687,0,0,1,2.257.453"/>
      <path id="Trazado_5207" data-name="Trazado 5207" d="M42.582,189.267a5.156,5.156,0,0,1-.405,2.035,5.1,5.1,0,0,1-1.119,1.66,5.444,5.444,0,0,1-1.66,1.119,4.976,4.976,0,0,1-2.026.415H25.081v3.55H22.824V194.5H18.077l-.386-2.374h5.133v-5.016h2.257v5.016H37.488a2.757,2.757,0,0,0,1.11-.221,2.875,2.875,0,0,0,.9-.608,2.841,2.841,0,0,0,.829-2.026v-2.161h2.258Z"/>
      <path id="Trazado_5208" data-name="Trazado 5208" d="M39.418,170a5.8,5.8,0,0,1,3.1,3.1,5.687,5.687,0,0,1,.453,2.257v1.583a5.686,5.686,0,0,1-.453,2.256,5.792,5.792,0,0,1-3.1,3.1,5.672,5.672,0,0,1-2.258.454H28.246a5.671,5.671,0,0,1-2.257-.454,5.784,5.784,0,0,1-3.1-3.1,5.687,5.687,0,0,1-.454-2.256v-1.583a5.688,5.688,0,0,1,.454-2.257,5.79,5.79,0,0,1,3.1-3.1,5.687,5.687,0,0,1,2.257-.453H37.16a5.689,5.689,0,0,1,2.258.453m-11.307,1.92a3.355,3.355,0,0,0-1.341.271,3.417,3.417,0,0,0-1.823,1.823,3.355,3.355,0,0,0-.271,1.341v1.583a3.354,3.354,0,0,0,.271,1.34A3.424,3.424,0,0,0,26.77,180.1a3.371,3.371,0,0,0,1.341.269h9.184a3.372,3.372,0,0,0,1.342-.269,3.424,3.424,0,0,0,1.823-1.824,3.353,3.353,0,0,0,.27-1.34v-1.583a3.354,3.354,0,0,0-.27-1.341,3.417,3.417,0,0,0-1.823-1.823,3.356,3.356,0,0,0-1.342-.271Z"/>
      <path id="Trazado_5209" data-name="Trazado 5209" d="M37.565,151.217a4.953,4.953,0,0,1,2.19.482,5.26,5.26,0,0,1,1.708,1.312,6.1,6.1,0,0,1,1.109,1.92,6.647,6.647,0,0,1,.4,2.287V158.8a5.894,5.894,0,0,1-.454,2.286A6.07,6.07,0,0,1,41.27,163a6.133,6.133,0,0,1-1.853,1.313,5.3,5.3,0,0,1-2.257.492h-.791l-.386-2.374h1.312a3.067,3.067,0,0,0,1.341-.3,3.535,3.535,0,0,0,1.09-.8,3.829,3.829,0,0,0,.733-1.157,3.545,3.545,0,0,0,.27-1.37v-1.582a4.406,4.406,0,0,0-.212-1.37,3.778,3.778,0,0,0-.608-1.167,2.962,2.962,0,0,0-.955-.811,2.662,2.662,0,0,0-1.273-.3,3.015,3.015,0,0,0-1.737.463,3.852,3.852,0,0,0-1.129,1.225A8.021,8.021,0,0,0,34.063,157q-.3.975-.6,2t-.685,2a6.437,6.437,0,0,1-1.013,1.737,4.64,4.64,0,0,1-1.573,1.224,5.312,5.312,0,0,1-2.354.464,5.106,5.106,0,0,1-2.19-.464,5.257,5.257,0,0,1-1.707-1.254,5.731,5.731,0,0,1-1.11-1.842,6.346,6.346,0,0,1-.4-2.248v-1.389a5.692,5.692,0,0,1,.453-2.258,5.8,5.8,0,0,1,3.1-3.1,5.7,5.7,0,0,1,2.257-.453h.078l.386,2.373h-.6a3.361,3.361,0,0,0-1.341.27,3.415,3.415,0,0,0-1.823,1.824,3.354,3.354,0,0,0-.27,1.341v1.389a4.169,4.169,0,0,0,.212,1.341,3.271,3.271,0,0,0,.608,1.09,2.826,2.826,0,0,0,2.229,1,2.794,2.794,0,0,0,1.668-.463,3.854,3.854,0,0,0,1.091-1.225,8.2,8.2,0,0,0,.742-1.737q.3-.974.618-1.987t.724-1.987A6.677,6.677,0,0,1,33.61,152.9,4.735,4.735,0,0,1,35.2,151.68a5.393,5.393,0,0,1,2.364-.463"/>
      <path id="Trazado_5210" data-name="Trazado 5210" d="M422.11,0H146.687a6,6,0,0,0-6,6V56.4a6,6,0,0,0,6,6H422.11a6,6,0,0,0,6-6V6a6,6,0,0,0-6-6" fill="#0b92dd"/>
      <path id="Trazado_5211" data-name="Trazado 5211" d="M238.942,39.067h-8.76l-1.814,6.444h-2.585l8.1-27.669H235.2l8.142,27.669h-2.566Zm-8.085-2.373h7.429l-3.647-12.755-.077-1.022-.078,1.022Z" fill="#fff"/>
      <rect id="Rectángulo_5218" data-name="Rectángulo 5218" width="2.373" height="27.669" transform="translate(246.891 17.843)" fill="#fff"/>
      <path id="Trazado_5212" data-name="Trazado 5212" d="M267.546,42.348a5.792,5.792,0,0,1-3.1,3.1,5.7,5.7,0,0,1-2.257.453h-1.583a5.7,5.7,0,0,1-2.257-.453,5.8,5.8,0,0,1-3.1-3.1,5.692,5.692,0,0,1-.453-2.258V31.176a5.692,5.692,0,0,1,.453-2.258,5.795,5.795,0,0,1,3.1-3.1,5.671,5.671,0,0,1,2.257-.454h1.583a5.671,5.671,0,0,1,2.257.454,5.786,5.786,0,0,1,3.1,3.1A5.692,5.692,0,0,1,268,31.176v.791l-2.373.386V31.04a3.352,3.352,0,0,0-.27-1.34,3.424,3.424,0,0,0-1.823-1.824,3.375,3.375,0,0,0-1.341-.27h-1.583a3.371,3.371,0,0,0-1.341.27,3.424,3.424,0,0,0-1.823,1.824,3.353,3.353,0,0,0-.27,1.34v9.185a3.347,3.347,0,0,0,.27,1.341,3.45,3.45,0,0,0,.733,1.091,3.491,3.491,0,0,0,1.09.733,3.354,3.354,0,0,0,1.341.27h1.583a3.358,3.358,0,0,0,1.341-.27,3.415,3.415,0,0,0,1.823-1.824,3.347,3.347,0,0,0,.27-1.341V38.913L268,39.3v.791a5.692,5.692,0,0,1-.453,2.258" fill="#fff"/>
      <path id="Trazado_5213" data-name="Trazado 5213" d="M285.153,45.511l-1.312-1.967a6.138,6.138,0,0,1-2.026,1.707,5.591,5.591,0,0,1-2.662.646h-.6a5.687,5.687,0,0,1-2.257-.453,5.8,5.8,0,0,1-3.1-3.1,5.692,5.692,0,0,1-.453-2.258V39.9a5.687,5.687,0,0,1,.453-2.257,5.8,5.8,0,0,1,3.1-3.1,5.688,5.688,0,0,1,2.257-.454h5.017V31.04a3.354,3.354,0,0,0-.27-1.341,3.415,3.415,0,0,0-1.824-1.823,3.35,3.35,0,0,0-1.34-.271h-1.39a3.355,3.355,0,0,0-1.341.271,3.417,3.417,0,0,0-1.823,1.823,3.354,3.354,0,0,0-.27,1.341v.714l-2.374-.386v-.193a5.692,5.692,0,0,1,.454-2.257,5.784,5.784,0,0,1,3.1-3.1,5.671,5.671,0,0,1,2.257-.454h1.39a5.674,5.674,0,0,1,2.257.454,5.784,5.784,0,0,1,3.1,3.1,5.691,5.691,0,0,1,.453,2.257V45.511Zm-1.582-9.57h-5.017a3.4,3.4,0,0,0-2.431,1.013,3.579,3.579,0,0,0-.733,1.1,3.362,3.362,0,0,0-.27,1.342v.829a3.347,3.347,0,0,0,.27,1.341,3.415,3.415,0,0,0,1.823,1.824,3.354,3.354,0,0,0,1.341.27h1.583a3.349,3.349,0,0,0,1.34-.27,3.412,3.412,0,0,0,1.824-1.824,3.347,3.347,0,0,0,.27-1.341Z" fill="#fff"/>
      <path id="Trazado_5214" data-name="Trazado 5214" d="M301.515,45.512V31.04a3.358,3.358,0,0,0-.27-1.341,3.424,3.424,0,0,0-1.824-1.823,3.366,3.366,0,0,0-1.34-.27H296.5a3.371,3.371,0,0,0-1.341.27,3.426,3.426,0,0,0-1.823,1.823,3.357,3.357,0,0,0-.27,1.341V45.512h-2.373V25.754h.791l1.293,2.006a5.95,5.95,0,0,1,2.035-1.746,5.641,5.641,0,0,1,2.673-.647h.6a5.675,5.675,0,0,1,2.257.455,5.786,5.786,0,0,1,3.1,3.1,5.692,5.692,0,0,1,.453,2.258V45.512Z" fill="#fff"/>
      <path id="Trazado_5215" data-name="Trazado 5215" d="M321.379,42.348a5.792,5.792,0,0,1-3.1,3.1,5.7,5.7,0,0,1-2.257.453h-1.583a5.7,5.7,0,0,1-2.257-.453,5.8,5.8,0,0,1-3.1-3.1,5.692,5.692,0,0,1-.453-2.258V31.176a5.692,5.692,0,0,1,.453-2.258,5.795,5.795,0,0,1,3.1-3.1,5.671,5.671,0,0,1,2.257-.454h1.583a5.671,5.671,0,0,1,2.257.454,5.786,5.786,0,0,1,3.1,3.1,5.692,5.692,0,0,1,.453,2.258v.791l-2.373.386V31.04a3.353,3.353,0,0,0-.27-1.34,3.424,3.424,0,0,0-1.823-1.824,3.375,3.375,0,0,0-1.341-.27h-1.583a3.371,3.371,0,0,0-1.341.27,3.423,3.423,0,0,0-1.823,1.824,3.352,3.352,0,0,0-.27,1.34v9.185a3.347,3.347,0,0,0,.27,1.341,3.45,3.45,0,0,0,.733,1.091,3.491,3.491,0,0,0,1.09.733,3.354,3.354,0,0,0,1.341.27h1.583a3.358,3.358,0,0,0,1.341-.27,3.415,3.415,0,0,0,1.823-1.824,3.347,3.347,0,0,0,.27-1.341V38.913l2.373.386v.791a5.692,5.692,0,0,1-.453,2.258" fill="#fff"/>
      <path id="Trazado_5216" data-name="Trazado 5216" d="M339.324,42.348a5.8,5.8,0,0,1-3.1,3.1,5.691,5.691,0,0,1-2.257.453h-1.583a5.687,5.687,0,0,1-2.257-.453,5.8,5.8,0,0,1-3.1-3.1,5.692,5.692,0,0,1-.453-2.258V31.176a5.692,5.692,0,0,1,.453-2.258,5.793,5.793,0,0,1,3.1-3.1,5.688,5.688,0,0,1,2.257-.454h1.583a5.692,5.692,0,0,1,2.257.454,5.784,5.784,0,0,1,3.1,3.1,5.692,5.692,0,0,1,.453,2.258v4.649H328.953v4.4a3.346,3.346,0,0,0,.27,1.34,3.44,3.44,0,0,0,.733,1.091,3.477,3.477,0,0,0,1.09.734,3.371,3.371,0,0,0,1.341.269h1.583a3.366,3.366,0,0,0,1.34-.269,3.418,3.418,0,0,0,1.824-1.825,3.346,3.346,0,0,0,.27-1.34V38.913l2.373.386v.791a5.692,5.692,0,0,1-.453,2.258M337.4,31.04a3.354,3.354,0,0,0-.27-1.341,3.415,3.415,0,0,0-1.824-1.823,3.35,3.35,0,0,0-1.34-.271h-1.583a3.355,3.355,0,0,0-1.341.271,3.417,3.417,0,0,0-1.823,1.823,3.354,3.354,0,0,0-.27,1.341v2.934H337.4Z" fill="#fff"/>
      <path id="Trazado_5217" data-name="Trazado 5217" d="M422.11,92.413H146.687a6,6,0,0,0-6,6v50.4a6,6,0,0,0,6,6H422.11a6,6,0,0,0,6-6v-50.4a6,6,0,0,0-6-6" fill="#0b92dd"/>
      <path id="Trazado_5218" data-name="Trazado 5218" d="M248.28,134.163a6.823,6.823,0,0,1-3.618,3.618,6.62,6.62,0,0,1-2.643.53h-1.968a6.694,6.694,0,0,1-2.654-.53,6.8,6.8,0,0,1-3.627-3.618,6.618,6.618,0,0,1-.531-2.644V116.662a6.624,6.624,0,0,1,.531-2.643A6.8,6.8,0,0,1,237.4,110.4a6.712,6.712,0,0,1,2.654-.53h1.968a6.637,6.637,0,0,1,2.643.53,6.823,6.823,0,0,1,3.618,3.618,6.624,6.624,0,0,1,.531,2.643v1.119l-2.489.387v-1.506a4.291,4.291,0,0,0-.348-1.727,4.448,4.448,0,0,0-2.344-2.344,4.287,4.287,0,0,0-1.727-.347h-1.737a4.287,4.287,0,0,0-1.727.347,4.612,4.612,0,0,0-1.408.946,4.388,4.388,0,0,0-.955,1.4,4.291,4.291,0,0,0-.348,1.727v14.857a4.285,4.285,0,0,0,.348,1.728,4.518,4.518,0,0,0,2.363,2.363,4.288,4.288,0,0,0,1.727.348H241.9a4.288,4.288,0,0,0,1.727-.348,4.392,4.392,0,0,0,1.4-.955,4.6,4.6,0,0,0,.945-1.408,4.286,4.286,0,0,0,.348-1.728v-1.5l2.489.4v1.1a6.618,6.618,0,0,1-.531,2.644" fill="#fff"/>
      <path id="Trazado_5219" data-name="Trazado 5219" d="M266.3,134.762a5.795,5.795,0,0,1-3.1,3.1,5.691,5.691,0,0,1-2.257.453h-1.583a5.687,5.687,0,0,1-2.257-.453,5.8,5.8,0,0,1-3.1-3.1,5.692,5.692,0,0,1-.453-2.258V123.59a5.692,5.692,0,0,1,.453-2.258,5.792,5.792,0,0,1,3.1-3.1,5.688,5.688,0,0,1,2.257-.454h1.583a5.692,5.692,0,0,1,2.257.454,5.783,5.783,0,0,1,3.1,3.1,5.692,5.692,0,0,1,.453,2.258V132.5a5.692,5.692,0,0,1-.453,2.258m-1.92-11.308a3.354,3.354,0,0,0-.27-1.341,3.415,3.415,0,0,0-1.824-1.823,3.35,3.35,0,0,0-1.34-.271h-1.583a3.355,3.355,0,0,0-1.341.271,3.418,3.418,0,0,0-1.823,1.823,3.354,3.354,0,0,0-.27,1.341v9.185a3.346,3.346,0,0,0,.27,1.34,3.44,3.44,0,0,0,.733,1.091,3.477,3.477,0,0,0,1.09.734,3.371,3.371,0,0,0,1.341.269h1.583a3.366,3.366,0,0,0,1.34-.269,3.418,3.418,0,0,0,1.824-1.825,3.346,3.346,0,0,0,.27-1.34Z" fill="#fff"/>
      <path id="Trazado_5220" data-name="Trazado 5220" d="M285.086,132.909a4.949,4.949,0,0,1-.482,2.189,5.239,5.239,0,0,1-1.312,1.708,6.13,6.13,0,0,1-1.92,1.11,6.646,6.646,0,0,1-2.287.4H277.5a5.893,5.893,0,0,1-2.286-.453,6.074,6.074,0,0,1-3.223-3.1,5.3,5.3,0,0,1-.492-2.258v-.791l2.374-.386v1.311a3.06,3.06,0,0,0,.3,1.341,3.529,3.529,0,0,0,.8,1.091,3.881,3.881,0,0,0,1.158.734,3.582,3.582,0,0,0,1.37.269h1.582a4.405,4.405,0,0,0,1.37-.212,3.794,3.794,0,0,0,1.168-.608,2.961,2.961,0,0,0,.81-.955,2.66,2.66,0,0,0,.3-1.274,3,3,0,0,0-.463-1.736,3.852,3.852,0,0,0-1.225-1.129,7.952,7.952,0,0,0-1.737-.752q-.974-.3-2-.6t-2-.684a6.453,6.453,0,0,1-1.737-1.013,4.655,4.655,0,0,1-1.225-1.573,5.34,5.34,0,0,1-.463-2.354,5.135,5.135,0,0,1,.463-2.19,5.274,5.274,0,0,1,1.255-1.707,5.713,5.713,0,0,1,1.842-1.11,6.346,6.346,0,0,1,2.248-.4h1.389a5.675,5.675,0,0,1,2.258.454,5.792,5.792,0,0,1,3.1,3.1,5.692,5.692,0,0,1,.453,2.258v.077l-2.373.386v-.6a3.354,3.354,0,0,0-.27-1.341,3.424,3.424,0,0,0-1.824-1.823,3.355,3.355,0,0,0-1.341-.271H277.7a4.169,4.169,0,0,0-1.341.213,3.281,3.281,0,0,0-1.09.608,2.834,2.834,0,0,0-1,2.228,2.8,2.8,0,0,0,.462,1.669,3.869,3.869,0,0,0,1.226,1.091,8.232,8.232,0,0,0,1.736.742q.975.3,1.988.618t1.987.724a6.691,6.691,0,0,1,1.737,1.041,4.739,4.739,0,0,1,1.225,1.592,5.4,5.4,0,0,1,.463,2.364" fill="#fff"/>
      <path id="Trazado_5221" data-name="Trazado 5221" d="M296.836,137.926a5.168,5.168,0,0,1-3.7-1.524,5.456,5.456,0,0,1-1.119-1.66,4.972,4.972,0,0,1-.415-2.026V120.425h-3.55v-2.257h3.55v-4.747l2.373-.386v5.133H299v2.257H293.98v12.407a2.758,2.758,0,0,0,.222,1.11,2.9,2.9,0,0,0,.608.9,2.852,2.852,0,0,0,.907.608,2.822,2.822,0,0,0,1.119.221H299v2.258Z" fill="#fff"/>
      <path id="Trazado_5222" data-name="Trazado 5222" d="M316.1,134.762a5.795,5.795,0,0,1-3.1,3.1,5.691,5.691,0,0,1-2.257.453h-1.583a5.687,5.687,0,0,1-2.257-.453,5.8,5.8,0,0,1-3.1-3.1,5.692,5.692,0,0,1-.453-2.258V123.59a5.692,5.692,0,0,1,.453-2.258,5.792,5.792,0,0,1,3.1-3.1,5.688,5.688,0,0,1,2.257-.454h1.583a5.692,5.692,0,0,1,2.257.454,5.783,5.783,0,0,1,3.1,3.1,5.692,5.692,0,0,1,.453,2.258V132.5a5.692,5.692,0,0,1-.453,2.258m-1.92-11.308a3.354,3.354,0,0,0-.27-1.341,3.415,3.415,0,0,0-1.824-1.823,3.35,3.35,0,0,0-1.34-.271h-1.583a3.355,3.355,0,0,0-1.341.271A3.417,3.417,0,0,0,306,122.113a3.354,3.354,0,0,0-.27,1.341v9.185a3.345,3.345,0,0,0,.27,1.34,3.439,3.439,0,0,0,.733,1.091,3.477,3.477,0,0,0,1.09.734,3.371,3.371,0,0,0,1.341.269h1.583a3.366,3.366,0,0,0,1.34-.269,3.418,3.418,0,0,0,1.824-1.825,3.346,3.346,0,0,0,.27-1.34Z" fill="#fff"/>
      <path id="Trazado_5223" data-name="Trazado 5223" d="M334.886,132.909a4.948,4.948,0,0,1-.482,2.189,5.239,5.239,0,0,1-1.312,1.708,6.13,6.13,0,0,1-1.92,1.11,6.646,6.646,0,0,1-2.287.4H327.3a5.894,5.894,0,0,1-2.286-.453,6.073,6.073,0,0,1-3.223-3.1,5.3,5.3,0,0,1-.492-2.258v-.791l2.374-.386v1.311a3.06,3.06,0,0,0,.3,1.341,3.529,3.529,0,0,0,.8,1.091,3.881,3.881,0,0,0,1.158.734,3.582,3.582,0,0,0,1.37.269h1.582a4.406,4.406,0,0,0,1.37-.212,3.8,3.8,0,0,0,1.168-.608,2.961,2.961,0,0,0,.81-.955,2.66,2.66,0,0,0,.3-1.274,3,3,0,0,0-.463-1.736,3.852,3.852,0,0,0-1.225-1.129,7.952,7.952,0,0,0-1.737-.752q-.973-.3-2-.6t-2-.684a6.453,6.453,0,0,1-1.737-1.013,4.655,4.655,0,0,1-1.225-1.573,5.34,5.34,0,0,1-.463-2.354,5.135,5.135,0,0,1,.463-2.19,5.274,5.274,0,0,1,1.255-1.707,5.713,5.713,0,0,1,1.842-1.11,6.347,6.347,0,0,1,2.248-.4h1.389a5.676,5.676,0,0,1,2.258.454,5.792,5.792,0,0,1,3.1,3.1,5.692,5.692,0,0,1,.453,2.258v.077l-2.373.386v-.6a3.354,3.354,0,0,0-.27-1.341,3.424,3.424,0,0,0-1.824-1.823,3.355,3.355,0,0,0-1.341-.271H327.5a4.169,4.169,0,0,0-1.341.213,3.281,3.281,0,0,0-1.09.608,2.834,2.834,0,0,0-1,2.228,2.8,2.8,0,0,0,.462,1.669,3.869,3.869,0,0,0,1.226,1.091,8.232,8.232,0,0,0,1.736.742q.975.3,1.988.618t1.987.724a6.691,6.691,0,0,1,1.737,1.041,4.739,4.739,0,0,1,1.225,1.592,5.4,5.4,0,0,1,.463,2.364" fill="#fff"/>
      <path id="Trazado_5224" data-name="Trazado 5224" d="M422.11,186.292H146.687a6,6,0,0,0-6,6v50.4a6,6,0,0,0,6,6H422.11a6,6,0,0,0,6-6v-50.4a6,6,0,0,0-6-6" fill="#0b92dd"/>
      <path id="Trazado_5225" data-name="Trazado 5225" d="M239.762,206.506v25.3h-2.489v-25.3h-6.6v-2.373h15.687v2.373Z" fill="#fff"/>
      <path id="Trazado_5226" data-name="Trazado 5226" d="M250.123,204.133h2.759V207.3h-2.759Zm.193,7.911h2.373V231.8h-2.373Z" fill="#fff"/>
      <path id="Trazado_5227" data-name="Trazado 5227" d="M270.971,228.638a5.8,5.8,0,0,1-3.1,3.1,5.691,5.691,0,0,1-2.257.453h-1.583a5.687,5.687,0,0,1-2.257-.453,5.8,5.8,0,0,1-3.1-3.1,5.692,5.692,0,0,1-.453-2.258v-8.914a5.692,5.692,0,0,1,.453-2.258,5.792,5.792,0,0,1,3.1-3.1,5.688,5.688,0,0,1,2.257-.454h1.583a5.692,5.692,0,0,1,2.257.454,5.784,5.784,0,0,1,3.1,3.1,5.692,5.692,0,0,1,.453,2.258v4.649H260.6v4.4a3.346,3.346,0,0,0,.27,1.34,3.439,3.439,0,0,0,.733,1.091,3.476,3.476,0,0,0,1.09.734,3.371,3.371,0,0,0,1.341.269h1.583a3.366,3.366,0,0,0,1.34-.269,3.418,3.418,0,0,0,1.824-1.825,3.346,3.346,0,0,0,.27-1.34V225.2l2.373.386v.791a5.692,5.692,0,0,1-.453,2.258m-1.92-11.308a3.354,3.354,0,0,0-.27-1.341,3.415,3.415,0,0,0-1.824-1.823,3.35,3.35,0,0,0-1.34-.271h-1.583a3.355,3.355,0,0,0-1.341.271,3.418,3.418,0,0,0-1.823,1.823,3.354,3.354,0,0,0-.27,1.341v2.934h8.451Z" fill="#fff"/>
      <path id="Trazado_5228" data-name="Trazado 5228" d="M297.029,231.8V217.33a3.358,3.358,0,0,0-.27-1.341,3.424,3.424,0,0,0-1.824-1.823,3.366,3.366,0,0,0-1.34-.27h-1.177a3.368,3.368,0,0,0-1.341.27,3.581,3.581,0,0,0-1.1.734,3.38,3.38,0,0,0-1.013,2.43V231.8H286.61V217.33a3.358,3.358,0,0,0-.27-1.341,3.4,3.4,0,0,0-.743-1.089,3.6,3.6,0,0,0-1.1-.734,3.371,3.371,0,0,0-1.341-.27h-1.177a3.371,3.371,0,0,0-1.341.27,3.426,3.426,0,0,0-1.823,1.823,3.341,3.341,0,0,0-.271,1.341V231.8h-2.373V212.044h.791l1.293,2.006a5.953,5.953,0,0,1,2.036-1.746,5.634,5.634,0,0,1,2.672-.647h.193a5.737,5.737,0,0,1,5.113,3.03,5.678,5.678,0,0,1,.907-1.235,5.886,5.886,0,0,1,1.2-.955,5.968,5.968,0,0,1,1.428-.617,5.761,5.761,0,0,1,1.6-.223h.193a5.675,5.675,0,0,1,2.257.455,5.786,5.786,0,0,1,3.1,3.1,5.692,5.692,0,0,1,.453,2.258V231.8Z" fill="#fff"/>
      <path id="Trazado_5229" data-name="Trazado 5229" d="M316.894,228.638a5.8,5.8,0,0,1-3.1,3.1,5.691,5.691,0,0,1-2.257.453h-.6a5.691,5.691,0,0,1-4.419-2.044v9.57H304.15V212.044h.791l1.293,2.006a5.928,5.928,0,0,1,2.035-1.746,5.641,5.641,0,0,1,2.673-.647h.6a5.692,5.692,0,0,1,2.257.454,5.784,5.784,0,0,1,3.1,3.1,5.692,5.692,0,0,1,.453,2.258v8.914a5.692,5.692,0,0,1-.453,2.258m-1.92-11.308a3.354,3.354,0,0,0-.27-1.341,3.415,3.415,0,0,0-1.824-1.823,3.35,3.35,0,0,0-1.34-.271h-1.583a3.355,3.355,0,0,0-1.341.271,3.418,3.418,0,0,0-1.823,1.823,3.354,3.354,0,0,0-.27,1.341v9.185a3.346,3.346,0,0,0,.27,1.34,3.439,3.439,0,0,0,.733,1.091,3.476,3.476,0,0,0,1.09.734,3.371,3.371,0,0,0,1.341.269h1.583a3.366,3.366,0,0,0,1.34-.269,3.418,3.418,0,0,0,1.824-1.825,3.346,3.346,0,0,0,.27-1.34Z" fill="#fff"/>
      <path id="Trazado_5230" data-name="Trazado 5230" d="M334.838,228.638a5.8,5.8,0,0,1-3.1,3.1,5.691,5.691,0,0,1-2.257.453H327.9a5.687,5.687,0,0,1-2.257-.453,5.8,5.8,0,0,1-3.1-3.1,5.692,5.692,0,0,1-.453-2.258v-8.914a5.692,5.692,0,0,1,.453-2.258,5.792,5.792,0,0,1,3.1-3.1,5.688,5.688,0,0,1,2.257-.454h1.583a5.692,5.692,0,0,1,2.257.454,5.784,5.784,0,0,1,3.1,3.1,5.692,5.692,0,0,1,.453,2.258v8.914a5.692,5.692,0,0,1-.453,2.258m-1.92-11.308a3.354,3.354,0,0,0-.27-1.341,3.415,3.415,0,0,0-1.824-1.823,3.35,3.35,0,0,0-1.34-.271H327.9a3.355,3.355,0,0,0-1.341.271,3.418,3.418,0,0,0-1.823,1.823,3.354,3.354,0,0,0-.27,1.341v9.185a3.346,3.346,0,0,0,.27,1.34,3.439,3.439,0,0,0,.733,1.091,3.476,3.476,0,0,0,1.09.734,3.371,3.371,0,0,0,1.341.269h1.583a3.366,3.366,0,0,0,1.34-.269,3.418,3.418,0,0,0,1.824-1.825,3.346,3.346,0,0,0,.27-1.34Z" fill="#fff"/>
      <path id="Trazado_5231" data-name="Trazado 5231" d="M422.11,280.166H146.687a6,6,0,0,0-6,6v50.4a6,6,0,0,0,6,6H422.11a6,6,0,0,0,6-6v-50.4a6,6,0,0,0-6-6" fill="#0b92dd"/>
      <path id="Trazado_5232" data-name="Trazado 5232" d="M246.63,321.917a6.823,6.823,0,0,1-3.618,3.618,6.62,6.62,0,0,1-2.643.53H238.4a6.694,6.694,0,0,1-2.654-.53,6.8,6.8,0,0,1-3.627-3.618,6.619,6.619,0,0,1-.531-2.644V304.416a6.624,6.624,0,0,1,.531-2.643,6.8,6.8,0,0,1,3.627-3.618,6.712,6.712,0,0,1,2.654-.53h1.968a6.637,6.637,0,0,1,2.643.53,6.823,6.823,0,0,1,3.618,3.618,6.624,6.624,0,0,1,.531,2.643v1.119l-2.489.387v-1.506a4.291,4.291,0,0,0-.348-1.727,4.448,4.448,0,0,0-2.344-2.344,4.287,4.287,0,0,0-1.727-.347h-1.737a4.287,4.287,0,0,0-1.727.347,4.613,4.613,0,0,0-1.408.946,4.388,4.388,0,0,0-.955,1.4,4.291,4.291,0,0,0-.348,1.727v14.857a4.286,4.286,0,0,0,.348,1.728,4.518,4.518,0,0,0,2.363,2.363,4.288,4.288,0,0,0,1.727.348h1.737a4.288,4.288,0,0,0,1.727-.348,4.392,4.392,0,0,0,1.4-.955,4.6,4.6,0,0,0,.945-1.408,4.286,4.286,0,0,0,.348-1.728v-1.5l2.489.4v1.1a6.619,6.619,0,0,1-.531,2.644" fill="#fff"/>
      <path id="Trazado_5233" data-name="Trazado 5233" d="M264.314,325.679,263,323.712a6.138,6.138,0,0,1-2.026,1.707,5.591,5.591,0,0,1-2.662.646h-.6a5.687,5.687,0,0,1-2.257-.453,5.8,5.8,0,0,1-3.1-3.1,5.693,5.693,0,0,1-.453-2.258v-.193a5.688,5.688,0,0,1,.453-2.257,5.8,5.8,0,0,1,3.1-3.1,5.688,5.688,0,0,1,2.257-.454h5.017v-3.048a3.354,3.354,0,0,0-.27-1.341,3.415,3.415,0,0,0-1.824-1.823,3.35,3.35,0,0,0-1.34-.271h-1.39a3.355,3.355,0,0,0-1.341.271,3.418,3.418,0,0,0-1.823,1.823,3.354,3.354,0,0,0-.27,1.341v.714l-2.374-.386v-.193a5.692,5.692,0,0,1,.454-2.257,5.784,5.784,0,0,1,3.1-3.1,5.671,5.671,0,0,1,2.257-.454h1.39a5.674,5.674,0,0,1,2.257.454,5.784,5.784,0,0,1,3.1,3.1,5.691,5.691,0,0,1,.453,2.257v14.336Zm-1.582-9.57h-5.017a3.4,3.4,0,0,0-2.431,1.013,3.579,3.579,0,0,0-.733,1.1,3.363,3.363,0,0,0-.27,1.342v.829a3.347,3.347,0,0,0,.27,1.341,3.415,3.415,0,0,0,1.823,1.824,3.354,3.354,0,0,0,1.341.27H259.3a3.349,3.349,0,0,0,1.34-.27,3.412,3.412,0,0,0,1.824-1.824,3.347,3.347,0,0,0,.27-1.341Z" fill="#fff"/>
      <rect id="Rectángulo_5219" data-name="Rectángulo 5219" width="2.373" height="27.669" transform="translate(270.643 298.011)" fill="#fff"/>
      <path id="Trazado_5234" data-name="Trazado 5234" d="M279.152,298.011h2.759v3.164h-2.759Zm.193,7.911h2.373V325.68h-2.373Z" fill="#fff"/>
      <path id="Trazado_5235" data-name="Trazado 5235" d="M299.663,325.68l-1.312-2.007a5.954,5.954,0,0,1-2.026,1.746,5.58,5.58,0,0,1-2.662.646h-.6a5.687,5.687,0,0,1-2.257-.453,5.8,5.8,0,0,1-3.1-3.1,5.692,5.692,0,0,1-.453-2.258v-8.914a5.692,5.692,0,0,1,.453-2.258,5.792,5.792,0,0,1,3.1-3.1,5.688,5.688,0,0,1,2.257-.454h.6a5.693,5.693,0,0,1,4.418,2.046v-9.57h2.373V325.68Zm-1.582-14.472a3.354,3.354,0,0,0-.27-1.341,3.415,3.415,0,0,0-1.824-1.823,3.35,3.35,0,0,0-1.34-.271h-1.583a3.355,3.355,0,0,0-1.341.271,3.418,3.418,0,0,0-1.823,1.823,3.354,3.354,0,0,0-.27,1.341v9.185a3.346,3.346,0,0,0,.27,1.34,3.439,3.439,0,0,0,.733,1.091,3.477,3.477,0,0,0,1.09.734,3.371,3.371,0,0,0,1.341.269h1.583a3.366,3.366,0,0,0,1.34-.269,3.418,3.418,0,0,0,1.824-1.825,3.346,3.346,0,0,0,.27-1.34Z" fill="#fff"/>
      <path id="Trazado_5236" data-name="Trazado 5236" d="M317.607,325.679l-1.312-1.967a6.138,6.138,0,0,1-2.026,1.707,5.591,5.591,0,0,1-2.662.646h-.6a5.687,5.687,0,0,1-2.257-.453,5.8,5.8,0,0,1-3.1-3.1,5.692,5.692,0,0,1-.453-2.258v-.193a5.687,5.687,0,0,1,.453-2.257,5.8,5.8,0,0,1,3.1-3.1,5.688,5.688,0,0,1,2.257-.454h5.017v-3.048a3.354,3.354,0,0,0-.27-1.341,3.415,3.415,0,0,0-1.824-1.823,3.35,3.35,0,0,0-1.34-.271H311.2a3.355,3.355,0,0,0-1.341.271,3.418,3.418,0,0,0-1.823,1.823,3.354,3.354,0,0,0-.27,1.341v.714l-2.374-.386v-.193a5.692,5.692,0,0,1,.454-2.257,5.784,5.784,0,0,1,3.1-3.1,5.671,5.671,0,0,1,2.257-.454h1.39a5.674,5.674,0,0,1,2.257.454,5.784,5.784,0,0,1,3.1,3.1,5.691,5.691,0,0,1,.453,2.257v14.336Zm-1.582-9.57h-5.017a3.4,3.4,0,0,0-2.431,1.013,3.579,3.579,0,0,0-.733,1.1,3.363,3.363,0,0,0-.27,1.342v.829a3.347,3.347,0,0,0,.27,1.341,3.415,3.415,0,0,0,1.823,1.824,3.354,3.354,0,0,0,1.341.27h1.583a3.349,3.349,0,0,0,1.34-.27,3.412,3.412,0,0,0,1.824-1.824,3.347,3.347,0,0,0,.27-1.341Z" fill="#fff"/>
      <path id="Trazado_5237" data-name="Trazado 5237" d="M335.552,325.68l-1.312-2.007a5.953,5.953,0,0,1-2.026,1.746,5.58,5.58,0,0,1-2.662.646h-.6a5.687,5.687,0,0,1-2.257-.453,5.8,5.8,0,0,1-3.1-3.1,5.692,5.692,0,0,1-.453-2.258v-8.914a5.692,5.692,0,0,1,.453-2.258,5.792,5.792,0,0,1,3.1-3.1,5.688,5.688,0,0,1,2.257-.454h.6a5.693,5.693,0,0,1,4.418,2.046v-9.57h2.373V325.68Zm-1.582-14.472a3.354,3.354,0,0,0-.27-1.341,3.415,3.415,0,0,0-1.824-1.823,3.35,3.35,0,0,0-1.34-.271h-1.583a3.355,3.355,0,0,0-1.341.271,3.418,3.418,0,0,0-1.823,1.823,3.354,3.354,0,0,0-.27,1.341v9.185a3.346,3.346,0,0,0,.27,1.34,3.439,3.439,0,0,0,.733,1.091,3.477,3.477,0,0,0,1.09.734,3.371,3.371,0,0,0,1.341.269h1.583a3.366,3.366,0,0,0,1.34-.269,3.418,3.418,0,0,0,1.824-1.825,3.346,3.346,0,0,0,.27-1.34Z" fill="#fff"/>
      <path id="Trazado_5238" data-name="Trazado 5238" d="M422.11,372.579H146.687a6,6,0,0,0-6,6v50.4a6,6,0,0,0,6,6H422.11a6,6,0,0,0,6-6v-50.4a6,6,0,0,0-6-6" fill="#0b92dd"/>
      <rect id="Rectángulo_5220" data-name="Rectángulo 5220" width="2.489" height="27.669" transform="translate(199.01 390.425)" fill="#fff"/>
      <path id="Trazado_5239" data-name="Trazado 5239" d="M217.861,418.094V403.622a3.358,3.358,0,0,0-.27-1.341,3.424,3.424,0,0,0-1.824-1.823,3.366,3.366,0,0,0-1.34-.27h-1.583a3.371,3.371,0,0,0-1.341.27,3.426,3.426,0,0,0-1.823,1.823,3.358,3.358,0,0,0-.27,1.341v14.472h-2.373V398.336h.791l1.293,2.006a5.949,5.949,0,0,1,2.035-1.746,5.641,5.641,0,0,1,2.673-.647h.6a5.675,5.675,0,0,1,2.257.455,5.786,5.786,0,0,1,3.1,3.1,5.692,5.692,0,0,1,.453,2.258v14.336Z" fill="#fff"/>
      <path id="Trazado_5240" data-name="Trazado 5240" d="M231.773,392.682a2.742,2.742,0,0,0-1.11.223,2.84,2.84,0,0,0-1.5,1.514,2.825,2.825,0,0,0-.221,1.119v2.8h4.611v2.257h-4.611v17.5h-2.374v-17.5h-3.569v-2.257h3.569v-2.682a5.156,5.156,0,0,1,.4-2.035,5.221,5.221,0,0,1,2.779-2.789,5.087,5.087,0,0,1,2.026-.4h2.18v2.257Z" fill="#fff"/>
      <path id="Trazado_5241" data-name="Trazado 5241" d="M249.072,414.93a5.8,5.8,0,0,1-3.1,3.1,5.7,5.7,0,0,1-2.258.453h-1.583a5.683,5.683,0,0,1-2.256-.453,5.795,5.795,0,0,1-3.1-3.1,5.693,5.693,0,0,1-.454-2.258v-8.914a5.693,5.693,0,0,1,.454-2.258,5.783,5.783,0,0,1,3.1-3.1,5.683,5.683,0,0,1,2.256-.454h1.583a5.7,5.7,0,0,1,2.258.454,5.792,5.792,0,0,1,3.1,3.1,5.709,5.709,0,0,1,.452,2.258v8.914a5.709,5.709,0,0,1-.452,2.258m-1.92-11.308a3.371,3.371,0,0,0-.27-1.341,3.421,3.421,0,0,0-1.825-1.823,3.347,3.347,0,0,0-1.34-.271h-1.583a3.35,3.35,0,0,0-1.34.271,3.5,3.5,0,0,0-1.091.733,3.454,3.454,0,0,0-.732,1.09,3.337,3.337,0,0,0-.27,1.341v9.185a3.329,3.329,0,0,0,.27,1.34,3.437,3.437,0,0,0,.732,1.091,3.481,3.481,0,0,0,1.091.734,3.366,3.366,0,0,0,1.34.269h1.583a3.362,3.362,0,0,0,1.34-.269,3.425,3.425,0,0,0,1.825-1.825,3.363,3.363,0,0,0,.27-1.34Z" fill="#fff"/>
      <path id="Trazado_5242" data-name="Trazado 5242" d="M260.079,400.593a3.354,3.354,0,0,0-1.341.271,3.417,3.417,0,0,0-1.823,1.823,3.338,3.338,0,0,0-.271,1.341v14.066h-2.373V398.336h.791l1.293,2.006a5.953,5.953,0,0,1,2.036-1.746,5.634,5.634,0,0,1,2.672-.647h1.389v2.644Z" fill="#fff"/>
      <path id="Trazado_5243" data-name="Trazado 5243" d="M286.475,418.094V403.622a3.357,3.357,0,0,0-.27-1.341,3.424,3.424,0,0,0-1.824-1.823,3.366,3.366,0,0,0-1.34-.27h-1.177a3.367,3.367,0,0,0-1.341.27,3.581,3.581,0,0,0-1.1.734,3.38,3.38,0,0,0-1.013,2.43v14.472h-2.354V403.622a3.358,3.358,0,0,0-.27-1.341,3.4,3.4,0,0,0-.743-1.089,3.6,3.6,0,0,0-1.1-.734,3.371,3.371,0,0,0-1.341-.27h-1.177a3.371,3.371,0,0,0-1.341.27,3.426,3.426,0,0,0-1.823,1.823,3.341,3.341,0,0,0-.271,1.341v14.472h-2.373V398.336h.791l1.293,2.006a5.953,5.953,0,0,1,2.036-1.746,5.634,5.634,0,0,1,2.672-.647h.193a5.737,5.737,0,0,1,5.113,3.03,5.678,5.678,0,0,1,.907-1.235,5.887,5.887,0,0,1,1.2-.955,5.969,5.969,0,0,1,1.428-.617,5.761,5.761,0,0,1,1.6-.223h.193a5.675,5.675,0,0,1,2.257.455,5.786,5.786,0,0,1,3.1,3.1,5.692,5.692,0,0,1,.453,2.258v14.336Z" fill="#fff"/>
      <path id="Trazado_5244" data-name="Trazado 5244" d="M306,418.093l-1.312-1.967a6.138,6.138,0,0,1-2.026,1.707,5.591,5.591,0,0,1-2.662.646h-.6a5.687,5.687,0,0,1-2.257-.453,5.8,5.8,0,0,1-3.1-3.1,5.692,5.692,0,0,1-.453-2.258v-.193a5.687,5.687,0,0,1,.453-2.257,5.8,5.8,0,0,1,3.1-3.1,5.688,5.688,0,0,1,2.257-.454h5.017v-3.048a3.354,3.354,0,0,0-.27-1.341,3.415,3.415,0,0,0-1.824-1.823,3.35,3.35,0,0,0-1.34-.271H299.6a3.355,3.355,0,0,0-1.341.271,3.418,3.418,0,0,0-1.823,1.823,3.354,3.354,0,0,0-.27,1.341v.714l-2.374-.386v-.193a5.692,5.692,0,0,1,.454-2.257,5.783,5.783,0,0,1,3.1-3.1,5.671,5.671,0,0,1,2.257-.454h1.39a5.674,5.674,0,0,1,2.257.454,5.783,5.783,0,0,1,3.1,3.1,5.691,5.691,0,0,1,.453,2.257v14.336Zm-1.582-9.57H299.4a3.4,3.4,0,0,0-2.431,1.013,3.579,3.579,0,0,0-.733,1.1,3.362,3.362,0,0,0-.27,1.342v.829a3.347,3.347,0,0,0,.27,1.341,3.415,3.415,0,0,0,1.823,1.824,3.354,3.354,0,0,0,1.341.27h1.583a3.35,3.35,0,0,0,1.34-.27,3.412,3.412,0,0,0,1.824-1.824,3.347,3.347,0,0,0,.27-1.341Z" fill="#fff"/>
      <path id="Trazado_5245" data-name="Trazado 5245" d="M324.284,414.93a5.792,5.792,0,0,1-3.1,3.1,5.705,5.705,0,0,1-2.257.453h-1.583a5.7,5.7,0,0,1-2.257-.453,5.8,5.8,0,0,1-3.1-3.1,5.692,5.692,0,0,1-.453-2.258v-8.914a5.692,5.692,0,0,1,.453-2.258,5.8,5.8,0,0,1,3.1-3.1,5.671,5.671,0,0,1,2.257-.454h1.583a5.671,5.671,0,0,1,2.257.454,5.786,5.786,0,0,1,3.1,3.1,5.692,5.692,0,0,1,.453,2.258v.791l-2.373.386v-1.313a3.353,3.353,0,0,0-.27-1.34,3.424,3.424,0,0,0-1.823-1.824,3.375,3.375,0,0,0-1.341-.27h-1.583a3.371,3.371,0,0,0-1.341.27,3.423,3.423,0,0,0-1.823,1.824,3.352,3.352,0,0,0-.27,1.34v9.185a3.347,3.347,0,0,0,.27,1.341,3.451,3.451,0,0,0,.733,1.091,3.492,3.492,0,0,0,1.09.733,3.354,3.354,0,0,0,1.341.27h1.583a3.357,3.357,0,0,0,1.341-.27,3.415,3.415,0,0,0,1.823-1.824,3.347,3.347,0,0,0,.27-1.341v-1.312l2.373.386v.791a5.692,5.692,0,0,1-.453,2.258" fill="#fff"/>
      <path id="Trazado_5246" data-name="Trazado 5246" d="M330.082,390.425h2.759v3.164h-2.759Zm.193,7.911h2.373v19.758h-2.373Z" fill="#fff"/>
      <path id="Trazado_5247" data-name="Trazado 5247" d="M350.93,414.93a5.795,5.795,0,0,1-3.1,3.1,5.685,5.685,0,0,1-2.257.454h-1.582a5.693,5.693,0,0,1-2.258-.454,5.8,5.8,0,0,1-3.1-3.1,5.692,5.692,0,0,1-.453-2.258v-8.914a5.692,5.692,0,0,1,.453-2.258,5.8,5.8,0,0,1,3.1-3.1,5.693,5.693,0,0,1,2.258-.454h1.582a5.685,5.685,0,0,1,2.257.454,5.792,5.792,0,0,1,3.1,3.1,5.675,5.675,0,0,1,.454,2.258v8.914a5.675,5.675,0,0,1-.454,2.258m-1.92-11.308a3.357,3.357,0,0,0-.27-1.341,3.441,3.441,0,0,0-.733-1.089,3.477,3.477,0,0,0-1.09-.734,3.354,3.354,0,0,0-1.341-.27h-1.582a3.354,3.354,0,0,0-1.341.27,3.465,3.465,0,0,0-1.09.734,3.425,3.425,0,0,0-.733,1.089,3.341,3.341,0,0,0-.271,1.341v9.185a3.334,3.334,0,0,0,.271,1.341,3.419,3.419,0,0,0,.733,1.09,3.465,3.465,0,0,0,1.09.734,3.37,3.37,0,0,0,1.341.269h1.582a3.37,3.37,0,0,0,1.341-.269,3.477,3.477,0,0,0,1.09-.734,3.435,3.435,0,0,0,.733-1.09,3.35,3.35,0,0,0,.27-1.341Zm-5.209-8.451h-1.775l3.145-4.746h3.955Z" fill="#fff"/>
      <path id="Trazado_5248" data-name="Trazado 5248" d="M366.955,418.094V403.622a3.358,3.358,0,0,0-.27-1.341,3.424,3.424,0,0,0-1.824-1.823,3.366,3.366,0,0,0-1.34-.27h-1.583a3.371,3.371,0,0,0-1.341.27,3.426,3.426,0,0,0-1.823,1.823,3.358,3.358,0,0,0-.27,1.341v14.472h-2.373V398.336h.791l1.293,2.006a5.95,5.95,0,0,1,2.035-1.746,5.641,5.641,0,0,1,2.673-.647h.6a5.676,5.676,0,0,1,2.257.455,5.786,5.786,0,0,1,3.1,3.1,5.692,5.692,0,0,1,.453,2.258v14.336Z" fill="#fff"/>
      <path id="Trazado_5249" data-name="Trazado 5249" d="M422.11,466.458H146.687a6,6,0,0,0-6,6v50.4a6,6,0,0,0,6,6H422.11a6,6,0,0,0,6-6v-50.4a6,6,0,0,0-6-6" fill="#0b92dd"/>
      <path id="Trazado_5250" data-name="Trazado 5250" d="M235.575,508.206a6.823,6.823,0,0,1-3.618,3.618,6.62,6.62,0,0,1-2.643.53h-1.968a6.7,6.7,0,0,1-2.654-.53,6.8,6.8,0,0,1-3.627-3.618,6.618,6.618,0,0,1-.531-2.644V490.7a6.624,6.624,0,0,1,.531-2.643,6.8,6.8,0,0,1,3.627-3.618,6.712,6.712,0,0,1,2.654-.53h1.968a6.637,6.637,0,0,1,2.643.53,6.823,6.823,0,0,1,3.618,3.618,6.624,6.624,0,0,1,.531,2.643v1.119l-2.489.387V490.7a4.291,4.291,0,0,0-.348-1.727,4.448,4.448,0,0,0-2.344-2.344,4.287,4.287,0,0,0-1.727-.347h-1.737a4.287,4.287,0,0,0-1.727.347,4.612,4.612,0,0,0-1.408.946,4.388,4.388,0,0,0-.955,1.4,4.291,4.291,0,0,0-.348,1.727v14.857a4.286,4.286,0,0,0,.348,1.728,4.518,4.518,0,0,0,2.363,2.363,4.288,4.288,0,0,0,1.727.348H229.2a4.288,4.288,0,0,0,1.727-.348,4.392,4.392,0,0,0,1.4-.955,4.6,4.6,0,0,0,.945-1.408,4.286,4.286,0,0,0,.348-1.728v-1.5l2.489.4v1.1a6.618,6.618,0,0,1-.531,2.644" fill="#fff"/>
      <path id="Trazado_5251" data-name="Trazado 5251" d="M253.6,508.8a5.795,5.795,0,0,1-3.1,3.1,5.691,5.691,0,0,1-2.257.453h-1.583a5.687,5.687,0,0,1-2.257-.453,5.8,5.8,0,0,1-3.1-3.1,5.692,5.692,0,0,1-.453-2.258v-8.914a5.692,5.692,0,0,1,.453-2.258,5.792,5.792,0,0,1,3.1-3.1,5.688,5.688,0,0,1,2.257-.454h1.583a5.692,5.692,0,0,1,2.257.454,5.783,5.783,0,0,1,3.1,3.1,5.692,5.692,0,0,1,.453,2.258v8.914a5.692,5.692,0,0,1-.453,2.258m-1.92-11.308a3.354,3.354,0,0,0-.27-1.341,3.415,3.415,0,0,0-1.824-1.823,3.35,3.35,0,0,0-1.34-.271h-1.583a3.355,3.355,0,0,0-1.341.271,3.418,3.418,0,0,0-1.823,1.823,3.354,3.354,0,0,0-.27,1.341v9.185a3.346,3.346,0,0,0,.27,1.34,3.439,3.439,0,0,0,.733,1.091,3.477,3.477,0,0,0,1.09.734,3.37,3.37,0,0,0,1.341.269h1.583a3.366,3.366,0,0,0,1.34-.269,3.418,3.418,0,0,0,1.824-1.825,3.346,3.346,0,0,0,.27-1.34Z" fill="#fff"/>
      <path id="Trazado_5252" data-name="Trazado 5252" d="M279.654,511.969V497.5a3.358,3.358,0,0,0-.27-1.341,3.424,3.424,0,0,0-1.824-1.823,3.366,3.366,0,0,0-1.34-.27h-1.177a3.367,3.367,0,0,0-1.341.27,3.581,3.581,0,0,0-1.1.734,3.38,3.38,0,0,0-1.013,2.43v14.472h-2.354V497.5a3.358,3.358,0,0,0-.27-1.341,3.4,3.4,0,0,0-.743-1.089,3.6,3.6,0,0,0-1.1-.734,3.371,3.371,0,0,0-1.341-.27H264.6a3.371,3.371,0,0,0-1.341.27,3.426,3.426,0,0,0-1.823,1.823,3.341,3.341,0,0,0-.271,1.341v14.472H258.8V492.211h.791l1.293,2.006a5.953,5.953,0,0,1,2.036-1.746,5.634,5.634,0,0,1,2.672-.647h.193a5.737,5.737,0,0,1,5.113,3.03,5.678,5.678,0,0,1,.907-1.235,5.887,5.887,0,0,1,1.2-.955,5.969,5.969,0,0,1,1.428-.617,5.761,5.761,0,0,1,1.6-.223h.193a5.675,5.675,0,0,1,2.257.455,5.786,5.786,0,0,1,3.1,3.1,5.692,5.692,0,0,1,.453,2.258v14.336Z" fill="#fff"/>
      <path id="Trazado_5253" data-name="Trazado 5253" d="M299.518,508.8a5.789,5.789,0,0,1-3.1,3.1,5.7,5.7,0,0,1-2.258.453h-.6a5.691,5.691,0,0,1-4.419-2.044v9.57h-2.372V492.211h.79l1.293,2.006a5.937,5.937,0,0,1,2.035-1.746,5.647,5.647,0,0,1,2.673-.647h.6a5.7,5.7,0,0,1,2.258.454,5.777,5.777,0,0,1,3.1,3.1,5.692,5.692,0,0,1,.453,2.258v8.914a5.692,5.692,0,0,1-.453,2.258M297.6,497.5a3.355,3.355,0,0,0-.271-1.341,3.457,3.457,0,0,0-.733-1.09,3.5,3.5,0,0,0-1.091-.733,3.35,3.35,0,0,0-1.34-.271h-1.583a3.35,3.35,0,0,0-1.34.271,3.507,3.507,0,0,0-1.091.733,3.454,3.454,0,0,0-.732,1.09,3.338,3.338,0,0,0-.271,1.341v9.185a3.33,3.33,0,0,0,.271,1.34,3.437,3.437,0,0,0,.732,1.091,3.493,3.493,0,0,0,1.091.734,3.366,3.366,0,0,0,1.34.269h1.583a3.365,3.365,0,0,0,1.34-.269,3.481,3.481,0,0,0,1.091-.734,3.439,3.439,0,0,0,.733-1.091,3.347,3.347,0,0,0,.271-1.34Z" fill="#fff"/>
      <path id="Trazado_5254" data-name="Trazado 5254" d="M310.526,494.468a3.354,3.354,0,0,0-1.341.271,3.417,3.417,0,0,0-1.823,1.823,3.338,3.338,0,0,0-.271,1.341v14.066h-2.373V492.211h.791l1.293,2.006a5.953,5.953,0,0,1,2.036-1.746,5.634,5.634,0,0,1,2.672-.647H312.9v2.644Z" fill="#fff"/>
      <path id="Trazado_5255" data-name="Trazado 5255" d="M328.47,511.968,327.158,510a6.138,6.138,0,0,1-2.026,1.707,5.591,5.591,0,0,1-2.662.646h-.6a5.687,5.687,0,0,1-2.257-.453,5.8,5.8,0,0,1-3.1-3.1,5.692,5.692,0,0,1-.453-2.258v-.193a5.687,5.687,0,0,1,.453-2.257,5.8,5.8,0,0,1,3.1-3.1,5.688,5.688,0,0,1,2.257-.454h5.017V497.5a3.354,3.354,0,0,0-.27-1.341,3.415,3.415,0,0,0-1.824-1.823,3.35,3.35,0,0,0-1.34-.271h-1.39a3.355,3.355,0,0,0-1.341.271,3.418,3.418,0,0,0-1.823,1.823,3.354,3.354,0,0,0-.27,1.341v.714l-2.374-.386v-.193a5.692,5.692,0,0,1,.454-2.257,5.784,5.784,0,0,1,3.1-3.1,5.671,5.671,0,0,1,2.257-.454h1.39a5.674,5.674,0,0,1,2.257.454,5.784,5.784,0,0,1,3.1,3.1,5.691,5.691,0,0,1,.453,2.257v14.336Zm-1.582-9.57h-5.017a3.4,3.4,0,0,0-2.431,1.013,3.579,3.579,0,0,0-.733,1.1,3.362,3.362,0,0,0-.27,1.342v.829a3.347,3.347,0,0,0,.27,1.341,3.415,3.415,0,0,0,1.823,1.824,3.354,3.354,0,0,0,1.341.27h1.583a3.349,3.349,0,0,0,1.34-.27,3.412,3.412,0,0,0,1.824-1.824,3.347,3.347,0,0,0,.27-1.341Z" fill="#fff"/>
      <path id="Trazado_5256" data-name="Trazado 5256" d="M347.592,506.952a4.948,4.948,0,0,1-.482,2.189,5.239,5.239,0,0,1-1.312,1.708,6.13,6.13,0,0,1-1.92,1.11,6.646,6.646,0,0,1-2.287.395h-1.582a5.894,5.894,0,0,1-2.286-.453,6.074,6.074,0,0,1-3.223-3.1,5.3,5.3,0,0,1-.492-2.258v-.791l2.374-.386v1.311a3.06,3.06,0,0,0,.3,1.341,3.529,3.529,0,0,0,.8,1.091,3.881,3.881,0,0,0,1.158.734,3.581,3.581,0,0,0,1.37.269h1.582a4.406,4.406,0,0,0,1.37-.212,3.794,3.794,0,0,0,1.168-.608,2.961,2.961,0,0,0,.81-.955,2.66,2.66,0,0,0,.3-1.274,3,3,0,0,0-.463-1.736,3.851,3.851,0,0,0-1.225-1.129,7.95,7.95,0,0,0-1.737-.752q-.973-.3-2-.6t-2-.684a6.452,6.452,0,0,1-1.737-1.013,4.655,4.655,0,0,1-1.225-1.573,5.34,5.34,0,0,1-.463-2.354,5.135,5.135,0,0,1,.463-2.19,5.274,5.274,0,0,1,1.255-1.707,5.713,5.713,0,0,1,1.842-1.11,6.346,6.346,0,0,1,2.248-.4h1.389a5.675,5.675,0,0,1,2.258.454,5.793,5.793,0,0,1,3.1,3.1,5.693,5.693,0,0,1,.453,2.258v.077l-2.373.386v-.6a3.354,3.354,0,0,0-.27-1.341,3.424,3.424,0,0,0-1.824-1.823,3.355,3.355,0,0,0-1.341-.271H340.2a4.169,4.169,0,0,0-1.341.213,3.281,3.281,0,0,0-1.09.608,2.834,2.834,0,0,0-1,2.228,2.8,2.8,0,0,0,.462,1.669,3.869,3.869,0,0,0,1.226,1.091,8.233,8.233,0,0,0,1.736.742q.975.3,1.988.618t1.987.724A6.691,6.691,0,0,1,345.9,503a4.739,4.739,0,0,1,1.225,1.592,5.4,5.4,0,0,1,.463,2.364" fill="#fff"/>
      <path id="Trazado_5257" data-name="Trazado 5257" d="M422.11,557.409H146.687a6,6,0,0,0-6,6v50.405a6,6,0,0,0,6,6H422.11a6,6,0,0,0,6-6V563.409a6,6,0,0,0-6-6" fill="#0b92dd"/>
      <rect id="Rectángulo_5221" data-name="Rectángulo 5221" width="2.489" height="27.669" transform="translate(202.84 575.251)" fill="#fff"/>
      <path id="Trazado_5258" data-name="Trazado 5258" d="M221.691,602.92V588.448a3.358,3.358,0,0,0-.27-1.341,3.424,3.424,0,0,0-1.824-1.823,3.366,3.366,0,0,0-1.34-.27h-1.583a3.371,3.371,0,0,0-1.341.27,3.426,3.426,0,0,0-1.823,1.823,3.358,3.358,0,0,0-.27,1.341V602.92h-2.373V583.162h.791l1.293,2.006a5.949,5.949,0,0,1,2.035-1.746,5.641,5.641,0,0,1,2.673-.647h.6a5.675,5.675,0,0,1,2.257.455,5.786,5.786,0,0,1,3.1,3.1,5.692,5.692,0,0,1,.453,2.258V602.92Z" fill="#fff"/>
      <path id="Trazado_5259" data-name="Trazado 5259" d="M236.008,602.92a5.168,5.168,0,0,1-3.695-1.524,5.456,5.456,0,0,1-1.119-1.66,4.973,4.973,0,0,1-.415-2.026V585.419h-3.55v-2.257h3.55v-4.747l2.373-.386v5.133h5.017v2.257h-5.017v12.407a2.758,2.758,0,0,0,.222,1.11,2.9,2.9,0,0,0,.608.9,2.851,2.851,0,0,0,.907.608,2.821,2.821,0,0,0,1.119.221h2.161v2.258Z" fill="#fff"/>
      <path id="Trazado_5260" data-name="Trazado 5260" d="M255.275,599.756a5.795,5.795,0,0,1-3.1,3.1,5.691,5.691,0,0,1-2.257.453h-1.583a5.687,5.687,0,0,1-2.257-.453,5.8,5.8,0,0,1-3.1-3.1,5.692,5.692,0,0,1-.453-2.258v-8.914a5.693,5.693,0,0,1,.453-2.258,5.793,5.793,0,0,1,3.1-3.1,5.688,5.688,0,0,1,2.257-.454h1.583a5.692,5.692,0,0,1,2.257.454,5.784,5.784,0,0,1,3.1,3.1,5.692,5.692,0,0,1,.453,2.258v4.649H244.9v4.4a3.346,3.346,0,0,0,.27,1.34,3.44,3.44,0,0,0,.733,1.091,3.477,3.477,0,0,0,1.09.734,3.37,3.37,0,0,0,1.341.269h1.583a3.366,3.366,0,0,0,1.34-.269,3.418,3.418,0,0,0,1.824-1.825,3.346,3.346,0,0,0,.27-1.34v-1.312l2.373.386v.791a5.692,5.692,0,0,1-.453,2.258m-1.92-11.308a3.354,3.354,0,0,0-.27-1.341,3.415,3.415,0,0,0-1.824-1.823,3.35,3.35,0,0,0-1.34-.271h-1.583a3.355,3.355,0,0,0-1.341.271,3.418,3.418,0,0,0-1.823,1.823,3.354,3.354,0,0,0-.27,1.341v2.934h8.451Z" fill="#fff"/>
      <path id="Trazado_5261" data-name="Trazado 5261" d="M273.412,607.609a5.127,5.127,0,0,1-1.244,1.717,5.718,5.718,0,0,1-1.853,1.11,6.424,6.424,0,0,1-2.257.4h-.984a6.425,6.425,0,0,1-2.258-.4,5.7,5.7,0,0,1-1.852-1.11,5.116,5.116,0,0,1-1.245-1.717,5.287,5.287,0,0,1-.453-2.2v-.077a5.217,5.217,0,0,1,.424-2.123,5.317,5.317,0,0,1,1.158-1.679,4.2,4.2,0,0,1-2.026-3.626,4.317,4.317,0,0,1,.444-1.94,3.917,3.917,0,0,1,1.215-1.457,5.942,5.942,0,0,1-1.466-1.948,5.734,5.734,0,0,1-.54-2.489v-1.486a5.692,5.692,0,0,1,.453-2.258,5.8,5.8,0,0,1,3.1-3.1,5.672,5.672,0,0,1,2.258-.454h.984a5.639,5.639,0,0,1,2.672.646,5.962,5.962,0,0,1,2.036,1.746l1.292-2.006h.791v6.908a5.691,5.691,0,0,1-.453,2.257,5.793,5.793,0,0,1-3.1,3.1,5.67,5.67,0,0,1-2.257.453h-3.435a1.874,1.874,0,0,0-.772.164,2.231,2.231,0,0,0-.646.435,1.844,1.844,0,0,0-.434.646,2.039,2.039,0,0,0-.155.782,2,2,0,0,0,.589,1.417,2,2,0,0,0,.646.435,1.966,1.966,0,0,0,.772.154h3.242a6.4,6.4,0,0,1,2.257.4,5.733,5.733,0,0,1,1.853,1.109,5.137,5.137,0,0,1,1.244,1.717,5.284,5.284,0,0,1,.454,2.2v.077a5.288,5.288,0,0,1-.454,2.2M271.7,588.448a3.385,3.385,0,0,0-1.013-2.43,3.588,3.588,0,0,0-1.1-.734,3.378,3.378,0,0,0-1.341-.27h-1.968a3.372,3.372,0,0,0-1.342.27,3.424,3.424,0,0,0-1.823,1.824,3.353,3.353,0,0,0-.27,1.34V590.2a3.355,3.355,0,0,0,.27,1.342,3.418,3.418,0,0,0,1.823,1.823,3.355,3.355,0,0,0,1.342.27h1.968a3.361,3.361,0,0,0,1.341-.27,3.567,3.567,0,0,0,1.1-.733A3.385,3.385,0,0,0,271.7,590.2Zm-.1,16.768a2.959,2.959,0,0,0-.27-1.283,2.79,2.79,0,0,0-.733-.955,3.393,3.393,0,0,0-1.091-.6,4.141,4.141,0,0,0-1.341-.213h-1.215a4.141,4.141,0,0,0-1.341.213,3.377,3.377,0,0,0-1.09.6,2.765,2.765,0,0,0-.733.955,2.945,2.945,0,0,0-.271,1.283v.309a2.839,2.839,0,0,0,1,2.228,3.273,3.273,0,0,0,1.09.609,4.168,4.168,0,0,0,1.341.211h1.215a4.169,4.169,0,0,0,1.341-.211,3.288,3.288,0,0,0,1.091-.609,2.834,2.834,0,0,0,1-2.228Z" fill="#fff"/>
      <path id="Trazado_5262" data-name="Trazado 5262" d="M284.227,585.419a3.355,3.355,0,0,0-1.341.271,3.417,3.417,0,0,0-1.823,1.823,3.338,3.338,0,0,0-.271,1.341V602.92h-2.373V583.162h.791l1.293,2.006a5.953,5.953,0,0,1,2.036-1.746,5.635,5.635,0,0,1,2.672-.647H286.6v2.644Z" fill="#fff"/>
      <path id="Trazado_5263" data-name="Trazado 5263" d="M302.171,602.92l-1.312-1.967a6.138,6.138,0,0,1-2.026,1.707,5.591,5.591,0,0,1-2.662.646h-.6a5.687,5.687,0,0,1-2.257-.453,5.8,5.8,0,0,1-3.1-3.1,5.692,5.692,0,0,1-.453-2.258V597.3a5.688,5.688,0,0,1,.453-2.257,5.8,5.8,0,0,1,3.1-3.1,5.688,5.688,0,0,1,2.257-.454h5.017v-3.048a3.355,3.355,0,0,0-.27-1.341,3.415,3.415,0,0,0-1.824-1.823,3.35,3.35,0,0,0-1.34-.271h-1.39a3.355,3.355,0,0,0-1.341.271,3.418,3.418,0,0,0-1.823,1.823,3.354,3.354,0,0,0-.27,1.341v.714l-2.374-.386v-.193a5.691,5.691,0,0,1,.454-2.257,5.784,5.784,0,0,1,3.1-3.1,5.671,5.671,0,0,1,2.257-.454h1.39a5.675,5.675,0,0,1,2.257.454,5.783,5.783,0,0,1,3.1,3.1,5.69,5.69,0,0,1,.453,2.257V602.92Zm-1.582-9.57h-5.017a3.4,3.4,0,0,0-2.431,1.013,3.58,3.58,0,0,0-.733,1.1,3.363,3.363,0,0,0-.27,1.342v.829a3.347,3.347,0,0,0,.27,1.341,3.415,3.415,0,0,0,1.823,1.824,3.353,3.353,0,0,0,1.341.27h1.583a3.348,3.348,0,0,0,1.34-.27,3.412,3.412,0,0,0,1.824-1.824,3.347,3.347,0,0,0,.27-1.341Z" fill="#fff"/>
      <path id="Trazado_5264" data-name="Trazado 5264" d="M320.453,599.756a5.793,5.793,0,0,1-3.1,3.1,5.705,5.705,0,0,1-2.257.453h-1.583a5.705,5.705,0,0,1-2.257-.453,5.8,5.8,0,0,1-3.1-3.1,5.692,5.692,0,0,1-.453-2.258v-8.914a5.692,5.692,0,0,1,.453-2.258,5.8,5.8,0,0,1,3.1-3.1,5.671,5.671,0,0,1,2.257-.454H315.1a5.671,5.671,0,0,1,2.257.454,5.786,5.786,0,0,1,3.1,3.1,5.692,5.692,0,0,1,.453,2.258v.791l-2.373.386v-1.313a3.353,3.353,0,0,0-.27-1.34,3.424,3.424,0,0,0-1.823-1.824,3.375,3.375,0,0,0-1.341-.27h-1.583a3.371,3.371,0,0,0-1.341.27,3.424,3.424,0,0,0-1.823,1.824,3.353,3.353,0,0,0-.27,1.34v9.185a3.347,3.347,0,0,0,.27,1.341,3.451,3.451,0,0,0,.733,1.091,3.491,3.491,0,0,0,1.09.733,3.353,3.353,0,0,0,1.341.27H315.1a3.357,3.357,0,0,0,1.341-.27,3.415,3.415,0,0,0,1.823-1.824,3.347,3.347,0,0,0,.27-1.341v-1.312l2.373.386v.791a5.692,5.692,0,0,1-.453,2.258" fill="#fff"/>
      <path id="Trazado_5265" data-name="Trazado 5265" d="M326.252,575.251h2.759v3.164h-2.759Zm.193,7.911h2.373V602.92h-2.373Z" fill="#fff"/>
      <path id="Trazado_5266" data-name="Trazado 5266" d="M347.1,599.756a5.8,5.8,0,0,1-3.1,3.1,5.685,5.685,0,0,1-2.257.454h-1.582a5.693,5.693,0,0,1-2.258-.454,5.8,5.8,0,0,1-3.1-3.1,5.692,5.692,0,0,1-.453-2.258v-8.914a5.692,5.692,0,0,1,.453-2.258,5.8,5.8,0,0,1,3.1-3.1,5.693,5.693,0,0,1,2.258-.454h1.582a5.684,5.684,0,0,1,2.257.454,5.793,5.793,0,0,1,3.1,3.1,5.676,5.676,0,0,1,.454,2.258V597.5a5.675,5.675,0,0,1-.454,2.258m-1.92-11.308a3.358,3.358,0,0,0-.27-1.341,3.442,3.442,0,0,0-.733-1.089,3.477,3.477,0,0,0-1.09-.734,3.354,3.354,0,0,0-1.341-.27h-1.582a3.354,3.354,0,0,0-1.341.27,3.465,3.465,0,0,0-1.09.734,3.425,3.425,0,0,0-.733,1.089,3.341,3.341,0,0,0-.271,1.341v9.185a3.334,3.334,0,0,0,.271,1.341,3.419,3.419,0,0,0,.733,1.09,3.465,3.465,0,0,0,1.09.734,3.37,3.37,0,0,0,1.341.269h1.582a3.37,3.37,0,0,0,1.341-.269,3.477,3.477,0,0,0,1.09-.734,3.435,3.435,0,0,0,.733-1.09,3.351,3.351,0,0,0,.27-1.341ZM339.971,580H338.2l3.145-4.746H345.3Z" fill="#fff"/>
      <path id="Trazado_5267" data-name="Trazado 5267" d="M363.125,602.92V588.448a3.358,3.358,0,0,0-.27-1.341,3.424,3.424,0,0,0-1.824-1.823,3.366,3.366,0,0,0-1.34-.27h-1.583a3.371,3.371,0,0,0-1.341.27,3.426,3.426,0,0,0-1.823,1.823,3.358,3.358,0,0,0-.27,1.341V602.92H352.3V583.162h.791l1.293,2.006a5.949,5.949,0,0,1,2.035-1.746,5.641,5.641,0,0,1,2.673-.647h.6a5.675,5.675,0,0,1,2.257.455,5.786,5.786,0,0,1,3.1,3.1,5.693,5.693,0,0,1,.453,2.258V602.92Z" fill="#fff"/>
    </g>
  </g>
</svg>
